<svg xmlns="http://www.w3.org/2000/svg" width="36" height="36" viewBox="0 0 36 36">
  <defs>
    <style>
      .cls-1 {
        fill: #b388ff;
      }

      .cls-2 {
        fill: #170b40;
      }
    </style>
  </defs>
  <g id="Слой_2" data-name="Слой 2">
    <g id="Слой_1-2" data-name="Слой 1">
      <path class="cls-1" d="M0,4A4,4,0,0,1,4,0H32a4,4,0,0,1,4,4V32a4,4,0,0,1-4,4H4a4,4,0,0,1-4-4Z"/>
      <path class="cls-2" d="M3,3V33H33V3Z"/>
      <path class="cls-1" d="M15.18,22H10.63l-.87,2.84H7L11.69,11H14.1l4.72,13.81H16.06Zm-3.85-2.31h3.15L12.9,14.49ZM24.15,25c-4.67.18-5.9-6.08-3.47-9.15C24.12,12,29,16.12,28,20.57H22c.1,2.4,3.31,3,4.54,1.07l1.23,1.51A4.24,4.24,0,0,1,24.15,25Zm-.29-8.42c-1.16,0-1.69,1.1-1.8,2.12h3.48C25.63,17.64,25.06,16.51,23.86,16.58Z"/>
    </g>
  </g>
</svg>
