<svg xmlns="http://www.w3.org/2000/svg" width="36" height="36" viewBox="0 0 36 36">
  <defs>
    <style>
      .cls-1 {
        fill: #ff5722;
      }

      .cls-2 {
        fill: #1c0802;
      }
    </style>
  </defs>
  <g id="Слой_2" data-name="Слой 2">
    <g id="Слой_1-2" data-name="Слой 1">
      <path class="cls-1" d="M0,4A4,4,0,0,1,4,0H32a4,4,0,0,1,4,4V32a4,4,0,0,1-4,4H4a4,4,0,0,1-4-4Z"/>
      <path class="cls-2" d="M3,3V33H33V3ZM17.69,25l-.76-2.91H13L12.25,25h-3l4.44-14.22h2.63L20.76,25Zm7.16,0H22.08V14.43h2.77Zm-.3-12.25a1.45,1.45,0,0,1-1.1.42,1.5,1.5,0,0,1-1.09-2.53,1.49,1.49,0,0,1,1.09-.41,1.51,1.51,0,0,1,1.1.41,1.56,1.56,0,0,1,0,2.11Z"/>
      <path class="cls-2" d="M13.64,19.7H16.3L15,14.63Z"/>
    </g>
  </g>
</svg>
