<svg version="1.0" xmlns="http://www.w3.org/2000/svg" viewBox="0 0 1983 1658"><path d="M976.5 1.498C965.493 4.507 41.152 321.873 36.485 324.246c-17.053 8.67-30.041 25.1-34.953 44.214-1.971 7.669-1.958 24.108.026 32.525 4.313 18.299 17.402 34.978 34.424 43.865 3.035 1.584 60.981 21.938 128.768 45.23 67.788 23.292 123.242 42.591 123.232 42.885-.009.294-54.572 19.156-121.25 41.916C100.055 597.641 41.675 618.064 37 620.267c-7.02 3.308-9.989 5.506-17.049 12.619-9.713 9.786-14.56 18.021-18.012 30.604-1.833 6.682-2.099 9.76-1.723 19.955.715 19.389 6.15 31.893 19.841 45.646 5.622 5.648 9.591 8.599 15.5 11.526 4.369 2.164 62.952 22.822 130.185 45.908 67.233 23.086 122.245 42.2 122.248 42.475.004.275-55.005 19.329-122.242 42.342C98.512 894.355 40.125 914.819 36 916.816 25.884 921.715 12.972 934.42 7.663 944.7c-10.276 19.893-10.306 44.866-.079 64.328 6.187 11.774 17.079 22.37 29.311 28.513 2.733 1.373 60.011 21.422 127.287 44.555 67.275 23.133 122.663 42.392 123.084 42.798.421.406-54.254 19.562-121.5 42.569-74.903 25.627-125.365 43.408-130.266 45.901-10.554 5.369-22.447 17.063-27.803 27.336-10.345 19.843-10.358 44.613-.034 64.6 5.266 10.196 18.185 22.922 28.337 27.914 5.474 2.692 905.098 312.938 935 322.446 6.41 2.038 22.4 2.826 30.063 1.48 6.066-1.064 927.315-316.172 940.696-321.759 17.868-7.461 31.663-22.696 37.922-41.881 3.323-10.187 3.796-27.219 1.04-37.5-4.898-18.281-17.572-34.405-33.68-42.849-3.047-1.597-60.891-21.912-128.541-45.144s-123.315-42.525-123.699-42.873c-.385-.349 54.965-19.697 123-42.996 68.034-23.299 126.193-43.674 129.24-45.278 16.153-8.501 28.852-24.673 33.655-42.86 2.748-10.401 2.29-27.412-1.009-37.5-6.127-18.738-18.753-33.042-36.187-40.996-3.85-1.757-61.225-21.784-127.5-44.505-66.275-22.721-120.84-41.602-121.255-41.959-.415-.357 54.26-19.467 121.5-42.466 67.24-22.999 125.63-43.432 129.755-45.407 10.508-5.029 24.039-18.522 29.249-29.167 5.555-11.35 7.173-18.636 7.109-32-.046-9.618-.485-12.809-2.681-19.5-5.629-17.149-17.529-31.601-32.258-39.172-4.923-2.531-54.559-20.098-131.208-46.437-67.809-23.301-122.709-42.55-122-42.776 30.832-9.843 248.353-85.383 253.283-87.96 22.482-11.749 37.446-39.26 35.105-64.54-.95-10.256-2.347-15.134-7.308-25.526-3.7-7.75-5.848-10.752-12.167-17-4.222-4.174-10.257-9.11-13.413-10.969-3.943-2.323-151.554-53.535-471.782-163.68-256.324-88.164-468.29-160.781-471.035-161.369-6.873-1.474-24.336-1.228-30.394.427m30.487 25.467c24.469 7.821 923.723 317.754 927.77 319.762 5.957 2.954 14.992 11.9 18.026 17.848 6.495 12.732 6.777 25.502.838 38.007-4.072 8.575-10.992 16.056-18.24 19.718-3.63 1.834-223.566 77.777-309.766 106.961-5.695 1.928-8.388 3.278-7.5 3.76.762.413 70.46 24.471 154.885 53.463s156.316 53.996 159.759 55.565c17.085 7.79 27.651 27.251 24.568 45.251-2.297 13.413-11.765 26.307-23.347 31.798-3.014 1.429-75.58 26.594-161.258 55.922-85.678 29.328-155.428 53.622-155 53.987.428.365 71.203 24.85 157.278 54.411 86.075 29.562 158.678 54.929 161.339 56.372 6.19 3.357 14.3 12.209 17.424 19.017 9.189 20.022 1.855 43.817-16.903 54.844-3.354 1.971-64.211 23.301-162.578 56.981-86.471 29.607-156.896 54.122-156.5 54.477.395.355 71.143 24.825 157.218 54.377 96.619 33.172 158.551 54.933 161.86 56.872 18.748 10.99 26.092 34.813 16.903 54.835-3.123 6.805-11.231 15.657-17.424 19.021-2.661 1.446-214.539 74.534-470.839 162.417-455.677 156.248-466.188 159.796-474.5 160.149-8.184.347-9.152.139-26-5.582-104.554-35.501-912.836-313.986-916.811-315.878-11.398-5.423-20.825-18.461-23.191-32.07-2.942-16.927 7.092-36.32 22.819-44.101 3.126-1.546 75.786-26.812 161.468-56.145 85.681-29.334 155.431-53.672 155-54.083-.432-.412-70.819-24.828-156.415-54.258-85.597-29.429-157.906-54.661-160.688-56.071-15.177-7.69-25.069-27.241-22.184-43.842 2.191-12.601 10.609-25.004 21.005-30.947 2.473-1.414 75.26-26.802 161.747-56.417 86.488-29.616 157.244-54.081 157.238-54.367-.007-.285-70.094-24.59-155.75-54.01-85.656-29.42-158.259-54.735-161.339-56.254-6.994-3.449-16.177-12.917-19.373-19.974-8.802-19.434-2.242-42.257 15.426-53.669 4.379-2.829 39.793-15.322 163.307-57.612 86.744-29.7 157.722-54.237 157.729-54.526.007-.29-70.525-24.771-156.738-54.403-86.212-29.632-158.53-54.764-160.705-55.849-6.322-3.152-14.964-12.099-18.369-19.016-3.894-7.91-5.461-17.308-4.19-25.121 2.056-12.632 10.688-25.368 20.995-30.978 5.566-3.03 935.789-322.194 941.157-322.916 5.077-.683 13.683.303 19.849 2.274" fill="#000000FF" stroke="#000000FF"/><path d="M596.224 248.764c-217.401 74.572-394.926 135.895-394.5 136.274C202.675 385.884 988.11 656 989.619 656c.799 0 782.05-267.446 790.381-270.572 1.333-.5 1.333-.656 0-1.403-1.995-1.119-786.863-271.051-787.784-270.935-.394.049-178.59 61.103-395.992 135.674m769.124 18.808c238.426 81.986 339.296 117.094 338 117.641-1.017.429-162.015 55.662-357.776 122.741L989.645 629.916 634.572 507.831C439.283 440.685 279.16 385.442 278.745 385.069c-.415-.373 160.01-55.808 356.5-123.19L992.5 139.368l16.5 5.671c9.075 3.119 169.431 58.259 356.348 122.533" fill="#000000FF" stroke="#000000FF"/><path d="M1401 606.157a728526.319 728526.319 0 0 1-242 83.116L998.5 744.37l-9-.012-9-.012L743 662.51c-130.625-45.01-239.149-82.296-241.164-82.857-3.425-.954-13.346 2.298-152.223 49.891-81.707 28.001-148.233 51.217-147.836 51.593C202.803 682.104 987.831 952 989.62 952c1.937 0 789.628-269.936 790.713-270.972.459-.437-3.816-2.371-9.5-4.297-5.683-1.927-72.583-24.929-148.667-51.117s-138.634-47.583-139-47.546c-.366.038-37.341 12.677-82.166 28.089m206.776 40.927c88.553 30.42 97.027 33.518 94.5 34.553-1.527.626-162.495 55.876-357.708 122.779L989.636 926.057 634.568 803.946c-195.287-67.162-355.382-122.412-355.765-122.779-.384-.367 48.931-17.682 109.588-38.478l110.285-37.811 236.973 81.497c189.715 65.245 238.668 81.734 245.467 82.685 12.417 1.737 20.962.268 44.019-7.566 10.651-3.619 118.14-40.466 238.865-81.882l219.5-75.301 13.5 4.679c7.425 2.573 57.274 19.716 110.776 38.094" fill="#000000FF" stroke="#000000FF"/><path d="m1241 957.25-241.5 83.035-9.5.105-9.5.104-240.265-82.747c-132.145-45.511-240.82-82.749-241.5-82.751-1.75-.006-297.702 101.397-297.706 102.004-.005.675 784.429 270.414 787.579 270.821 2.442.315 792.354-269.745 792.379-270.904.012-.55-297.099-103.038-298.043-102.809-.244.059-109.119 37.473-241.944 83.142m-515.923 21.635c124.533 42.837 231.237 79.529 237.122 81.538 14.29 4.879 25.349 6.332 36.225 4.76 6.409-.927 62.315-19.727 246.184-82.789 228.042-78.211 238.058-81.546 241.892-80.55 10.632 2.763 218.804 75.073 217.5 75.551-.825.302-161.895 55.505-357.934 122.674l-356.434 122.125-355.847-122.347c-229.424-78.881-355.383-122.65-354.543-123.199 1.058-.691 216.883-75.197 218.835-75.545.318-.057 102.468 34.945 227 77.782" fill="#000000FF" stroke="#000000FF"/><path d="m1241.5 1253.326-242 83.091-10-.012-10-.012-239.98-82.697C607.531 1208.213 499.181 1171 498.742 1171c-1.342 0-296.192 101.148-296.97 101.875-.708.662 785.215 271.458 787.842 271.458 1.869 0 791.386-270.67 791.386-271.31 0-.425-141.022-49.183-274.5-94.909l-23-7.879-242 83.091m-504.932 25.658c129.287 44.466 237.707 81.335 240.933 81.932 7.937 1.467 17.655 1.337 25.499-.341 3.575-.765 110.45-37.042 237.5-80.615 127.05-43.573 233.744-80.134 237.099-81.247l6.098-2.022 110.152 37.893c60.583 20.842 110.15 38.124 110.149 38.405-.001.281-160.762 55.608-357.248 122.949l-357.246 122.439-10.002-3.506c-5.501-1.928-165.573-57.004-355.715-122.392-190.142-65.387-345.475-119.132-345.185-119.433 1.309-1.353 220.065-75.873 221.398-75.42.825.281 107.281 36.892 236.568 81.358" fill="#000000FF" stroke="#000000FF"/></svg>