<svg version="1.0" xmlns="http://www.w3.org/2000/svg" viewBox="0 0 464 512"><path d="M217.585 307.036c-16.481 2.6-34.123 9.841-46.744 19.187-9.293 6.88-20.418 18.773-26.408 28.228l-4.644 7.331-8.644.038c-23.838.104-34.096 8.047-36.199 28.031-1.174 11.151-1.176 52.783-.003 60.891 1.881 13.003 9.646 23.831 20.861 29.088 4.991 2.34 6.942 2.67 15.767 2.67 9.246 0 10.541-.246 15.815-3l5.745-3 6.925 6.706c15.353 14.869 33.855 24.19 55.308 27.864 10.145 1.737 33.121.644 43.033-2.048 16.739-4.545 34.203-14.643 45.779-26.469l6.122-6.254 6.012 3.1c5.556 2.866 6.778 3.101 16.101 3.101 8.844 0 10.792-.329 15.785-2.67 11.215-5.257 18.98-16.085 20.861-29.088 1.173-8.108 1.171-49.74-.003-60.891-2.114-20.091-12.38-27.962-36.554-28.027l-9-.025-4.33-7.203c-10.822-18.005-29.736-33.638-50.337-41.603-13.96-5.397-37.471-8.13-51.248-5.957m-20.236 137.889c18.243 18.442 48.925 18.678 68.531.526l5.887-5.451H296v6.962c0 4.605.705 8.847 2.081 12.526l2.082 5.563-3.251 3.724c-18.026 20.657-48.536 32.014-75.912 28.258-17.949-2.462-35.363-10.469-48.442-22.273-8.864-8-9.13-8.616-6.615-15.338 1.353-3.614 2.057-7.881 2.057-12.46V440l12.25.012 12.25.011 4.849 4.902m42.94-69.438c12.508 3.258 21.533 12.212 25.272 25.075 4.512 15.521-3.814 32.964-19.399 40.641-3.871 1.908-6.273 2.297-14.162 2.297-8.145 0-10.284-.37-15-2.594-7.014-3.309-13.597-9.892-16.906-16.906-2.224-4.716-2.594-6.855-2.594-15 0-11.266 2.114-16.584 9.598-24.146 9.335-9.431 20.667-12.629 33.191-9.367m106.768 3.119c1.778 1.042 4.181 3.164 5.338 4.715 2.02 2.707 2.117 4.107 2.409 34.465.264 27.498.087 32.21-1.348 35.968-3.954 10.353-14.12 16.492-24.426 14.751-5.01-.846-12.662-5.893-14.591-9.622l-1.49-2.883h7.697c9.212 0 11.354-1.339 11.354-7.098 0-5.627-2.443-6.902-13.223-6.902H310v-10h8.066c10.855 0 13.903-1.645 13.903-7.5s-3.048-7.5-13.903-7.5H310v-11h9.171c10.673 0 12.829-1.147 12.829-6.826 0-6.043-1.974-7.174-12.521-7.174h-9.21l.741-4.053c1.577-8.627 8.778-12.154 23.651-11.585 6.702.256 10.029.858 12.396 2.244m-206.005-1.501c6.756 1.448 10.9 5.163 11.907 10.673l.772 4.222h-9.037c-10.527 0-12.694 1.165-12.694 6.826 0 6.062 1.962 7.174 12.655 7.174H154v11h-8.066c-10.855 0-13.903 1.645-13.903 7.5s3.048 7.5 13.903 7.5H154v10h-8.777c-10.678 0-13.223 1.295-13.223 6.728 0 5.932 2.06 7.272 11.181 7.272h7.87l-1.49 2.883c-1.929 3.729-9.581 8.776-14.591 9.622-10.306 1.741-20.472-4.398-24.426-14.751-1.435-3.756-1.612-8.46-1.348-35.835.331-34.334.38-34.629 6.343-38.536 5.037-3.301 16.128-4.291 25.513-2.278m117.593-51.991c17.775 5.481 34.547 17.846 45.294 33.392 5.277 7.633 5.283 7.65 3.134 9.155-5.901 4.134-9.628 10.501-10.648 18.194l-.683 5.145h-17.715l-1.377-3.25c-3.527-8.328-15.072-19.873-23.4-23.4l-3.25-1.377v-19.986c0-11.089.398-19.987.895-19.987.492 0 3.979.951 7.75 2.114M214 342.829v19.829l-5.25 2.421c-6.709 3.094-17.468 13.792-20.75 20.632l-2.5 5.211-8.621.039-8.621.039-.683-5.145c-1.022-7.703-4.746-14.06-10.667-18.207l-2.172-1.521 2.737-4.672c1.506-2.569 5.951-8.054 9.878-12.188 10.936-11.513 21.982-18.698 36.649-23.84 10.869-3.81 10-5.322 10 17.402M296 416v10h-8.617c-8.453 0-8.604-.043-7.993-2.25 1.204-4.35 2.62-15.925 2.059-16.832-.325-.526 2.66-.918 6.992-.918H296v10m-113.984-5.75c.008 2.338.624 6.838 1.368 10l1.353 5.75H168v-20h14l.016 4.25m52.981-70-.003 19.25-3.497.075-3.497.075V321h7l-.003 19.25M221.5.525c-.55.202-2.906.857-5.236 1.456-2.414.62-5.639 2.502-7.5 4.376-2.952 2.974-4.14 3.402-12.423 4.472-26.906 3.476-49.465 15.102-60.232 31.039-4.454 6.595-8.468 16.246-10.625 25.547-1.767 7.615-3.428 26.916-3.461 40.2-.02 7.729.292 9.516 2.05 11.75l2.072 2.635h105.773c104.249 0 105.798-.029 107.569-1.986 1.65-1.823 1.749-3.682 1.208-22.75-.642-22.648-1.953-30.987-6.77-43.076-8.447-21.196-26.218-34.66-54.298-41.138-4.47-1.032-11.148-2.19-14.839-2.575-5.762-.601-7.195-1.169-10.122-4.01-4.627-4.494-11.825-6.484-23.098-6.386-4.987.043-9.518.244-10.068.446m45.018 24.804c21.306 3.975 32.065 8.543 41.993 17.83 7.175 6.712 12.325 15.774 14.971 26.341 1.451 5.798 3.47 25.536 3.502 34.25L327 108H136.706l.57-14.25c.697-17.426 2.612-26.938 7.399-36.75 8.51-17.442 26.852-28.21 54.325-31.893l11.5-1.539c7.186-.957 48.389.338 56.018 1.761M118.684 143.262c-7.736 7.295-8.745 27.498-2.122 42.474 3.115 7.043 8.138 13.218 14.918 18.337 4.879 3.683 5.32 4.365 5.954 9.202 1.115 8.498 3.649 17.632 7.58 27.322 11.238 27.698 33.917 49.104 61.986 58.505 7.943 2.66 11.467 3.259 21.5 3.651 14.428.565 25.045-1.569 37.996-7.638 32.023-15.006 53.313-43.92 59.454-80.742 1.174-7.036 1.253-7.168 6.224-10.389 6.005-3.891 12.865-12.851 15.894-20.759 3.024-7.894 3.807-23.703 1.558-31.439-2.315-7.963-6.837-11.786-13.942-11.786-4.289 0-6.294.655-10.986 3.59-5.378 3.364-8.698 7.458-8.698 10.725 0 .779.933 2.601 2.073 4.05 2.843 3.615 7.065 3.486 11.927-.365 2.083-1.65 4.234-3 4.78-3 3.199 0 1.883 18.82-1.824 26.086-2.533 4.966-7.945 10.358-12.968 12.92-4.953 2.527-6.657 5.145-7.48 11.494-2.024 15.61-7.157 31.222-13.933 42.376-8.078 13.299-24.114 27.46-38.227 33.757-15.945 7.114-32.109 8.65-45.848 4.355-25.661-8.02-46.059-26.76-56.197-51.626-3.255-7.985-7.256-24.217-7.287-29.565-.027-4.649-2.15-7.682-7.483-10.692-6.15-3.47-11.082-8.836-13.84-15.054-3.072-6.929-3.65-24.051-.811-24.051.463 0 2.542 1.35 4.618 3 4.412 3.506 8.627 3.873 11.5 1 3.387-3.387 2.62-7.719-2.171-12.277-5.196-4.943-9.359-6.723-15.726-6.723-4.227 0-5.472.483-8.419 3.262M92.5 131.114c-52.468 6.974-85.441 38.039-91.478 86.184C.371 222.488 0 274.698 0 361.035c0 135.069.008 135.596 2.039 137.776 2.471 2.653 6.947 2.853 9.829.439l2.09-1.75.357-138.5c.35-135.643.4-138.675 2.411-147 2.678-11.085 5.311-18.324 9.106-25.044 12.892-22.824 37.175-37.522 68.215-41.289C106.052 144.21 109 142.69 109 137.956c0-3.659-2.824-6.857-6.5-7.361-1.65-.226-6.15.008-10 .519m266.815-.096c-4.71 1.874-5.787 8.679-1.861 11.767 1.702 1.339 4.843 2.137 10.25 2.605 15.822 1.368 34.151 7.424 45.728 15.109 17.873 11.863 28.554 28.111 33.856 51.501 2.139 9.44 2.155 10.373 2.451 147.5l.299 138 2.092 1.75c2.885 2.414 7.36 2.214 9.831-.439 2.031-2.18 2.039-2.707 2.039-137.776 0-87.413-.368-138.598-1.036-144.061-1.481-12.111-4.403-22.142-9.46-32.474-10.607-21.669-27.959-36.939-52.413-46.125-13.517-5.077-37.076-9.226-41.776-7.357" fill="#000000FF" stroke="#000000FF"/><path d="M124 256.289c-17.719 8.919-28.764 16.697-42.88 30.197-19.223 18.382-33.358 41.524-39.733 65.049C39.659 357.912 39.5 362.591 39.5 407c0 43.169.193 49.214 1.76 55 4.165 15.378 13.522 28.621 25.007 35.391 7.27 4.285 18.992 7.457 28.886 7.817 9.066.329 11.847-1.282 11.847-6.863 0-5.235-2.504-6.934-11.412-7.741-22.614-2.049-35.05-12.333-40.031-33.104-1.472-6.141-1.64-12.703-1.367-53.5l.31-46.5 2.823-7.987c6.95-19.668 16.433-34.344 32.644-50.522 13.248-13.22 24.968-21.617 42.024-30.108 6.484-3.228 12.064-6.584 12.399-7.458 1.167-3.039.599-7.125-1.219-8.77-3.195-2.892-8.025-1.976-19.171 3.634m194.557-3.066c-1.628 2.323-1.989 5.489-.937 8.228.34.888 5.628 4.036 11.75 6.996 40.603 19.633 69.834 53.621 78.111 90.823 1.476 6.636 1.635 12.941 1.279 50.902-.358 38.183-.619 43.981-2.195 48.828-6.767 20.814-17.754 29.489-39.996 31.579-5.068.476-7.706 1.245-9.319 2.717-2.742 2.502-2.912 6.665-.398 9.769 1.679 2.074 2.597 2.268 9.872 2.089 25.72-.633 44.833-14.56 53.048-38.654l2.728-8v-103l-3.692-10.66c-4.436-12.807-9.251-22.595-16.403-33.34-14.749-22.16-39.479-43.36-64.905-55.641-11.429-5.521-16.435-6.217-18.943-2.636" fill="#000000FF" stroke="#000000FF"/><path d="M135.4 273.765c-3.258 2.176-3.466 4.935-1.973 26.188.811 11.547 1.96 21.901 2.553 23.009 1.255 2.346 4.986 3.514 8.447 2.646 1.335-.335 9.885-4.18 19-8.543 13.707-6.562 16.754-8.41 17.618-10.684 2.059-5.416-2.304-10.43-8.287-9.522-.958.145-6.503 2.493-12.322 5.217-5.819 2.724-10.936 4.733-11.372 4.464-.435-.269-1.12-6.684-1.521-14.255-.901-17.008-1.84-19.254-8.043-19.254-1.65 0-3.495.33-4.1.734m183.149 1.521c-.99 1.51-1.867 7.184-2.585 16.727-.597 7.944-1.281 14.637-1.518 14.875-.238.237-5.48-1.965-11.649-4.895-12.019-5.707-15.61-6.377-18.784-3.505-2.68 2.426-2.685 7.956-.008 10.248 3.143 2.691 34.918 17.264 37.642 17.264 1.344 0 3.474-1.03 4.734-2.29 2.469-2.469 2.83-5.331 4.281-33.961.58-11.448.461-12.955-1.163-14.75-2.633-2.909-8.965-2.744-10.95.287M209.558 78.492C201.999 81.185 196 87.67 196 93.148V96h36c40.467 0 37.907.571 33.963-7.576-2.112-4.362-6.948-8.218-12.862-10.254-5.041-1.735-38.462-1.488-43.543.322m27.847 86.61c-1.696 1.872-1.939 4.065-2.218 20L234.874 203h-8.782c-7.238 0-9.073.322-10.437 1.829-2.277 2.516-2.1 7.726.345 10.171 1.809 1.809 3.333 2 15.927 2 19.158 0 18.073 1.621 18.073-27 0-20.47-.12-21.883-2.073-24.365-2.63-3.344-7.74-3.603-10.522-.533" fill="#000000FF" stroke="#000000FF"/></svg>