<svg version="1.0" xmlns="http://www.w3.org/2000/svg" viewBox="0 0 436 512"><path d="M176.5 1.337c-8.76 2.877-16.191 8.577-21.017 16.122C152.002 22.901 149 31.54 149 36.116v2.753l-23.75.316-23.75.315-6.5 3.128c-6.822 3.283-13.968 9.476-16.432 14.24l-1.458 2.819-15.805.611c-17.075.66-22.69 1.85-32.793 6.949-7.603 3.837-18.052 14.322-22.258 22.334C-.421 102.299 0 89.05 0 286.5c0 197.535-.422 184.295 6.281 196.88 6.493 12.19 17.828 21.617 31.661 26.333l6.558 2.235 143.04.026c157.643.029 148.247.392 160.879-6.219 8.781-4.597 18.601-14.85 22.904-23.917 4.625-9.744 5.677-15.448 5.677-30.78 0-10.79-.253-12.941-1.582-13.451-3.063-1.175-27.955-.67-29.218.593-.787.787-1.203 5.001-1.21 12.25-.008 9.516-.337 11.744-2.367 16.05-2.81 5.958-5.575 8.674-11.623 11.416-4.46 2.022-5.733 2.04-142.5 2.04s-138.04-.018-142.5-2.04c-6.048-2.742-8.813-5.458-11.623-11.416l-2.357-5 .012-175c.012-173.798.026-175.031 2.045-179.482 2.481-5.47 4.245-7.509 9.423-10.888 3.754-2.45 4.862-2.63 18-2.919l14-.309 1.777 3.933c2.482 5.495 10.572 13.259 17.435 16.734l5.788 2.931h176l5.766-2.92c6.344-3.213 14.729-11.405 17.394-16.994L301.37 93l12.565.01c11.108.008 13.145.283 17.565 2.367 5.958 2.81 8.674 5.575 11.416 11.623 1.98 4.368 2.041 6.268 2.062 64.628.018 50.017.255 60.321 1.408 61.278.94.78 6.011 1.061 15.75.872l14.364-.278.294-61.5c.202-42.369-.055-63.366-.827-67.5-2.596-13.894-13.076-28.723-25.467-36.033-9.929-5.858-16.928-7.503-34.805-8.18-15.793-.599-15.806-.602-17.163-3.225-2.226-4.304-11.196-12.014-17.314-14.882-5.621-2.634-6.121-2.685-29.361-2.994l-23.643-.315-.662-5.297c-1.514-12.12-10.575-24.503-22.031-30.108-5.11-2.5-7.306-2.95-15.488-3.178-5.889-.163-11.062.238-13.533 1.049m21.081 26.726c8.114 7.58 6.613 19.244-3.081 23.937-5.172 2.503-6.857 2.501-11.934-.015-5.144-2.548-7.709-6.078-8.314-11.438-.568-5.043 1.293-9.145 5.914-13.033 2.889-2.431 3.863-2.68 9.022-2.307 4.378.317 6.419 1.012 8.393 2.856" fill="#000000FF" stroke="#000000FF"/><path d="M286.493 264.351c-5.923 2.758-10.611 7.769-12.907 13.794-1.486 3.901-1.629 10.091-1.372 59.355.259 49.806.449 55.297 2.007 58.144 2.39 4.367 7.25 9.027 12.145 11.645 4.095 2.19 4.63 2.214 57.011 2.495 45.866.246 53.6.074 58.327-1.3 7.347-2.136 13.571-7.931 16.272-15.149 1.943-5.193 2.036-7.29 1.787-40.157L419.5 318.5l-2.169-.309c-1.739-.248-4.526 2.629-14.049 14.5C386.495 353.618 388 350.414 388 365.223V378h-85v-85h52.867l10.539-13.25c6.21-7.807 10.551-14.174 10.567-15.5L377 262l-42.75.01c-42.669.01-42.759.014-47.757 2.341M74.4 206.4c-2.884 2.884-3.4 4.1-3.4 8.015 0 3.86.56 5.225 3.423 8.35l3.423 3.735 106.327.299c58.48.164 108.325.011 110.767-.34 8.96-1.289 13.572-9.701 9.566-17.448-3.333-6.444 5.051-6.011-116.329-6.011H77.8l-3.4 3.4m2.493-44.903c-7.697 4.184-7.893 16.489-.327 20.538 3.901 2.088 219.721 2.22 223.613.137 7.94-4.25 7.491-17.323-.713-20.751-5.079-2.122-218.663-2.049-222.573.076" fill="#000000FF" stroke="#000000FF"/><path d="M418.5 245.668c-1.1.296-2.842 1.28-3.871 2.185-1.028.906-16.476 19.985-34.329 42.397-17.852 22.413-32.828 40.75-33.279 40.75-.451 0-3.881-4.111-7.622-9.135-7.055-9.477-10.36-11.865-16.417-11.865-7.946 0-13.92 7.87-12.105 15.947 1.135 5.05 25.032 37.438 29.224 39.605 3.44 1.779 8.888 1.865 12.551.198 3.321-1.512 81.99-99.476 82.948-103.292 2.111-8.41-2.945-16.422-10.728-17.002-2.405-.179-5.272-.083-6.372.212M80 386.652c-6.246 2.058-9 5.698-9 11.894 0 4.345 2.867 8.742 6.748 10.35 2.027.839 16.503 1.083 52.461.882l49.661-.278 2.972-2.848c3.924-3.76 4.818-8.642 2.464-13.458-3.562-7.287-2.875-7.201-56.306-7.113-26.125.042-48.175.299-49 .571" fill="#000000FF" stroke="#000000FF"/></svg>