<svg version="1.0" xmlns="http://www.w3.org/2000/svg" viewBox="0 0 438 512"><path d="M77.284 159.969c-15.344 9.355-23.663 54.27-18.204 98.282 4.113 33.166 18.92 74.634 37.753 105.732l5.138 8.483-12.926 2.671C31.66 386.994 0 405.942 0 428.427c0 10.375 5.081 19.441 16.492 29.428 28.583 25.015 84.465 43.88 155.008 52.328 14.987 1.794 80.013 1.794 95 0 70.543-8.448 126.425-27.313 155.008-52.328C432.919 447.868 438 438.802 438 428.427c0-15.39-14.488-29.037-42.423-39.96-12.323-4.819-30.911-10.212-45.267-13.134l-8.81-1.793 7.028-.649c22.26-2.053 45.756-14.201 60.296-31.175 13.93-16.262 21.518-37.549 21.47-60.236-.03-14.657-4.467-26.034-13.11-33.624-5.221-4.583-16.376-9.435-26.471-11.513L382 234.549l-.006-10.024c-.013-22.235-6.202-48.025-14.196-59.156-5.741-7.994 6.857-7.369-148.449-7.365-136.17.003-138.911.041-142.065 1.965m275.947 19.281c7.766 11.962 11.36 49.942 7.31 77.25-5.91 39.856-20.604 76.482-46.116 114.952-10.548 15.906-19.286 25.773-29.95 33.821-19.478 14.699-40.901 21.997-64.475 21.963-18.471-.026-32.976-3.535-49.202-11.902-17.986-9.274-31.603-22.466-46.231-44.789-21.499-32.808-34.806-62.644-41.943-94.045-8.111-35.683-7.126-74.562 2.403-94.833L87.22 177h264.55l1.461 2.25M119.768 398.307c25.601 31.554 60.828 48.656 100.277 48.684 38.515.026 75.448-17.837 98.955-47.863 5.389-6.884 5.594-7.026 10.17-7.077 4.743-.052 22.202 3.379 35.83 7.04 30.243 8.127 53 21.005 53 29.993 0 10.622-20.819 25.78-52.581 38.285-35.649 14.035-76.227 22.098-124.877 24.812-34.591 1.93-75.628-1.1-110.542-8.162-58.995-11.934-110-37.51-110-55.158 0-3.138.722-4.324 4.929-8.107C36.452 410.393 58.56 401.97 96 393.674c3.575-.792 9.234-1.493 12.575-1.557l6.076-.117 5.117 6.307m271.254-141.496c8.613 2.407 14.463 6.259 16.969 11.171 5.031 9.862 2.794 31.004-4.932 46.619-9.282 18.76-29.134 33.578-50.776 37.901l-3.218.643 6.365-13.323c12.927-27.06 20.128-50.358 25.059-81.072.706-4.403 1.317-4.515 10.533-1.939M218.484 3.201c-3.425 4.071-2.981 9.109 1.282 14.532 4.696 5.976 6.461 10.226 6.991 16.835.683 8.505-1.592 14.757-8.387 23.046-9.778 11.929-13.342 21.129-13.359 34.479-.016 12.717 4.28 24.001 12.342 32.415 3.302 3.446 5.032 4.492 7.429 4.492 9.932 0 13.656-8.967 7.231-17.411-5.353-7.034-7.381-12.415-7.381-19.589 0-8.132 2.364-13.68 9.457-22.199 13.925-16.725 16.387-36.365 6.949-55.443C235.914 3.999 231.601 0 225.554 0c-3.696 0-4.795.498-7.07 3.201m74.843 41.569c-1.195.192-3.333 1.509-4.75 2.926-3.577 3.577-3.424 8.5.441 14.204 3.864 5.703 4.037 11.364.493 16.202-6.541 8.931-8.509 12.573-9.58 17.728-1.502 7.238-.525 15.352 2.632 21.852 5.268 10.845 13.516 14.393 19.514 8.395 3.926-3.926 3.902-8.464-.077-14.738-3.839-6.054-3.935-10.699-.329-15.949 6.609-9.624 8.052-12.147 9.154-16.006 1.505-5.27 1.499-12.528-.013-17.768-1.233-4.273-6.813-13.881-8.762-15.085-1.956-1.209-6.478-2.122-8.723-1.761m-139.953-.076c-1.169.227-3.184 1.539-4.477 2.916-3.388 3.606-3.155 8.967.626 14.423 3.491 5.038 3.989 11.137 1.224 15.011-.964 1.351-3.32 4.633-5.235 7.293-7.702 10.7-7.867 25.745-.407 37.007 3.216 4.857 7.2 7.656 10.895 7.656 3.827 0 7.787-2.826 8.966-6.397 1.207-3.659.529-5.961-4.006-13.603-2.951-4.973-2.11-9.81 2.833-16.292 7.065-9.265 7.707-11.115 7.706-22.208 0-8.933-.289-10.546-2.701-15.12C166.3 50.643 160.976 45 159.005 45c-.463 0-1.441-.162-2.173-.36-.733-.197-2.289-.173-3.458.054" fill="#000000FF" stroke="#000000FF"/><path d="M113.206 207.048c-3.943 1.582-5.512 7.184-5.588 19.952-.081 13.563 1.997 24.022 6.888 34.675 6.951 15.139 12.645 20.162 19.593 17.284 7.081-2.933 7.743-9.261 1.976-18.899-6.925-11.573-8.384-17.455-8.54-34.441l-.138-14.881-2.754-2.369c-2.891-2.486-7.273-2.993-11.437-1.321" fill="#000000FF" stroke="#000000FF"/></svg>