<svg version="1.0" xmlns="http://www.w3.org/2000/svg" viewBox="0 0 512 512"><path d="M397 .634c-6.235 2.374-11.045 6.05-21.526 16.453l-12.026 11.936-4.937-5.011c-2.714-2.757-5.418-5.012-6.008-5.012C351.172 19 341 29.202 341 30.537c0 .536 14.849 15.818 32.998 33.961l32.998 32.986 6.23-6.23 6.23-6.23-5.224-5.289-5.224-5.29 7.779-7.733 7.779-7.734 16.642 19.403c9.152 10.672 17.196 20.293 17.875 21.38 1.063 1.702-.76 7.476-13.136 41.607L431.577 181h-9.739c-5.357 0-12.031.491-14.832 1.092C395.651 184.527 388 194.627 388 207.179V214H281l-.022-27.25c-.02-25.249-.172-27.581-2.059-31.75-2.735-6.043-6.41-9.776-12.419-12.617l-5-2.363h-110l-5.056 2.354c-5.837 2.718-12.01 9.404-13.442 14.561-.545 1.961-.993 15.603-.996 30.315L132 214H0v51h16v247h51V265h79.738l4.631 12.309L156 289.618V346h-33l.02 4.25c.066 14.025 4.548 26.058 12.707 34.117 5.512 5.445 14.42 10.233 20.826 11.193 2.446.367 4.447.754 4.447.861 0 .106-8.55 24.134-19 53.396-13.948 39.055-19 54.396-19 57.692V512h18l-.012-3.25c-.007-1.787 1.644-7.985 3.669-13.772l3.681-10.523 28.456-17.477c15.65-9.613 28.994-17.478 29.653-17.478.658 0 14.019 7.875 29.691 17.5l28.494 17.5 3.684 10.5c2.027 5.775 3.685 11.963 3.685 13.75L272 512h18v-4.407c0-3.187-5.255-19.115-19-57.593-10.45-29.253-19-53.319-19-53.48 0-.161 2.001-.593 4.447-.96 10.983-1.647 24.092-11.942 29.08-22.838 2.388-5.216 4.415-15.671 4.453-22.972L290 346h-34.089l.294-27.75.295-27.75 4.881-12.75 4.881-12.75H355v247h141V265h16v-51h-15.737l-.466-7.25c-.722-11.242-5.021-18.218-14.163-22.982-3.459-1.802-6.298-2.223-17.384-2.577-7.287-.232-13.25-.766-13.25-1.185 0-.419 5.219-15.104 11.597-32.634 6.378-17.53 13.099-36.007 14.935-41.061l3.337-9.189-22.601-26.214-22.601-26.215 1.167-4.361c3.923-14.668-3.097-30.536-16.53-37.366C416.502 1.033 413.727.476 407 .293c-4.675-.126-9.175.027-10 .341M478 334.5V404h-16v18h16v73H372v-73h74v-18h-74V265h106v69.5m17-95v7.5H17v-15h478v7.5m-236.462-81.048c2.045.854 3.884 2.527 4.468 4.065.56 1.472.994 13.283.994 27.048V214H148.905l.298-25.897c.27-23.571.464-26.081 2.151-27.944 1.02-1.126 2.82-2.236 4-2.467 1.18-.231 24.098-.481 50.928-.556 40.603-.113 49.365.107 52.256 1.316M247 265.414c0 .228-1.681 4.616-3.736 9.75l-3.737 9.336-.317 30.75-.317 30.75H174v-57.909l-4-11.214c-2.2-6.167-4-11.362-4-11.545 0-.183 18.225-.332 40.5-.332s40.5.186 40.5.414M49 380v115H34V265h15v115m219.611-13.25c-.792 1.513-2.941 4.19-4.776 5.949-6.646 6.376-5.983 6.303-57.553 6.279-44.08-.021-47.013-.133-50.782-1.945-2.2-1.058-4.693-2.51-5.541-3.228-1.907-1.616-6.959-8.257-6.959-9.149 0-.361 28.587-.656 63.526-.656h63.525l-1.44 2.75m-33.975 33.922c3.259 7.798 3.337 7.691-13.136 17.915-13.332 8.274-15.222 9.168-17 8.046-1.1-.694-7.737-4.763-14.749-9.041-7.012-4.279-12.998-8.183-13.304-8.677-.305-.494.227-3.377 1.182-6.407l1.736-5.508h53.737l1.534 3.672M410.685 18.064c4.191 1.583 8.222 5.878 9.311 9.92 1.805 6.703-.133 10.288-12.288 22.727l-11.102 11.361-10.304-10.269-10.304-10.269 10.751-10.87c13.217-13.363 16.852-15.277 23.936-12.6m65.001 183.11c1.857 1.745 2.314 3.226 2.314 7.5V214h-73v-4.05c0-4.293 2.113-9.429 4.229-10.281.699-.281 15.417-.547 32.707-.59 30.952-.078 31.471-.046 33.75 2.095M249.288 441.766c2.982 8.379 5.205 15.234 4.94 15.234-.265 0-7.191-4.124-15.39-9.165-9.419-5.791-14.557-9.516-13.957-10.116 1.273-1.273 18.433-11.738 18.742-11.43.133.134 2.682 7.098 5.665 15.477m-69.979-9.72c4.845 2.934 8.992 5.632 9.216 5.994.414.67-29.458 19.417-29.952 18.798-.506-.637 10.69-30.794 11.309-30.46.34.184 4.582 2.734 9.427 5.668" fill="#000000FF" stroke="#000000FF"/></svg>