<svg version="1.0" xmlns="http://www.w3.org/2000/svg" viewBox="0 0 354 512"><path d="M163.487 1.799c-14.142 4.89-26.229 17.398-28.943 29.951l-.703 3.25h-47.21c-50.935 0-53.154.191-63.57 5.469C12.258 45.944 3.054 58.922.976 71.613c-1.305 7.97-1.305 395.804 0 403.774 2.721 16.617 14.717 30.276 30.905 35.19 6.892 2.091 283.346 2.091 290.238 0 16.41-4.981 28.351-18.764 30.96-35.737.615-4.003.873-79.519.698-204.84L353.5 71.5l-2.162-5.651c-1.189-3.108-2.928-6.821-3.865-8.25-.937-1.429-1.486-2.599-1.22-2.599s-1.032-1.607-2.885-3.571c-1.852-1.964-3.368-3.989-3.368-4.5 0-.511-.405-.929-.9-.929-.494 0-3.185-1.539-5.98-3.419-10.206-6.869-10.233-6.872-64.428-7.317-36.323-.298-48.917-.703-49.238-1.582-.237-.65-.573-2.082-.748-3.182-.39-2.463-3.413-8.391-5.482-10.75-.843-.962-1.243-1.75-.888-1.75 1.285 0-11.248-10.903-14.415-12.541-10.857-5.614-24.568-7.072-34.434-3.66M100.892 90.75c2.286 4.436 7.237 9.297 12.108 11.888 3.302 1.757 6.915 1.862 64 1.862s60.698-.105 64-1.862c4.871-2.591 9.822-7.452 12.108-11.888l1.933-3.75H301v373H53V87h45.959l1.933 3.75m-2.31-37.102c-.348.906-.912 4.956-1.254 9L96.707 70H70.502c-27.024 0-31.66.559-33.523 4.039C36.35 75.215 36 146.666 36 273.98v198.111l2.455 2.454L40.909 477h272.182l2.454-2.455 2.455-2.454V273.98c0-127.314-.35-198.765-.979-199.941-1.863-3.48-6.499-4.039-33.523-4.039h-26.205l-.621-7.352c-.342-4.044-.906-8.094-1.254-9-.577-1.505 1.663-1.648 25.791-1.648 14.714 0 29.053.482 32.357 1.087 9.553 1.749 15.967 6.675 20.068 15.413l2.346 5 .01 199.624c.011 218.938.434 203.765-5.904 211.767-1.616 2.041-5.334 5.038-8.262 6.66L316.5 494.5h-279l-5.324-2.949c-2.928-1.622-6.646-4.619-8.262-6.66-6.338-8.002-5.915 7.171-5.904-211.767L18.02 73.5l2.435-5c2.931-6.017 3.909-7.225 8.905-10.994 6.034-4.551 12.133-5.329 42.497-5.422 25.016-.077 27.303.057 26.725 1.564m86.09-35.153c10.028 2.978 17.211 12.206 18.802 24.156 1.099 8.246 2.645 9.093 17.359 9.506l12.334.346 2.916 3.264c2.828 3.165 2.917 3.584 2.917 13.702 0 11.595-1.015 14.97-5.145 17.106-4.094 2.117-109.616 2.117-113.71 0-4.13-2.136-5.145-5.511-5.145-17.106 0-10.118.089-10.537 2.917-13.702l2.916-3.264 12.334-.346c14.714-.413 16.26-1.26 17.359-9.506 1.558-11.698 8.754-21.131 18.383-24.097 6.033-1.859 9.656-1.872 15.763-.059" fill="#000000FF" stroke="#000000FF"/><path d="M85.091 363.09c-3.434 1.373-5.027 3.88-5.027 7.91 0 4.153 1.6 6.542 5.333 7.961 3.757 1.428 117.449 1.428 121.206 0 3.733-1.419 5.333-3.808 5.333-7.961 0-4.153-1.6-6.542-5.333-7.961-3.575-1.359-118.105-1.311-121.512.051m1.409-71.389c-5.179 1.292-7.961 7.328-5.879 12.754C82.333 308.915 83.553 309 146 309s63.667-.085 65.379-4.545c1.425-3.715.606-8.121-1.959-10.531l-2.58-2.424-59.17-.149c-32.543-.082-60.07.075-61.17.35m-4.045-139.246c-3.094 3.093-3.26 8.252-.382 11.91L84.145 167h123.506l2.175-2.314c3.068-3.266 2.936-9.015-.281-12.231L207.091 150H84.909l-2.454 2.455m0 71a8.546 8.546 0 0 0 0 12.09L84.909 238h122.182l2.454-2.455c1.695-1.694 2.455-3.566 2.455-6.045s-.76-4.351-2.455-6.045L207.091 221H84.909l-2.454 2.455M86 185.706c-3.55 1.298-6 4.672-5.968 8.218.035 3.937 1.333 6.145 4.652 7.913 3.257 1.734 92.868 1.613 96.316-.131a8.311 8.311 0 0 0-.022-14.954c-3.165-1.591-7.534-1.742-48.478-1.671-24.75.042-45.675.324-46.5.625m-1.5 71.486c-5.239 3.046-6.184 9.877-1.92 13.884l2.579 2.424 45.171.311c30.765.211 46.364-.04 48.914-.789 6.626-1.945 8.628-10.112 3.595-14.668-1.925-1.743-4.878-1.868-49.193-2.089-34.397-.172-47.687.079-49.146.927m-2.045 72.263a8.546 8.546 0 0 0 0 12.09L84.909 344h47.611c29.583 0 48.314-.376 49.466-.992 2.268-1.214 4.315-7.009 3.392-9.605-.372-1.047-1.587-2.915-2.701-4.153l-2.026-2.25H84.909l-2.454 2.455m0 71a8.546 8.546 0 0 0 0 12.09L84.909 415h95.742l2.06-2.25c2.828-3.09 3.534-5.974 2.275-9.286-2.108-5.545-.691-5.398-52.281-5.432L84.909 398l-2.454 2.455m187.305-187.38c-.957.557-7.191 8.646-13.853 17.974s-12.45 17.169-12.863 17.424c-.413.255-2.216-1.577-4.007-4.071-4.004-5.575-6.751-6.773-11.758-5.127-4.292 1.412-6.566 4.933-5.822 9.015.488 2.674 13.018 21.2 16.031 23.7 2.604 2.161 8.219 1.633 11.077-1.043 1.438-1.346 9.818-12.568 18.624-24.937 15.461-21.719 15.992-22.628 15.473-26.49-.324-2.419-1.395-4.695-2.71-5.76-2.386-1.932-7.466-2.274-10.192-.685m.656-71.105c-1.146.463-7.631 8.647-14.411 18.186-6.78 9.539-12.532 17.569-12.782 17.844-.251.275-1.416-.829-2.589-2.453-4.467-6.181-6.376-7.547-10.55-7.547-6.335 0-10.355 5.528-8.179 11.25 1.112 2.925 9.99 15.672 13.874 19.919 3.038 3.323 6.678 4.299 10.355 2.776 2.447-1.014 19.319-23.361 34.227-45.335 3.501-5.16 3.416-8.987-.284-12.687-2.948-2.947-5.785-3.521-9.661-1.953m-2.575 143.78c-1.393 1.513-7.633 9.915-13.866 18.673-11.295 15.87-11.338 15.915-12.904 13.515-4.189-6.422-6.764-8.393-10.964-8.393-4.788 0-7.745 2.394-8.67 7.019-.52 2.601.326 4.445 5.657 12.335 8.942 13.234 10.873 15.101 15.62 15.101 4.997 0 5.169-.191 24.236-26.876 17.093-23.921 18.381-26.884 13.717-31.548-3.654-3.654-9.372-3.576-12.826.174m3.399 68.357c-2.447.905-6.239 5.604-18.687 23.151l-9.76 13.759-3.428-4.491c-5.317-6.962-9.778-8.349-14.618-4.542-3.065 2.411-4.093 5.976-2.745 9.521 1.553 4.086 13.866 20.847 16.315 22.21 2.698 1.501 6.208 1.61 8.71.271 1.723-.922 32.106-42.516 34.822-47.67 3.723-7.066-3.145-14.97-10.609-12.209" fill="#000000FF" stroke="#000000FF"/></svg>