<svg version="1.0" xmlns="http://www.w3.org/2000/svg" viewBox="0 0 512 512"><path d="M371.004 146.583c-49.303 8.986-88.151 48.465-96.628 98.197-2.201 12.914-1.429 36.257 1.578 47.72 10.267 39.136 37.026 69.791 72.888 83.5l9.156 3.5.001 14.659.001 14.659-10.475.341c-9.314.303-10.726.593-12.75 2.618l-2.275 2.276-.293 39.974-.293 39.973H238v18h135c133.667 0 135.02-.02 137-2 1.962-1.962 2-3.333 2-73v-71h-18v128h-40.934l-.283-39.973-.283-39.973-2.275-2.277c-2.024-2.025-3.436-2.315-12.75-2.618L427 408.818l.011-14.659.011-14.659 7.739-2.863c39.229-14.51 68.568-50.129 75.891-92.137 2.326-13.337 1.406-36.793-1.941-49.5-5.596-21.252-16.07-39.467-31.657-55.054-17.781-17.78-39.643-29.228-63.935-33.479-10.317-1.806-31.899-1.746-42.115.116m46.171 19.24c35.785 9.589 62.874 36.053 73.372 71.677 3.766 12.781 4.496 32.945 1.684 46.505-7.772 37.475-35.091 67.072-71.93 77.928-11.313 3.334-11.301 3.304-11.301 27.202V409h-33v-19.865c0-24.197.213-23.729-12.539-27.618-27.163-8.286-49.46-27.35-62.006-53.017-8.277-16.933-9.97-24.557-9.884-44.5.059-13.626.444-17.852 2.212-24.263 10.559-38.28 40.088-66.542 78.217-74.861 11.542-2.518 34.001-2.047 45.175.947M435 460.5V494h-85v-7h43v-18h-43v-16h43v-18h-43v-8h85v33.5" fill="#000000FF" stroke="#000000FF"/><path d="M375 180.493c-26.461 5.929-48.234 23.107-59.578 47.007-6.699 14.112-7.876 19.64-7.876 37 0 17.786 1.207 23.199 8.472 38 8.399 17.113 20.151 29.15 37.05 37.946 13.93 7.251 21.748 9.044 39.432 9.044 12.594 0 16.251-.361 22.798-2.255 14.866-4.299 27.033-11.444 37.763-22.174 10.73-10.73 17.875-22.897 22.174-37.763 3.288-11.37 3.27-34.287-.037-45.73-4.741-16.409-15.444-32.84-28.224-43.329-7.256-5.955-23.378-14.278-32.474-16.765-8.466-2.315-31.045-2.876-39.5-.981m33.208 18.432c14.843 3.796 27.653 11.925 36.918 23.426 18.13 22.504 19.736 54.715 3.928 78.779-22.042 33.557-67.716 40.959-98.703 15.996-31.381-25.281-33.872-71.662-5.38-100.155 16.742-16.742 41.127-23.7 63.237-18.046M70.174 2.314 68 4.629V180h18V18h323v38.351c0 24.717.381 39.444 1.073 41.427.716 2.056 2.093 3.433 4.149 4.149 1.983.692 16.71 1.073 41.427 1.073H494v60h18V89.525l-44.762-44.763L422.475 0H72.349l-2.175 2.314M454.248 85H427V30.505l27.248 27.247L481.495 85h-27.247M82.251 214.545c-14.468 3.896-24.841 13.912-29.275 28.268-2.813 9.109-2.914 43.005-.153 51.848 4.925 15.778 17.606 26.645 34.177 29.287 8.286 1.322 22.636 1.329 31 .017 16.996-2.667 30.069-14.615 34.467-31.5 2.233-8.574 2.047-39.569-.291-48.465-3.756-14.291-15.256-25.702-29.694-29.463-7.708-2.007-32.764-2.003-40.231.008m37.253 18.111c2.875.98 6.561 3.357 9.022 5.818 6.419 6.419 7.476 10.8 7.464 30.954-.009 15.814-.182 17.44-2.356 22.072-2.912 6.204-6.795 10.168-12.634 12.897-3.901 1.823-6.364 2.103-18.5 2.103-13.279 0-14.291-.143-19.65-2.775-6.012-2.952-10.358-7.7-12.479-13.635-.86-2.406-1.29-9.524-1.305-21.59-.02-15.998.204-18.5 2.015-22.5 3.239-7.155 8.509-11.814 15.913-14.066 5.038-1.532 27.348-1.037 32.51.722M50.992 332.941c-18.609 2.515-36.409 15.003-44.377 31.133C-.146 377.763.025 375.605.012 447.25L0 512h18l.011-63.25c.009-51.365.274-64.118 1.412-67.869 4.93-16.242 18.545-27.781 35.335-29.946 9.379-1.21 87.194-1.118 95.742.112 16.728 2.408 29.708 13.372 34.677 29.292 1.683 5.39 1.823 10.681 1.823 68.75V512h18v-63.84c0-60.332-.109-64.265-1.978-71.575-5.172-20.222-20.764-36.038-41.576-42.173-5.262-1.551-11.644-1.779-55.446-1.984-27.225-.128-51.978.103-55.008.513" fill="#000000FF" stroke="#000000FF"/><path d="M110 85v9h138V76H110v9m35 380v47h18v-94h-18v47m-103 0v47h18v-94H42v47m103-294v9h86v-18h-86v9m239 128v9h18v-18h-18v9m34-34v9h18v-18h-18v9m-34 0v9h18v-18h-18v9m-35 0v9h18v-18h-18v9m35-35v9h18v-18h-18v9m-274-59v9h18v-18h-18v9m103-34v9h18v-18h-18v9m-34 0v9h18v-18h-18v9m-34 0v9h18v-18h-18v9m-35 0v9h18v-18h-18v9m69-86v9h18V42h-18v9m-34 0v9h18V42h-18v9m-35 0v9h18V42h-18v9" fill="#000000FF" stroke="#000000FF"/></svg>