<svg version="1.0" xmlns="http://www.w3.org/2000/svg" viewBox="0 0 512 512"><path d="M230.5.651C163.355 7.871 102.558 40.045 59.776 91c-30.065 35.808-48.746 76.409-57.04 123.97C.834 225.88.551 231.185.551 256s.283 30.12 2.185 41.03c9.41 53.961 31.934 98.635 69.246 137.344 38.347 39.782 86.607 65.058 142.988 74.89 10.91 1.902 16.215 2.185 41.03 2.185 31.339 0 40.737-1.064 65.256-7.386 88.204-22.742 160.065-94.603 182.807-182.807 6.322-24.519 7.386-33.917 7.386-65.256s-1.064-40.737-7.386-65.256c-22.74-88.193-94.605-160.065-182.782-182.801C298.644 2.107 287.886.8 260 .498c-14.025-.152-27.3-.083-29.5.153M288 30.554c51.926 7.879 97.7 31.807 133.783 69.933 33.03 34.901 53.712 78.61 60.335 127.513 1.927 14.229 1.653 45.005-.53 59.5-11.244 74.66-56.586 137.849-123.088 171.536-22.435 11.365-45.603 18.724-71 22.554-16.198 2.443-46.56 2.486-62.5.088-48.949-7.363-91.08-27.902-126.158-61.504C61.614 384.513 38.096 338.771 30.368 287c-2.405-16.117-2.388-46.485.035-62.5C41.715 149.752 86.997 86.651 153.5 52.964c26.018-13.179 52.253-20.796 82.5-23.952 11.618-1.212 39.248-.393 52 1.542" fill="#000000FF" stroke="#000000FF"/><path d="M133.47 317.019c-5.963 3.861-11.052 7.229-11.308 7.485-.818.819 6.344 10.728 14.092 19.496 22.786 25.784 53.822 43.784 88.246 51.182 17.957 3.859 47.544 3.498 66.316-.807 35.058-8.042 67.667-28.319 89.857-55.875 5.187-6.442 9.748-13.413 9.159-14.001-1.594-1.595-22.347-14.488-23.238-14.437-.602.034-3.344 3.21-6.094 7.058-6.23 8.718-19.74 21.753-29.551 28.512-22.726 15.656-48.235 23.66-75.449 23.671-26.643.012-52.438-8.281-74.923-24.087-9.304-6.54-24.25-21.19-30.077-29.481-2.2-3.131-4.492-5.702-5.094-5.713-.602-.012-5.973 3.137-11.936 6.997M334.5 172.227c-8.014 2.857-15.304 10.269-17.56 17.855-3.903 13.125 1.573 27.015 13.181 33.435 4.705 2.602 6.381 2.975 13.379 2.979 6.444.003 8.876-.451 12.5-2.336 8.582-4.462 12.985-10.33 15.08-20.099 2.715-12.657-4.824-26.577-16.827-31.067-5.817-2.177-14.817-2.526-19.753-.767m-172.176.36c-17.981 6.59-23.572 30.671-10.561 45.49 5.156 5.873 11.439 8.424 20.737 8.419 6.998-.004 8.674-.377 13.379-2.979 19.49-10.78 19.178-39.56-.536-49.515-6.036-3.048-16.765-3.707-23.019-1.415" fill="#000000FF" stroke="#000000FF"/></svg>