<?xml version="1.0" encoding="utf-8"?><svg xmlns="http://www.w3.org/2000/svg" xmlns:xlink="http://www.w3.org/1999/xlink"><symbol viewBox="0 0 36 36" id="ae" xmlns="http://www.w3.org/2000/svg"><defs><style>.acls-1{fill:#b388ff}</style></defs><g id="aСлой_2" data-name="Слой 2"><g id="aСлой_1-2" data-name="Слой 1"><path class="acls-1" d="M0 4a4 4 0 014-4h28a4 4 0 014 4v28a4 4 0 01-4 4H4a4 4 0 01-4-4z"/><path d="M3 3v30h30V3z"/><path class="acls-1" d="M15.18 22h-4.55l-.87 2.84H7L11.69 11h2.41l4.72 13.81h-2.76zm-3.85-2.31h3.15l-1.58-5.2zM24.15 25c-4.67.18-5.9-6.08-3.47-9.15C24.12 12 29 16.12 28 20.57h-6c.1 2.4 3.31 3 4.54 1.07l1.23 1.51A4.24 4.24 0 0124.15 25zm-.29-8.42c-1.16 0-1.69 1.1-1.8 2.12h3.48c.09-1.06-.48-2.19-1.68-2.12z"/></g></g></symbol><symbol viewBox="0 0 36 36" id="ai" xmlns="http://www.w3.org/2000/svg"><defs><style>.bcls-2{fill:#1c0802}</style></defs><g id="bСлой_2" data-name="Слой 2"><g id="bСлой_1-2" data-name="Слой 1"><path d="M0 4a4 4 0 014-4h28a4 4 0 014 4v28a4 4 0 01-4 4H4a4 4 0 01-4-4z"/><path class="bcls-2" d="M3 3v30h30V3zm14.69 22l-.76-2.91H13L12.25 25h-3l4.44-14.22h2.63L20.76 25zm7.16 0h-2.77V14.43h2.77zm-.3-12.25a1.45 1.45 0 01-1.1.42 1.5 1.5 0 01-1.09-2.53 1.49 1.49 0 011.09-.41 1.51 1.51 0 011.1.41 1.56 1.56 0 010 2.11z"/><path class="bcls-2" d="M13.64 19.7h2.66L15 14.63z"/></g></g></symbol><symbol viewBox="0 0 980 840" id="arrow_right" xmlns="http://www.w3.org/2000/svg"><path d="M0 840l980-420L0 0v326.7L700 420 0 513.3z"/></symbol><symbol viewBox="0 0 44.557 44.557" id="basketball" xmlns="http://www.w3.org/2000/svg"><path d="M6.519 6.519c-8.69 8.69-8.69 22.829-.001 31.521 8.69 8.69 22.831 8.689 31.521 0 8.688-8.689 8.688-22.831 0-31.521-8.691-8.692-22.829-8.692-31.52 0zM31.47 8.843l-9.191 9.192-2.535-2.535c1.828-2.788 3.2-5.961 3.594-9.452a16.22 16.22 0 018.132 2.795zm-7.118 19.749c-3.558 3.399-6.08 7.088-7.319 9.084a16.048 16.048 0 01-3.947-1.965l9.193-9.19 2.073 2.071zM8.843 31.469a16.05 16.05 0 01-1.963-3.94c1.873-1.163 5.238-3.452 8.455-6.668.211-.211.42-.432.631-.651l2.069 2.07-9.192 9.189zm6.541-20.328l-2.298-2.297a16.147 16.147 0 014.022-1.992c-.351 1.502-.952 2.939-1.724 4.289zm-6.541 1.945l2.875 2.875c-1.906 2.006-3.966 3.664-5.652 4.877a16.236 16.236 0 012.777-7.752zm19.744 19.741l2.885 2.886a16.23 16.23 0 01-7.759 2.777c1.21-1.691 2.865-3.753 4.874-5.663zm7.127-1.358l-2.306-2.307c1.353-.771 2.791-1.371 4.299-1.721a16.138 16.138 0 01-1.993 4.028zm2.794-10.249c-3.491.396-6.667 1.762-9.454 3.591l-2.532-2.534 9.19-9.192a16.214 16.214 0 012.796 8.135z"/></symbol><symbol viewBox="0 0 512 512" id="fb" xmlns="http://www.w3.org/2000/svg"><path d="M308.3 508.5c-2.5.1-4.1.3-5.7.3-34.2 0-68.3-.1-102.5.1-4.8 0-6.1-1.3-6.1-6.1.1-79.6.1-159.3.1-238.9V257H139v-85h5.4c15 0 30-.1 45 .1 3.8 0 4.8-1.1 4.8-4.8-.2-22.3-.2-44.7 0-67 .1-15.6 2.6-30.8 9.8-44.9 10.3-19.9 26.6-32.8 47.2-40.8 16.8-6.6 34.5-9 52.3-9.3 29-.4 58-.2 87-.3 2.7 0 4.9-.1 4.9 3.7-.1 27.5-.1 55-.1 82.5 0 .3-.1.6-.5 1.9h-5.5c-18 0-36-.1-54 0-10.4 0-18.8 4.2-24.1 13.3-1.6 2.7-2.6 6.2-2.6 9.4-.3 17 0 34-.2 51 0 4 1.2 5.1 5.1 5.1 25-.2 50-.1 75-.1h7.3c-3.5 28.6-6.9 56.6-10.4 84.9h-77.1v251.8z"/></symbol><symbol viewBox="0 0 32 32" id="g_plus" xmlns="http://www.w3.org/2000/svg"><path d="M25 11h2v8h-2z"/><path d="M22 14h8v2h-8zm-2.185.2l-.05-.2H11v3h6c-.477 2.837-3.028 5-6 5a6 6 0 110-12c1.5 0 2.868.554 3.92 1.465l2.151-2.106A9 9 0 002 16c0 4.971 4.029 9 9 9s9-4.029 9-9c0-.617-.066-1.218-.185-1.8z"/></symbol><symbol viewBox="0 0 41 41" id="logo" xmlns="http://www.w3.org/2000/svg"><defs><clipPath id="gclip-path"><circle cx="20.5" cy="20.5" r="20"/></clipPath><style>.gcls-2{fill:none;stroke:#000;stroke-linejoin:round}</style></defs><g id="gСлой_2" data-name="Слой 2"><g id="gLayer_1" data-name="Layer 1"><circle class="gcls-2" cx="20.5" cy="20.5" r="20"/><path class="gcls-2" d="M20.5 40.5V.5m-5 40V.5m-5 40V.5m-5 40V.5m15 35h20m-20-5h20m-20-5h20m-20-5h20m-20-5h20m-20-5h20m-20-5h20"/></g></g></symbol><symbol viewBox="0 0 36 36" id="ps" xmlns="http://www.w3.org/2000/svg"><defs><style>.hcls-2{fill:#020f16}</style></defs><g id="hСлой_2" data-name="Слой 2"><g id="hСлой_1-2" data-name="Слой 1"><path d="M0 4a4 4 0 014-4h28a4 4 0 014 4v28a4 4 0 01-4 4H4a4 4 0 01-4-4z"/><path class="hcls-2" d="M14 13.17h-2v4.44h2a1.57 1.57 0 001.27-.54 2.38 2.38 0 00.45-1.56 2.88 2.88 0 00-.46-1.7 1.49 1.49 0 00-1.26-.64z"/><path class="hcls-2" d="M3 3v30h30V3zm14.36 15.79A4.68 4.68 0 0113.93 20H12v5H9.14V10.78H14a4.46 4.46 0 013.36 1.31 4.7 4.7 0 011.26 3.4 4.4 4.4 0 01-1.26 3.3zm9.32 5.55a4.32 4.32 0 01-2.79.85 4.45 4.45 0 01-2.05-.45 3.39 3.39 0 01-1.39-1.26 3.24 3.24 0 01-.51-1.75h2.63a1.6 1.6 0 00.34 1.08 1.32 1.32 0 001 .36c.74 0 1.11-.33 1.11-1a.84.84 0 00-.34-.65 6.49 6.49 0 00-1.49-.81 6.22 6.22 0 01-2.35-1.43 2.72 2.72 0 01-.64-1.85 2.94 2.94 0 011-2.29 3.8 3.8 0 012.65-.9 4.11 4.11 0 012.78.9 3 3 0 011 2.41H25c0-.86-.36-1.29-1.07-1.29a1 1 0 00-1 1 .78.78 0 00.32.62 6.3 6.3 0 001.47.77 6.17 6.17 0 012.39 1.39 2.87 2.87 0 01.7 2 2.81 2.81 0 01-1.13 2.3z"/></g></g></symbol><symbol viewBox="0 0 512 512" id="services_icon_01" xmlns="http://www.w3.org/2000/svg"><path d="M371.004 146.583c-49.303 8.986-88.151 48.465-96.628 98.197-2.201 12.914-1.429 36.257 1.578 47.72 10.267 39.136 37.026 69.791 72.888 83.5l9.156 3.5.001 14.659.001 14.659-10.475.341c-9.314.303-10.726.593-12.75 2.618l-2.275 2.276-.293 39.974-.293 39.973H238v18h135c133.667 0 135.02-.02 137-2 1.962-1.962 2-3.333 2-73v-71h-18v128h-40.934l-.283-39.973-.283-39.973-2.275-2.277c-2.024-2.025-3.436-2.315-12.75-2.618L427 408.818l.011-14.659.011-14.659 7.739-2.863c39.229-14.51 68.568-50.129 75.891-92.137 2.326-13.337 1.406-36.793-1.941-49.5-5.596-21.252-16.07-39.467-31.657-55.054-17.781-17.78-39.643-29.228-63.935-33.479-10.317-1.806-31.899-1.746-42.115.116m46.171 19.24c35.785 9.589 62.874 36.053 73.372 71.677 3.766 12.781 4.496 32.945 1.684 46.505-7.772 37.475-35.091 67.072-71.93 77.928-11.313 3.334-11.301 3.304-11.301 27.202V409h-33v-19.865c0-24.197.213-23.729-12.539-27.618-27.163-8.286-49.46-27.35-62.006-53.017-8.277-16.933-9.97-24.557-9.884-44.5.059-13.626.444-17.852 2.212-24.263 10.559-38.28 40.088-66.542 78.217-74.861 11.542-2.518 34.001-2.047 45.175.947M435 460.5V494h-85v-7h43v-18h-43v-16h43v-18h-43v-8h85v33.5"/><path d="M375 180.493c-26.461 5.929-48.234 23.107-59.578 47.007-6.699 14.112-7.876 19.64-7.876 37 0 17.786 1.207 23.199 8.472 38 8.399 17.113 20.151 29.15 37.05 37.946 13.93 7.251 21.748 9.044 39.432 9.044 12.594 0 16.251-.361 22.798-2.255 14.866-4.299 27.033-11.444 37.763-22.174 10.73-10.73 17.875-22.897 22.174-37.763 3.288-11.37 3.27-34.287-.037-45.73-4.741-16.409-15.444-32.84-28.224-43.329-7.256-5.955-23.378-14.278-32.474-16.765-8.466-2.315-31.045-2.876-39.5-.981m33.208 18.432c14.843 3.796 27.653 11.925 36.918 23.426 18.13 22.504 19.736 54.715 3.928 78.779-22.042 33.557-67.716 40.959-98.703 15.996-31.381-25.281-33.872-71.662-5.38-100.155 16.742-16.742 41.127-23.7 63.237-18.046M70.174 2.314L68 4.629V180h18V18h323v38.351c0 24.717.381 39.444 1.073 41.427.716 2.056 2.093 3.433 4.149 4.149 1.983.692 16.71 1.073 41.427 1.073H494v60h18V89.525l-44.762-44.763L422.475 0H72.349l-2.175 2.314M454.248 85H427V30.505l27.248 27.247L481.495 85h-27.247M82.251 214.545c-14.468 3.896-24.841 13.912-29.275 28.268-2.813 9.109-2.914 43.005-.153 51.848 4.925 15.778 17.606 26.645 34.177 29.287 8.286 1.322 22.636 1.329 31 .017 16.996-2.667 30.069-14.615 34.467-31.5 2.233-8.574 2.047-39.569-.291-48.465-3.756-14.291-15.256-25.702-29.694-29.463-7.708-2.007-32.764-2.003-40.231.008m37.253 18.111c2.875.98 6.561 3.357 9.022 5.818 6.419 6.419 7.476 10.8 7.464 30.954-.009 15.814-.182 17.44-2.356 22.072-2.912 6.204-6.795 10.168-12.634 12.897-3.901 1.823-6.364 2.103-18.5 2.103-13.279 0-14.291-.143-19.65-2.775-6.012-2.952-10.358-7.7-12.479-13.635-.86-2.406-1.29-9.524-1.305-21.59-.02-15.998.204-18.5 2.015-22.5 3.239-7.155 8.509-11.814 15.913-14.066 5.038-1.532 27.348-1.037 32.51.722M50.992 332.941c-18.609 2.515-36.409 15.003-44.377 31.133C-.146 377.763.025 375.605.012 447.25L0 512h18l.011-63.25c.009-51.365.274-64.118 1.412-67.869 4.93-16.242 18.545-27.781 35.335-29.946 9.379-1.21 87.194-1.118 95.742.112 16.728 2.408 29.708 13.372 34.677 29.292 1.683 5.39 1.823 10.681 1.823 68.75V512h18v-63.84c0-60.332-.109-64.265-1.978-71.575-5.172-20.222-20.764-36.038-41.576-42.173-5.262-1.551-11.644-1.779-55.446-1.984-27.225-.128-51.978.103-55.008.513"/><path d="M110 85v9h138V76H110v9m35 380v47h18v-94h-18v47m-103 0v47h18v-94H42v47m103-294v9h86v-18h-86v9m239 128v9h18v-18h-18v9m34-34v9h18v-18h-18v9m-34 0v9h18v-18h-18v9m-35 0v9h18v-18h-18v9m35-35v9h18v-18h-18v9m-274-59v9h18v-18h-18v9m103-34v9h18v-18h-18v9m-34 0v9h18v-18h-18v9m-34 0v9h18v-18h-18v9m-35 0v9h18v-18h-18v9m69-86v9h18V42h-18v9m-34 0v9h18V42h-18v9m-35 0v9h18V42h-18v9"/></symbol><symbol viewBox="0 0 980 798" id="services_icon_02" xmlns="http://www.w3.org/2000/svg"><path d="M0 399v398h980V1H0v398m950 0v368H30V31h920v368"/><path d="M144 601v71h141V530H144v71m111-.5V642h-81v-83h81v41.5M144 197v71h141V126H144v71m111 .5V239h-81v-83h81v41.5M144 399v70h141V329H144v70m111 0v41h-81v-82h81v41m107 31v15h459v-30H362v15m18.383-217.252l-17.117.298-.633 4.617c-.348 2.539-.633 9.053-.633 14.477V242h459v-30l-211.75.225c-116.462.123-219.453.359-228.867.523M362.546 631.75c.389 7.563.913 13.975 1.164 14.25.251.275 103.244.624 228.873.775L821 647.05V618H361.839l.707 13.75M362 368v15h244v-30H362v15m.529 202.25c.393 7.838.855 14.408 1.027 14.601.172.193 54.793.6 121.379.904l121.065.553V556H361.814l.715 14.25m4.343-418.529c-3.309.351-3.681.709-4.239 4.082-.336 2.033-.616 8.31-.622 13.947L362 180h244v-29l-117.75.168c-64.762.093-119.382.341-121.378.553"/></symbol><symbol viewBox="0 0 464 512" id="services_icon_03" xmlns="http://www.w3.org/2000/svg"><path d="M217.585 307.036c-16.481 2.6-34.123 9.841-46.744 19.187-9.293 6.88-20.418 18.773-26.408 28.228l-4.644 7.331-8.644.038c-23.838.104-34.096 8.047-36.199 28.031-1.174 11.151-1.176 52.783-.003 60.891 1.881 13.003 9.646 23.831 20.861 29.088 4.991 2.34 6.942 2.67 15.767 2.67 9.246 0 10.541-.246 15.815-3l5.745-3 6.925 6.706c15.353 14.869 33.855 24.19 55.308 27.864 10.145 1.737 33.121.644 43.033-2.048 16.739-4.545 34.203-14.643 45.779-26.469l6.122-6.254 6.012 3.1c5.556 2.866 6.778 3.101 16.101 3.101 8.844 0 10.792-.329 15.785-2.67 11.215-5.257 18.98-16.085 20.861-29.088 1.173-8.108 1.171-49.74-.003-60.891-2.114-20.091-12.38-27.962-36.554-28.027l-9-.025-4.33-7.203c-10.822-18.005-29.736-33.638-50.337-41.603-13.96-5.397-37.471-8.13-51.248-5.957m-20.236 137.889c18.243 18.442 48.925 18.678 68.531.526l5.887-5.451H296v6.962c0 4.605.705 8.847 2.081 12.526l2.082 5.563-3.251 3.724c-18.026 20.657-48.536 32.014-75.912 28.258-17.949-2.462-35.363-10.469-48.442-22.273-8.864-8-9.13-8.616-6.615-15.338 1.353-3.614 2.057-7.881 2.057-12.46V440l12.25.012 12.25.011 4.849 4.902m42.94-69.438c12.508 3.258 21.533 12.212 25.272 25.075 4.512 15.521-3.814 32.964-19.399 40.641-3.871 1.908-6.273 2.297-14.162 2.297-8.145 0-10.284-.37-15-2.594-7.014-3.309-13.597-9.892-16.906-16.906-2.224-4.716-2.594-6.855-2.594-15 0-11.266 2.114-16.584 9.598-24.146 9.335-9.431 20.667-12.629 33.191-9.367m106.768 3.119c1.778 1.042 4.181 3.164 5.338 4.715 2.02 2.707 2.117 4.107 2.409 34.465.264 27.498.087 32.21-1.348 35.968-3.954 10.353-14.12 16.492-24.426 14.751-5.01-.846-12.662-5.893-14.591-9.622l-1.49-2.883h7.697c9.212 0 11.354-1.339 11.354-7.098 0-5.627-2.443-6.902-13.223-6.902H310v-10h8.066c10.855 0 13.903-1.645 13.903-7.5s-3.048-7.5-13.903-7.5H310v-11h9.171c10.673 0 12.829-1.147 12.829-6.826 0-6.043-1.974-7.174-12.521-7.174h-9.21l.741-4.053c1.577-8.627 8.778-12.154 23.651-11.585 6.702.256 10.029.858 12.396 2.244m-206.005-1.501c6.756 1.448 10.9 5.163 11.907 10.673l.772 4.222h-9.037c-10.527 0-12.694 1.165-12.694 6.826 0 6.062 1.962 7.174 12.655 7.174H154v11h-8.066c-10.855 0-13.903 1.645-13.903 7.5s3.048 7.5 13.903 7.5H154v10h-8.777c-10.678 0-13.223 1.295-13.223 6.728 0 5.932 2.06 7.272 11.181 7.272h7.87l-1.49 2.883c-1.929 3.729-9.581 8.776-14.591 9.622-10.306 1.741-20.472-4.398-24.426-14.751-1.435-3.756-1.612-8.46-1.348-35.835.331-34.334.38-34.629 6.343-38.536 5.037-3.301 16.128-4.291 25.513-2.278m117.593-51.991c17.775 5.481 34.547 17.846 45.294 33.392 5.277 7.633 5.283 7.65 3.134 9.155-5.901 4.134-9.628 10.501-10.648 18.194l-.683 5.145h-17.715l-1.377-3.25c-3.527-8.328-15.072-19.873-23.4-23.4l-3.25-1.377v-19.986c0-11.089.398-19.987.895-19.987.492 0 3.979.951 7.75 2.114M214 342.829v19.829l-5.25 2.421c-6.709 3.094-17.468 13.792-20.75 20.632l-2.5 5.211-8.621.039-8.621.039-.683-5.145c-1.022-7.703-4.746-14.06-10.667-18.207l-2.172-1.521 2.737-4.672c1.506-2.569 5.951-8.054 9.878-12.188 10.936-11.513 21.982-18.698 36.649-23.84 10.869-3.81 10-5.322 10 17.402M296 416v10h-8.617c-8.453 0-8.604-.043-7.993-2.25 1.204-4.35 2.62-15.925 2.059-16.832-.325-.526 2.66-.918 6.992-.918H296v10m-113.984-5.75c.008 2.338.624 6.838 1.368 10l1.353 5.75H168v-20h14l.016 4.25m52.981-70l-.003 19.25-3.497.075-3.497.075V321h7l-.003 19.25M221.5.525c-.55.202-2.906.857-5.236 1.456-2.414.62-5.639 2.502-7.5 4.376-2.952 2.974-4.14 3.402-12.423 4.472-26.906 3.476-49.465 15.102-60.232 31.039-4.454 6.595-8.468 16.246-10.625 25.547-1.767 7.615-3.428 26.916-3.461 40.2-.02 7.729.292 9.516 2.05 11.75l2.072 2.635h105.773c104.249 0 105.798-.029 107.569-1.986 1.65-1.823 1.749-3.682 1.208-22.75-.642-22.648-1.953-30.987-6.77-43.076-8.447-21.196-26.218-34.66-54.298-41.138-4.47-1.032-11.148-2.19-14.839-2.575-5.762-.601-7.195-1.169-10.122-4.01-4.627-4.494-11.825-6.484-23.098-6.386-4.987.043-9.518.244-10.068.446m45.018 24.804c21.306 3.975 32.065 8.543 41.993 17.83 7.175 6.712 12.325 15.774 14.971 26.341 1.451 5.798 3.47 25.536 3.502 34.25L327 108H136.706l.57-14.25c.697-17.426 2.612-26.938 7.399-36.75 8.51-17.442 26.852-28.21 54.325-31.893l11.5-1.539c7.186-.957 48.389.338 56.018 1.761M118.684 143.262c-7.736 7.295-8.745 27.498-2.122 42.474 3.115 7.043 8.138 13.218 14.918 18.337 4.879 3.683 5.32 4.365 5.954 9.202 1.115 8.498 3.649 17.632 7.58 27.322 11.238 27.698 33.917 49.104 61.986 58.505 7.943 2.66 11.467 3.259 21.5 3.651 14.428.565 25.045-1.569 37.996-7.638 32.023-15.006 53.313-43.92 59.454-80.742 1.174-7.036 1.253-7.168 6.224-10.389 6.005-3.891 12.865-12.851 15.894-20.759 3.024-7.894 3.807-23.703 1.558-31.439-2.315-7.963-6.837-11.786-13.942-11.786-4.289 0-6.294.655-10.986 3.59-5.378 3.364-8.698 7.458-8.698 10.725 0 .779.933 2.601 2.073 4.05 2.843 3.615 7.065 3.486 11.927-.365 2.083-1.65 4.234-3 4.78-3 3.199 0 1.883 18.82-1.824 26.086-2.533 4.966-7.945 10.358-12.968 12.92-4.953 2.527-6.657 5.145-7.48 11.494-2.024 15.61-7.157 31.222-13.933 42.376-8.078 13.299-24.114 27.46-38.227 33.757-15.945 7.114-32.109 8.65-45.848 4.355-25.661-8.02-46.059-26.76-56.197-51.626-3.255-7.985-7.256-24.217-7.287-29.565-.027-4.649-2.15-7.682-7.483-10.692-6.15-3.47-11.082-8.836-13.84-15.054-3.072-6.929-3.65-24.051-.811-24.051.463 0 2.542 1.35 4.618 3 4.412 3.506 8.627 3.873 11.5 1 3.387-3.387 2.62-7.719-2.171-12.277-5.196-4.943-9.359-6.723-15.726-6.723-4.227 0-5.472.483-8.419 3.262M92.5 131.114c-52.468 6.974-85.441 38.039-91.478 86.184C.371 222.488 0 274.698 0 361.035c0 135.069.008 135.596 2.039 137.776 2.471 2.653 6.947 2.853 9.829.439l2.09-1.75.357-138.5c.35-135.643.4-138.675 2.411-147 2.678-11.085 5.311-18.324 9.106-25.044 12.892-22.824 37.175-37.522 68.215-41.289C106.052 144.21 109 142.69 109 137.956c0-3.659-2.824-6.857-6.5-7.361-1.65-.226-6.15.008-10 .519m266.815-.096c-4.71 1.874-5.787 8.679-1.861 11.767 1.702 1.339 4.843 2.137 10.25 2.605 15.822 1.368 34.151 7.424 45.728 15.109 17.873 11.863 28.554 28.111 33.856 51.501 2.139 9.44 2.155 10.373 2.451 147.5l.299 138 2.092 1.75c2.885 2.414 7.36 2.214 9.831-.439 2.031-2.18 2.039-2.707 2.039-137.776 0-87.413-.368-138.598-1.036-144.061-1.481-12.111-4.403-22.142-9.46-32.474-10.607-21.669-27.959-36.939-52.413-46.125-13.517-5.077-37.076-9.226-41.776-7.357"/><path d="M124 256.289c-17.719 8.919-28.764 16.697-42.88 30.197-19.223 18.382-33.358 41.524-39.733 65.049C39.659 357.912 39.5 362.591 39.5 407c0 43.169.193 49.214 1.76 55 4.165 15.378 13.522 28.621 25.007 35.391 7.27 4.285 18.992 7.457 28.886 7.817 9.066.329 11.847-1.282 11.847-6.863 0-5.235-2.504-6.934-11.412-7.741-22.614-2.049-35.05-12.333-40.031-33.104-1.472-6.141-1.64-12.703-1.367-53.5l.31-46.5 2.823-7.987c6.95-19.668 16.433-34.344 32.644-50.522 13.248-13.22 24.968-21.617 42.024-30.108 6.484-3.228 12.064-6.584 12.399-7.458 1.167-3.039.599-7.125-1.219-8.77-3.195-2.892-8.025-1.976-19.171 3.634m194.557-3.066c-1.628 2.323-1.989 5.489-.937 8.228.34.888 5.628 4.036 11.75 6.996 40.603 19.633 69.834 53.621 78.111 90.823 1.476 6.636 1.635 12.941 1.279 50.902-.358 38.183-.619 43.981-2.195 48.828-6.767 20.814-17.754 29.489-39.996 31.579-5.068.476-7.706 1.245-9.319 2.717-2.742 2.502-2.912 6.665-.398 9.769 1.679 2.074 2.597 2.268 9.872 2.089 25.72-.633 44.833-14.56 53.048-38.654l2.728-8v-103l-3.692-10.66c-4.436-12.807-9.251-22.595-16.403-33.34-14.749-22.16-39.479-43.36-64.905-55.641-11.429-5.521-16.435-6.217-18.943-2.636"/><path d="M135.4 273.765c-3.258 2.176-3.466 4.935-1.973 26.188.811 11.547 1.96 21.901 2.553 23.009 1.255 2.346 4.986 3.514 8.447 2.646 1.335-.335 9.885-4.18 19-8.543 13.707-6.562 16.754-8.41 17.618-10.684 2.059-5.416-2.304-10.43-8.287-9.522-.958.145-6.503 2.493-12.322 5.217-5.819 2.724-10.936 4.733-11.372 4.464-.435-.269-1.12-6.684-1.521-14.255-.901-17.008-1.84-19.254-8.043-19.254-1.65 0-3.495.33-4.1.734m183.149 1.521c-.99 1.51-1.867 7.184-2.585 16.727-.597 7.944-1.281 14.637-1.518 14.875-.238.237-5.48-1.965-11.649-4.895-12.019-5.707-15.61-6.377-18.784-3.505-2.68 2.426-2.685 7.956-.008 10.248 3.143 2.691 34.918 17.264 37.642 17.264 1.344 0 3.474-1.03 4.734-2.29 2.469-2.469 2.83-5.331 4.281-33.961.58-11.448.461-12.955-1.163-14.75-2.633-2.909-8.965-2.744-10.95.287M209.558 78.492C201.999 81.185 196 87.67 196 93.148V96h36c40.467 0 37.907.571 33.963-7.576-2.112-4.362-6.948-8.218-12.862-10.254-5.041-1.735-38.462-1.488-43.543.322m27.847 86.61c-1.696 1.872-1.939 4.065-2.218 20L234.874 203h-8.782c-7.238 0-9.073.322-10.437 1.829-2.277 2.516-2.1 7.726.345 10.171 1.809 1.809 3.333 2 15.927 2 19.158 0 18.073 1.621 18.073-27 0-20.47-.12-21.883-2.073-24.365-2.63-3.344-7.74-3.603-10.522-.533"/></symbol><symbol viewBox="0 0 1983 1658" id="services_icon_04" xmlns="http://www.w3.org/2000/svg"><path d="M976.5 1.498C965.493 4.507 41.152 321.873 36.485 324.246c-17.053 8.67-30.041 25.1-34.953 44.214-1.971 7.669-1.958 24.108.026 32.525 4.313 18.299 17.402 34.978 34.424 43.865 3.035 1.584 60.981 21.938 128.768 45.23 67.788 23.292 123.242 42.591 123.232 42.885-.009.294-54.572 19.156-121.25 41.916C100.055 597.641 41.675 618.064 37 620.267c-7.02 3.308-9.989 5.506-17.049 12.619-9.713 9.786-14.56 18.021-18.012 30.604-1.833 6.682-2.099 9.76-1.723 19.955.715 19.389 6.15 31.893 19.841 45.646 5.622 5.648 9.591 8.599 15.5 11.526 4.369 2.164 62.952 22.822 130.185 45.908 67.233 23.086 122.245 42.2 122.248 42.475.004.275-55.005 19.329-122.242 42.342C98.512 894.355 40.125 914.819 36 916.816 25.884 921.715 12.972 934.42 7.663 944.7c-10.276 19.893-10.306 44.866-.079 64.328 6.187 11.774 17.079 22.37 29.311 28.513 2.733 1.373 60.011 21.422 127.287 44.555 67.275 23.133 122.663 42.392 123.084 42.798.421.406-54.254 19.562-121.5 42.569-74.903 25.627-125.365 43.408-130.266 45.901-10.554 5.369-22.447 17.063-27.803 27.336-10.345 19.843-10.358 44.613-.034 64.6 5.266 10.196 18.185 22.922 28.337 27.914 5.474 2.692 905.098 312.938 935 322.446 6.41 2.038 22.4 2.826 30.063 1.48 6.066-1.064 927.315-316.172 940.696-321.759 17.868-7.461 31.663-22.696 37.922-41.881 3.323-10.187 3.796-27.219 1.04-37.5-4.898-18.281-17.572-34.405-33.68-42.849-3.047-1.597-60.891-21.912-128.541-45.144s-123.315-42.525-123.699-42.873c-.385-.349 54.965-19.697 123-42.996 68.034-23.299 126.193-43.674 129.24-45.278 16.153-8.501 28.852-24.673 33.655-42.86 2.748-10.401 2.29-27.412-1.009-37.5-6.127-18.738-18.753-33.042-36.187-40.996-3.85-1.757-61.225-21.784-127.5-44.505-66.275-22.721-120.84-41.602-121.255-41.959-.415-.357 54.26-19.467 121.5-42.466 67.24-22.999 125.63-43.432 129.755-45.407 10.508-5.029 24.039-18.522 29.249-29.167 5.555-11.35 7.173-18.636 7.109-32-.046-9.618-.485-12.809-2.681-19.5-5.629-17.149-17.529-31.601-32.258-39.172-4.923-2.531-54.559-20.098-131.208-46.437-67.809-23.301-122.709-42.55-122-42.776 30.832-9.843 248.353-85.383 253.283-87.96 22.482-11.749 37.446-39.26 35.105-64.54-.95-10.256-2.347-15.134-7.308-25.526-3.7-7.75-5.848-10.752-12.167-17-4.222-4.174-10.257-9.11-13.413-10.969-3.943-2.323-151.554-53.535-471.782-163.68-256.324-88.164-468.29-160.781-471.035-161.369-6.873-1.474-24.336-1.228-30.394.427m30.487 25.467c24.469 7.821 923.723 317.754 927.77 319.762 5.957 2.954 14.992 11.9 18.026 17.848 6.495 12.732 6.777 25.502.838 38.007-4.072 8.575-10.992 16.056-18.24 19.718-3.63 1.834-223.566 77.777-309.766 106.961-5.695 1.928-8.388 3.278-7.5 3.76.762.413 70.46 24.471 154.885 53.463s156.316 53.996 159.759 55.565c17.085 7.79 27.651 27.251 24.568 45.251-2.297 13.413-11.765 26.307-23.347 31.798-3.014 1.429-75.58 26.594-161.258 55.922-85.678 29.328-155.428 53.622-155 53.987.428.365 71.203 24.85 157.278 54.411 86.075 29.562 158.678 54.929 161.339 56.372 6.19 3.357 14.3 12.209 17.424 19.017 9.189 20.022 1.855 43.817-16.903 54.844-3.354 1.971-64.211 23.301-162.578 56.981-86.471 29.607-156.896 54.122-156.5 54.477.395.355 71.143 24.825 157.218 54.377 96.619 33.172 158.551 54.933 161.86 56.872 18.748 10.99 26.092 34.813 16.903 54.835-3.123 6.805-11.231 15.657-17.424 19.021-2.661 1.446-214.539 74.534-470.839 162.417-455.677 156.248-466.188 159.796-474.5 160.149-8.184.347-9.152.139-26-5.582-104.554-35.501-912.836-313.986-916.811-315.878-11.398-5.423-20.825-18.461-23.191-32.07-2.942-16.927 7.092-36.32 22.819-44.101 3.126-1.546 75.786-26.812 161.468-56.145 85.681-29.334 155.431-53.672 155-54.083-.432-.412-70.819-24.828-156.415-54.258-85.597-29.429-157.906-54.661-160.688-56.071-15.177-7.69-25.069-27.241-22.184-43.842 2.191-12.601 10.609-25.004 21.005-30.947 2.473-1.414 75.26-26.802 161.747-56.417 86.488-29.616 157.244-54.081 157.238-54.367-.007-.285-70.094-24.59-155.75-54.01-85.656-29.42-158.259-54.735-161.339-56.254-6.994-3.449-16.177-12.917-19.373-19.974-8.802-19.434-2.242-42.257 15.426-53.669 4.379-2.829 39.793-15.322 163.307-57.612 86.744-29.7 157.722-54.237 157.729-54.526.007-.29-70.525-24.771-156.738-54.403-86.212-29.632-158.53-54.764-160.705-55.849-6.322-3.152-14.964-12.099-18.369-19.016-3.894-7.91-5.461-17.308-4.19-25.121 2.056-12.632 10.688-25.368 20.995-30.978 5.566-3.03 935.789-322.194 941.157-322.916 5.077-.683 13.683.303 19.849 2.274"/><path d="M596.224 248.764c-217.401 74.572-394.926 135.895-394.5 136.274C202.675 385.884 988.11 656 989.619 656c.799 0 782.05-267.446 790.381-270.572 1.333-.5 1.333-.656 0-1.403-1.995-1.119-786.863-271.051-787.784-270.935-.394.049-178.59 61.103-395.992 135.674m769.124 18.808c238.426 81.986 339.296 117.094 338 117.641-1.017.429-162.015 55.662-357.776 122.741L989.645 629.916 634.572 507.831C439.283 440.685 279.16 385.442 278.745 385.069c-.415-.373 160.01-55.808 356.5-123.19L992.5 139.368l16.5 5.671c9.075 3.119 169.431 58.259 356.348 122.533"/><path d="M1401 606.157a728526.319 728526.319 0 01-242 83.116L998.5 744.37l-9-.012-9-.012L743 662.51c-130.625-45.01-239.149-82.296-241.164-82.857-3.425-.954-13.346 2.298-152.223 49.891-81.707 28.001-148.233 51.217-147.836 51.593C202.803 682.104 987.831 952 989.62 952c1.937 0 789.628-269.936 790.713-270.972.459-.437-3.816-2.371-9.5-4.297-5.683-1.927-72.583-24.929-148.667-51.117s-138.634-47.583-139-47.546c-.366.038-37.341 12.677-82.166 28.089m206.776 40.927c88.553 30.42 97.027 33.518 94.5 34.553-1.527.626-162.495 55.876-357.708 122.779L989.636 926.057 634.568 803.946c-195.287-67.162-355.382-122.412-355.765-122.779-.384-.367 48.931-17.682 109.588-38.478l110.285-37.811 236.973 81.497c189.715 65.245 238.668 81.734 245.467 82.685 12.417 1.737 20.962.268 44.019-7.566 10.651-3.619 118.14-40.466 238.865-81.882l219.5-75.301 13.5 4.679c7.425 2.573 57.274 19.716 110.776 38.094"/><path d="M1241 957.25l-241.5 83.035-9.5.105-9.5.104-240.265-82.747c-132.145-45.511-240.82-82.749-241.5-82.751-1.75-.006-297.702 101.397-297.706 102.004-.005.675 784.429 270.414 787.579 270.821 2.442.315 792.354-269.745 792.379-270.904.012-.55-297.099-103.038-298.043-102.809-.244.059-109.119 37.473-241.944 83.142m-515.923 21.635c124.533 42.837 231.237 79.529 237.122 81.538 14.29 4.879 25.349 6.332 36.225 4.76 6.409-.927 62.315-19.727 246.184-82.789 228.042-78.211 238.058-81.546 241.892-80.55 10.632 2.763 218.804 75.073 217.5 75.551-.825.302-161.895 55.505-357.934 122.674l-356.434 122.125-355.847-122.347c-229.424-78.881-355.383-122.65-354.543-123.199 1.058-.691 216.883-75.197 218.835-75.545.318-.057 102.468 34.945 227 77.782"/><path d="M1241.5 1253.326l-242 83.091-10-.012-10-.012-239.98-82.697C607.531 1208.213 499.181 1171 498.742 1171c-1.342 0-296.192 101.148-296.97 101.875-.708.662 785.215 271.458 787.842 271.458 1.869 0 791.386-270.67 791.386-271.31 0-.425-141.022-49.183-274.5-94.909l-23-7.879-242 83.091m-504.932 25.658c129.287 44.466 237.707 81.335 240.933 81.932 7.937 1.467 17.655 1.337 25.499-.341 3.575-.765 110.45-37.042 237.5-80.615 127.05-43.573 233.744-80.134 237.099-81.247l6.098-2.022 110.152 37.893c60.583 20.842 110.15 38.124 110.149 38.405-.001.281-160.762 55.608-357.248 122.949l-357.246 122.439-10.002-3.506c-5.501-1.928-165.573-57.004-355.715-122.392-190.142-65.387-345.475-119.132-345.185-119.433 1.309-1.353 220.065-75.873 221.398-75.42.825.281 107.281 36.892 236.568 81.358"/></symbol><symbol viewBox="0 0 354 512" id="services_icon_05" xmlns="http://www.w3.org/2000/svg"><path d="M163.487 1.799c-14.142 4.89-26.229 17.398-28.943 29.951l-.703 3.25h-47.21c-50.935 0-53.154.191-63.57 5.469C12.258 45.944 3.054 58.922.976 71.613c-1.305 7.97-1.305 395.804 0 403.774 2.721 16.617 14.717 30.276 30.905 35.19 6.892 2.091 283.346 2.091 290.238 0 16.41-4.981 28.351-18.764 30.96-35.737.615-4.003.873-79.519.698-204.84L353.5 71.5l-2.162-5.651c-1.189-3.108-2.928-6.821-3.865-8.25-.937-1.429-1.486-2.599-1.22-2.599s-1.032-1.607-2.885-3.571c-1.852-1.964-3.368-3.989-3.368-4.5 0-.511-.405-.929-.9-.929-.494 0-3.185-1.539-5.98-3.419-10.206-6.869-10.233-6.872-64.428-7.317-36.323-.298-48.917-.703-49.238-1.582-.237-.65-.573-2.082-.748-3.182-.39-2.463-3.413-8.391-5.482-10.75-.843-.962-1.243-1.75-.888-1.75 1.285 0-11.248-10.903-14.415-12.541-10.857-5.614-24.568-7.072-34.434-3.66M100.892 90.75c2.286 4.436 7.237 9.297 12.108 11.888 3.302 1.757 6.915 1.862 64 1.862s60.698-.105 64-1.862c4.871-2.591 9.822-7.452 12.108-11.888l1.933-3.75H301v373H53V87h45.959l1.933 3.75m-2.31-37.102c-.348.906-.912 4.956-1.254 9L96.707 70H70.502c-27.024 0-31.66.559-33.523 4.039C36.35 75.215 36 146.666 36 273.98v198.111l2.455 2.454L40.909 477h272.182l2.454-2.455 2.455-2.454V273.98c0-127.314-.35-198.765-.979-199.941-1.863-3.48-6.499-4.039-33.523-4.039h-26.205l-.621-7.352c-.342-4.044-.906-8.094-1.254-9-.577-1.505 1.663-1.648 25.791-1.648 14.714 0 29.053.482 32.357 1.087 9.553 1.749 15.967 6.675 20.068 15.413l2.346 5 .01 199.624c.011 218.938.434 203.765-5.904 211.767-1.616 2.041-5.334 5.038-8.262 6.66L316.5 494.5h-279l-5.324-2.949c-2.928-1.622-6.646-4.619-8.262-6.66-6.338-8.002-5.915 7.171-5.904-211.767L18.02 73.5l2.435-5c2.931-6.017 3.909-7.225 8.905-10.994 6.034-4.551 12.133-5.329 42.497-5.422 25.016-.077 27.303.057 26.725 1.564m86.09-35.153c10.028 2.978 17.211 12.206 18.802 24.156 1.099 8.246 2.645 9.093 17.359 9.506l12.334.346 2.916 3.264c2.828 3.165 2.917 3.584 2.917 13.702 0 11.595-1.015 14.97-5.145 17.106-4.094 2.117-109.616 2.117-113.71 0-4.13-2.136-5.145-5.511-5.145-17.106 0-10.118.089-10.537 2.917-13.702l2.916-3.264 12.334-.346c14.714-.413 16.26-1.26 17.359-9.506 1.558-11.698 8.754-21.131 18.383-24.097 6.033-1.859 9.656-1.872 15.763-.059"/><path d="M85.091 363.09c-3.434 1.373-5.027 3.88-5.027 7.91 0 4.153 1.6 6.542 5.333 7.961 3.757 1.428 117.449 1.428 121.206 0 3.733-1.419 5.333-3.808 5.333-7.961 0-4.153-1.6-6.542-5.333-7.961-3.575-1.359-118.105-1.311-121.512.051m1.409-71.389c-5.179 1.292-7.961 7.328-5.879 12.754C82.333 308.915 83.553 309 146 309s63.667-.085 65.379-4.545c1.425-3.715.606-8.121-1.959-10.531l-2.58-2.424-59.17-.149c-32.543-.082-60.07.075-61.17.35m-4.045-139.246c-3.094 3.093-3.26 8.252-.382 11.91L84.145 167h123.506l2.175-2.314c3.068-3.266 2.936-9.015-.281-12.231L207.091 150H84.909l-2.454 2.455m0 71a8.546 8.546 0 000 12.09L84.909 238h122.182l2.454-2.455c1.695-1.694 2.455-3.566 2.455-6.045s-.76-4.351-2.455-6.045L207.091 221H84.909l-2.454 2.455M86 185.706c-3.55 1.298-6 4.672-5.968 8.218.035 3.937 1.333 6.145 4.652 7.913 3.257 1.734 92.868 1.613 96.316-.131a8.311 8.311 0 00-.022-14.954c-3.165-1.591-7.534-1.742-48.478-1.671-24.75.042-45.675.324-46.5.625m-1.5 71.486c-5.239 3.046-6.184 9.877-1.92 13.884l2.579 2.424 45.171.311c30.765.211 46.364-.04 48.914-.789 6.626-1.945 8.628-10.112 3.595-14.668-1.925-1.743-4.878-1.868-49.193-2.089-34.397-.172-47.687.079-49.146.927m-2.045 72.263a8.546 8.546 0 000 12.09L84.909 344h47.611c29.583 0 48.314-.376 49.466-.992 2.268-1.214 4.315-7.009 3.392-9.605-.372-1.047-1.587-2.915-2.701-4.153l-2.026-2.25H84.909l-2.454 2.455m0 71a8.546 8.546 0 000 12.09L84.909 415h95.742l2.06-2.25c2.828-3.09 3.534-5.974 2.275-9.286-2.108-5.545-.691-5.398-52.281-5.432L84.909 398l-2.454 2.455m187.305-187.38c-.957.557-7.191 8.646-13.853 17.974s-12.45 17.169-12.863 17.424c-.413.255-2.216-1.577-4.007-4.071-4.004-5.575-6.751-6.773-11.758-5.127-4.292 1.412-6.566 4.933-5.822 9.015.488 2.674 13.018 21.2 16.031 23.7 2.604 2.161 8.219 1.633 11.077-1.043 1.438-1.346 9.818-12.568 18.624-24.937 15.461-21.719 15.992-22.628 15.473-26.49-.324-2.419-1.395-4.695-2.71-5.76-2.386-1.932-7.466-2.274-10.192-.685m.656-71.105c-1.146.463-7.631 8.647-14.411 18.186-6.78 9.539-12.532 17.569-12.782 17.844-.251.275-1.416-.829-2.589-2.453-4.467-6.181-6.376-7.547-10.55-7.547-6.335 0-10.355 5.528-8.179 11.25 1.112 2.925 9.99 15.672 13.874 19.919 3.038 3.323 6.678 4.299 10.355 2.776 2.447-1.014 19.319-23.361 34.227-45.335 3.501-5.16 3.416-8.987-.284-12.687-2.948-2.947-5.785-3.521-9.661-1.953m-2.575 143.78c-1.393 1.513-7.633 9.915-13.866 18.673-11.295 15.87-11.338 15.915-12.904 13.515-4.189-6.422-6.764-8.393-10.964-8.393-4.788 0-7.745 2.394-8.67 7.019-.52 2.601.326 4.445 5.657 12.335 8.942 13.234 10.873 15.101 15.62 15.101 4.997 0 5.169-.191 24.236-26.876 17.093-23.921 18.381-26.884 13.717-31.548-3.654-3.654-9.372-3.576-12.826.174m3.399 68.357c-2.447.905-6.239 5.604-18.687 23.151l-9.76 13.759-3.428-4.491c-5.317-6.962-9.778-8.349-14.618-4.542-3.065 2.411-4.093 5.976-2.745 9.521 1.553 4.086 13.866 20.847 16.315 22.21 2.698 1.501 6.208 1.61 8.71.271 1.723-.922 32.106-42.516 34.822-47.67 3.723-7.066-3.145-14.97-10.609-12.209"/></symbol><symbol viewBox="0 0 553 553" id="services_icon_06" xmlns="http://www.w3.org/2000/svg"><path d="M271.5 1.595c-3.68 1.9-54.688 64.291-55.738 68.175-1.077 3.987.922 9.015 4.272 10.747C222.06 81.565 226.142 82 233.95 82H245l-.008 32.25-.007 32.25-8.243 2.289c-4.533 1.259-13.186 4.722-19.229 7.696l-10.987 5.407-8.04-7.847c-8.639-8.433-13.625-10.819-19.82-9.486-5.548 1.195-7.907 3.01-20.282 15.607-13.347 13.588-15.085 16.67-13.891 24.635.616 4.107 1.678 5.653 9.072 13.209l8.375 8.559-4.44 8.552c-2.442 4.704-6.012 13.238-7.933 18.966l-3.494 10.413-32.036.264-32.037.264v-11.437c0-10.891-.126-11.587-2.629-14.562-2.373-2.821-3.102-3.096-7.491-2.827-4.734.29-5.698.979-36.753 26.298-17.541 14.3-32.62 27.194-33.509 28.654-2.1 3.446-2.048 7.666.137 11.04 2.13 3.29 63.657 53.629 67.209 54.989 1.701.651 3.769.604 6.28-.144 5.597-1.668 6.756-4.756 6.756-18.003v-11.064l32.037.264 32.036.264 3.494 10.413c1.921 5.728 5.498 14.275 7.947 18.994l4.455 8.58-7.443 7.507c-4.093 4.128-8.136 9.179-8.984 11.224-3.739 9.015-1.275 13.887 15.14 29.943 12.027 11.763 13.284 12.711 17.731 13.378 7.614 1.142 11.138-.522 19.994-9.438l7.907-7.961 9.593 4.806c7.872 3.945 15.921 7.013 27.843 10.614.966.291 1.25 7.652 1.25 32.409V471h-11.423c-10.702 0-11.61.157-14.371 2.48-3.26 2.743-4.629 7.277-3.274 10.842 1.226 3.224 52.757 65.897 55.412 67.393 2.762 1.555 7.552 1.555 10.308 0 2.641-1.491 54.207-64.213 55.424-67.416 1.348-3.543-.03-8.082-3.282-10.819-2.761-2.323-3.669-2.48-14.371-2.48H308v-32.031c0-24.757.284-32.118 1.25-32.409 11.922-3.601 19.971-6.669 27.843-10.614l9.593-4.806 7.907 7.961c8.856 8.916 12.38 10.58 19.994 9.438 4.447-.667 5.704-1.615 17.731-13.378 16.415-16.056 18.879-20.928 15.14-29.943-.848-2.045-4.891-7.096-8.984-11.224l-7.443-7.507 4.455-8.58c2.449-4.719 6.026-13.266 7.947-18.994l3.494-10.413 32.036-.264 32.037-.264v11.064c0 13.247 1.159 16.335 6.756 18.003 2.502.745 4.573.794 6.244.148 1.375-.531 16.9-12.745 34.5-27.141 22.123-18.096 32.41-27.137 33.327-29.292 1.922-4.516.725-8.826-3.586-12.906-4.002-3.788-57.076-47.251-61.214-50.128-1.378-.959-4.325-1.72-6.661-1.72-3.449 0-4.645.543-6.777 3.077-2.455 2.917-2.589 3.669-2.589 14.5V245h-64.777l-.699-3.75c-1.01-5.422-7.06-20.714-11.128-28.129l-3.5-6.378 7.954-8.148c8.543-8.753 10.929-13.711 9.591-19.929-1.194-5.544-3.006-7.903-15.607-20.31-9.497-9.35-13.254-12.397-16.334-13.244-4.929-1.357-5.079-1.356-9.988.006-2.832.787-6.343 3.406-12.121 9.046l-8.134 7.94-6.378-3.5c-7.415-4.068-22.707-10.118-28.129-11.128l-3.75-.699V82h11.05c7.808 0 11.89-.435 13.916-1.483 3.35-1.732 5.349-6.76 4.272-10.747-1.109-4.102-52.088-66.315-55.889-68.204-3.924-1.95-6.03-1.944-9.849.029M298.43 42l21.649 26.5-12.54.28-12.539.28v88.713l4.75.689c10.868 1.575 32.385 10.431 42.93 17.669 2.299 1.578 4.542 2.869 4.984 2.869.442 0 5.603-4.785 11.47-10.633 9.025-8.998 11.031-10.542 13.039-10.038 3.177.797 22.827 20.849 22.827 23.294 0 1.098-4.473 6.371-10.5 12.377-5.775 5.755-10.5 10.841-10.5 11.302 0 .461 1.291 2.719 2.869 5.018 7.238 10.545 16.094 32.062 17.669 42.93l.689 4.75h88.713l.28-12.502.28-12.503 18.5 15.138a51771.178 51771.178 0 0126.635 21.807l8.134 6.669-26.634 21.789-26.635 21.79-.28-12.605-.28-12.604-44.104.261-44.104.26-2.311 9.606c-2.791 11.6-8.475 25.103-14.92 35.445l-4.768 7.649 10.634 10.666c6.547 6.568 10.633 11.45 10.633 12.706 0 1.939-21.634 24.428-23.5 24.428-.444 0-5.878-5.004-12.077-11.119l-11.269-11.119-7.339 4.574c-12.77 7.959-26.716 13.496-43.065 17.096l-2.75.606v87.902l12.631.28 12.63.28-21.573 26.297c-11.866 14.463-21.775 26.388-22.021 26.5-.247.112-10.231-11.722-22.188-26.297l-21.74-26.5 12.63-.28 12.631-.28v-87.902l-2.75-.606c-16.058-3.536-30.499-9.271-43.077-17.106l-7.327-4.564-11.269 11.119C187.378 390.996 181.944 396 181.5 396c-1.866 0-23.5-22.489-23.5-24.428 0-1.256 4.086-6.138 10.633-12.706l10.634-10.666-4.768-7.649c-6.445-10.342-12.129-23.845-14.92-35.445l-2.311-9.606-44.104-.26-44.104-.261-.28 12.645-.28 12.644-26.149-21.384C27.969 287.123 16.254 277.05 16.318 276.5c.063-.55 11.83-10.58 26.149-22.289l26.033-21.29.28 12.55.28 12.55 44.072-.261 44.071-.26 2.277-9c3.234-12.782 8.126-24.568 14.239-34.304 2.904-4.626 5.281-8.709 5.281-9.072 0-.363-4.725-5.369-10.5-11.124-6.351-6.329-10.5-11.255-10.5-12.466 0-2.688 20.786-23.534 23.467-23.534 1.208 0 6.268 4.254 12.771 10.738 10.309 10.276 10.868 10.676 13.017 9.304 15.866-10.13 26.448-14.879 41.22-18.503l9.025-2.213.26-44.133.261-44.133-12.543-.28-12.543-.28 21.783-26.664c11.98-14.666 21.845-26.591 21.922-26.5.077.09 9.883 12.089 21.79 26.664"/><path d="M260 214.576c-9.649 2.534-19.338 7.995-27.159 15.306-13.262 12.399-19.962 27.589-20.121 45.618-.107 12.206 1.272 18.447 6.521 29.5 8.215 17.298 26.372 31.14 45.26 34.505 10.003 1.782 13.977 1.786 23.884.02 12.777-2.277 23.313-7.95 33.07-17.805 13.528-13.664 18.846-26.606 18.786-45.72-.058-18.464-6.619-33.531-20.082-46.118-7.982-7.462-17.622-12.826-27.619-15.367-7.531-1.914-25.145-1.881-32.54.061m28.297 12.913c22.964 5.982 38.708 25.937 38.667 49.011-.023 12.855-4.337 24.245-12.713 33.571-20.268 22.565-55.122 22.694-75.251.278-18.034-20.082-17.391-49.611 1.5-68.935 12.503-12.79 31.22-18.243 47.797-13.925"/></symbol><symbol viewBox="0 0 512 512" id="testimonials__icon_01" xmlns="http://www.w3.org/2000/svg"><path d="M397 .634c-6.235 2.374-11.045 6.05-21.526 16.453l-12.026 11.936-4.937-5.011c-2.714-2.757-5.418-5.012-6.008-5.012C351.172 19 341 29.202 341 30.537c0 .536 14.849 15.818 32.998 33.961l32.998 32.986 6.23-6.23 6.23-6.23-5.224-5.289-5.224-5.29 7.779-7.733 7.779-7.734 16.642 19.403c9.152 10.672 17.196 20.293 17.875 21.38 1.063 1.702-.76 7.476-13.136 41.607L431.577 181h-9.739c-5.357 0-12.031.491-14.832 1.092C395.651 184.527 388 194.627 388 207.179V214H281l-.022-27.25c-.02-25.249-.172-27.581-2.059-31.75-2.735-6.043-6.41-9.776-12.419-12.617l-5-2.363h-110l-5.056 2.354c-5.837 2.718-12.01 9.404-13.442 14.561-.545 1.961-.993 15.603-.996 30.315L132 214H0v51h16v247h51V265h79.738l4.631 12.309L156 289.618V346h-33l.02 4.25c.066 14.025 4.548 26.058 12.707 34.117 5.512 5.445 14.42 10.233 20.826 11.193 2.446.367 4.447.754 4.447.861 0 .106-8.55 24.134-19 53.396-13.948 39.055-19 54.396-19 57.692V512h18l-.012-3.25c-.007-1.787 1.644-7.985 3.669-13.772l3.681-10.523 28.456-17.477c15.65-9.613 28.994-17.478 29.653-17.478.658 0 14.019 7.875 29.691 17.5l28.494 17.5 3.684 10.5c2.027 5.775 3.685 11.963 3.685 13.75L272 512h18v-4.407c0-3.187-5.255-19.115-19-57.593-10.45-29.253-19-53.319-19-53.48 0-.161 2.001-.593 4.447-.96 10.983-1.647 24.092-11.942 29.08-22.838 2.388-5.216 4.415-15.671 4.453-22.972L290 346h-34.089l.294-27.75.295-27.75 4.881-12.75 4.881-12.75H355v247h141V265h16v-51h-15.737l-.466-7.25c-.722-11.242-5.021-18.218-14.163-22.982-3.459-1.802-6.298-2.223-17.384-2.577-7.287-.232-13.25-.766-13.25-1.185 0-.419 5.219-15.104 11.597-32.634 6.378-17.53 13.099-36.007 14.935-41.061l3.337-9.189-22.601-26.214-22.601-26.215 1.167-4.361c3.923-14.668-3.097-30.536-16.53-37.366C416.502 1.033 413.727.476 407 .293c-4.675-.126-9.175.027-10 .341M478 334.5V404h-16v18h16v73H372v-73h74v-18h-74V265h106v69.5m17-95v7.5H17v-15h478v7.5m-236.462-81.048c2.045.854 3.884 2.527 4.468 4.065.56 1.472.994 13.283.994 27.048V214H148.905l.298-25.897c.27-23.571.464-26.081 2.151-27.944 1.02-1.126 2.82-2.236 4-2.467 1.18-.231 24.098-.481 50.928-.556 40.603-.113 49.365.107 52.256 1.316M247 265.414c0 .228-1.681 4.616-3.736 9.75l-3.737 9.336-.317 30.75-.317 30.75H174v-57.909l-4-11.214c-2.2-6.167-4-11.362-4-11.545 0-.183 18.225-.332 40.5-.332s40.5.186 40.5.414M49 380v115H34V265h15v115m219.611-13.25c-.792 1.513-2.941 4.19-4.776 5.949-6.646 6.376-5.983 6.303-57.553 6.279-44.08-.021-47.013-.133-50.782-1.945-2.2-1.058-4.693-2.51-5.541-3.228-1.907-1.616-6.959-8.257-6.959-9.149 0-.361 28.587-.656 63.526-.656h63.525l-1.44 2.75m-33.975 33.922c3.259 7.798 3.337 7.691-13.136 17.915-13.332 8.274-15.222 9.168-17 8.046-1.1-.694-7.737-4.763-14.749-9.041-7.012-4.279-12.998-8.183-13.304-8.677-.305-.494.227-3.377 1.182-6.407l1.736-5.508h53.737l1.534 3.672M410.685 18.064c4.191 1.583 8.222 5.878 9.311 9.92 1.805 6.703-.133 10.288-12.288 22.727l-11.102 11.361-10.304-10.269-10.304-10.269 10.751-10.87c13.217-13.363 16.852-15.277 23.936-12.6m65.001 183.11c1.857 1.745 2.314 3.226 2.314 7.5V214h-73v-4.05c0-4.293 2.113-9.429 4.229-10.281.699-.281 15.417-.547 32.707-.59 30.952-.078 31.471-.046 33.75 2.095M249.288 441.766c2.982 8.379 5.205 15.234 4.94 15.234-.265 0-7.191-4.124-15.39-9.165-9.419-5.791-14.557-9.516-13.957-10.116 1.273-1.273 18.433-11.738 18.742-11.43.133.134 2.682 7.098 5.665 15.477m-69.979-9.72c4.845 2.934 8.992 5.632 9.216 5.994.414.67-29.458 19.417-29.952 18.798-.506-.637 10.69-30.794 11.309-30.46.34.184 4.582 2.734 9.427 5.668"/></symbol><symbol viewBox="0 0 512 512" id="testimonials__icon_02" xmlns="http://www.w3.org/2000/svg"><path d="M230.5.651C163.355 7.871 102.558 40.045 59.776 91c-30.065 35.808-48.746 76.409-57.04 123.97C.834 225.88.551 231.185.551 256s.283 30.12 2.185 41.03c9.41 53.961 31.934 98.635 69.246 137.344 38.347 39.782 86.607 65.058 142.988 74.89 10.91 1.902 16.215 2.185 41.03 2.185 31.339 0 40.737-1.064 65.256-7.386 88.204-22.742 160.065-94.603 182.807-182.807 6.322-24.519 7.386-33.917 7.386-65.256s-1.064-40.737-7.386-65.256c-22.74-88.193-94.605-160.065-182.782-182.801C298.644 2.107 287.886.8 260 .498c-14.025-.152-27.3-.083-29.5.153M288 30.554c51.926 7.879 97.7 31.807 133.783 69.933 33.03 34.901 53.712 78.61 60.335 127.513 1.927 14.229 1.653 45.005-.53 59.5-11.244 74.66-56.586 137.849-123.088 171.536-22.435 11.365-45.603 18.724-71 22.554-16.198 2.443-46.56 2.486-62.5.088-48.949-7.363-91.08-27.902-126.158-61.504C61.614 384.513 38.096 338.771 30.368 287c-2.405-16.117-2.388-46.485.035-62.5C41.715 149.752 86.997 86.651 153.5 52.964c26.018-13.179 52.253-20.796 82.5-23.952 11.618-1.212 39.248-.393 52 1.542"/><path d="M133.47 317.019c-5.963 3.861-11.052 7.229-11.308 7.485-.818.819 6.344 10.728 14.092 19.496 22.786 25.784 53.822 43.784 88.246 51.182 17.957 3.859 47.544 3.498 66.316-.807 35.058-8.042 67.667-28.319 89.857-55.875 5.187-6.442 9.748-13.413 9.159-14.001-1.594-1.595-22.347-14.488-23.238-14.437-.602.034-3.344 3.21-6.094 7.058-6.23 8.718-19.74 21.753-29.551 28.512-22.726 15.656-48.235 23.66-75.449 23.671-26.643.012-52.438-8.281-74.923-24.087-9.304-6.54-24.25-21.19-30.077-29.481-2.2-3.131-4.492-5.702-5.094-5.713-.602-.012-5.973 3.137-11.936 6.997M334.5 172.227c-8.014 2.857-15.304 10.269-17.56 17.855-3.903 13.125 1.573 27.015 13.181 33.435 4.705 2.602 6.381 2.975 13.379 2.979 6.444.003 8.876-.451 12.5-2.336 8.582-4.462 12.985-10.33 15.08-20.099 2.715-12.657-4.824-26.577-16.827-31.067-5.817-2.177-14.817-2.526-19.753-.767m-172.176.36c-17.981 6.59-23.572 30.671-10.561 45.49 5.156 5.873 11.439 8.424 20.737 8.419 6.998-.004 8.674-.377 13.379-2.979 19.49-10.78 19.178-39.56-.536-49.515-6.036-3.048-16.765-3.707-23.019-1.415"/></symbol><symbol viewBox="0 0 436 512" id="testimonials__icon_03" xmlns="http://www.w3.org/2000/svg"><path d="M176.5 1.337c-8.76 2.877-16.191 8.577-21.017 16.122C152.002 22.901 149 31.54 149 36.116v2.753l-23.75.316-23.75.315-6.5 3.128c-6.822 3.283-13.968 9.476-16.432 14.24l-1.458 2.819-15.805.611c-17.075.66-22.69 1.85-32.793 6.949-7.603 3.837-18.052 14.322-22.258 22.334C-.421 102.299 0 89.05 0 286.5c0 197.535-.422 184.295 6.281 196.88 6.493 12.19 17.828 21.617 31.661 26.333l6.558 2.235 143.04.026c157.643.029 148.247.392 160.879-6.219 8.781-4.597 18.601-14.85 22.904-23.917 4.625-9.744 5.677-15.448 5.677-30.78 0-10.79-.253-12.941-1.582-13.451-3.063-1.175-27.955-.67-29.218.593-.787.787-1.203 5.001-1.21 12.25-.008 9.516-.337 11.744-2.367 16.05-2.81 5.958-5.575 8.674-11.623 11.416-4.46 2.022-5.733 2.04-142.5 2.04s-138.04-.018-142.5-2.04c-6.048-2.742-8.813-5.458-11.623-11.416l-2.357-5 .012-175c.012-173.798.026-175.031 2.045-179.482 2.481-5.47 4.245-7.509 9.423-10.888 3.754-2.45 4.862-2.63 18-2.919l14-.309 1.777 3.933c2.482 5.495 10.572 13.259 17.435 16.734l5.788 2.931h176l5.766-2.92c6.344-3.213 14.729-11.405 17.394-16.994L301.37 93l12.565.01c11.108.008 13.145.283 17.565 2.367 5.958 2.81 8.674 5.575 11.416 11.623 1.98 4.368 2.041 6.268 2.062 64.628.018 50.017.255 60.321 1.408 61.278.94.78 6.011 1.061 15.75.872l14.364-.278.294-61.5c.202-42.369-.055-63.366-.827-67.5-2.596-13.894-13.076-28.723-25.467-36.033-9.929-5.858-16.928-7.503-34.805-8.18-15.793-.599-15.806-.602-17.163-3.225-2.226-4.304-11.196-12.014-17.314-14.882-5.621-2.634-6.121-2.685-29.361-2.994l-23.643-.315-.662-5.297c-1.514-12.12-10.575-24.503-22.031-30.108-5.11-2.5-7.306-2.95-15.488-3.178-5.889-.163-11.062.238-13.533 1.049m21.081 26.726c8.114 7.58 6.613 19.244-3.081 23.937-5.172 2.503-6.857 2.501-11.934-.015-5.144-2.548-7.709-6.078-8.314-11.438-.568-5.043 1.293-9.145 5.914-13.033 2.889-2.431 3.863-2.68 9.022-2.307 4.378.317 6.419 1.012 8.393 2.856"/><path d="M286.493 264.351c-5.923 2.758-10.611 7.769-12.907 13.794-1.486 3.901-1.629 10.091-1.372 59.355.259 49.806.449 55.297 2.007 58.144 2.39 4.367 7.25 9.027 12.145 11.645 4.095 2.19 4.63 2.214 57.011 2.495 45.866.246 53.6.074 58.327-1.3 7.347-2.136 13.571-7.931 16.272-15.149 1.943-5.193 2.036-7.29 1.787-40.157L419.5 318.5l-2.169-.309c-1.739-.248-4.526 2.629-14.049 14.5C386.495 353.618 388 350.414 388 365.223V378h-85v-85h52.867l10.539-13.25c6.21-7.807 10.551-14.174 10.567-15.5L377 262l-42.75.01c-42.669.01-42.759.014-47.757 2.341M74.4 206.4c-2.884 2.884-3.4 4.1-3.4 8.015 0 3.86.56 5.225 3.423 8.35l3.423 3.735 106.327.299c58.48.164 108.325.011 110.767-.34 8.96-1.289 13.572-9.701 9.566-17.448-3.333-6.444 5.051-6.011-116.329-6.011H77.8l-3.4 3.4m2.493-44.903c-7.697 4.184-7.893 16.489-.327 20.538 3.901 2.088 219.721 2.22 223.613.137 7.94-4.25 7.491-17.323-.713-20.751-5.079-2.122-218.663-2.049-222.573.076"/><path d="M418.5 245.668c-1.1.296-2.842 1.28-3.871 2.185-1.028.906-16.476 19.985-34.329 42.397-17.852 22.413-32.828 40.75-33.279 40.75-.451 0-3.881-4.111-7.622-9.135-7.055-9.477-10.36-11.865-16.417-11.865-7.946 0-13.92 7.87-12.105 15.947 1.135 5.05 25.032 37.438 29.224 39.605 3.44 1.779 8.888 1.865 12.551.198 3.321-1.512 81.99-99.476 82.948-103.292 2.111-8.41-2.945-16.422-10.728-17.002-2.405-.179-5.272-.083-6.372.212M80 386.652c-6.246 2.058-9 5.698-9 11.894 0 4.345 2.867 8.742 6.748 10.35 2.027.839 16.503 1.083 52.461.882l49.661-.278 2.972-2.848c3.924-3.76 4.818-8.642 2.464-13.458-3.562-7.287-2.875-7.201-56.306-7.113-26.125.042-48.175.299-49 .571"/></symbol><symbol viewBox="0 0 438 512" id="testimonials__icon_04" xmlns="http://www.w3.org/2000/svg"><path d="M77.284 159.969c-15.344 9.355-23.663 54.27-18.204 98.282 4.113 33.166 18.92 74.634 37.753 105.732l5.138 8.483-12.926 2.671C31.66 386.994 0 405.942 0 428.427c0 10.375 5.081 19.441 16.492 29.428 28.583 25.015 84.465 43.88 155.008 52.328 14.987 1.794 80.013 1.794 95 0 70.543-8.448 126.425-27.313 155.008-52.328C432.919 447.868 438 438.802 438 428.427c0-15.39-14.488-29.037-42.423-39.96-12.323-4.819-30.911-10.212-45.267-13.134l-8.81-1.793 7.028-.649c22.26-2.053 45.756-14.201 60.296-31.175 13.93-16.262 21.518-37.549 21.47-60.236-.03-14.657-4.467-26.034-13.11-33.624-5.221-4.583-16.376-9.435-26.471-11.513L382 234.549l-.006-10.024c-.013-22.235-6.202-48.025-14.196-59.156-5.741-7.994 6.857-7.369-148.449-7.365-136.17.003-138.911.041-142.065 1.965m275.947 19.281c7.766 11.962 11.36 49.942 7.31 77.25-5.91 39.856-20.604 76.482-46.116 114.952-10.548 15.906-19.286 25.773-29.95 33.821-19.478 14.699-40.901 21.997-64.475 21.963-18.471-.026-32.976-3.535-49.202-11.902-17.986-9.274-31.603-22.466-46.231-44.789-21.499-32.808-34.806-62.644-41.943-94.045-8.111-35.683-7.126-74.562 2.403-94.833L87.22 177h264.55l1.461 2.25M119.768 398.307c25.601 31.554 60.828 48.656 100.277 48.684 38.515.026 75.448-17.837 98.955-47.863 5.389-6.884 5.594-7.026 10.17-7.077 4.743-.052 22.202 3.379 35.83 7.04 30.243 8.127 53 21.005 53 29.993 0 10.622-20.819 25.78-52.581 38.285-35.649 14.035-76.227 22.098-124.877 24.812-34.591 1.93-75.628-1.1-110.542-8.162-58.995-11.934-110-37.51-110-55.158 0-3.138.722-4.324 4.929-8.107C36.452 410.393 58.56 401.97 96 393.674c3.575-.792 9.234-1.493 12.575-1.557l6.076-.117 5.117 6.307m271.254-141.496c8.613 2.407 14.463 6.259 16.969 11.171 5.031 9.862 2.794 31.004-4.932 46.619-9.282 18.76-29.134 33.578-50.776 37.901l-3.218.643 6.365-13.323c12.927-27.06 20.128-50.358 25.059-81.072.706-4.403 1.317-4.515 10.533-1.939M218.484 3.201c-3.425 4.071-2.981 9.109 1.282 14.532 4.696 5.976 6.461 10.226 6.991 16.835.683 8.505-1.592 14.757-8.387 23.046-9.778 11.929-13.342 21.129-13.359 34.479-.016 12.717 4.28 24.001 12.342 32.415 3.302 3.446 5.032 4.492 7.429 4.492 9.932 0 13.656-8.967 7.231-17.411-5.353-7.034-7.381-12.415-7.381-19.589 0-8.132 2.364-13.68 9.457-22.199 13.925-16.725 16.387-36.365 6.949-55.443C235.914 3.999 231.601 0 225.554 0c-3.696 0-4.795.498-7.07 3.201m74.843 41.569c-1.195.192-3.333 1.509-4.75 2.926-3.577 3.577-3.424 8.5.441 14.204 3.864 5.703 4.037 11.364.493 16.202-6.541 8.931-8.509 12.573-9.58 17.728-1.502 7.238-.525 15.352 2.632 21.852 5.268 10.845 13.516 14.393 19.514 8.395 3.926-3.926 3.902-8.464-.077-14.738-3.839-6.054-3.935-10.699-.329-15.949 6.609-9.624 8.052-12.147 9.154-16.006 1.505-5.27 1.499-12.528-.013-17.768-1.233-4.273-6.813-13.881-8.762-15.085-1.956-1.209-6.478-2.122-8.723-1.761m-139.953-.076c-1.169.227-3.184 1.539-4.477 2.916-3.388 3.606-3.155 8.967.626 14.423 3.491 5.038 3.989 11.137 1.224 15.011-.964 1.351-3.32 4.633-5.235 7.293-7.702 10.7-7.867 25.745-.407 37.007 3.216 4.857 7.2 7.656 10.895 7.656 3.827 0 7.787-2.826 8.966-6.397 1.207-3.659.529-5.961-4.006-13.603-2.951-4.973-2.11-9.81 2.833-16.292 7.065-9.265 7.707-11.115 7.706-22.208 0-8.933-.289-10.546-2.701-15.12C166.3 50.643 160.976 45 159.005 45c-.463 0-1.441-.162-2.173-.36-.733-.197-2.289-.173-3.458.054"/><path d="M113.206 207.048c-3.943 1.582-5.512 7.184-5.588 19.952-.081 13.563 1.997 24.022 6.888 34.675 6.951 15.139 12.645 20.162 19.593 17.284 7.081-2.933 7.743-9.261 1.976-18.899-6.925-11.573-8.384-17.455-8.54-34.441l-.138-14.881-2.754-2.369c-2.891-2.486-7.273-2.993-11.437-1.321"/></symbol><symbol viewBox="0 0 512 512" id="twitter" xmlns="http://www.w3.org/2000/svg"><path d="M4 440.5c55.6 5 105.7-9 151.3-43.2-47.7-4.2-79.6-28-97.4-72.6 15.6 1.9 30.2 2.4 45.7-1.8-51.4-16-78.8-49.6-82.5-103.8 15.4 7.2 29.9 12.4 47 12.6-30.5-22.9-46.1-52.6-45.5-90 .3-17.2 4.9-33.4 14-48.7C93.1 159.1 164 195.7 251.3 201.8c-.5-3.8-.8-6.8-1.2-9.9-7.2-55.4 28.8-105.8 83.8-116.3 34.5-6.6 65 2.5 90.8 26.3 4 3.6 7.4 4.4 12.4 3.1 20.1-5.1 39.2-12.5 57.7-22.5-7.1 23.4-21.7 41-41.5 55.8 4.5-.8 9.1-1.4 13.6-2.3 4.7-1 9.4-2.1 14.1-3.4 4.5-1.2 8.9-2.6 13.3-4.1 4.5-1.5 9-3.2 14.3-4.1-2.6 3.6-5.1 7.4-7.9 10.9-11.6 14.7-25 27.6-39.7 39.1-1.5 1.2-2.8 3.8-2.7 5.6.8 35.5-4.2 70.1-15.7 103.7-22.6 66.2-62 119.8-121.1 158.1-29.2 18.9-61.1 31.3-95.2 38.5-33.8 7.1-67.8 8.4-101.9 4.4-34.2-4-66.7-14.1-97.3-29.9-8.1-4.1-15.9-8.7-23.8-13.1.3-.4.5-.8.7-1.2z"/></symbol><symbol viewBox="0 0 32 32" id="up-arrow" xmlns="http://www.w3.org/2000/svg"><path d="M24 21a1 1 0 01-.71-.29L16 13.41l-7.29 7.3a1 1 0 11-1.42-1.42l8-8a1 1 0 011.42 0l8 8a1 1 0 010 1.42A1 1 0 0124 21z" data-name="Layer 2"/></symbol><symbol viewBox="0 0 32 32" id="up-arrow1" xmlns="http://www.w3.org/2000/svg"><path d="M24 21a1 1 0 01-.71-.29L16 13.41l-7.29 7.3a1 1 0 11-1.42-1.42l8-8a1 1 0 011.42 0l8 8a1 1 0 010 1.42A1 1 0 0124 21z" data-name="Layer 2"/><path d="M0 0h32v32H0z"/></symbol><symbol viewBox="0 0 36 36" id="xd" xmlns="http://www.w3.org/2000/svg"><g data-name="Слой 2"><g data-name="Слой 1"><path d="M0 4a4 4 0 014-4h28a4 4 0 014 4v28a4 4 0 01-4 4H4a4 4 0 01-4-4z"/><path d="M3 3v30h30V3zm10.09 12.69L15 10.81h3.3l-3.34 7L18.38 25h-3.33l-2-5-1.94 5H7.82l3.42-7.17-3.35-7h3.29zm6 3.74a6.85 6.85 0 01.91-3.88 2.91 2.91 0 012.56-1.28 2.46 2.46 0 012 1.06V10h2.78v15h-2.53l-.13-1a2.52 2.52 0 01-2.18 1.27A2.88 2.88 0 0120 24a6.68 6.68 0 01-.89-3.73v-.8zm2.77.69a4.87 4.87 0 00.34 2.18 1.15 1.15 0 001.12.62 1.34 1.34 0 001.24-.73v-4.82a1.33 1.33 0 00-1.23-.78 1.2 1.2 0 00-1.12.61 4.86 4.86 0 00-.35 2.19z"/></g></g></symbol></svg>