<?xml version="1.0" standalone="no"?>
<!DOCTYPE svg PUBLIC "-//W3C//DTD SVG 1.1//EN" "http://www.w3.org/Graphics/SVG/1.1/DTD/svg11.dtd" >
<svg xmlns="http://www.w3.org/2000/svg" xmlns:xlink="http://www.w3.org/1999/xlink" version="1.1">
<metadata>
Created by FontForge 20190801 at Wed Feb  3 17:18:07 2021
 By root
Copyright 2018 The Asap Project Authors (https://github.com/Omnibus-Type/Asap)
</metadata>
<defs>
<font id="Asap-Medium" horiz-adv-x="535" >
  <font-face 
    font-family="Asap Medium"
    font-weight="500"
    font-stretch="normal"
    units-per-em="1000"
    panose-1="0 0 0 0 0 0 0 0 0 0"
    ascent="800"
    descent="-200"
    x-height="523"
    cap-height="702"
    bbox="-94 -244 1269 1046"
    underline-thickness="50"
    underline-position="-125"
    unicode-range="U+000D-FB02"
  />
<missing-glyph horiz-adv-x="545" 
d="M23 0v700h500v-700h-500zM103 50h340l-171 255zM72 95l171 255l-171 255v-510zM472 95v510l-169 -255zM273 395l169 255h-340z" />
    <glyph glyph-name="f_f" unicode="ff" horiz-adv-x="650" 
d="M271 438v85h121v-85h-121zM145 -2q-45 0 -45 25v415h-34q-23 0 -23 36v13q0 36 23 36h34v89q0 44 12 72t31.5 44.5t43 22.5t47.5 6q14 0 33 -2t33 -9.5t14 -23.5q0 -4 -2.5 -17.5t-8 -25.5t-13.5 -12q-6 0 -13.5 2.5t-25.5 2.5q-14 0 -25 -5t-17.5 -18.5t-6.5 -41.5v-84
h76q23 0 23 -36v-13q0 -36 -23 -36h-76v-415q0 -25 -46 -25h-11zM470 -2q-45 0 -45 25v415h-34q-23 0 -23 36v13q0 36 23 36h34v89q0 44 12 72t31.5 44.5t43 22.5t47.5 6q14 0 33 -2t33 -9.5t14 -23.5q0 -4 -2.5 -17.5t-8 -25.5t-13.5 -12q-6 0 -13.5 2.5t-25.5 2.5
q-14 0 -25 -5t-17.5 -18.5t-6.5 -41.5v-84h76q23 0 23 -36v-13q0 -36 -23 -36h-76v-415q0 -25 -46 -25h-11z" />
    <glyph glyph-name="f_f_i" unicode="ffi" horiz-adv-x="916" 
d="M778 -2q-46 0 -46 25v415h-205v85h261q46 0 46 -25v-475q0 -25 -46 -25h-10zM271 438v85h121v-85h-121zM145 -2q-45 0 -45 25v415h-34q-23 0 -23 36v13q0 36 23 36h34v89q0 44 12 72t31.5 44.5t43 22.5t47.5 6q14 0 33 -2t33 -9.5t14 -23.5q0 -4 -2.5 -17.5t-8 -25.5
t-13.5 -12q-6 0 -13.5 2.5t-25.5 2.5q-14 0 -25 -5t-17.5 -18.5t-6.5 -41.5v-84h76q23 0 23 -36v-13q0 -36 -23 -36h-76v-415q0 -25 -46 -25h-11zM470 -2q-45 0 -45 25v415h-34q-23 0 -23 36v13q0 36 23 36h34v89q0 44 12 72t31.5 44.5t43 22.5t47.5 6q14 0 33 -2t33 -9.5
t14 -23.5q0 -4 -2.5 -17.5t-8 -25.5t-13.5 -12q-6 0 -13.5 2.5t-25.5 2.5q-14 0 -25 -5t-17.5 -18.5t-6.5 -41.5v-84h76q23 0 23 -36v-13q0 -36 -23 -36h-76v-415q0 -25 -46 -25h-11zM779 589q-28 0 -40.5 6.5t-12.5 18.5v65q0 12 12.5 18.5t40.5 6.5t40.5 -6.5t12.5 -18.5
v-65q0 -12 -12.5 -18.5t-40.5 -6.5z" />
    <glyph glyph-name="f_f_l" unicode="ffl" horiz-adv-x="947" 
d="M271 438v85h121v-85h-121zM145 -2q-45 0 -45 25v415h-34q-23 0 -23 36v13q0 36 23 36h34v89q0 44 12 72t31.5 44.5t43 22.5t47.5 6q14 0 33 -2t33 -9.5t14 -23.5q0 -4 -2.5 -17.5t-8 -25.5t-13.5 -12q-6 0 -13.5 2.5t-25.5 2.5q-14 0 -25 -5t-17.5 -18.5t-6.5 -41.5v-84
h76q23 0 23 -36v-13q0 -36 -23 -36h-76v-415q0 -25 -46 -25h-11zM470 -2q-45 0 -45 25v415h-34q-23 0 -23 36v13q0 36 23 36h34v89q0 44 12 72t31.5 44.5t43 22.5t47.5 6q14 0 33 -2t33 -9.5t14 -23.5q0 -4 -2.5 -17.5t-8 -25.5t-13.5 -12q-6 0 -13.5 2.5t-25.5 2.5
q-14 0 -25 -5t-17.5 -18.5t-6.5 -41.5v-84h76q23 0 23 -36v-13q0 -36 -23 -36h-76v-415q0 -25 -46 -25h-11zM860 -7q-23 0 -46.5 7t-43 23t-31.5 44.5t-12 70.5v590q0 25 45 25h11q46 0 46 -25v-585q0 -38 14 -51.5t35 -13.5q17 0 24.5 2.5t13.5 2.5q8 0 13 -12t8 -25t3 -17
q0 -16 -14 -23.5t-32.5 -10t-33.5 -2.5z" />
    <glyph glyph-name="fi" unicode="fi" horiz-adv-x="563" 
d="M145 -2q-45 0 -45 25v415h-34q-23 0 -23 36v13q0 36 23 36h34v89q0 44 12 72t31.5 44.5t43 22.5t47.5 6q14 0 33 -2t33 -9.5t14 -23.5q0 -4 -2.5 -17.5t-8 -25.5t-13.5 -12q-6 0 -13.5 2.5t-25.5 2.5q-14 0 -25 -5t-17.5 -18.5t-6.5 -41.5v-84h240q45 0 45 -25v-475
q0 -25 -45 -25h-11q-46 0 -46 25v415h-183v-415q0 -25 -46 -25h-11zM435 589q-28 0 -40.5 6.5t-12.5 18.5v65q0 12 12.5 18.5t40.5 6.5t40 -6.5t12 -18.5v-65q0 -12 -12 -18.5t-40 -6.5z" />
    <glyph glyph-name="fl" unicode="fl" horiz-adv-x="622" 
d="M145 -2q-45 0 -45 25v415h-34q-23 0 -23 36v13q0 36 23 36h34v89q0 44 12 72t31.5 44.5t43 22.5t47.5 6q14 0 33 -2t33 -9.5t14 -23.5q0 -4 -2.5 -17.5t-8 -25.5t-13.5 -12q-6 0 -13.5 2.5t-25.5 2.5q-14 0 -25 -5t-17.5 -18.5t-6.5 -41.5v-84h76q23 0 23 -36v-13
q0 -36 -23 -36h-76v-415q0 -25 -46 -25h-11zM535 -7q-23 0 -46.5 7t-43 23t-31.5 44.5t-12 70.5v590q0 25 45 25h11q46 0 46 -25v-585q0 -38 14 -51.5t35 -13.5q17 0 24.5 2.5t13.5 2.5q8 0 13 -12t8 -25t3 -17q0 -16 -14 -23.5t-32.5 -10t-33.5 -2.5z" />
    <glyph glyph-name=".notdef" horiz-adv-x="545" 
d="M23 0v700h500v-700h-500zM103 50h340l-171 255zM72 95l171 255l-171 255v-510zM472 95v510l-169 -255zM273 395l169 255h-340z" />
    <glyph glyph-name="A" unicode="A" horiz-adv-x="613" 
d="M57 -2q-48 0 -48 18q0 4 1 7.5t2 8.5l232 653q6 17 45 17h35q40 0 45 -17l232 -654q3 -8 3 -15q0 -18 -45 -18h-18q-17 0 -29 4t-16 13l-53 152h-277l-52 -152q-4 -9 -15 -13t-27 -4h-15zM198 259h213l-91 264q-4 14 -7 29.5t-6 30.5h-2q-3 -15 -6.5 -30.5t-8.5 -29.5z
" />
    <glyph glyph-name="Aacute" unicode="&#xc1;" horiz-adv-x="613" 
d="M57 -2q-48 0 -48 18q0 4 1 7.5t2 8.5l232 653q7 17 45 17h35q40 0 45 -17l232 -654q3 -8 3 -15q0 -18 -45 -18h-18q-17 0 -29 4t-16 13l-53 152h-277l-52 -152q-4 -9 -15 -13t-27 -4h-15zM198 259h213l-91 264q-4 14 -7 29.5t-6 30.5h-2q-3 -15 -6.5 -30.5t-8.5 -29.5z
M249 751q-30 0 -30 13q0 4 3 9t9 11l54 58q14 15 30.5 20t48.5 5q26 0 42 -4t16 -14q0 -7 -7 -15t-30 -23l-63 -39q-20 -13 -34 -17t-39 -4z" />
    <glyph glyph-name="Abreve" unicode="&#x102;" horiz-adv-x="613" 
d="M57 -2q-48 0 -48 18q0 4 1 7.5t2 8.5l232 653q7 17 45 17h35q40 0 45 -17l232 -654q3 -8 3 -15q0 -18 -45 -18h-18q-17 0 -29 4t-16 13l-53 152h-277l-52 -152q-4 -9 -15 -13t-27 -4h-15zM198 259h213l-91 264q-4 14 -7 29.5t-6 30.5h-2q-3 -15 -6.5 -30.5t-8.5 -29.5z
M307 743q-42 0 -76.5 13.5t-55 38t-20.5 55.5q0 15 5.5 20.5t17.5 5.5q9 0 14 -3t9 -11q7 -16 28.5 -31t77.5 -15q57 0 78.5 15t28.5 32q3 8 8.5 10.5t13.5 2.5q12 0 17.5 -5.5t5.5 -20.5q0 -31 -20.5 -55.5t-55 -38t-76.5 -13.5z" />
    <glyph glyph-name="uni1EAE" unicode="&#x1eae;" horiz-adv-x="613" 
d="M57 -2q-48 0 -48 18q0 4 1 7.5t2 8.5l232 653q7 17 45 17h35q40 0 45 -17l232 -654q3 -8 3 -15q0 -18 -45 -18h-18q-17 0 -29 4t-16 13l-53 152h-277l-52 -152q-4 -9 -15 -13t-27 -4h-15zM198 259h213l-91 264q-4 14 -7 29.5t-6 30.5h-2q-3 -15 -6.5 -30.5t-8.5 -29.5z
M307 743q-42 0 -76.5 13.5t-55 38t-20.5 55.5q0 15 5.5 20.5t17.5 5.5q9 0 14 -3t9 -11q7 -16 28.5 -31t77.5 -15q57 0 78.5 15t28.5 32q3 8 8.5 10.5t13.5 2.5q12 0 17.5 -5.5t5.5 -20.5q0 -31 -20.5 -55.5t-55 -38t-76.5 -13.5zM249 886q-30 0 -30 13q0 4 3 9t9 11l54 58
q14 15 30.5 20t48.5 5q26 0 42 -4t16 -14q0 -7 -7 -15t-30 -23l-63 -40q-20 -12 -34 -16t-39 -4z" />
    <glyph glyph-name="uni1EB6" unicode="&#x1eb6;" horiz-adv-x="613" 
d="M57 -2q-48 0 -48 18q0 4 1 7.5t2 8.5l232 653q7 17 45 17h35q40 0 45 -17l232 -654q3 -8 3 -15q0 -18 -45 -18h-18q-17 0 -29 4t-16 13l-53 152h-277l-52 -152q-4 -9 -15 -13t-27 -4h-15zM198 259h213l-91 264q-4 14 -7 29.5t-6 30.5h-2q-3 -15 -6.5 -30.5t-8.5 -29.5z
M307 -183q-25 0 -36.5 6t-11.5 19v53q0 13 11.5 19t36.5 6q26 0 37 -6t11 -19v-53q0 -13 -11 -19t-37 -6zM307 743q-42 0 -76.5 13.5t-55 38t-20.5 55.5q0 15 5.5 20.5t17.5 5.5q9 0 14 -3t9 -11q7 -16 28.5 -31t77.5 -15q57 0 78.5 15t28.5 32q3 8 8.5 10.5t13.5 2.5
q12 0 17.5 -5.5t5.5 -20.5q0 -31 -20.5 -55.5t-55 -38t-76.5 -13.5z" />
    <glyph glyph-name="uni1EB0" unicode="&#x1eb0;" horiz-adv-x="613" 
d="M57 -2q-48 0 -48 18q0 4 1 7.5t2 8.5l232 653q7 17 45 17h35q40 0 45 -17l232 -654q3 -8 3 -15q0 -18 -45 -18h-18q-17 0 -29 4t-16 13l-53 152h-277l-52 -152q-4 -9 -15 -13t-27 -4h-15zM198 259h213l-91 264q-4 14 -7 29.5t-6 30.5h-2q-3 -15 -6.5 -30.5t-8.5 -29.5z
M307 743q-42 0 -76.5 13.5t-55 38t-20.5 55.5q0 15 5.5 20.5t17.5 5.5q9 0 14 -3t9 -11q7 -16 28.5 -31t77.5 -15q57 0 78.5 15t28.5 32q3 8 8.5 10.5t13.5 2.5q12 0 17.5 -5.5t5.5 -20.5q0 -31 -20.5 -55.5t-55 -38t-76.5 -13.5zM365 886q-25 0 -39 4t-34 16l-63 40
q-23 16 -30 23.5t-7 14.5q0 10 16 14t42 4q33 0 49 -5t30 -20l54 -58q6 -6 8.5 -11t2.5 -9q0 -13 -29 -13z" />
    <glyph glyph-name="uni1EB2" unicode="&#x1eb2;" horiz-adv-x="613" 
d="M57 -2q-48 0 -48 18q0 4 1 7.5t2 8.5l232 653q7 17 45 17h35q40 0 45 -17l232 -654q3 -8 3 -15q0 -18 -45 -18h-18q-17 0 -29 4t-16 13l-53 152h-277l-52 -152q-4 -9 -15 -13t-27 -4h-15zM198 259h213l-91 264q-4 14 -7 29.5t-6 30.5h-2q-3 -15 -6.5 -30.5t-8.5 -29.5z
M307 743q-42 0 -76.5 13.5t-55 38t-20.5 55.5q0 15 5.5 20.5t17.5 5.5q9 0 14 -3t9 -11q7 -16 28.5 -31t77.5 -15q57 0 78.5 15t28.5 32q3 8 8.5 10.5t13.5 2.5q12 0 17.5 -5.5t5.5 -20.5q0 -31 -20.5 -55.5t-55 -38t-76.5 -13.5zM294 873q-14 0 -27 12t-13 20q0 5 13 9.5
t29.5 11t29.5 15.5t13 22t-11.5 19t-26.5 6q-25 0 -41 -6t-27 -6q-10 0 -19 12t-9 23q0 7 15.5 14t38.5 12t44 5q48 0 76.5 -20.5t28.5 -52.5q0 -24 -14 -42t-34.5 -30t-39 -18t-26.5 -6z" />
    <glyph glyph-name="uni1EB4" unicode="&#x1eb4;" horiz-adv-x="613" 
d="M57 -2q-48 0 -48 18q0 4 1 7.5t2 8.5l232 653q7 17 45 17h35q40 0 45 -17l232 -654q3 -8 3 -15q0 -18 -45 -18h-18q-17 0 -29 4t-16 13l-53 152h-277l-52 -152q-4 -9 -15 -13t-27 -4h-15zM198 259h213l-91 264q-4 14 -7 29.5t-6 30.5h-2q-3 -15 -6.5 -30.5t-8.5 -29.5z
M307 743q-42 0 -76.5 13.5t-55 38t-20.5 55.5q0 15 5.5 20.5t17.5 5.5q9 0 14 -3t9 -11q7 -16 28.5 -31t77.5 -15q57 0 78.5 15t28.5 32q3 8 8.5 10.5t13.5 2.5q12 0 17.5 -5.5t5.5 -20.5q0 -31 -20.5 -55.5t-55 -38t-76.5 -13.5zM160 889q-8 0 -21 7t-13 16q0 4 1 8.5
t3 8.5q13 31 38.5 50.5t60.5 19.5q27 0 55 -10t54 -19.5t45 -9.5q21 0 33 9.5t21 19.5t17 10q9 0 21.5 -8t12.5 -18q0 -6 -5 -15q-15 -30 -39.5 -49t-59.5 -19q-28 0 -56.5 10t-54 19.5t-46.5 9.5q-20 0 -31.5 -10t-19 -20t-16.5 -10z" />
    <glyph glyph-name="uni01CD" unicode="&#x1cd;" horiz-adv-x="613" 
d="M57 -2q-48 0 -48 18q0 4 1 7.5t2 8.5l232 653q7 17 45 17h35q40 0 45 -17l232 -654q3 -8 3 -15q0 -18 -45 -18h-18q-17 0 -29 4t-16 13l-53 152h-277l-52 -152q-4 -9 -15 -13t-27 -4h-15zM198 259h213l-91 264q-4 14 -7 29.5t-6 30.5h-2q-3 -15 -6.5 -30.5t-8.5 -29.5z
M294 751q-27 0 -39.5 4.5t-25.5 20.5l-44 57q-9 10 -11 14t-2 8q0 6 6 9t23 3q18 0 29 -2.5t22 -11.5l55 -41l58 42q10 9 20.5 11t27.5 2t23 -3t6 -9q0 -4 -2.5 -8t-11.5 -16l-43 -55q-12 -16 -25 -20.5t-40 -4.5h-26z" />
    <glyph glyph-name="Acircumflex" unicode="&#xc2;" horiz-adv-x="613" 
d="M57 -2q-48 0 -48 18q0 4 1 7.5t2 8.5l232 653q7 17 45 17h35q40 0 45 -17l232 -654q3 -8 3 -15q0 -18 -45 -18h-18q-17 0 -29 4t-16 13l-53 152h-277l-52 -152q-4 -9 -15 -13t-27 -4h-15zM198 259h213l-91 264q-4 14 -7 29.5t-6 30.5h-2q-3 -15 -6.5 -30.5t-8.5 -29.5z
M199 740q-16 0 -21.5 3t-5.5 7t2.5 9t13.5 17l53 57q11 13 22 18t34 5h20q23 0 33 -4.5t23 -18.5l51 -55q13 -14 15.5 -19t2.5 -9t-5.5 -7t-22.5 -3q-11 0 -23 3.5t-22 10.5l-62 39l-60 -38q-12 -7 -24.5 -11t-23.5 -4z" />
    <glyph glyph-name="uni1EA4" unicode="&#x1ea4;" horiz-adv-x="613" 
d="M57 -2q-48 0 -48 18q0 4 1 7.5t2 8.5l232 653q7 17 45 17h35q40 0 45 -17l232 -654q3 -8 3 -15q0 -18 -45 -18h-18q-17 0 -29 4t-16 13l-53 152h-277l-52 -152q-4 -9 -15 -13t-27 -4h-15zM198 259h213l-91 264q-4 14 -7 29.5t-6 30.5h-2q-3 -15 -6.5 -30.5t-8.5 -29.5z
M199 740q-16 0 -21.5 3t-5.5 7t2.5 9t13.5 17l53 57q11 13 22 18t34 5h20q23 0 33 -4.5t23 -18.5l51 -55q13 -14 15.5 -19t2.5 -9t-5.5 -7t-22.5 -3q-11 0 -23 3.5t-22 10.5l-62 39l-60 -38q-12 -7 -24.5 -11t-23.5 -4zM249 890q-30 0 -30 13q0 4 3 8.5t9 11.5l54 58
q14 14 30.5 19.5t48.5 5.5q26 0 42 -4.5t16 -13.5q0 -8 -7 -15.5t-30 -22.5l-63 -40q-20 -12 -34 -16t-39 -4z" />
    <glyph glyph-name="uni1EAC" unicode="&#x1eac;" horiz-adv-x="613" 
d="M57 -2q-48 0 -48 18q0 4 1 7.5t2 8.5l232 653q7 17 45 17h35q40 0 45 -17l232 -654q3 -8 3 -15q0 -18 -45 -18h-18q-17 0 -29 4t-16 13l-53 152h-277l-52 -152q-4 -9 -15 -13t-27 -4h-15zM198 259h213l-91 264q-4 14 -7 29.5t-6 30.5h-2q-3 -15 -6.5 -30.5t-8.5 -29.5z
M199 740q-16 0 -21.5 3t-5.5 7t2.5 9t13.5 17l53 57q11 13 22 18t34 5h20q23 0 33 -4.5t23 -18.5l51 -55q13 -14 15.5 -19t2.5 -9t-5.5 -7t-22.5 -3q-11 0 -23 3.5t-22 10.5l-62 39l-60 -38q-12 -7 -24.5 -11t-23.5 -4zM307 -183q-25 0 -36.5 6t-11.5 19v53q0 13 11.5 19
t36.5 6q26 0 37 -6t11 -19v-53q0 -13 -11 -19t-37 -6z" />
    <glyph glyph-name="uni1EA6" unicode="&#x1ea6;" horiz-adv-x="613" 
d="M57 -2q-48 0 -48 18q0 4 1 7.5t2 8.5l232 653q7 17 45 17h35q40 0 45 -17l232 -654q3 -8 3 -15q0 -18 -45 -18h-18q-17 0 -29 4t-16 13l-53 152h-277l-52 -152q-4 -9 -15 -13t-27 -4h-15zM198 259h213l-91 264q-4 14 -7 29.5t-6 30.5h-2q-3 -15 -6.5 -30.5t-8.5 -29.5z
M199 740q-16 0 -21.5 3t-5.5 7t2.5 9t13.5 17l53 57q11 13 22 18t34 5h20q23 0 33 -4.5t23 -18.5l51 -55q13 -14 15.5 -19t2.5 -9t-5.5 -7t-22.5 -3q-11 0 -23 3.5t-22 10.5l-62 39l-60 -38q-12 -7 -24.5 -11t-23.5 -4zM365 890q-25 0 -39 4t-34 16l-63 40q-23 15 -30 22.5
t-7 15.5q0 9 16 13.5t42 4.5q33 0 49 -5.5t30 -19.5l54 -58q6 -7 8.5 -11.5t2.5 -8.5q0 -13 -29 -13z" />
    <glyph glyph-name="uni1EA8" unicode="&#x1ea8;" horiz-adv-x="613" 
d="M57 -2q-48 0 -48 18q0 4 1 7.5t2 8.5l232 653q7 17 45 17h35q40 0 45 -17l232 -654q3 -8 3 -15q0 -18 -45 -18h-18q-17 0 -29 4t-16 13l-53 152h-277l-52 -152q-4 -9 -15 -13t-27 -4h-15zM198 259h213l-91 264q-4 14 -7 29.5t-6 30.5h-2q-3 -15 -6.5 -30.5t-8.5 -29.5z
M199 740q-16 0 -21.5 3t-5.5 7t2.5 9t13.5 17l53 57q11 13 22 18t34 5h20q23 0 33 -4.5t23 -18.5l51 -55q13 -14 15.5 -19t2.5 -9t-5.5 -7t-22.5 -3q-11 0 -23 3.5t-22 10.5l-62 39l-60 -38q-12 -7 -24.5 -11t-23.5 -4zM294 876q-14 0 -27 12t-13 20q0 6 13 10.5t29.5 11
t29.5 15t13 21.5t-11.5 19t-26.5 6q-25 0 -41 -6t-27 -6q-10 0 -19 12t-9 24q0 7 15.5 14t38.5 12t44 5q48 0 76.5 -21t28.5 -53q0 -23 -14 -41t-34.5 -30.5t-39 -18.5t-26.5 -6z" />
    <glyph glyph-name="uni1EAA" unicode="&#x1eaa;" horiz-adv-x="613" 
d="M57 -2q-48 0 -48 18q0 4 1 7.5t2 8.5l232 653q7 17 45 17h35q40 0 45 -17l232 -654q3 -8 3 -15q0 -18 -45 -18h-18q-17 0 -29 4t-16 13l-53 152h-277l-52 -152q-4 -9 -15 -13t-27 -4h-15zM198 259h213l-91 264q-4 14 -7 29.5t-6 30.5h-2q-3 -15 -6.5 -30.5t-8.5 -29.5z
M199 740q-16 0 -21.5 3t-5.5 7t2.5 9t13.5 17l53 57q11 13 22 18t34 5h20q23 0 33 -4.5t23 -18.5l51 -55q13 -14 15.5 -19t2.5 -9t-5.5 -7t-22.5 -3q-11 0 -23 3.5t-22 10.5l-62 39l-60 -38q-12 -7 -24.5 -11t-23.5 -4zM160 893q-8 0 -21 6.5t-13 16.5q0 4 1 8t3 9
q13 31 38.5 50t60.5 19q27 0 55 -9.5t54 -19.5t45 -10q21 0 33 10t21 20t17 10q9 0 21.5 -8t12.5 -18q0 -6 -5 -16q-15 -30 -39.5 -48.5t-59.5 -18.5q-28 0 -56.5 10t-54 19.5t-46.5 9.5q-20 0 -31.5 -10t-19 -20t-16.5 -10z" />
    <glyph glyph-name="uni0200" unicode="&#x200;" horiz-adv-x="613" 
d="M57 -2q-48 0 -48 18q0 4 1 7.5t2 8.5l232 653q7 17 45 17h35q40 0 45 -17l232 -654q3 -8 3 -15q0 -18 -45 -18h-18q-17 0 -29 4t-16 13l-53 152h-277l-52 -152q-4 -9 -15 -13t-27 -4h-15zM198 259h213l-91 264q-4 14 -7 29.5t-6 30.5h-2q-3 -15 -6.5 -30.5t-8.5 -29.5z
M265 751q-25 0 -39 4t-34 17l-63 39q-23 16 -30 23.5t-7 14.5q0 10 16 14t42 4q33 0 49 -5t30 -20l54 -58q6 -6 8.5 -11t2.5 -9q0 -13 -29 -13zM437 751q-25 0 -39 4t-34 17l-63 39q-23 16 -30 23.5t-7 14.5q0 10 15.5 14t42.5 4q33 0 49 -5t30 -20l54 -58q6 -6 8.5 -11
t2.5 -9q0 -13 -29 -13z" />
    <glyph glyph-name="Adieresis" unicode="&#xc4;" horiz-adv-x="613" 
d="M57 -2q-48 0 -48 18q0 4 1 7.5t2 8.5l232 653q7 17 45 17h35q40 0 45 -17l232 -654q3 -8 3 -15q0 -18 -45 -18h-18q-17 0 -29 4t-16 13l-53 152h-277l-52 -152q-4 -9 -15 -13t-27 -4h-15zM198 259h213l-91 264q-4 14 -7 29.5t-6 30.5h-2q-3 -15 -6.5 -30.5t-8.5 -29.5z
M391 755q-26 0 -38 6t-12 18v60q0 13 12 19t38 6t38 -6t12 -19v-60q0 -12 -12 -18t-38 -6zM223 755q-26 0 -38 6t-12 18v60q0 13 12 19t38 6t38 -6t12 -19v-60q0 -12 -12 -18t-38 -6z" />
    <glyph glyph-name="uni1EA0" unicode="&#x1ea0;" horiz-adv-x="613" 
d="M57 -2q-48 0 -48 18q0 4 1 7.5t2 8.5l232 653q7 17 45 17h35q40 0 45 -17l232 -654q3 -8 3 -15q0 -18 -45 -18h-18q-17 0 -29 4t-16 13l-53 152h-277l-52 -152q-4 -9 -15 -13t-27 -4h-15zM198 259h213l-91 264q-4 14 -7 29.5t-6 30.5h-2q-3 -15 -6.5 -30.5t-8.5 -29.5z
M307 -183q-25 0 -36.5 6t-11.5 19v53q0 13 11.5 19t36.5 6q26 0 37 -6t11 -19v-53q0 -13 -11 -19t-37 -6z" />
    <glyph glyph-name="Agrave" unicode="&#xc0;" horiz-adv-x="613" 
d="M57 -2q-48 0 -48 18q0 4 1 7.5t2 8.5l232 653q7 17 45 17h35q40 0 45 -17l232 -654q3 -8 3 -15q0 -18 -45 -18h-18q-17 0 -29 4t-16 13l-53 152h-277l-52 -152q-4 -9 -15 -13t-27 -4h-15zM198 259h213l-91 264q-4 14 -7 29.5t-6 30.5h-2q-3 -15 -6.5 -30.5t-8.5 -29.5z
M365 751q-25 0 -39 4t-34 17l-63 39q-23 16 -30 23.5t-7 14.5q0 10 16 14t42 4q33 0 49 -5t30 -20l54 -58q6 -6 8.5 -11t2.5 -9q0 -13 -29 -13z" />
    <glyph glyph-name="uni1EA2" unicode="&#x1ea2;" horiz-adv-x="613" 
d="M57 -2q-48 0 -48 18q0 4 1 7.5t2 8.5l232 653q7 17 45 17h35q40 0 45 -17l232 -654q3 -8 3 -15q0 -18 -45 -18h-18q-17 0 -29 4t-16 13l-53 152h-277l-52 -152q-4 -9 -15 -13t-27 -4h-15zM198 259h213l-91 264q-4 14 -7 29.5t-6 30.5h-2q-3 -15 -6.5 -30.5t-8.5 -29.5z
M294 738q-14 0 -27 12t-13 20q0 5 13 9.5t29.5 11t29.5 15.5t13 22t-11.5 19t-26.5 6q-25 0 -41 -6t-27 -6q-10 0 -19 12t-9 23q0 7 15.5 14t38.5 12t44 5q48 0 76.5 -20.5t28.5 -52.5q0 -23 -14 -41t-34.5 -30.5t-39 -18.5t-26.5 -6z" />
    <glyph glyph-name="uni0202" unicode="&#x202;" horiz-adv-x="613" 
d="M57 -2q-48 0 -48 18q0 4 1 7.5t2 8.5l232 653q7 17 45 17h35q40 0 45 -17l232 -654q3 -8 3 -15q0 -18 -45 -18h-18q-17 0 -29 4t-16 13l-53 152h-277l-52 -152q-4 -9 -15 -13t-27 -4h-15zM198 259h213l-91 264q-4 14 -7 29.5t-6 30.5h-2q-3 -15 -6.5 -30.5t-8.5 -29.5z
M307 885q-42 0 -76.5 -13.5t-55 -37t-20.5 -56.5q0 -14 5.5 -20t17.5 -6q9 0 14 3.5t9 10.5q7 17 28.5 31.5t77.5 14.5q57 0 78.5 -15t28.5 -32q3 -7 8.5 -10t13.5 -3q12 0 17.5 6t5.5 20q0 33 -20.5 56.5t-55 37t-76.5 13.5z" />
    <glyph glyph-name="Amacron" unicode="&#x100;" horiz-adv-x="613" 
d="M57 -2q-48 0 -48 18q0 4 1 7.5t2 8.5l232 653q7 17 45 17h35q40 0 45 -17l232 -654q3 -8 3 -15q0 -18 -45 -18h-18q-17 0 -29 4t-16 13l-53 152h-277l-52 -152q-4 -9 -15 -13t-27 -4h-15zM198 259h213l-91 264q-4 14 -7 29.5t-6 30.5h-2q-3 -15 -6.5 -30.5t-8.5 -29.5z
M185 772q-23 0 -23 33v12q0 33 23 33h243q23 0 23 -33v-12q0 -33 -23 -33h-243z" />
    <glyph glyph-name="Aogonek" unicode="&#x104;" horiz-adv-x="613" 
d="M57 -2q-48 0 -48 18q0 4 1 7.5t2 8.5l232 653q7 17 45 17h35q40 0 45 -17l232 -654q3 -8 3 -15q0 -18 -45 -18h-18q-17 0 -29 4t-16 13l-53 152h-277l-52 -152q-4 -9 -15 -13t-27 -4h-15zM198 259h213l-91 264q-4 14 -7 29.5t-6 30.5h-2q-3 -15 -6.5 -30.5t-8.5 -29.5z
M534 -187q-50 0 -77 24t-27 60q0 32 24 66t72 54l51 -7q-35 -19 -53.5 -45.5t-18.5 -46.5q0 -13 10 -21.5t28 -8.5q20 0 30.5 5t21.5 5t17 -13t6 -30q0 -14 -13.5 -23.5t-32.5 -14t-38 -4.5z" />
    <glyph glyph-name="Aring" unicode="&#xc5;" horiz-adv-x="613" 
d="M57 -2q-48 0 -48 18q0 4 1 7.5t2 8.5l232 653q7 17 45 17h35q40 0 45 -17l232 -654q3 -8 3 -15q0 -18 -45 -18h-18q-17 0 -29 4t-16 13l-53 152h-277l-52 -152q-4 -9 -15 -13t-27 -4h-15zM198 259h213l-91 264q-4 14 -7 29.5t-6 30.5h-2q-3 -15 -6.5 -30.5t-8.5 -29.5z
M306 739q-38 0 -63 25t-25 63t25 63.5t63 25.5t63.5 -25.5t25.5 -63.5t-25.5 -63t-63.5 -25zM306 789q16 0 27.5 11t11.5 27t-11.5 27t-27.5 11q-15 0 -26.5 -11t-11.5 -27t11.5 -27t26.5 -11z" />
    <glyph glyph-name="Aringacute" unicode="&#x1fa;" horiz-adv-x="613" 
d="M57 -2q-48 0 -48 18q0 4 1 7.5t2 8.5l225 633q4 12 13.5 8.5t19.5 -11t19 -7.5h35q9 0 20 6.5t20 9.5t12 -6l225 -634q3 -8 3 -15q0 -18 -45 -18h-18q-17 0 -29 4t-16 13l-53 152h-277l-52 -152q-4 -9 -15 -13t-27 -4h-15zM198 259h213l-91 264q-4 14 -7 29.5t-6 30.5h-2
q-3 -15 -6.5 -30.5t-8.5 -29.5zM306 627q-38 0 -63 25.5t-25 63.5t25 63.5t63 25.5t63.5 -25.5t25.5 -63.5t-25.5 -63.5t-63.5 -25.5zM306 678q16 0 27 11t11 26q0 17 -11 28t-27 11t-27 -11t-11 -28q0 -15 11 -26t27 -11zM265 818q-29 0 -29 13q0 4 2.5 8.5t8.5 11.5l54 58
q14 15 30.5 20t48.5 5q26 0 42 -4.5t16 -13.5q0 -8 -7 -15.5t-30 -22.5l-63 -40q-20 -12 -34 -16t-39 -4z" />
    <glyph glyph-name="Atilde" unicode="&#xc3;" horiz-adv-x="613" 
d="M57 -2q-48 0 -48 18q0 4 1 7.5t2 8.5l232 653q7 17 45 17h35q40 0 45 -17l232 -654q3 -8 3 -15q0 -18 -45 -18h-18q-17 0 -29 4t-16 13l-53 152h-277l-52 -152q-4 -9 -15 -13t-27 -4h-15zM198 259h213l-91 264q-4 14 -7 29.5t-6 30.5h-2q-3 -15 -6.5 -30.5t-8.5 -29.5z
M160 754q-8 0 -21 7t-13 16q0 4 1 8.5t3 8.5q13 31 38.5 50.5t60.5 19.5q27 0 55 -9.5t54 -19.5t45 -10q21 0 33 10t21 19.5t17 9.5q9 0 21.5 -8t12.5 -17q0 -7 -5 -16q-15 -30 -39.5 -49t-59.5 -19q-28 0 -56.5 10t-54 19.5t-46.5 9.5q-20 0 -31.5 -9.5t-19 -20
t-16.5 -10.5z" />
    <glyph glyph-name="AE" unicode="&#xc6;" horiz-adv-x="915" 
d="M39 -2q-24 0 -34.5 5t-10.5 13q0 9 4 17l321 640q13 27 43 27h451q23 0 23 -36v-20q0 -36 -23 -36h-349l43 -204h277q22 0 22 -36v-20q0 -36 -22 -36h-258l47 -220h241q23 0 23 -36v-20q0 -36 -23 -36h-300q-16 0 -24.5 7t-11.5 22l-29 138h-280l-74 -152
q-4 -8 -15 -12.5t-27 -4.5h-14zM216 259h214l-55 265l-3 65h-2l-23 -65z" />
    <glyph glyph-name="AEacute" unicode="&#x1fc;" horiz-adv-x="915" 
d="M39 -2q-24 0 -34.5 5t-10.5 13q0 9 4 17l321 640q13 27 43 27h451q23 0 23 -36v-20q0 -36 -23 -36h-349l43 -204h277q22 0 22 -36v-20q0 -36 -22 -36h-258l47 -220h241q23 0 23 -36v-20q0 -36 -23 -36h-300q-16 0 -24.5 7t-11.5 22l-29 138h-280l-74 -152
q-4 -8 -15 -12.5t-27 -4.5h-14zM216 259h214l-55 265l-3 65h-2l-23 -65zM486 751q-30 0 -30 13q0 4 3 9t9 11l54 58q14 15 30.5 20t48.5 5q26 0 42 -4t16 -14q0 -7 -7 -15t-30 -23l-63 -39q-20 -13 -34 -17t-39 -4z" />
    <glyph glyph-name="B" unicode="B" horiz-adv-x="593" 
d="M124 0q-33 0 -33 33v634q0 33 33 33h184q117 0 172.5 -49t55.5 -128q0 -33 -15.5 -64.5t-40 -55t-54.5 -32.5l1 -4q7 -1 22.5 -7.5t35.5 -19t38.5 -32t30 -45.5t11.5 -61q0 -102 -65.5 -152t-192.5 -50h-183zM198 92h132q61 0 93 31t32 84q0 50 -36 78t-106 28h-115v-221
zM198 405h102q57 0 91 30.5t34 74.5q0 50 -30 74t-97 24h-100v-203z" />
    <glyph glyph-name="C" unicode="C" horiz-adv-x="619" 
d="M378 -7q-166 0 -245 87t-79 271q0 356 326 356q34 0 66.5 -5t60 -13t45.5 -19q25 -14 25 -28q0 -9 -7.5 -25.5t-17.5 -29.5t-18 -13q-6 0 -23.5 10t-49.5 20t-80 10q-111 0 -164 -63.5t-53 -200.5q0 -135 52.5 -200t161.5 -65q50 0 85 12t56.5 23.5t27.5 11.5
q10 0 19.5 -13t16 -28t6.5 -22q0 -9 -8.5 -19t-24.5 -18q-19 -11 -47.5 -19.5t-62 -14t-68.5 -5.5z" />
    <glyph glyph-name="Cacute" unicode="&#x106;" horiz-adv-x="619" 
d="M378 -7q-166 0 -245 87t-79 271q0 356 326 356q34 0 66.5 -5t60 -13t45.5 -19q25 -14 25 -28q0 -9 -7.5 -25.5t-17.5 -29.5t-18 -13q-6 0 -23.5 10t-49.5 20t-80 10q-111 0 -164 -63.5t-53 -200.5q0 -135 52.5 -200t161.5 -65q50 0 85 12t56.5 23.5t27.5 11.5
q10 0 19.5 -13t16 -28t6.5 -22q0 -9 -8.5 -19t-24.5 -18q-19 -11 -47.5 -19.5t-62 -14t-68.5 -5.5zM308 751q-30 0 -30 13q0 4 2.5 9t9.5 11l54 58q14 15 30.5 20t48.5 5q26 0 42 -4t16 -14q0 -7 -7 -15t-30 -23l-64 -39q-19 -13 -33 -17t-39 -4z" />
    <glyph glyph-name="Ccaron" unicode="&#x10c;" horiz-adv-x="619" 
d="M378 -7q-166 0 -245 87t-79 271q0 356 326 356q34 0 66.5 -5t60 -13t45.5 -19q25 -14 25 -28q0 -9 -7.5 -25.5t-17.5 -29.5t-18 -13q-6 0 -23.5 10t-49.5 20t-80 10q-111 0 -164 -63.5t-53 -200.5q0 -135 52.5 -200t161.5 -65q50 0 85 12t56.5 23.5t27.5 11.5
q10 0 19.5 -13t16 -28t6.5 -22q0 -9 -8.5 -19t-24.5 -18q-19 -11 -47.5 -19.5t-62 -14t-68.5 -5.5zM353 751q-27 0 -39.5 4.5t-25.5 20.5l-44 57q-9 10 -11 14t-2 8q0 6 6 9t23 3t28.5 -2.5t21.5 -11.5l56 -41l57 42q11 9 21.5 11t27.5 2t23 -3t6 -9q0 -4 -2.5 -8t-11.5 -16
l-43 -55q-13 -16 -25.5 -20.5t-39.5 -4.5h-26z" />
    <glyph glyph-name="Ccedilla" unicode="&#xc7;" horiz-adv-x="619" 
d="M378 -7q-166 0 -245 87t-79 271q0 356 326 356q34 0 66.5 -5t60 -13t45.5 -19q25 -14 25 -28q0 -9 -7.5 -25.5t-17.5 -29.5t-18 -13q-6 0 -23.5 10t-49.5 20t-80 10q-111 0 -164 -63.5t-53 -200.5q0 -135 52.5 -200t161.5 -65q50 0 85 12t56.5 23.5t27.5 11.5
q10 0 19.5 -13t16 -28t6.5 -22q0 -9 -8.5 -19t-24.5 -18q-19 -11 -47.5 -19.5t-62 -14t-68.5 -5.5zM334 -211q-24 0 -52 5.5t-48 16t-20 23.5t6 21.5t16 8.5q12 0 36 -10t59 -10q10 0 21 2.5t19.5 9t8.5 19.5q0 16 -11 22t-25.5 9t-25 6t-10.5 12q0 4 1.5 11t6 23t12.5 45
h49l-17 -61l-14 7q50 0 77 -19t27 -54t-17 -53.5t-43.5 -26t-55.5 -7.5z" />
    <glyph glyph-name="Ccircumflex" unicode="&#x108;" horiz-adv-x="619" 
d="M378 -7q-166 0 -245 87t-79 271q0 356 326 356q34 0 66.5 -5t60 -13t45.5 -19q25 -14 25 -28q0 -9 -7.5 -25.5t-17.5 -29.5t-18 -13q-6 0 -23.5 10t-49.5 20t-80 10q-111 0 -164 -63.5t-53 -200.5q0 -135 52.5 -200t161.5 -65q50 0 85 12t56.5 23.5t27.5 11.5
q10 0 19.5 -13t16 -28t6.5 -22q0 -9 -8.5 -19t-24.5 -18q-19 -11 -47.5 -19.5t-62 -14t-68.5 -5.5zM258 740q-17 0 -22 3t-5 7t2.5 9t13.5 17l53 57q11 13 22 18t34 5h20q23 0 33 -4.5t23 -18.5l51 -55q13 -14 15 -19t2 -9t-5 -7t-22 -3q-11 0 -23 3.5t-23 10.5l-61 39
l-60 -38q-12 -7 -24.5 -11t-23.5 -4z" />
    <glyph glyph-name="Cdotaccent" unicode="&#x10a;" horiz-adv-x="619" 
d="M378 -7q-166 0 -245 87t-79 271q0 356 326 356q34 0 66.5 -5t60 -13t45.5 -19q25 -14 25 -28q0 -9 -7.5 -25.5t-17.5 -29.5t-18 -13q-6 0 -23.5 10t-49.5 20t-80 10q-111 0 -164 -63.5t-53 -200.5q0 -135 52.5 -200t161.5 -65q50 0 85 12t56.5 23.5t27.5 11.5
q10 0 19.5 -13t16 -28t6.5 -22q0 -9 -8.5 -19t-24.5 -18q-19 -11 -47.5 -19.5t-62 -14t-68.5 -5.5zM366 752q-28 0 -40.5 7t-12.5 18v65q0 12 12.5 18.5t40.5 6.5t40.5 -6t12.5 -19v-65q0 -11 -12.5 -18t-40.5 -7z" />
    <glyph glyph-name="D" unicode="D" horiz-adv-x="695" 
d="M124 0q-33 0 -33 33v634q0 33 33 33h205q91 0 161.5 -35.5t110.5 -112.5t40 -202q0 -94 -23 -160.5t-64.5 -108t-98.5 -61.5t-126 -20h-205zM198 92h126q61 0 107.5 26.5t73 83t26.5 148.5t-26.5 148.5t-73 83t-107.5 26.5h-126v-516z" />
    <glyph glyph-name="uni01F1" unicode="&#x1f1;" horiz-adv-x="1311" 
d="M124 0q-33 0 -33 33v634q0 33 33 33h205q91 0 161.5 -35.5t110.5 -112.5t40 -202q0 -94 -23 -160.5t-64.5 -108t-98.5 -61.5t-126 -20h-205zM198 92h126q61 0 107.5 26.5t73 83t26.5 148.5t-26.5 148.5t-73 83t-107.5 26.5h-126v-516zM758 0q-6 0 -12.5 11t-11 26.5
t-4.5 25.5q0 8 3 12l388 533h-336q-23 0 -23 39v14q0 39 23 39h457q5 0 11 -11.5t11 -26.5t5 -26q0 -8 -4 -13l-387 -531h366q23 0 23 -39v-14q0 -39 -23 -39h-486z" />
    <glyph glyph-name="uni01C4" unicode="&#x1c4;" horiz-adv-x="1311" 
d="M124 0q-33 0 -33 33v634q0 33 33 33h205q91 0 161.5 -35.5t110.5 -112.5t40 -202q0 -94 -23 -160.5t-64.5 -108t-98.5 -61.5t-126 -20h-205zM198 92h126q61 0 107.5 26.5t73 83t26.5 148.5t-26.5 148.5t-73 83t-107.5 26.5h-126v-516zM758 0q-6 0 -12.5 11t-11 26.5
t-4.5 25.5q0 8 3 12l388 533h-336q-23 0 -23 39v14q0 39 23 39h457q5 0 11 -11.5t11 -26.5t5 -26q0 -8 -4 -13l-387 -531h366q23 0 23 -39v-14q0 -39 -23 -39h-486zM1003 751q-26 0 -39 4.5t-25 20.5l-45 57q-8 10 -10 14t-2 8q0 6 6 9t22 3q18 0 29 -2.5t22 -11.5l56 -41
l57 42q11 9 21.5 11t27.5 2t23 -3t6 -9q0 -4 -2.5 -8t-11.5 -16l-43 -55q-13 -16 -25.5 -20.5t-39.5 -4.5h-27z" />
    <glyph glyph-name="Eth" unicode="&#xd0;" horiz-adv-x="695" 
d="M26 312q-23 0 -23 35v20q0 36 23 36h298q22 0 22 -36v-20q0 -35 -22 -35h-298zM124 0q-33 0 -33 33v634q0 33 33 33h205q91 0 161.5 -35.5t110.5 -112.5t40 -202q0 -94 -23 -160.5t-64.5 -108t-98.5 -61.5t-126 -20h-205zM198 92h126q61 0 107.5 26.5t73 83t26.5 148.5
t-26.5 148.5t-73 83t-107.5 26.5h-126v-516z" />
    <glyph glyph-name="Dcaron" unicode="&#x10e;" horiz-adv-x="695" 
d="M124 0q-33 0 -33 33v634q0 33 33 33h205q91 0 161.5 -35.5t110.5 -112.5t40 -202q0 -94 -23 -160.5t-64.5 -108t-98.5 -61.5t-126 -20h-205zM198 92h126q61 0 107.5 26.5t73 83t26.5 148.5t-26.5 148.5t-73 83t-107.5 26.5h-126v-516zM307 751q-27 0 -39.5 4.5
t-25.5 20.5l-44 57q-9 10 -11 14t-2 8q0 6 6 9t23 3q18 0 29 -2.5t22 -11.5l55 -41l58 42q10 9 20.5 11t27.5 2t23 -3t6 -9q0 -4 -2.5 -8t-11.5 -16l-43 -55q-12 -16 -25 -20.5t-40 -4.5h-26z" />
    <glyph glyph-name="Dcroat" unicode="&#x110;" horiz-adv-x="695" 
d="M26 312q-23 0 -23 35v20q0 36 23 36h298q22 0 22 -36v-20q0 -35 -22 -35h-298zM124 0q-33 0 -33 33v634q0 33 33 33h205q91 0 161.5 -35.5t110.5 -112.5t40 -202q0 -94 -23 -160.5t-64.5 -108t-98.5 -61.5t-126 -20h-205zM198 92h126q61 0 107.5 26.5t73 83t26.5 148.5
t-26.5 148.5t-73 83t-107.5 26.5h-126v-516z" />
    <glyph glyph-name="uni1E0C" unicode="&#x1e0c;" horiz-adv-x="695" 
d="M124 0q-33 0 -33 33v634q0 33 33 33h205q91 0 161.5 -35.5t110.5 -112.5t40 -202q0 -94 -23 -160.5t-64.5 -108t-98.5 -61.5t-126 -20h-205zM198 92h126q61 0 107.5 26.5t73 83t26.5 148.5t-26.5 148.5t-73 83t-107.5 26.5h-126v-516zM330 -183q-25 0 -36.5 6t-11.5 19
v53q0 13 11.5 19t36.5 6q26 0 37 -6t11 -19v-53q0 -13 -11 -19t-37 -6z" />
    <glyph glyph-name="uni01F2" unicode="&#x1f2;" horiz-adv-x="1184" 
d="M124 0q-33 0 -33 33v634q0 33 33 33h205q91 0 161.5 -35.5t110.5 -112.5t40 -202q0 -94 -23 -160.5t-64.5 -108t-98.5 -61.5t-126 -20h-205zM198 92h126q61 0 107.5 26.5t73 83t26.5 148.5t-26.5 148.5t-73 83t-107.5 26.5h-126v-516zM753 0q-4 0 -10 10t-10 23.5
t-4 24.5q0 8 3 12l275 368h-236q-23 0 -23 36v13q0 36 23 36h352q5 0 10 -10.5t8.5 -24.5t3.5 -24q0 -7 -2 -12l-274 -367h255q23 0 23 -36v-13q0 -36 -23 -36h-371z" />
    <glyph glyph-name="uni01C5" unicode="&#x1c5;" horiz-adv-x="1184" 
d="M124 0q-33 0 -33 33v634q0 33 33 33h205q91 0 161.5 -35.5t110.5 -112.5t40 -202q0 -94 -23 -160.5t-64.5 -108t-98.5 -61.5t-126 -20h-205zM198 92h126q61 0 107.5 26.5t73 83t26.5 148.5t-26.5 148.5t-73 83t-107.5 26.5h-126v-516zM753 0q-4 0 -10 10t-10 23.5
t-4 24.5q0 8 3 12l275 368h-236q-23 0 -23 36v13q0 36 23 36h352q5 0 10 -10.5t8.5 -24.5t3.5 -24q0 -7 -2 -12l-274 -367h255q23 0 23 -36v-13q0 -36 -23 -36h-371zM930 575q-31 0 -43.5 6t-19.5 20l-41 76q-5 10 -8.5 16.5t-3.5 10.5q0 14 28 14q19 0 30 -5t23 -19l46 -55
l46 55q12 14 22 19t29 5q28 0 28 -14q0 -4 -3.5 -10.5t-8.5 -16.5l-41 -76q-7 -13 -19.5 -19.5t-43.5 -6.5h-20z" />
    <glyph glyph-name="E" unicode="E" horiz-adv-x="546" 
d="M125 0q-33 0 -33 33v634q0 33 33 33h349q23 0 23 -36v-20q0 -36 -23 -36h-275v-204h246q23 0 23 -36v-20q0 -36 -23 -36h-246v-220h276q23 0 23 -36v-20q0 -36 -23 -36h-350z" />
    <glyph glyph-name="Eacute" unicode="&#xc9;" horiz-adv-x="546" 
d="M125 0q-33 0 -33 33v634q0 33 33 33h349q23 0 23 -36v-20q0 -36 -23 -36h-275v-204h246q23 0 23 -36v-20q0 -36 -23 -36h-246v-220h276q23 0 23 -36v-20q0 -36 -23 -36h-350zM236 751q-30 0 -30 13q0 4 2.5 9t9.5 11l54 58q14 15 30.5 20t48.5 5q26 0 42 -4t16 -14
q0 -7 -7 -15t-30 -23l-64 -39q-19 -13 -33 -17t-39 -4z" />
    <glyph glyph-name="Ebreve" unicode="&#x114;" horiz-adv-x="546" 
d="M125 0q-33 0 -33 33v634q0 33 33 33h349q23 0 23 -36v-20q0 -36 -23 -36h-275v-204h246q23 0 23 -36v-20q0 -36 -23 -36h-246v-220h276q23 0 23 -36v-20q0 -36 -23 -36h-350zM294 743q-42 0 -76.5 13.5t-55 38t-20.5 55.5q0 15 5.5 20.5t17.5 5.5q9 0 14 -3t9 -11
q7 -16 28.5 -31t77.5 -15q57 0 78.5 15t27.5 32q4 8 9.5 10.5t13.5 2.5q12 0 17.5 -5.5t5.5 -20.5q0 -31 -21 -55.5t-55 -38t-76 -13.5z" />
    <glyph glyph-name="Ecaron" unicode="&#x11a;" horiz-adv-x="546" 
d="M125 0q-33 0 -33 33v634q0 33 33 33h349q23 0 23 -36v-20q0 -36 -23 -36h-275v-204h246q23 0 23 -36v-20q0 -36 -23 -36h-246v-220h276q23 0 23 -36v-20q0 -36 -23 -36h-350zM281 751q-27 0 -39.5 4.5t-25.5 20.5l-45 57q-8 10 -10 14t-2 8q0 6 6 9t23 3t28.5 -2.5
t21.5 -11.5l56 -41l57 42q11 9 21.5 11t27.5 2t23 -3t6 -9q0 -4 -2.5 -8t-11.5 -16l-43 -55q-13 -16 -25.5 -20.5t-39.5 -4.5h-26z" />
    <glyph glyph-name="Ecircumflex" unicode="&#xca;" horiz-adv-x="546" 
d="M125 0q-33 0 -33 33v634q0 33 33 33h349q23 0 23 -36v-20q0 -36 -23 -36h-275v-204h246q23 0 23 -36v-20q0 -36 -23 -36h-246v-220h276q23 0 23 -36v-20q0 -36 -23 -36h-350zM186 740q-17 0 -22 3t-5 7t2.5 9t13.5 17l53 57q11 13 22 18t34 5h20q23 0 33 -4.5t23 -18.5
l51 -55q13 -14 15 -19t2 -9t-5 -7t-22 -3q-11 0 -23 3.5t-23 10.5l-61 39l-60 -38q-12 -7 -24.5 -11t-23.5 -4z" />
    <glyph glyph-name="uni1EBE" unicode="&#x1ebe;" horiz-adv-x="546" 
d="M125 0q-33 0 -33 33v634q0 33 33 33h349q23 0 23 -36v-20q0 -36 -23 -36h-275v-204h246q23 0 23 -36v-20q0 -36 -23 -36h-246v-220h276q23 0 23 -36v-20q0 -36 -23 -36h-350zM186 740q-17 0 -22 3t-5 7t2.5 9t13.5 17l53 57q11 13 22 18t34 5h20q23 0 33 -4.5t23 -18.5
l51 -55q13 -14 15 -19t2 -9t-5 -7t-22 -3q-11 0 -23 3.5t-23 10.5l-61 39l-60 -38q-12 -7 -24.5 -11t-23.5 -4zM236 890q-30 0 -30 13q0 4 2.5 8.5t9.5 11.5l54 58q14 14 30.5 19.5t48.5 5.5q26 0 42 -4.5t16 -13.5q0 -8 -7 -15.5t-30 -22.5l-64 -40q-19 -12 -33 -16t-39 -4
z" />
    <glyph glyph-name="uni1EC6" unicode="&#x1ec6;" horiz-adv-x="546" 
d="M125 0q-33 0 -33 33v634q0 33 33 33h349q23 0 23 -36v-20q0 -36 -23 -36h-275v-204h246q23 0 23 -36v-20q0 -36 -23 -36h-246v-220h276q23 0 23 -36v-20q0 -36 -23 -36h-350zM299 -183q-25 0 -36.5 6t-11.5 19v53q0 13 11.5 19t36.5 6q26 0 37 -6t11 -19v-53
q0 -13 -11 -19t-37 -6zM186 740q-17 0 -22 3t-5 7t2.5 9t13.5 17l53 57q11 13 22 18t34 5h20q23 0 33 -4.5t23 -18.5l51 -55q13 -14 15 -19t2 -9t-5 -7t-22 -3q-11 0 -23 3.5t-23 10.5l-61 39l-60 -38q-12 -7 -24.5 -11t-23.5 -4z" />
    <glyph glyph-name="uni1EC0" unicode="&#x1ec0;" horiz-adv-x="546" 
d="M125 0q-33 0 -33 33v634q0 33 33 33h349q23 0 23 -36v-20q0 -36 -23 -36h-275v-204h246q23 0 23 -36v-20q0 -36 -23 -36h-246v-220h276q23 0 23 -36v-20q0 -36 -23 -36h-350zM186 740q-17 0 -22 3t-5 7t2.5 9t13.5 17l53 57q11 13 22 18t34 5h20q23 0 33 -4.5t23 -18.5
l51 -55q13 -14 15 -19t2 -9t-5 -7t-22 -3q-11 0 -23 3.5t-23 10.5l-61 39l-60 -38q-12 -7 -24.5 -11t-23.5 -4zM352 890q-25 0 -39 4t-34 16l-63 40q-23 15 -30 22.5t-7 15.5q0 9 15.5 13.5t42.5 4.5q33 0 49 -5.5t30 -19.5l54 -58q6 -7 8.5 -11.5t2.5 -8.5q0 -13 -29 -13z
" />
    <glyph glyph-name="uni1EC2" unicode="&#x1ec2;" horiz-adv-x="546" 
d="M125 0q-33 0 -33 33v634q0 33 33 33h349q23 0 23 -36v-20q0 -36 -23 -36h-275v-204h246q23 0 23 -36v-20q0 -36 -23 -36h-246v-220h276q23 0 23 -36v-20q0 -36 -23 -36h-350zM186 740q-17 0 -22 3t-5 7t2.5 9t13.5 17l53 57q11 13 22 18t34 5h20q23 0 33 -4.5t23 -18.5
l51 -55q13 -14 15 -19t2 -9t-5 -7t-22 -3q-11 0 -23 3.5t-23 10.5l-61 39l-60 -38q-12 -7 -24.5 -11t-23.5 -4zM281 876q-14 0 -27 12t-13 20q0 6 13 10.5t29.5 11t29.5 15t13 21.5t-11.5 19t-27.5 6q-24 0 -40 -6t-27 -6q-10 0 -19.5 12t-9.5 24q0 7 16 14t39 12t44 5
q48 0 76.5 -21t28.5 -53q0 -23 -14 -41t-34.5 -30.5t-39 -18.5t-26.5 -6z" />
    <glyph glyph-name="uni1EC4" unicode="&#x1ec4;" horiz-adv-x="546" 
d="M125 0q-33 0 -33 33v634q0 33 33 33h349q23 0 23 -36v-20q0 -36 -23 -36h-275v-204h246q23 0 23 -36v-20q0 -36 -23 -36h-246v-220h276q23 0 23 -36v-20q0 -36 -23 -36h-350zM186 740q-17 0 -22 3t-5 7t2.5 9t13.5 17l53 57q11 13 22 18t34 5h20q23 0 33 -4.5t23 -18.5
l51 -55q13 -14 15 -19t2 -9t-5 -7t-22 -3q-11 0 -23 3.5t-23 10.5l-61 39l-60 -38q-12 -7 -24.5 -11t-23.5 -4zM147 893q-8 0 -21.5 6.5t-13.5 16.5q0 4 1.5 8t3.5 9q13 31 38.5 50t60.5 19q27 0 55 -9.5t54 -19.5t45 -10q21 0 33 10t21 20t17 10q9 0 21.5 -8t12.5 -18
q0 -6 -6 -16q-15 -30 -39 -48.5t-60 -18.5q-27 0 -55.5 10t-54.5 19.5t-46 9.5t-31.5 -10t-19 -20t-16.5 -10z" />
    <glyph glyph-name="uni0204" unicode="&#x204;" horiz-adv-x="546" 
d="M125 0q-33 0 -33 33v634q0 33 33 33h349q23 0 23 -36v-20q0 -36 -23 -36h-275v-204h246q23 0 23 -36v-20q0 -36 -23 -36h-246v-220h276q23 0 23 -36v-20q0 -36 -23 -36h-350zM252 751q-25 0 -39 4t-34 17l-63 39q-23 16 -30 23.5t-7 14.5q0 10 15.5 14t42.5 4q33 0 49 -5
t30 -20l54 -58q6 -6 8.5 -11t2.5 -9q0 -13 -29 -13zM424 751q-25 0 -39 4t-34 17l-63 39q-23 16 -30 23.5t-7 14.5q0 10 15.5 14t42.5 4q33 0 49 -5t30 -20l54 -58q6 -6 8.5 -11t2.5 -9q0 -13 -29 -13z" />
    <glyph glyph-name="Edieresis" unicode="&#xcb;" horiz-adv-x="546" 
d="M125 0q-33 0 -33 33v634q0 33 33 33h349q23 0 23 -36v-20q0 -36 -23 -36h-275v-204h246q23 0 23 -36v-20q0 -36 -23 -36h-246v-220h276q23 0 23 -36v-20q0 -36 -23 -36h-350zM378 755q-27 0 -38.5 6t-11.5 18v60q0 13 11.5 19t38.5 6q26 0 37.5 -6t11.5 -19v-60
q0 -12 -11.5 -18t-37.5 -6zM210 755q-26 0 -38 6t-12 18v60q0 13 12 19t38 6t38 -6t12 -19v-60q0 -12 -12 -18t-38 -6z" />
    <glyph glyph-name="Edotaccent" unicode="&#x116;" horiz-adv-x="546" 
d="M125 0q-33 0 -33 33v634q0 33 33 33h349q23 0 23 -36v-20q0 -36 -23 -36h-275v-204h246q23 0 23 -36v-20q0 -36 -23 -36h-246v-220h276q23 0 23 -36v-20q0 -36 -23 -36h-350zM294 752q-28 0 -40.5 7t-12.5 18v65q0 12 12.5 18.5t40.5 6.5t40 -6t12 -19v-65q0 -11 -12 -18
t-40 -7z" />
    <glyph glyph-name="uni1EB8" unicode="&#x1eb8;" horiz-adv-x="546" 
d="M125 0q-33 0 -33 33v634q0 33 33 33h349q23 0 23 -36v-20q0 -36 -23 -36h-275v-204h246q23 0 23 -36v-20q0 -36 -23 -36h-246v-220h276q23 0 23 -36v-20q0 -36 -23 -36h-350zM299 -183q-25 0 -36.5 6t-11.5 19v53q0 13 11.5 19t36.5 6q26 0 37 -6t11 -19v-53
q0 -13 -11 -19t-37 -6z" />
    <glyph glyph-name="Egrave" unicode="&#xc8;" horiz-adv-x="546" 
d="M125 0q-33 0 -33 33v634q0 33 33 33h349q23 0 23 -36v-20q0 -36 -23 -36h-275v-204h246q23 0 23 -36v-20q0 -36 -23 -36h-246v-220h276q23 0 23 -36v-20q0 -36 -23 -36h-350zM352 751q-25 0 -39 4t-34 17l-63 39q-23 16 -30 23.5t-7 14.5q0 10 15.5 14t42.5 4q33 0 49 -5
t30 -20l54 -58q6 -6 8.5 -11t2.5 -9q0 -13 -29 -13z" />
    <glyph glyph-name="uni1EBA" unicode="&#x1eba;" horiz-adv-x="546" 
d="M125 0q-33 0 -33 33v634q0 33 33 33h349q23 0 23 -36v-20q0 -36 -23 -36h-275v-204h246q23 0 23 -36v-20q0 -36 -23 -36h-246v-220h276q23 0 23 -36v-20q0 -36 -23 -36h-350zM281 738q-14 0 -27 12t-13 20q0 5 13 9.5t29.5 11t29.5 15.5t13 22t-11.5 19t-27.5 6
q-24 0 -40 -6t-27 -6q-10 0 -19.5 12t-9.5 23q0 7 16 14t39 12t44 5q48 0 76.5 -20.5t28.5 -52.5q0 -23 -14 -41t-34.5 -30.5t-39 -18.5t-26.5 -6z" />
    <glyph glyph-name="uni0206" unicode="&#x206;" horiz-adv-x="546" 
d="M125 0q-33 0 -33 33v634q0 33 33 33h349q23 0 23 -36v-20q0 -36 -23 -36h-275v-204h246q23 0 23 -36v-20q0 -36 -23 -36h-246v-220h276q23 0 23 -36v-20q0 -36 -23 -36h-350zM294 885q-42 0 -76.5 -13.5t-55 -37t-20.5 -56.5q0 -14 5.5 -20t17.5 -6q9 0 14 3.5t9 10.5
q7 17 28.5 31.5t77.5 14.5q57 0 78.5 -15t27.5 -32q4 -7 9.5 -10t13.5 -3q12 0 17.5 6t5.5 20q0 33 -21 56.5t-55 37t-76 13.5z" />
    <glyph glyph-name="Emacron" unicode="&#x112;" horiz-adv-x="546" 
d="M125 0q-33 0 -33 33v634q0 33 33 33h349q23 0 23 -36v-20q0 -36 -23 -36h-275v-204h246q23 0 23 -36v-20q0 -36 -23 -36h-246v-220h276q23 0 23 -36v-20q0 -36 -23 -36h-350zM172 772q-23 0 -23 33v12q0 33 23 33h243q22 0 22 -33v-12q0 -33 -22 -33h-243z" />
    <glyph glyph-name="Eogonek" unicode="&#x118;" horiz-adv-x="546" 
d="M125 0q-33 0 -33 33v634q0 33 33 33h349q23 0 23 -36v-20q0 -36 -23 -36h-275v-204h246q23 0 23 -36v-20q0 -36 -23 -36h-246v-220h276q23 0 23 -36v-20q0 -36 -23 -36h-350zM432 -187q-51 0 -78 24t-27 60q0 32 24 66t72 54l51 -7q-35 -19 -53.5 -45.5t-18.5 -46.5
q0 -13 10 -21.5t28 -8.5q20 0 30.5 5t22.5 5q10 0 16 -13t6 -30q0 -14 -13.5 -23.5t-32.5 -14t-37 -4.5z" />
    <glyph glyph-name="uni1EBC" unicode="&#x1ebc;" horiz-adv-x="546" 
d="M125 0q-33 0 -33 33v634q0 33 33 33h349q23 0 23 -36v-20q0 -36 -23 -36h-275v-204h246q23 0 23 -36v-20q0 -36 -23 -36h-246v-220h276q23 0 23 -36v-20q0 -36 -23 -36h-350zM147 754q-8 0 -21.5 7t-13.5 16q0 4 1.5 8.5t3.5 8.5q13 31 38.5 50.5t60.5 19.5q27 0 55 -9.5
t54 -19.5t45 -10q21 0 33 10t21 19.5t17 9.5q9 0 21.5 -8t12.5 -17q0 -7 -6 -16q-15 -30 -39 -49t-60 -19q-27 0 -55.5 10t-54.5 19.5t-46 9.5t-31.5 -9.5t-19 -20t-16.5 -10.5z" />
    <glyph glyph-name="F" unicode="F" horiz-adv-x="503" 
d="M137 -2q-46 0 -46 25v644q0 33 33 33h319q23 0 23 -36v-20q0 -36 -23 -36h-245v-227h230q23 0 23 -36v-20q0 -36 -23 -36h-230v-266q0 -25 -46 -25h-15z" />
    <glyph glyph-name="G" unicode="G" horiz-adv-x="672" 
d="M368 -7q-154 0 -234 86.5t-80 266.5q0 185 83.5 273t242.5 88q36 0 71.5 -6t64 -15t45.5 -20.5t17 -23.5q0 -9 -7.5 -25.5t-17 -29.5t-18.5 -13q-5 0 -23.5 10t-50.5 20t-80 10q-80 0 -127.5 -30.5t-68.5 -89t-21 -142.5q0 -56 10 -105t34 -85t64 -56.5t101 -20.5
q42 0 77.5 5t57.5 12l-21 -46v221h-109q-23 0 -23 36v20q0 36 23 36h183q33 0 33 -33v-269q0 -22 -20.5 -36.5t-54 -22.5t-73 -11.5t-78.5 -3.5z" />
    <glyph glyph-name="Gbreve" unicode="&#x11e;" horiz-adv-x="672" 
d="M368 -7q-154 0 -234 86.5t-80 266.5q0 185 83.5 273t242.5 88q36 0 71.5 -6t64 -15t45.5 -20.5t17 -23.5q0 -9 -7.5 -25.5t-17 -29.5t-18.5 -13q-5 0 -23.5 10t-50.5 20t-80 10q-80 0 -127.5 -30.5t-68.5 -89t-21 -142.5q0 -56 10 -105t34 -85t64 -56.5t101 -20.5
q42 0 77.5 5t57.5 12l-21 -46v221h-109q-23 0 -23 36v20q0 36 23 36h183q33 0 33 -33v-269q0 -22 -20.5 -36.5t-54 -22.5t-73 -11.5t-78.5 -3.5zM345 743q-42 0 -76.5 13.5t-55 38t-20.5 55.5q0 15 5.5 20.5t17.5 5.5q9 0 14.5 -3t8.5 -11q7 -16 28.5 -31t77.5 -15
q57 0 78.5 15t28.5 32q3 8 8.5 10.5t13.5 2.5q12 0 17.5 -5.5t5.5 -20.5q0 -31 -20.5 -55.5t-55 -38t-76.5 -13.5z" />
    <glyph glyph-name="Gcaron" unicode="&#x1e6;" horiz-adv-x="672" 
d="M368 -7q-154 0 -234 86.5t-80 266.5q0 185 83.5 273t242.5 88q36 0 71.5 -6t64 -15t45.5 -20.5t17 -23.5q0 -9 -7.5 -25.5t-17 -29.5t-18.5 -13q-5 0 -23.5 10t-50.5 20t-80 10q-80 0 -127.5 -30.5t-68.5 -89t-21 -142.5q0 -56 10 -105t34 -85t64 -56.5t101 -20.5
q42 0 77.5 5t57.5 12l-21 -46v221h-109q-23 0 -23 36v20q0 36 23 36h183q33 0 33 -33v-269q0 -22 -20.5 -36.5t-54 -22.5t-73 -11.5t-78.5 -3.5zM332 751q-27 0 -39.5 4.5t-25.5 20.5l-44 57q-9 10 -11 14t-2 8q0 6 6 9t23 3q18 0 29 -2.5t22 -11.5l55 -41l58 42
q10 9 20.5 11t27.5 2t23 -3t6 -9q0 -4 -2.5 -8t-11.5 -16l-43 -55q-12 -16 -25 -20.5t-40 -4.5h-26z" />
    <glyph glyph-name="Gcircumflex" unicode="&#x11c;" horiz-adv-x="672" 
d="M368 -7q-154 0 -234 86.5t-80 266.5q0 185 83.5 273t242.5 88q36 0 71.5 -6t64 -15t45.5 -20.5t17 -23.5q0 -9 -7.5 -25.5t-17 -29.5t-18.5 -13q-5 0 -23.5 10t-50.5 20t-80 10q-80 0 -127.5 -30.5t-68.5 -89t-21 -142.5q0 -56 10 -105t34 -85t64 -56.5t101 -20.5
q42 0 77.5 5t57.5 12l-21 -46v221h-109q-23 0 -23 36v20q0 36 23 36h183q33 0 33 -33v-269q0 -22 -20.5 -36.5t-54 -22.5t-73 -11.5t-78.5 -3.5zM237 740q-16 0 -21.5 3t-5.5 7t2.5 9t13.5 17l53 57q11 13 22 18t34 5h20q23 0 33 -4.5t23 -18.5l51 -55q13 -14 15.5 -19
t2.5 -9t-5.5 -7t-22.5 -3q-11 0 -23 3.5t-22 10.5l-62 39l-60 -38q-12 -7 -24.5 -11t-23.5 -4z" />
    <glyph glyph-name="uni0122" unicode="&#x122;" horiz-adv-x="672" 
d="M368 -7q-154 0 -234 86.5t-80 266.5q0 185 83.5 273t242.5 88q36 0 71.5 -6t64 -15t45.5 -20.5t17 -23.5q0 -9 -7.5 -25.5t-17 -29.5t-18.5 -13q-5 0 -23.5 10t-50.5 20t-80 10q-80 0 -127.5 -30.5t-68.5 -89t-21 -142.5q0 -56 10 -105t34 -85t64 -56.5t101 -20.5
q42 0 77.5 5t57.5 12l-21 -46v221h-109q-23 0 -23 36v20q0 36 23 36h183q33 0 33 -33v-269q0 -22 -20.5 -36.5t-54 -22.5t-73 -11.5t-78.5 -3.5zM330 -236q-11 0 -23.5 3.5t-12.5 13.5q1 11 10.5 27t18.5 41.5t8 64.5q0 15 11.5 25t34.5 10h14q21 0 32 -9t11 -24
q0 -32 -11 -60t-28 -48.5t-35 -32t-30 -11.5z" />
    <glyph glyph-name="Gdotaccent" unicode="&#x120;" horiz-adv-x="672" 
d="M368 -7q-154 0 -234 86.5t-80 266.5q0 185 83.5 273t242.5 88q36 0 71.5 -6t64 -15t45.5 -20.5t17 -23.5q0 -9 -7.5 -25.5t-17 -29.5t-18.5 -13q-5 0 -23.5 10t-50.5 20t-80 10q-80 0 -127.5 -30.5t-68.5 -89t-21 -142.5q0 -56 10 -105t34 -85t64 -56.5t101 -20.5
q42 0 77.5 5t57.5 12l-21 -46v221h-109q-23 0 -23 36v20q0 36 23 36h183q33 0 33 -33v-269q0 -22 -20.5 -36.5t-54 -22.5t-73 -11.5t-78.5 -3.5zM345 752q-28 0 -40.5 7t-12.5 18v65q0 12 12.5 18.5t40.5 6.5t40.5 -6t12.5 -19v-65q0 -11 -12.5 -18t-40.5 -7z" />
    <glyph glyph-name="H" unicode="H" horiz-adv-x="733" 
d="M138 -2q-46 0 -46 25v654q0 25 46 25h15q46 0 46 -25v-273h336v273q0 25 46 25h15q46 0 46 -25v-654q0 -25 -46 -25h-15q-46 0 -46 25v289h-336v-289q0 -25 -46 -25h-15z" />
    <glyph glyph-name="Hbar" unicode="&#x126;" horiz-adv-x="733" 
d="M138 -2q-46 0 -46 25v654q0 25 46 25h15q46 0 46 -25v-273h336v273q0 25 46 25h15q46 0 46 -25v-654q0 -25 -46 -25h-15q-46 0 -46 25v289h-336v-289q0 -25 -46 -25h-15zM69 497q-22 0 -22 33v11q0 33 22 33h593q22 0 22 -33v-11q0 -33 -22 -33h-593z" />
    <glyph glyph-name="Hcircumflex" unicode="&#x124;" horiz-adv-x="733" 
d="M138 -2q-46 0 -46 25v654q0 25 46 25h15q46 0 46 -25v-273h336v273q0 25 46 25h15q46 0 46 -25v-654q0 -25 -46 -25h-15q-46 0 -46 25v289h-336v-289q0 -25 -46 -25h-15zM258 740q-16 0 -21.5 3t-5.5 7t2.5 9t13.5 17l53 57q11 13 22 18t34 5h20q23 0 33 -4.5t23 -18.5
l51 -55q13 -14 15.5 -19t2.5 -9t-5.5 -7t-22.5 -3q-11 0 -23 3.5t-22 10.5l-62 39l-60 -38q-12 -7 -24.5 -11t-23.5 -4z" />
    <glyph glyph-name="uni1E24" unicode="&#x1e24;" horiz-adv-x="733" 
d="M138 -2q-46 0 -46 25v654q0 25 46 25h15q46 0 46 -25v-273h336v273q0 25 46 25h15q46 0 46 -25v-654q0 -25 -46 -25h-15q-46 0 -46 25v289h-336v-289q0 -25 -46 -25h-15zM366 -183q-25 0 -36.5 6t-11.5 19v53q0 13 11.5 19t36.5 6q26 0 37 -6t11 -19v-53q0 -13 -11 -19
t-37 -6z" />
    <glyph glyph-name="I" unicode="I" horiz-adv-x="283" 
d="M133 -2q-46 0 -46 25v654q0 25 46 25h16q46 0 46 -25v-654q0 -25 -46 -25h-16z" />
    <glyph glyph-name="IJ" unicode="&#x132;" horiz-adv-x="684" 
d="M133 -2q-46 0 -46 25v654q0 25 46 25h16q46 0 46 -25v-654q0 -25 -46 -25h-16zM394 -7q-13 0 -31 1t-36 5t-29.5 11.5t-11.5 18.5q0 4 2.5 20t9 31t16.5 15q6 0 21.5 -4t39.5 -4q65 0 94.5 28t29.5 89v473q0 25 45 25h16q46 0 46 -25v-473q0 -63 -21.5 -110.5t-68 -74
t-122.5 -26.5z" />
    <glyph glyph-name="Iacute" unicode="&#xcd;" horiz-adv-x="283" 
d="M133 -2q-46 0 -46 25v654q0 25 46 25h16q46 0 46 -25v-654q0 -25 -46 -25h-16zM83 751q-29 0 -29 13q0 4 2.5 9t8.5 11l54 58q14 15 30.5 20t48.5 5q26 0 42 -4t16 -14q0 -7 -7 -15t-30 -23l-63 -39q-20 -13 -34 -17t-39 -4z" />
    <glyph glyph-name="Ibreve" unicode="&#x12c;" horiz-adv-x="283" 
d="M133 -2q-46 0 -46 25v654q0 25 46 25h16q46 0 46 -25v-654q0 -25 -46 -25h-16zM141 743q-41 0 -75.5 13.5t-55.5 38t-21 55.5q0 15 5.5 20.5t17.5 5.5q10 0 15 -3t8 -11q7 -16 28.5 -31t77.5 -15q57 0 78.5 15t28.5 32q3 8 8.5 10.5t13.5 2.5q12 0 17.5 -5.5t5.5 -20.5
q0 -31 -20.5 -55.5t-55 -38t-76.5 -13.5z" />
    <glyph glyph-name="uni01CF" unicode="&#x1cf;" horiz-adv-x="283" 
d="M133 -2q-46 0 -46 25v654q0 25 46 25h16q46 0 46 -25v-654q0 -25 -46 -25h-16zM128 751q-27 0 -39.5 4.5t-25.5 20.5l-44 57q-8 10 -10.5 14t-2.5 8q0 6 6.5 9t22.5 3q18 0 29 -2.5t22 -11.5l55 -41l58 42q10 9 20.5 11t28.5 2q16 0 22 -3t6 -9q0 -4 -2.5 -8t-11.5 -16
l-43 -55q-12 -16 -25 -20.5t-39 -4.5h-27z" />
    <glyph glyph-name="Icircumflex" unicode="&#xce;" horiz-adv-x="283" 
d="M133 -2q-46 0 -46 25v654q0 25 46 25h16q46 0 46 -25v-654q0 -25 -46 -25h-16zM33 740q-16 0 -21.5 3t-5.5 7t2.5 9t13.5 17l53 57q12 13 23 18t33 5h20q23 0 33 -4.5t23 -18.5l51 -55q13 -14 15.5 -19t2.5 -9t-5.5 -7t-21.5 -3q-12 0 -24 3.5t-22 10.5l-62 39l-60 -38
q-11 -7 -23.5 -11t-24.5 -4z" />
    <glyph glyph-name="uni0208" unicode="&#x208;" horiz-adv-x="283" 
d="M133 -2q-46 0 -46 25v654q0 25 46 25h16q46 0 46 -25v-654q0 -25 -46 -25h-16zM99 751q-25 0 -39 4t-34 17l-63 39q-23 16 -30 23.5t-7 14.5q0 10 16 14t42 4q33 0 49 -5t30 -20l54 -58q7 -6 9.5 -11t2.5 -9q0 -13 -30 -13zM271 751q-25 0 -39 4t-34 17l-63 39
q-23 16 -30 23.5t-7 14.5q0 10 16 14t42 4q33 0 49 -5t30 -20l54 -58q7 -6 9.5 -11t2.5 -9q0 -13 -30 -13z" />
    <glyph glyph-name="Idieresis" unicode="&#xcf;" horiz-adv-x="283" 
d="M133 -2q-46 0 -46 25v654q0 25 46 25h16q46 0 46 -25v-654q0 -25 -46 -25h-16zM225 755q-26 0 -38 6t-12 18v60q0 13 12 19t38 6t38 -6t12 -19v-60q0 -12 -12 -18t-38 -6zM58 755q-27 0 -38.5 6t-11.5 18v60q0 13 11.5 19t38.5 6q26 0 37.5 -6t11.5 -19v-60
q0 -12 -11.5 -18t-37.5 -6z" />
    <glyph glyph-name="Idotaccent" unicode="&#x130;" horiz-adv-x="283" 
d="M133 -2q-46 0 -46 25v654q0 25 46 25h16q46 0 46 -25v-654q0 -25 -46 -25h-16zM141 752q-28 0 -40 7t-12 18v65q0 12 12 18.5t40 6.5q29 0 41 -6t12 -19v-65q0 -11 -12 -18t-41 -7z" />
    <glyph glyph-name="uni1ECA" unicode="&#x1eca;" horiz-adv-x="283" 
d="M133 -2q-46 0 -46 25v654q0 25 46 25h16q46 0 46 -25v-654q0 -25 -46 -25h-16zM141 -183q-25 0 -36.5 6t-11.5 19v53q0 13 11.5 19t36.5 6t36.5 -6t11.5 -19v-53q0 -13 -11.5 -19t-36.5 -6z" />
    <glyph glyph-name="Igrave" unicode="&#xcc;" horiz-adv-x="283" 
d="M133 -2q-46 0 -46 25v654q0 25 46 25h16q46 0 46 -25v-654q0 -25 -46 -25h-16zM199 751q-25 0 -39 4t-34 17l-63 39q-23 16 -30 23.5t-7 14.5q0 10 16 14t42 4q33 0 49 -5t30 -20l54 -58q7 -6 9.5 -11t2.5 -9q0 -13 -30 -13z" />
    <glyph glyph-name="uni1EC8" unicode="&#x1ec8;" horiz-adv-x="283" 
d="M133 -2q-46 0 -46 25v654q0 25 46 25h16q46 0 46 -25v-654q0 -25 -46 -25h-16zM128 738q-13 0 -26.5 12t-13.5 20q0 5 13 9.5t29.5 11t29.5 15.5t13 22t-11 19t-27 6q-24 0 -40.5 -6t-27.5 -6q-10 0 -19 12t-9 23q0 7 15.5 14t38.5 12t44 5q49 0 77.5 -20.5t28.5 -52.5
q0 -23 -14.5 -41t-35 -30.5t-38.5 -18.5t-27 -6z" />
    <glyph glyph-name="uni020A" unicode="&#x20a;" horiz-adv-x="283" 
d="M133 -2q-46 0 -46 25v654q0 25 46 25h16q46 0 46 -25v-654q0 -25 -46 -25h-16zM141 885q-41 0 -75.5 -13.5t-55.5 -37t-21 -56.5q0 -14 5.5 -20t17.5 -6q10 0 15 3.5t8 10.5q7 17 28.5 31.5t77.5 14.5q57 0 78.5 -15t28.5 -32q3 -7 8.5 -10t13.5 -3q12 0 17.5 6t5.5 20
q0 33 -20.5 56.5t-55 37t-76.5 13.5z" />
    <glyph glyph-name="Imacron" unicode="&#x12a;" horiz-adv-x="283" 
d="M133 -2q-46 0 -46 25v654q0 25 46 25h16q46 0 46 -25v-654q0 -25 -46 -25h-16zM20 772q-23 0 -23 33v12q0 33 23 33h242q23 0 23 -33v-12q0 -33 -23 -33h-242z" />
    <glyph glyph-name="Iogonek" unicode="&#x12e;" horiz-adv-x="283" 
d="M133 -2q-46 0 -46 25v654q0 25 46 25h16q46 0 46 -25v-654q0 -25 -46 -25h-16zM128 -187q-51 0 -77.5 24t-26.5 60q0 32 23.5 66t71.5 54l52 -7q-36 -19 -54 -45.5t-18 -46.5q0 -13 9.5 -21.5t28.5 -8.5q20 0 30 5t22 5q11 0 17 -13t6 -30q0 -14 -14 -23.5t-33 -14
t-37 -4.5z" />
    <glyph glyph-name="Itilde" unicode="&#x128;" horiz-adv-x="283" 
d="M133 -2q-46 0 -46 25v654q0 25 46 25h16q46 0 46 -25v-654q0 -25 -46 -25h-16zM-6 754q-8 0 -21 7t-13 16q0 4 1.5 8.5t2.5 8.5q13 31 39 50.5t61 19.5q27 0 55 -9.5t53.5 -19.5t45.5 -10t32 10t21 19.5t17 9.5q9 0 21.5 -8t12.5 -17q0 -7 -5 -16q-15 -30 -39.5 -49
t-59.5 -19q-28 0 -56.5 10t-54 19.5t-46.5 9.5q-20 0 -31.5 -9.5t-19 -20t-16.5 -10.5z" />
    <glyph glyph-name="J" unicode="J" horiz-adv-x="402" 
d="M112 -7q-13 0 -31 1t-36 5t-29.5 11.5t-11.5 18.5q0 4 2.5 20t9 31t16.5 15q6 0 21.5 -4t39.5 -4q65 0 94.5 28t29.5 89v473q0 25 45 25h16q46 0 46 -25v-473q0 -63 -21.5 -110.5t-68 -74t-122.5 -26.5z" />
    <glyph glyph-name="Jcircumflex" unicode="&#x134;" horiz-adv-x="402" 
d="M112 -7q-13 0 -31 1t-36 5t-29.5 11.5t-11.5 18.5q0 4 2.5 20t9 31t16.5 15q6 0 21.5 -4t39.5 -4q65 0 94.5 28t29.5 89v473q0 25 45 25h16q46 0 46 -25v-473q0 -63 -21.5 -110.5t-68 -74t-122.5 -26.5zM162 740q-16 0 -21.5 3t-5.5 7t2.5 9t13.5 17l53 57q11 13 22.5 18
t33.5 5h20q23 0 33 -4.5t23 -18.5l51 -55q13 -14 15.5 -19t2.5 -9t-5.5 -7t-21.5 -3q-12 0 -24 3.5t-22 10.5l-62 39l-60 -38q-11 -7 -24 -11t-24 -4z" />
    <glyph glyph-name="K" unicode="K" horiz-adv-x="576" 
d="M135 -2q-46 0 -46 25v654q0 25 46 25h15q46 0 46 -25v-295h4l225 305q7 8 22.5 11.5t33.5 3.5h21q41 0 41 -14q0 -9 -9 -20l-234 -307l279 -331q8 -11 8 -18q0 -14 -47 -14h-25q-18 0 -33.5 2t-23.5 13l-258 317l-4 -1v-306q0 -25 -46 -25h-15z" />
    <glyph glyph-name="uni0136" unicode="&#x136;" horiz-adv-x="576" 
d="M135 -2q-46 0 -46 25v654q0 25 46 25h15q46 0 46 -25v-295h4l225 305q7 8 22.5 11.5t33.5 3.5h21q41 0 41 -14q0 -9 -9 -20l-234 -307l279 -331q8 -11 8 -18q0 -14 -47 -14h-25q-18 0 -33.5 2t-23.5 13l-258 317l-4 -1v-306q0 -25 -46 -25h-15zM243 -236q-11 0 -23.5 3.5
t-12.5 13.5q1 11 10.5 27t19 41.5t7.5 64.5q0 15 11.5 25t34.5 10h14q21 0 32 -9t11 -24q0 -32 -11 -60t-28 -48.5t-35 -32t-30 -11.5z" />
    <glyph glyph-name="L" unicode="L" horiz-adv-x="484" 
d="M124 0q-33 0 -33 33v644q0 25 46 25h15q46 0 46 -25v-585h258q23 0 23 -36v-20q0 -36 -23 -36h-332z" />
    <glyph glyph-name="uni01C7" unicode="&#x1c7;" horiz-adv-x="725" 
d="M436 -163q-13 0 -31 1t-36 4.5t-29.5 11t-11.5 19.5q0 4 2.5 20t9 30.5t16.5 15.5q6 0 21.5 -4.5t39.5 -4.5q65 0 94 28t29 90v629q0 25 46 25h16q46 0 46 -25v-626q0 -63 -21.5 -111t-68 -75.5t-122.5 -27.5zM124 0q-33 0 -33 33v644q0 25 46 25h15q46 0 46 -25v-585
h190q23 0 23 -36v-20q0 -36 -23 -36h-264z" />
    <glyph glyph-name="Lacute" unicode="&#x139;" horiz-adv-x="484" 
d="M124 0q-33 0 -33 33v644q0 25 46 25h15q46 0 46 -25v-585h258q23 0 23 -36v-20q0 -36 -23 -36h-332zM90 753q-29 0 -29 13q0 4 2.5 8.5t8.5 11.5l54 58q14 14 30.5 19.5t48.5 5.5q27 0 42.5 -4.5t15.5 -13.5q0 -8 -7 -15.5t-30 -22.5l-63 -40q-20 -12 -34 -16t-39 -4z
" />
    <glyph glyph-name="Lcaron" unicode="&#x13d;" horiz-adv-x="484" 
d="M124 0q-33 0 -33 33v644q0 25 46 25h15q46 0 46 -25v-585h258q23 0 23 -36v-20q0 -36 -23 -36h-332zM371 524q-9 0 -21 3.5t-12 13.5q0 22 5 51t5 75q0 15 10.5 25t32.5 10h12q21 0 32 -9t11 -24q0 -41 -13.5 -74t-31.5 -52t-30 -19z" />
    <glyph glyph-name="uni013B" unicode="&#x13b;" horiz-adv-x="484" 
d="M124 0q-33 0 -33 33v644q0 25 46 25h15q46 0 46 -25v-585h258q23 0 23 -36v-20q0 -36 -23 -36h-332zM240 -236q-11 0 -23.5 3.5t-12.5 13.5q1 11 10.5 27t18.5 41.5t8 64.5q0 15 11.5 25t34.5 10h14q21 0 32 -9t11 -24q0 -32 -11 -60t-28 -48.5t-35 -32t-30 -11.5z" />
    <glyph glyph-name="Ldot" unicode="&#x13f;" horiz-adv-x="484" 
d="M124 0q-33 0 -33 33v644q0 25 46 25h15q46 0 46 -25v-585h258q23 0 23 -36v-20q0 -36 -23 -36h-332zM383 279q-24 0 -40 16t-16 40t16 40.5t40 16.5t40.5 -16.5t16.5 -40.5t-16.5 -40t-40.5 -16z" />
    <glyph glyph-name="uni01C8" unicode="&#x1c8;" horiz-adv-x="760" 
d="M124 0q-33 0 -33 33v644q0 25 46 25h15q46 0 46 -25v-585h258q23 0 23 -36v-20q0 -36 -23 -36h-332zM545 -212q-21 0 -40 3t-30.5 11t-11.5 22q0 7 3 19.5t8.5 23.5t13.5 11q6 0 13.5 -2.5t25.5 -2.5q22 0 35.5 13.5t13.5 51.5v562q0 25 46 25h11q46 0 46 -25v-567
q0 -43 -12.5 -71t-32.5 -44t-43.5 -23t-45.5 -7zM627 589q-28 0 -40 6.5t-12 18.5v65q0 12 12 18.5t40 6.5q29 0 41 -6.5t12 -18.5v-65q0 -12 -12 -18.5t-41 -6.5z" />
    <glyph glyph-name="Lslash" unicode="&#x141;" horiz-adv-x="486" 
d="M10 223q-10 0 -10 16v10q0 13 5.5 21t15.5 13l274 167q3 2 6 3.5t5 1.5q10 0 10 -16v-10q0 -22 -21 -35l-274 -166q-8 -5 -11 -5zM124 0q-33 0 -33 33v644q0 25 46 25h15q46 0 46 -25v-585h258q23 0 23 -36v-20q0 -36 -23 -36h-332z" />
    <glyph glyph-name="M" unicode="M" horiz-adv-x="843" 
d="M404 187q-18 0 -27 15l-162 284q-7 10 -12.5 21t-11.5 22l-4 -1q2 -13 2 -26.5v-26.5v-452q0 -25 -46 -25h-13q-46 0 -46 25v654q0 25 46 25h41q19 0 31 -5.5t17 -15.5l182 -318q6 -11 12 -24t9 -26q5 13 12.5 27.5t12.5 24.5l180 316q6 10 17.5 15.5t30.5 5.5h38
q46 0 46 -25v-654q0 -25 -46 -25h-13q-46 0 -46 25v447q0 14 0.5 27.5t1.5 26.5l-4 1q-6 -12 -11.5 -22.5t-12.5 -21.5l-160 -279q-9 -15 -27 -15h-37z" />
    <glyph glyph-name="N" unicode="N" horiz-adv-x="719" 
d="M130 -2q-46 0 -46 25v654q0 25 46 25h27q18 0 29.5 -4.5t19.5 -16.5l288 -438q11 -15 19 -29t15 -30l4 1q-1 17 -1.5 31.5t-0.5 36.5v424q0 25 46 25h13q46 0 46 -25v-654q0 -25 -46 -25h-25q-16 0 -26.5 4t-17.5 14l-295 447q-10 15 -18 29.5t-16 30.5l-4 -1
q2 -17 2 -31.5v-36.5v-431q0 -25 -46 -25h-13z" />
    <glyph glyph-name="uni01CA" unicode="&#x1ca;" horiz-adv-x="1121" 
d="M130 -2q-46 0 -46 25v654q0 25 46 25h27q18 0 29.5 -4.5t19.5 -16.5l288 -438q11 -15 19 -29t15 -30l4 1q-1 17 -1.5 31.5t-0.5 36.5v424q0 25 46 25h13q46 0 46 -25v-654q0 -25 -46 -25h-25q-16 0 -26.5 4t-17.5 14l-295 447q-10 15 -18 29.5t-16 30.5l-4 -1
q2 -17 2 -31.5v-36.5v-431q0 -25 -46 -25h-13zM831 -7q-13 0 -31 1t-36 5t-29.5 11.5t-11.5 18.5q0 4 2.5 20t9 31t16.5 15q6 0 21.5 -4t39.5 -4q65 0 94.5 28t29.5 89v473q0 25 45 25h16q46 0 46 -25v-473q0 -63 -21.5 -110.5t-68 -74t-122.5 -26.5z" />
    <glyph glyph-name="Nacute" unicode="&#x143;" horiz-adv-x="719" 
d="M130 -2q-46 0 -46 25v654q0 25 46 25h27q18 0 29.5 -4.5t19.5 -16.5l288 -438q11 -15 19 -29t15 -30l4 1q-1 17 -1.5 31.5t-0.5 36.5v424q0 25 46 25h13q46 0 46 -25v-654q0 -25 -46 -25h-25q-16 0 -26.5 4t-17.5 14l-295 447q-10 15 -18 29.5t-16 30.5l-4 -1
q2 -17 2 -31.5v-36.5v-431q0 -25 -46 -25h-13zM302 751q-30 0 -30 13q0 4 3 9t9 11l54 58q14 15 30.5 20t48.5 5q26 0 42 -4t16 -14q0 -7 -7 -15t-30 -23l-63 -39q-20 -13 -34 -17t-39 -4z" />
    <glyph glyph-name="Ncaron" unicode="&#x147;" horiz-adv-x="719" 
d="M130 -2q-46 0 -46 25v654q0 25 46 25h27q18 0 29.5 -4.5t19.5 -16.5l288 -438q11 -15 19 -29t15 -30l4 1q-1 17 -1.5 31.5t-0.5 36.5v424q0 25 46 25h13q46 0 46 -25v-654q0 -25 -46 -25h-25q-16 0 -26.5 4t-17.5 14l-295 447q-10 15 -18 29.5t-16 30.5l-4 -1
q2 -17 2 -31.5v-36.5v-431q0 -25 -46 -25h-13zM347 751q-27 0 -39.5 4.5t-25.5 20.5l-44 57q-9 10 -11 14t-2 8q0 6 6 9t23 3q18 0 29 -2.5t22 -11.5l55 -41l58 42q10 9 20.5 11t27.5 2t23 -3t6 -9q0 -4 -2.5 -8t-11.5 -16l-43 -55q-12 -16 -25 -20.5t-40 -4.5h-26z" />
    <glyph glyph-name="uni0145" unicode="&#x145;" horiz-adv-x="719" 
d="M130 -2q-46 0 -46 25v654q0 25 46 25h27q18 0 29.5 -4.5t19.5 -16.5l288 -438q11 -15 19 -29t15 -30l4 1q-1 17 -1.5 31.5t-0.5 36.5v424q0 25 46 25h13q46 0 46 -25v-654q0 -25 -46 -25h-25q-16 0 -26.5 4t-17.5 14l-295 447q-10 15 -18 29.5t-16 30.5l-4 -1
q2 -17 2 -31.5v-36.5v-431q0 -25 -46 -25h-13zM312 -236q-11 0 -23.5 3.5t-12.5 13.5q1 11 11 27t19 41.5t7 64.5q0 15 11.5 25t34.5 10h15q21 0 31.5 -9t10.5 -24q0 -32 -11 -60t-28 -48.5t-35 -32t-30 -11.5z" />
    <glyph glyph-name="uni1E44" unicode="&#x1e44;" horiz-adv-x="719" 
d="M130 -2q-46 0 -46 25v654q0 25 46 25h27q18 0 29.5 -4.5t19.5 -16.5l288 -438q11 -15 19 -29t15 -30l4 1q-1 17 -1.5 31.5t-0.5 36.5v424q0 25 46 25h13q46 0 46 -25v-654q0 -25 -46 -25h-25q-16 0 -26.5 4t-17.5 14l-295 447q-10 15 -18 29.5t-16 30.5l-4 -1
q2 -17 2 -31.5v-36.5v-431q0 -25 -46 -25h-13zM360 752q-28 0 -40.5 7t-12.5 18v65q0 12 12.5 18.5t40.5 6.5t40.5 -6t12.5 -19v-65q0 -11 -12.5 -18t-40.5 -7z" />
    <glyph glyph-name="Eng" unicode="&#x14a;" horiz-adv-x="719" 
d="M501 -212q-20 0 -39.5 3t-31 11t-11.5 22q0 7 3 19.5t9 23.5t14 11q6 0 13.5 -2.5t25.5 -2.5q21 0 35 13.5t14 51.5v59l-308 466q-10 15 -18 29.5t-16 30.5l-4 -1q2 -17 2 -31.5v-36.5v-431q0 -25 -46 -25h-13q-46 0 -46 25v654q0 25 46 25h27q18 0 29.5 -4.5t19.5 -16.5
l288 -438q11 -15 19 -29t15 -30l4 1q-1 17 -1.5 31.5t-0.5 36.5v424q0 25 46 25h13q46 0 46 -25v-744q0 -43 -12.5 -71t-32.5 -44t-43 -23t-46 -7z" />
    <glyph glyph-name="uni019D" unicode="&#x19d;" horiz-adv-x="719" 
d="M1 -212q-10 0 -25.5 1t-32 5t-27 11t-10.5 19q0 4 2.5 20t8.5 31t16 15q7 0 20 -4.5t34 -4.5q52 0 74.5 28t22.5 90v678q0 25 46 25h27q18 0 29.5 -4.5t19.5 -16.5l288 -438q11 -15 19 -29t15 -30l4 1q-1 17 -1.5 31.5t-0.5 36.5v424q0 25 46 25h13q46 0 46 -25v-654
q0 -25 -46 -25h-25q-16 0 -26.5 4t-17.5 14l-295 447q-10 15 -18 29.5t-16 30.5l-4 -1q2 -17 2 -31.5v-36.5v-455q0 -95 -43.5 -153t-144.5 -58z" />
    <glyph glyph-name="uni01CB" unicode="&#x1cb;" horiz-adv-x="995" 
d="M130 -2q-46 0 -46 25v654q0 25 46 25h27q18 0 29.5 -4.5t19.5 -16.5l288 -438q11 -15 19 -29t15 -30l4 1q-1 17 -1.5 31.5t-0.5 36.5v424q0 25 46 25h13q46 0 46 -25v-654q0 -25 -46 -25h-25q-16 0 -26.5 4t-17.5 14l-295 447q-10 15 -18 29.5t-16 30.5l-4 -1
q2 -17 2 -31.5v-36.5v-431q0 -25 -46 -25h-13zM780 -212q-21 0 -40 3t-30.5 11t-11.5 22q0 7 3 19.5t8.5 23.5t13.5 11q6 0 13.5 -2.5t25.5 -2.5q22 0 35.5 13.5t13.5 51.5v562q0 25 46 25h11q46 0 46 -25v-567q0 -43 -12.5 -71t-32.5 -44t-43.5 -23t-45.5 -7zM862 589
q-28 0 -40 6.5t-12 18.5v65q0 12 12 18.5t40 6.5q29 0 41 -6.5t12 -18.5v-65q0 -12 -12 -18.5t-41 -6.5z" />
    <glyph glyph-name="Ntilde" unicode="&#xd1;" horiz-adv-x="719" 
d="M130 -2q-46 0 -46 25v654q0 25 46 25h27q18 0 29.5 -4.5t19.5 -16.5l288 -438q11 -15 19 -29t15 -30l4 1q-1 17 -1.5 31.5t-0.5 36.5v424q0 25 46 25h13q46 0 46 -25v-654q0 -25 -46 -25h-25q-16 0 -26.5 4t-17.5 14l-295 447q-10 15 -18 29.5t-16 30.5l-4 -1
q2 -17 2 -31.5v-36.5v-431q0 -25 -46 -25h-13zM213 754q-8 0 -21 7t-13 16q0 4 1 8.5t3 8.5q13 31 38.5 50.5t60.5 19.5q27 0 55 -9.5t54 -19.5t45 -10q21 0 33 10t21 19.5t17 9.5q9 0 21.5 -8t12.5 -17q0 -7 -5 -16q-15 -30 -39.5 -49t-59.5 -19q-28 0 -56.5 10t-54 19.5
t-46.5 9.5q-20 0 -31.5 -9.5t-19 -20t-16.5 -10.5z" />
    <glyph glyph-name="O" unicode="O" horiz-adv-x="731" 
d="M365 -7q-151 0 -231 92t-80 266q0 176 80 266t231 90q152 0 232 -90t80 -266q0 -174 -80 -266t-232 -92zM365 85q99 0 150.5 68t51.5 198t-51.5 196.5t-150.5 66.5q-98 0 -149.5 -66.5t-51.5 -196.5t51.5 -198t149.5 -68z" />
    <glyph glyph-name="Oacute" unicode="&#xd3;" horiz-adv-x="731" 
d="M365 -7q-151 0 -231 92t-80 266q0 176 80 266t231 90q152 0 232 -90t80 -266q0 -174 -80 -266t-232 -92zM365 85q99 0 150.5 68t51.5 198t-51.5 196.5t-150.5 66.5q-98 0 -149.5 -66.5t-51.5 -196.5t51.5 -198t149.5 -68zM308 751q-30 0 -30 13q0 4 3 9t9 11l54 58
q14 15 30.5 20t48.5 5q26 0 42 -4t16 -14q0 -7 -7 -15t-30 -23l-63 -39q-20 -13 -34 -17t-39 -4z" />
    <glyph glyph-name="Obreve" unicode="&#x14e;" horiz-adv-x="731" 
d="M365 -7q-151 0 -231 92t-80 266q0 176 80 266t231 90q152 0 232 -90t80 -266q0 -174 -80 -266t-232 -92zM365 85q99 0 150.5 68t51.5 198t-51.5 196.5t-150.5 66.5q-98 0 -149.5 -66.5t-51.5 -196.5t51.5 -198t149.5 -68zM366 743q-42 0 -76.5 13.5t-55 38t-20.5 55.5
q0 15 5.5 20.5t17.5 5.5q9 0 14 -3t9 -11q7 -16 28.5 -31t77.5 -15q57 0 78.5 15t28.5 32q3 8 8.5 10.5t13.5 2.5q12 0 17.5 -5.5t5.5 -20.5q0 -31 -20.5 -55.5t-55 -38t-76.5 -13.5z" />
    <glyph glyph-name="uni01D1" unicode="&#x1d1;" horiz-adv-x="731" 
d="M365 -7q-151 0 -231 92t-80 266q0 176 80 266t231 90q152 0 232 -90t80 -266q0 -174 -80 -266t-232 -92zM365 85q99 0 150.5 68t51.5 198t-51.5 196.5t-150.5 66.5q-98 0 -149.5 -66.5t-51.5 -196.5t51.5 -198t149.5 -68zM353 751q-27 0 -39.5 4.5t-25.5 20.5l-44 57
q-9 10 -11 14t-2 8q0 6 6 9t23 3q18 0 29 -2.5t22 -11.5l55 -41l58 42q10 9 20.5 11t27.5 2t23 -3t6 -9q0 -4 -2.5 -8t-11.5 -16l-43 -55q-12 -16 -25 -20.5t-40 -4.5h-26z" />
    <glyph glyph-name="Ocircumflex" unicode="&#xd4;" horiz-adv-x="731" 
d="M365 -7q-151 0 -231 92t-80 266q0 176 80 266t231 90q152 0 232 -90t80 -266q0 -174 -80 -266t-232 -92zM365 85q99 0 150.5 68t51.5 198t-51.5 196.5t-150.5 66.5q-98 0 -149.5 -66.5t-51.5 -196.5t51.5 -198t149.5 -68zM258 740q-16 0 -21.5 3t-5.5 7t2.5 9t13.5 17
l53 57q11 13 22 18t34 5h20q23 0 33 -4.5t23 -18.5l51 -55q13 -14 15.5 -19t2.5 -9t-5.5 -7t-22.5 -3q-11 0 -23 3.5t-22 10.5l-62 39l-60 -38q-12 -7 -24.5 -11t-23.5 -4z" />
    <glyph glyph-name="uni1ED0" unicode="&#x1ed0;" horiz-adv-x="731" 
d="M365 -7q-151 0 -231 92t-80 266q0 176 80 266t231 90q152 0 232 -90t80 -266q0 -174 -80 -266t-232 -92zM365 85q99 0 150.5 68t51.5 198t-51.5 196.5t-150.5 66.5q-98 0 -149.5 -66.5t-51.5 -196.5t51.5 -198t149.5 -68zM258 740q-16 0 -21.5 3t-5.5 7t2.5 9t13.5 17
l53 57q11 13 22 18t34 5h20q23 0 33 -4.5t23 -18.5l51 -55q13 -14 15.5 -19t2.5 -9t-5.5 -7t-22.5 -3q-11 0 -23 3.5t-22 10.5l-62 39l-60 -38q-12 -7 -24.5 -11t-23.5 -4zM308 890q-30 0 -30 13q0 4 3 8.5t9 11.5l54 58q14 14 30.5 19.5t48.5 5.5q26 0 42 -4.5t16 -13.5
q0 -8 -7 -15.5t-30 -22.5l-63 -40q-20 -12 -34 -16t-39 -4z" />
    <glyph glyph-name="uni1ED8" unicode="&#x1ed8;" horiz-adv-x="731" 
d="M365 -7q-151 0 -231 92t-80 266q0 176 80 266t231 90q152 0 232 -90t80 -266q0 -174 -80 -266t-232 -92zM365 85q99 0 150.5 68t51.5 198t-51.5 196.5t-150.5 66.5q-98 0 -149.5 -66.5t-51.5 -196.5t51.5 -198t149.5 -68zM367 -183q-25 0 -36.5 6t-11.5 19v53
q0 13 11.5 19t36.5 6q26 0 37 -6t11 -19v-53q0 -13 -11 -19t-37 -6zM258 740q-16 0 -21.5 3t-5.5 7t2.5 9t13.5 17l53 57q11 13 22 18t34 5h20q23 0 33 -4.5t23 -18.5l51 -55q13 -14 15.5 -19t2.5 -9t-5.5 -7t-22.5 -3q-11 0 -23 3.5t-22 10.5l-62 39l-60 -38
q-12 -7 -24.5 -11t-23.5 -4z" />
    <glyph glyph-name="uni1ED2" unicode="&#x1ed2;" horiz-adv-x="731" 
d="M365 -7q-151 0 -231 92t-80 266q0 176 80 266t231 90q152 0 232 -90t80 -266q0 -174 -80 -266t-232 -92zM365 85q99 0 150.5 68t51.5 198t-51.5 196.5t-150.5 66.5q-98 0 -149.5 -66.5t-51.5 -196.5t51.5 -198t149.5 -68zM258 740q-16 0 -21.5 3t-5.5 7t2.5 9t13.5 17
l53 57q11 13 22 18t34 5h20q23 0 33 -4.5t23 -18.5l51 -55q13 -14 15.5 -19t2.5 -9t-5.5 -7t-22.5 -3q-11 0 -23 3.5t-22 10.5l-62 39l-60 -38q-12 -7 -24.5 -11t-23.5 -4zM424 890q-25 0 -39 4t-34 16l-63 40q-23 15 -30 22.5t-7 15.5q0 9 16 13.5t42 4.5q33 0 49 -5.5
t30 -19.5l54 -58q6 -7 8.5 -11.5t2.5 -8.5q0 -13 -29 -13z" />
    <glyph glyph-name="uni1ED4" unicode="&#x1ed4;" horiz-adv-x="731" 
d="M365 -7q-151 0 -231 92t-80 266q0 176 80 266t231 90q152 0 232 -90t80 -266q0 -174 -80 -266t-232 -92zM365 85q99 0 150.5 68t51.5 198t-51.5 196.5t-150.5 66.5q-98 0 -149.5 -66.5t-51.5 -196.5t51.5 -198t149.5 -68zM258 740q-16 0 -21.5 3t-5.5 7t2.5 9t13.5 17
l53 57q11 13 22 18t34 5h20q23 0 33 -4.5t23 -18.5l51 -55q13 -14 15.5 -19t2.5 -9t-5.5 -7t-22.5 -3q-11 0 -23 3.5t-22 10.5l-62 39l-60 -38q-12 -7 -24.5 -11t-23.5 -4zM353 876q-14 0 -27 12t-13 20q0 6 13 10.5t29.5 11t29.5 15t13 21.5t-11.5 19t-26.5 6q-25 0 -41 -6
t-27 -6q-10 0 -19 12t-9 24q0 7 15.5 14t38.5 12t44 5q48 0 76.5 -21t28.5 -53q0 -23 -14 -41t-34.5 -30.5t-39 -18.5t-26.5 -6z" />
    <glyph glyph-name="uni1ED6" unicode="&#x1ed6;" horiz-adv-x="731" 
d="M365 -7q-151 0 -231 92t-80 266q0 176 80 266t231 90q152 0 232 -90t80 -266q0 -174 -80 -266t-232 -92zM365 85q99 0 150.5 68t51.5 198t-51.5 196.5t-150.5 66.5q-98 0 -149.5 -66.5t-51.5 -196.5t51.5 -198t149.5 -68zM258 740q-16 0 -21.5 3t-5.5 7t2.5 9t13.5 17
l53 57q11 13 22 18t34 5h20q23 0 33 -4.5t23 -18.5l51 -55q13 -14 15.5 -19t2.5 -9t-5.5 -7t-22.5 -3q-11 0 -23 3.5t-22 10.5l-62 39l-60 -38q-12 -7 -24.5 -11t-23.5 -4zM219 893q-8 0 -21 6.5t-13 16.5q0 4 1 8t3 9q13 31 38.5 50t60.5 19q27 0 55 -9.5t54 -19.5t45 -10
q21 0 33 10t21 20t17 10q9 0 21.5 -8t12.5 -18q0 -6 -5 -16q-15 -30 -39.5 -48.5t-59.5 -18.5q-28 0 -56.5 10t-54 19.5t-46.5 9.5q-20 0 -31.5 -10t-19 -20t-16.5 -10z" />
    <glyph glyph-name="uni020C" unicode="&#x20c;" horiz-adv-x="731" 
d="M365 -7q-151 0 -231 92t-80 266q0 176 80 266t231 90q152 0 232 -90t80 -266q0 -174 -80 -266t-232 -92zM365 85q99 0 150.5 68t51.5 198t-51.5 196.5t-150.5 66.5q-98 0 -149.5 -66.5t-51.5 -196.5t51.5 -198t149.5 -68zM324 751q-25 0 -39 4t-34 17l-63 39
q-23 16 -30 23.5t-7 14.5q0 10 16 14t42 4q33 0 49 -5t30 -20l54 -58q6 -6 8.5 -11t2.5 -9q0 -13 -29 -13zM496 751q-25 0 -39 4t-34 17l-63 39q-23 16 -30 23.5t-7 14.5q0 10 15.5 14t42.5 4q33 0 49 -5t30 -20l54 -58q6 -6 8.5 -11t2.5 -9q0 -13 -29 -13z" />
    <glyph glyph-name="Odieresis" unicode="&#xd6;" horiz-adv-x="731" 
d="M365 -7q-151 0 -231 92t-80 266q0 176 80 266t231 90q152 0 232 -90t80 -266q0 -174 -80 -266t-232 -92zM365 85q99 0 150.5 68t51.5 198t-51.5 196.5t-150.5 66.5q-98 0 -149.5 -66.5t-51.5 -196.5t51.5 -198t149.5 -68zM450 755q-26 0 -38 6t-12 18v60q0 13 12 19t38 6
t38 -6t12 -19v-60q0 -12 -12 -18t-38 -6zM282 755q-26 0 -38 6t-12 18v60q0 13 12 19t38 6t38 -6t12 -19v-60q0 -12 -12 -18t-38 -6z" />
    <glyph glyph-name="uni022A" unicode="&#x22a;" horiz-adv-x="731" 
d="M365 -7q-151 0 -231 92t-80 266q0 176 80 266t231 90q152 0 232 -90t80 -266q0 -174 -80 -266t-232 -92zM365 85q99 0 150.5 68t51.5 198t-51.5 196.5t-150.5 66.5q-98 0 -149.5 -66.5t-51.5 -196.5t51.5 -198t149.5 -68zM450 755q-26 0 -38 6t-12 18v60q0 13 12 19t38 6
t38 -6t12 -19v-60q0 -12 -12 -18t-38 -6zM282 755q-26 0 -38 6t-12 18v60q0 13 12 19t38 6t38 -6t12 -19v-60q0 -12 -12 -18t-38 -6zM244 917q-23 0 -23 33v12q0 32 23 32h243q23 0 23 -32v-12q0 -33 -23 -33h-243z" />
    <glyph glyph-name="uni0230" unicode="&#x230;" horiz-adv-x="731" 
d="M365 -7q-151 0 -231 92t-80 266q0 176 80 266t231 90q152 0 232 -90t80 -266q0 -174 -80 -266t-232 -92zM365 85q99 0 150.5 68t51.5 198t-51.5 196.5t-150.5 66.5q-98 0 -149.5 -66.5t-51.5 -196.5t51.5 -198t149.5 -68zM366 752q-28 0 -40.5 7t-12.5 18v65
q0 12 12.5 18.5t40.5 6.5t40.5 -6t12.5 -19v-65q0 -11 -12.5 -18t-40.5 -7zM244 917q-23 0 -23 33v12q0 32 23 32h243q23 0 23 -32v-12q0 -33 -23 -33h-243z" />
    <glyph glyph-name="uni1ECC" unicode="&#x1ecc;" horiz-adv-x="731" 
d="M365 -7q-151 0 -231 92t-80 266q0 176 80 266t231 90q152 0 232 -90t80 -266q0 -174 -80 -266t-232 -92zM365 85q99 0 150.5 68t51.5 198t-51.5 196.5t-150.5 66.5q-98 0 -149.5 -66.5t-51.5 -196.5t51.5 -198t149.5 -68zM367 -183q-25 0 -36.5 6t-11.5 19v53
q0 13 11.5 19t36.5 6q26 0 37 -6t11 -19v-53q0 -13 -11 -19t-37 -6z" />
    <glyph glyph-name="Ograve" unicode="&#xd2;" horiz-adv-x="731" 
d="M365 -7q-151 0 -231 92t-80 266q0 176 80 266t231 90q152 0 232 -90t80 -266q0 -174 -80 -266t-232 -92zM365 85q99 0 150.5 68t51.5 198t-51.5 196.5t-150.5 66.5q-98 0 -149.5 -66.5t-51.5 -196.5t51.5 -198t149.5 -68zM424 751q-25 0 -39 4t-34 17l-63 39
q-23 16 -30 23.5t-7 14.5q0 10 16 14t42 4q33 0 49 -5t30 -20l54 -58q6 -6 8.5 -11t2.5 -9q0 -13 -29 -13z" />
    <glyph glyph-name="uni1ECE" unicode="&#x1ece;" horiz-adv-x="731" 
d="M365 -7q-151 0 -231 92t-80 266q0 176 80 266t231 90q152 0 232 -90t80 -266q0 -174 -80 -266t-232 -92zM365 85q99 0 150.5 68t51.5 198t-51.5 196.5t-150.5 66.5q-98 0 -149.5 -66.5t-51.5 -196.5t51.5 -198t149.5 -68zM353 738q-14 0 -27 12t-13 20q0 5 13 9.5
t29.5 11t29.5 15.5t13 22t-11.5 19t-26.5 6q-25 0 -41 -6t-27 -6q-10 0 -19 12t-9 23q0 7 15.5 14t38.5 12t44 5q48 0 76.5 -20.5t28.5 -52.5q0 -23 -14 -41t-34.5 -30.5t-39 -18.5t-26.5 -6z" />
    <glyph glyph-name="Ohorn" unicode="&#x1a0;" horiz-adv-x="731" 
d="M365 -7q-151 0 -231 92t-80 266q0 176 80 266t231 90q59 0 110 -14q12 -4 25.5 -7.5t29.5 -3.5q24 0 34 10t10 24t-6.5 25t-13.5 19.5t-7 14.5q0 11 10 17l26 18q5 4 13 4q14 0 25.5 -13t18.5 -31t7 -33q0 -41 -30.5 -67t-95.5 -27l21 20q67 -41 101 -119t34 -193
q0 -174 -80 -266t-232 -92zM365 85q99 0 150.5 68t51.5 198t-51.5 196.5t-150.5 66.5q-98 0 -149.5 -66.5t-51.5 -196.5t51.5 -198t149.5 -68z" />
    <glyph glyph-name="uni1EDA" unicode="&#x1eda;" horiz-adv-x="731" 
d="M365 -7q-151 0 -231 92t-80 266q0 176 80 266t231 90q59 0 110 -14q12 -4 25.5 -7.5t29.5 -3.5q24 0 34 10t10 24t-6.5 25t-13.5 19.5t-7 14.5q0 11 10 17l26 18q5 4 13 4q14 0 25.5 -13t18.5 -31t7 -33q0 -41 -30.5 -67t-95.5 -27l21 20q67 -41 101 -119t34 -193
q0 -174 -80 -266t-232 -92zM365 85q99 0 150.5 68t51.5 198t-51.5 196.5t-150.5 66.5q-98 0 -149.5 -66.5t-51.5 -196.5t51.5 -198t149.5 -68zM308 751q-30 0 -30 13q0 4 3 9t9 11l54 58q14 15 30.5 20t48.5 5q26 0 42 -4t16 -14q0 -7 -7 -15t-30 -23l-63 -39
q-20 -13 -34 -17t-39 -4z" />
    <glyph glyph-name="uni1EE2" unicode="&#x1ee2;" horiz-adv-x="731" 
d="M365 -7q-151 0 -231 92t-80 266q0 176 80 266t231 90q59 0 110 -14q12 -4 25.5 -7.5t29.5 -3.5q24 0 34 10t10 24t-6.5 25t-13.5 19.5t-7 14.5q0 11 10 17l26 18q5 4 13 4q14 0 25.5 -13t18.5 -31t7 -33q0 -41 -30.5 -67t-95.5 -27l21 20q67 -41 101 -119t34 -193
q0 -174 -80 -266t-232 -92zM365 85q99 0 150.5 68t51.5 198t-51.5 196.5t-150.5 66.5q-98 0 -149.5 -66.5t-51.5 -196.5t51.5 -198t149.5 -68zM366 -183q-25 0 -36.5 6t-11.5 19v53q0 13 11.5 19t36.5 6q26 0 37 -6t11 -19v-53q0 -13 -11 -19t-37 -6z" />
    <glyph glyph-name="uni1EDC" unicode="&#x1edc;" horiz-adv-x="731" 
d="M365 -7q-151 0 -231 92t-80 266q0 176 80 266t231 90q59 0 110 -14q12 -4 25.5 -7.5t29.5 -3.5q24 0 34 10t10 24t-6.5 25t-13.5 19.5t-7 14.5q0 11 10 17l26 18q5 4 13 4q14 0 25.5 -13t18.5 -31t7 -33q0 -41 -30.5 -67t-95.5 -27l21 20q67 -41 101 -119t34 -193
q0 -174 -80 -266t-232 -92zM365 85q99 0 150.5 68t51.5 198t-51.5 196.5t-150.5 66.5q-98 0 -149.5 -66.5t-51.5 -196.5t51.5 -198t149.5 -68zM424 751q-25 0 -39 4t-34 17l-63 39q-23 16 -30 23.5t-7 14.5q0 10 16 14t42 4q33 0 49 -5t30 -20l54 -58q6 -6 8.5 -11t2.5 -9
q0 -13 -29 -13z" />
    <glyph glyph-name="uni1EDE" unicode="&#x1ede;" horiz-adv-x="731" 
d="M365 -7q-151 0 -231 92t-80 266q0 176 80 266t231 90q59 0 110 -14q12 -4 25.5 -7.5t29.5 -3.5q24 0 34 10t10 24t-6.5 25t-13.5 19.5t-7 14.5q0 11 10 17l26 18q5 4 13 4q14 0 25.5 -13t18.5 -31t7 -33q0 -41 -30.5 -67t-95.5 -27l21 20q67 -41 101 -119t34 -193
q0 -174 -80 -266t-232 -92zM365 85q99 0 150.5 68t51.5 198t-51.5 196.5t-150.5 66.5q-98 0 -149.5 -66.5t-51.5 -196.5t51.5 -198t149.5 -68zM353 738q-14 0 -27 12t-13 20q0 5 13 9.5t29.5 11t29.5 15.5t13 22t-11.5 19t-26.5 6q-25 0 -41 -6t-27 -6q-10 0 -19 12t-9 23
q0 7 15.5 14t38.5 12t44 5q48 0 76.5 -20.5t28.5 -52.5q0 -23 -14 -41t-34.5 -30.5t-39 -18.5t-26.5 -6z" />
    <glyph glyph-name="uni1EE0" unicode="&#x1ee0;" horiz-adv-x="731" 
d="M365 -7q-151 0 -231 92t-80 266q0 176 80 266t231 90q59 0 110 -14q12 -4 25.5 -7.5t29.5 -3.5q24 0 34 10t10 24t-6.5 25t-13.5 19.5t-7 14.5q0 11 10 17l26 18q5 4 13 4q14 0 25.5 -13t18.5 -31t7 -33q0 -41 -30.5 -67t-95.5 -27l21 20q67 -41 101 -119t34 -193
q0 -174 -80 -266t-232 -92zM365 85q99 0 150.5 68t51.5 198t-51.5 196.5t-150.5 66.5q-98 0 -149.5 -66.5t-51.5 -196.5t51.5 -198t149.5 -68zM219 754q-8 0 -21 7t-13 16q0 4 1 8.5t3 8.5q13 31 38.5 50.5t60.5 19.5q27 0 55 -9.5t54 -19.5t45 -10q21 0 33 10t21 19.5
t17 9.5q9 0 21.5 -8t12.5 -17q0 -7 -5 -16q-15 -30 -39.5 -49t-59.5 -19q-28 0 -56.5 10t-54 19.5t-46.5 9.5q-20 0 -31.5 -9.5t-19 -20t-16.5 -10.5z" />
    <glyph glyph-name="Ohungarumlaut" unicode="&#x150;" horiz-adv-x="731" 
d="M365 -7q-151 0 -231 92t-80 266q0 176 80 266t231 90q152 0 232 -90t80 -266q0 -174 -80 -266t-232 -92zM365 85q99 0 150.5 68t51.5 198t-51.5 196.5t-150.5 66.5q-98 0 -149.5 -66.5t-51.5 -196.5t51.5 -198t149.5 -68zM235 751q-30 0 -30 13q0 4 2.5 9t9.5 11l54 58
q14 15 30.5 20t48.5 5q26 0 42 -4t16 -14q0 -7 -7 -15t-30 -23l-64 -39q-19 -13 -33 -17t-39 -4zM406 751q-29 0 -29 13q0 4 2.5 9t9.5 11l54 58q13 15 30 20t48 5q27 0 43 -4t16 -14q0 -7 -7 -15t-30 -23l-64 -39q-19 -13 -33 -17t-40 -4z" />
    <glyph glyph-name="uni020E" unicode="&#x20e;" horiz-adv-x="731" 
d="M365 -7q-151 0 -231 92t-80 266q0 176 80 266t231 90q152 0 232 -90t80 -266q0 -174 -80 -266t-232 -92zM365 85q99 0 150.5 68t51.5 198t-51.5 196.5t-150.5 66.5q-98 0 -149.5 -66.5t-51.5 -196.5t51.5 -198t149.5 -68zM366 885q-42 0 -76.5 -13.5t-55 -37t-20.5 -56.5
q0 -14 5.5 -20t17.5 -6q9 0 14 3.5t9 10.5q7 17 28.5 31.5t77.5 14.5q57 0 78.5 -15t28.5 -32q3 -7 8.5 -10t13.5 -3q12 0 17.5 6t5.5 20q0 33 -20.5 56.5t-55 37t-76.5 13.5z" />
    <glyph glyph-name="Omacron" unicode="&#x14c;" horiz-adv-x="731" 
d="M365 -7q-151 0 -231 92t-80 266q0 176 80 266t231 90q152 0 232 -90t80 -266q0 -174 -80 -266t-232 -92zM365 85q99 0 150.5 68t51.5 198t-51.5 196.5t-150.5 66.5q-98 0 -149.5 -66.5t-51.5 -196.5t51.5 -198t149.5 -68zM244 772q-23 0 -23 33v12q0 33 23 33h243
q23 0 23 -33v-12q0 -33 -23 -33h-243z" />
    <glyph glyph-name="uni01EA" unicode="&#x1ea;" horiz-adv-x="731" 
d="M365 -7q-151 0 -231 92t-80 266q0 176 80 266t231 90q152 0 232 -90t80 -266q0 -174 -80 -266t-232 -92zM365 85q99 0 150.5 68t51.5 198t-51.5 196.5t-150.5 66.5q-98 0 -149.5 -66.5t-51.5 -196.5t51.5 -198t149.5 -68zM381 -187q-51 0 -77.5 24t-26.5 60q0 32 24 66
t71 54l52 -7q-36 -19 -54 -45.5t-18 -46.5q0 -13 9.5 -21.5t28.5 -8.5q20 0 30 5t22 5q11 0 17 -13t6 -30q0 -14 -13.5 -23.5t-33 -14t-37.5 -4.5z" />
    <glyph glyph-name="Oslash" unicode="&#xd8;" horiz-adv-x="731" 
d="M75 7q-7 -10 -16 -10q-5 0 -12 5t-12 11.5t-5 11.5q0 8 7 16l590 658q8 9 16 9q6 0 13 -4.5t12 -11t5 -11.5q0 -7 -7 -16zM365 -7q-151 0 -231 92t-80 266q0 176 80 266t231 90q152 0 232 -90t80 -266q0 -174 -80 -266t-232 -92zM365 85q99 0 150.5 68t51.5 198
t-51.5 196.5t-150.5 66.5q-98 0 -149.5 -66.5t-51.5 -196.5t51.5 -198t149.5 -68z" />
    <glyph glyph-name="Oslashacute" unicode="&#x1fe;" horiz-adv-x="731" 
d="M75 7q-7 -10 -16 -10q-5 0 -12 5t-12 11.5t-5 11.5q0 8 7 16l590 658q8 9 16 9q6 0 13 -4.5t12 -11t5 -11.5q0 -7 -7 -16zM365 -7q-151 0 -231 92t-80 266q0 176 80 266t231 90q152 0 232 -90t80 -266q0 -174 -80 -266t-232 -92zM365 85q99 0 150.5 68t51.5 198
t-51.5 196.5t-150.5 66.5q-98 0 -149.5 -66.5t-51.5 -196.5t51.5 -198t149.5 -68zM308 751q-30 0 -30 13q0 4 3 9t9 11l54 58q14 15 30.5 20t48.5 5q26 0 42 -4t16 -14q0 -7 -7 -15t-30 -23l-63 -39q-20 -13 -34 -17t-39 -4z" />
    <glyph glyph-name="Otilde" unicode="&#xd5;" horiz-adv-x="731" 
d="M365 -7q-151 0 -231 92t-80 266q0 176 80 266t231 90q152 0 232 -90t80 -266q0 -174 -80 -266t-232 -92zM365 85q99 0 150.5 68t51.5 198t-51.5 196.5t-150.5 66.5q-98 0 -149.5 -66.5t-51.5 -196.5t51.5 -198t149.5 -68zM219 754q-8 0 -21 7t-13 16q0 4 1 8.5t3 8.5
q13 31 38.5 50.5t60.5 19.5q27 0 55 -9.5t54 -19.5t45 -10q21 0 33 10t21 19.5t17 9.5q9 0 21.5 -8t12.5 -17q0 -7 -5 -16q-15 -30 -39.5 -49t-59.5 -19q-28 0 -56.5 10t-54 19.5t-46.5 9.5q-20 0 -31.5 -9.5t-19 -20t-16.5 -10.5z" />
    <glyph glyph-name="uni022C" unicode="&#x22c;" horiz-adv-x="731" 
d="M365 -7q-151 0 -231 92t-80 266q0 176 80 266t231 90q152 0 232 -90t80 -266q0 -174 -80 -266t-232 -92zM365 85q99 0 150.5 68t51.5 198t-51.5 196.5t-150.5 66.5q-98 0 -149.5 -66.5t-51.5 -196.5t51.5 -198t149.5 -68zM219 754q-8 0 -21 7t-13 16q0 4 1 8.5t3 8.5
q13 31 38.5 50.5t60.5 19.5q27 0 55 -9.5t54 -19.5t45 -10q21 0 33 10t21 19.5t17 9.5q9 0 21.5 -8t12.5 -17q0 -7 -5 -16q-15 -30 -39.5 -49t-59.5 -19q-28 0 -56.5 10t-54 19.5t-46.5 9.5q-20 0 -31.5 -9.5t-19 -20t-16.5 -10.5zM244 912q-23 0 -23 33v12q0 32 23 32h243
q23 0 23 -32v-12q0 -33 -23 -33h-243z" />
    <glyph glyph-name="OE" unicode="&#x152;" horiz-adv-x="1015" 
d="M362 -7q-150 0 -229 92t-79 266q0 176 79 266t229 90q149 0 228 -92l-21 -29v82q0 32 33 32h340q23 0 23 -36v-20q0 -36 -23 -36h-266v-204h237q23 0 23 -36v-20q0 -36 -23 -36h-237v-220h267q23 0 23 -36v-20q0 -36 -23 -36h-341q-33 0 -33 33v83l21 -30
q-78 -93 -228 -93zM365 85q99 0 150.5 68t51.5 198t-51.5 196.5t-150.5 66.5q-98 0 -149.5 -66.5t-51.5 -196.5t51.5 -198t149.5 -68z" />
    <glyph glyph-name="P" unicode="P" horiz-adv-x="570" 
d="M126 -2q-46 0 -46 25v644q0 33 33 33h205q33 0 72 -7t74.5 -28t58.5 -61.5t23 -106.5q0 -55 -17.5 -93t-44 -61t-57 -35t-57 -16t-42.5 -4h-141v-265q0 -25 -45 -25h-16zM187 380h137q15 0 34 4.5t36.5 17t29 35.5t11.5 60q0 46 -19 70t-47 32.5t-55 8.5h-127v-228z" />
    <glyph glyph-name="Thorn" unicode="&#xde;" horiz-adv-x="570" 
d="M126 -2q-46 0 -46 25v654q0 25 46 25h16q45 0 45 -25v-95h131q33 0 72 -7t74.5 -28t58.5 -61.5t23 -105.5q0 -56 -17.5 -93.5t-44 -60.5t-57 -35.5t-57 -16.5t-42.5 -4h-141v-147q0 -25 -45 -25h-16zM187 262h137q15 0 34 4.5t36.5 17.5t29 36t11.5 60q0 46 -19 69.5
t-47 32t-55 8.5h-127v-228z" />
    <glyph glyph-name="Q" unicode="Q" horiz-adv-x="731" 
d="M642 -147q-3 0 -24 7.5t-54.5 20.5t-74.5 29.5t-85.5 34t-86.5 34t-76 30.5q-93 37 -140 121.5t-47 217.5q0 175 80 267t231 92q152 0 232 -92t80 -267q0 -135 -48 -220.5t-140 -115.5v-4l184 -59q14 -5 14 -16q0 -4 -3.5 -17.5t-9.5 -27.5t-14 -24.5t-18 -10.5zM365 82
q97 0 149.5 68.5t52.5 197.5t-52.5 197.5t-149.5 68.5q-96 0 -148.5 -68.5t-52.5 -197.5t52.5 -197.5t148.5 -68.5z" />
    <glyph glyph-name="R" unicode="R" horiz-adv-x="610" 
d="M135 -2q-46 0 -46 25v644q0 33 33 33h176q120 0 181.5 -43.5t61.5 -136.5q0 -62 -31.5 -104t-84.5 -62v-4q29 -9 48.5 -40t36.5 -76l81 -203q4 -11 4 -16q0 -17 -48 -17h-19q-17 0 -29 4.5t-16 12.5l-77 196q-20 51 -49.5 69t-85.5 18h-75v-275q0 -25 -46 -25h-15z
M196 391h121q32 0 57.5 15t41 41t15.5 56q0 53 -33 79t-88 26h-114v-217z" />
    <glyph glyph-name="Racute" unicode="&#x154;" horiz-adv-x="610" 
d="M135 -2q-46 0 -46 25v644q0 33 33 33h176q120 0 181.5 -43.5t61.5 -136.5q0 -62 -31.5 -104t-84.5 -62v-4q29 -9 48.5 -40t36.5 -76l81 -203q4 -11 4 -16q0 -17 -48 -17h-19q-17 0 -29 4.5t-16 12.5l-77 196q-20 51 -49.5 69t-85.5 18h-75v-275q0 -25 -46 -25h-15z
M196 391h121q32 0 57.5 15t41 41t15.5 56q0 53 -33 79t-88 26h-114v-217zM235 751q-29 0 -29 13q0 4 2.5 9t8.5 11l54 58q14 15 30.5 20t48.5 5q27 0 42.5 -4t15.5 -14q0 -7 -7 -15t-30 -23l-63 -39q-19 -13 -33 -17t-40 -4z" />
    <glyph glyph-name="Rcaron" unicode="&#x158;" horiz-adv-x="610" 
d="M135 -2q-46 0 -46 25v644q0 33 33 33h176q120 0 181.5 -43.5t61.5 -136.5q0 -62 -31.5 -104t-84.5 -62v-4q29 -9 48.5 -40t36.5 -76l81 -203q4 -11 4 -16q0 -17 -48 -17h-19q-17 0 -29 4.5t-16 12.5l-77 196q-20 51 -49.5 69t-85.5 18h-75v-275q0 -25 -46 -25h-15z
M196 391h121q32 0 57.5 15t41 41t15.5 56q0 53 -33 79t-88 26h-114v-217zM280 751q-26 0 -39 4.5t-25 20.5l-45 57q-8 10 -10 14t-2 8q0 6 6 9t22 3q18 0 29 -2.5t22 -11.5l56 -41l57 42q11 9 21.5 11t27.5 2t22.5 -3t5.5 -9q0 -4 -2 -8t-12 -16l-43 -55q-12 -16 -25 -20.5
t-39 -4.5h-27z" />
    <glyph glyph-name="uni0156" unicode="&#x156;" horiz-adv-x="610" 
d="M135 -2q-46 0 -46 25v644q0 33 33 33h176q120 0 181.5 -43.5t61.5 -136.5q0 -62 -31.5 -104t-84.5 -62v-4q29 -9 48.5 -40t36.5 -76l81 -203q4 -11 4 -16q0 -17 -48 -17h-19q-17 0 -29 4.5t-16 12.5l-77 196q-20 51 -49.5 69t-85.5 18h-75v-275q0 -25 -46 -25h-15z
M196 391h121q32 0 57.5 15t41 41t15.5 56q0 53 -33 79t-88 26h-114v-217zM267 -236q-11 0 -23.5 3.5t-12.5 13.5q1 11 11 27t19 41.5t7 64.5q0 15 11.5 25t34.5 10h15q21 0 31.5 -9t10.5 -24q0 -32 -11 -60t-28 -48.5t-35 -32t-30 -11.5z" />
    <glyph glyph-name="uni0210" unicode="&#x210;" horiz-adv-x="610" 
d="M135 -2q-46 0 -46 25v644q0 33 33 33h176q120 0 181.5 -43.5t61.5 -136.5q0 -62 -31.5 -104t-84.5 -62v-4q29 -9 48.5 -40t36.5 -76l81 -203q4 -11 4 -16q0 -17 -48 -17h-19q-17 0 -29 4.5t-16 12.5l-77 196q-20 51 -49.5 69t-85.5 18h-75v-275q0 -25 -46 -25h-15z
M196 391h121q32 0 57.5 15t41 41t15.5 56q0 53 -33 79t-88 26h-114v-217zM252 751q-25 0 -39 4t-34 17l-64 39q-23 16 -30 23.5t-7 14.5q0 10 16 14t43 4q32 0 48.5 -5t29.5 -20l54 -58q7 -6 9.5 -11t2.5 -9q0 -13 -29 -13zM423 751q-25 0 -39 4t-33 17l-64 39
q-23 16 -30 23.5t-7 14.5q0 10 16 14t42 4q33 0 49 -5t30 -20l54 -58q7 -6 9.5 -11t2.5 -9q0 -13 -30 -13z" />
    <glyph glyph-name="uni1E5A" unicode="&#x1e5a;" horiz-adv-x="610" 
d="M135 -2q-46 0 -46 25v644q0 33 33 33h176q120 0 181.5 -43.5t61.5 -136.5q0 -62 -31.5 -104t-84.5 -62v-4q29 -9 48.5 -40t36.5 -76l81 -203q4 -11 4 -16q0 -17 -48 -17h-19q-17 0 -29 4.5t-16 12.5l-77 196q-20 51 -49.5 69t-85.5 18h-75v-275q0 -25 -46 -25h-15z
M196 391h121q32 0 57.5 15t41 41t15.5 56q0 53 -33 79t-88 26h-114v-217zM315 -183q-25 0 -36.5 6t-11.5 19v53q0 13 11.5 19t36.5 6q26 0 37 -6t11 -19v-53q0 -13 -11 -19t-37 -6z" />
    <glyph glyph-name="uni0212" unicode="&#x212;" horiz-adv-x="610" 
d="M135 -2q-46 0 -46 25v644q0 33 33 33h176q120 0 181.5 -43.5t61.5 -136.5q0 -62 -31.5 -104t-84.5 -62v-4q29 -9 48.5 -40t36.5 -76l81 -203q4 -11 4 -16q0 -17 -48 -17h-19q-17 0 -29 4.5t-16 12.5l-77 196q-20 51 -49.5 69t-85.5 18h-75v-275q0 -25 -46 -25h-15z
M196 391h121q32 0 57.5 15t41 41t15.5 56q0 53 -33 79t-88 26h-114v-217zM294 885q-42 0 -76.5 -13.5t-55 -37t-20.5 -56.5q0 -14 5.5 -20t16.5 -6q10 0 15 3.5t8 10.5q8 17 29.5 31.5t77.5 14.5t77.5 -15t28.5 -32q3 -7 8.5 -10t14.5 -3q12 0 17.5 6t5.5 20q0 33 -21 56.5
t-55 37t-76 13.5z" />
    <glyph glyph-name="S" unicode="S" horiz-adv-x="500" 
d="M248 -7q-68 0 -118.5 15.5t-75.5 33.5q-21 15 -21 29q0 10 7.5 25t18 27t16.5 12q4 0 10 -3t13 -8q20 -10 56 -24.5t86 -14.5q34 0 61 12t43.5 35.5t16.5 56.5q0 38 -22 60.5t-57 38t-73 31.5q-31 12 -60 27t-52 36.5t-37 54t-14 80.5q0 59 29.5 101.5t81 65.5t115.5 23
q26 0 53.5 -4.5t52 -12.5t40.5 -19q21 -13 21 -28q0 -9 -7 -24t-16 -27t-16 -12q-4 0 -11 3.5t-18 8.5q-16 8 -39 15t-57 7q-38 0 -64.5 -11.5t-40.5 -33t-14 -51.5q0 -34 18 -54t47 -33t63 -26q32 -13 65 -28.5t61 -38.5t44.5 -57.5t16.5 -85.5q0 -50 -16.5 -87.5t-47 -63
t-71 -38.5t-88.5 -13z" />
    <glyph glyph-name="Sacute" unicode="&#x15a;" horiz-adv-x="500" 
d="M248 -7q-68 0 -118.5 15.5t-75.5 33.5q-21 15 -21 29q0 10 7.5 25t18 27t16.5 12q4 0 10 -3t13 -8q20 -10 56 -24.5t86 -14.5q34 0 61 12t43.5 35.5t16.5 56.5q0 38 -22 60.5t-57 38t-73 31.5q-31 12 -60 27t-52 36.5t-37 54t-14 80.5q0 59 29.5 101.5t81 65.5t115.5 23
q26 0 53.5 -4.5t52 -12.5t40.5 -19q21 -13 21 -28q0 -9 -7 -24t-16 -27t-16 -12q-4 0 -11 3.5t-18 8.5q-16 8 -39 15t-57 7q-38 0 -64.5 -11.5t-40.5 -33t-14 -51.5q0 -34 18 -54t47 -33t63 -26q32 -13 65 -28.5t61 -38.5t44.5 -57.5t16.5 -85.5q0 -50 -16.5 -87.5t-47 -63
t-71 -38.5t-88.5 -13zM192 751q-30 0 -30 13q0 4 3 9t9 11l54 58q14 15 30.5 20t48.5 5q26 0 42 -4t16 -14q0 -7 -7 -15t-30 -23l-63 -39q-20 -13 -34 -17t-39 -4z" />
    <glyph glyph-name="Scaron" unicode="&#x160;" horiz-adv-x="500" 
d="M248 -7q-68 0 -118.5 15.5t-75.5 33.5q-21 15 -21 29q0 10 7.5 25t18 27t16.5 12q4 0 10 -3t13 -8q20 -10 56 -24.5t86 -14.5q34 0 61 12t43.5 35.5t16.5 56.5q0 38 -22 60.5t-57 38t-73 31.5q-31 12 -60 27t-52 36.5t-37 54t-14 80.5q0 59 29.5 101.5t81 65.5t115.5 23
q26 0 53.5 -4.5t52 -12.5t40.5 -19q21 -13 21 -28q0 -9 -7 -24t-16 -27t-16 -12q-4 0 -11 3.5t-18 8.5q-16 8 -39 15t-57 7q-38 0 -64.5 -11.5t-40.5 -33t-14 -51.5q0 -34 18 -54t47 -33t63 -26q32 -13 65 -28.5t61 -38.5t44.5 -57.5t16.5 -85.5q0 -50 -16.5 -87.5t-47 -63
t-71 -38.5t-88.5 -13zM237 751q-27 0 -39.5 4.5t-25.5 20.5l-44 57q-9 10 -11 14t-2 8q0 6 6 9t23 3q18 0 29 -2.5t22 -11.5l55 -41l58 42q10 9 20.5 11t27.5 2t23 -3t6 -9q0 -4 -2.5 -8t-11.5 -16l-43 -55q-12 -16 -25 -20.5t-40 -4.5h-26z" />
    <glyph glyph-name="Scedilla" unicode="&#x15e;" horiz-adv-x="500" 
d="M248 -7q-68 0 -118.5 15.5t-75.5 33.5q-21 15 -21 29q0 10 7.5 25t18 27t16.5 12q4 0 10 -3t13 -8q20 -10 56 -24.5t86 -14.5q34 0 61 12t43.5 35.5t16.5 56.5q0 38 -22 60.5t-57 38t-73 31.5q-31 12 -60 27t-52 36.5t-37 54t-14 80.5q0 59 29.5 101.5t81 65.5t115.5 23
q26 0 53.5 -4.5t52 -12.5t40.5 -19q21 -13 21 -28q0 -9 -7 -24t-16 -27t-16 -12q-4 0 -11 3.5t-18 8.5q-16 8 -39 15t-57 7q-38 0 -64.5 -11.5t-40.5 -33t-14 -51.5q0 -34 18 -54t47 -33t63 -26q32 -13 65 -28.5t61 -38.5t44.5 -57.5t16.5 -85.5q0 -50 -16.5 -87.5t-47 -63
t-71 -38.5t-88.5 -13zM232 -211q-24 0 -52 5.5t-48 16t-20 23.5t6 21.5t16 8.5q12 0 36 -10t59 -10q10 0 21 2.5t19 9t8 19.5q0 16 -10.5 22t-25 9t-25.5 6t-11 12q0 4 1.5 11t6.5 23t13 45h49l-17 -61l-14 7q50 0 77 -19t27 -54t-17 -53.5t-43.5 -26t-55.5 -7.5z" />
    <glyph glyph-name="Scircumflex" unicode="&#x15c;" horiz-adv-x="500" 
d="M248 -7q-68 0 -118.5 15.5t-75.5 33.5q-21 15 -21 29q0 10 7.5 25t18 27t16.5 12q4 0 10 -3t13 -8q20 -10 56 -24.5t86 -14.5q34 0 61 12t43.5 35.5t16.5 56.5q0 38 -22 60.5t-57 38t-73 31.5q-31 12 -60 27t-52 36.5t-37 54t-14 80.5q0 59 29.5 101.5t81 65.5t115.5 23
q26 0 53.5 -4.5t52 -12.5t40.5 -19q21 -13 21 -28q0 -9 -7 -24t-16 -27t-16 -12q-4 0 -11 3.5t-18 8.5q-16 8 -39 15t-57 7q-38 0 -64.5 -11.5t-40.5 -33t-14 -51.5q0 -34 18 -54t47 -33t63 -26q32 -13 65 -28.5t61 -38.5t44.5 -57.5t16.5 -85.5q0 -50 -16.5 -87.5t-47 -63
t-71 -38.5t-88.5 -13zM142 740q-16 0 -21.5 3t-5.5 7t2.5 9t13.5 17l53 57q11 13 22 18t34 5h20q23 0 33 -4.5t23 -18.5l51 -55q13 -14 15.5 -19t2.5 -9t-5.5 -7t-22.5 -3q-11 0 -23 3.5t-22 10.5l-62 39l-60 -38q-12 -7 -24.5 -11t-23.5 -4z" />
    <glyph glyph-name="uni0218" unicode="&#x218;" horiz-adv-x="500" 
d="M248 -7q-68 0 -118.5 15.5t-75.5 33.5q-21 15 -21 29q0 10 7.5 25t18 27t16.5 12q4 0 10 -3t13 -8q20 -10 56 -24.5t86 -14.5q34 0 61 12t43.5 35.5t16.5 56.5q0 38 -22 60.5t-57 38t-73 31.5q-31 12 -60 27t-52 36.5t-37 54t-14 80.5q0 59 29.5 101.5t81 65.5t115.5 23
q26 0 53.5 -4.5t52 -12.5t40.5 -19q21 -13 21 -28q0 -9 -7 -24t-16 -27t-16 -12q-4 0 -11 3.5t-18 8.5q-16 8 -39 15t-57 7q-38 0 -64.5 -11.5t-40.5 -33t-14 -51.5q0 -34 18 -54t47 -33t63 -26q32 -13 65 -28.5t61 -38.5t44.5 -57.5t16.5 -85.5q0 -50 -16.5 -87.5t-47 -63
t-71 -38.5t-88.5 -13zM202 -236q-11 0 -23.5 3.5t-12.5 13.5q1 11 11 27t19 41.5t7 64.5q0 15 11.5 25t34.5 10h15q21 0 31.5 -9t10.5 -24q0 -32 -11 -60t-28 -48.5t-35 -32t-30 -11.5z" />
    <glyph glyph-name="uni1E62" unicode="&#x1e62;" horiz-adv-x="500" 
d="M248 -7q-68 0 -118.5 15.5t-75.5 33.5q-21 15 -21 29q0 10 7.5 25t18 27t16.5 12q4 0 10 -3t13 -8q20 -10 56 -24.5t86 -14.5q34 0 61 12t43.5 35.5t16.5 56.5q0 38 -22 60.5t-57 38t-73 31.5q-31 12 -60 27t-52 36.5t-37 54t-14 80.5q0 59 29.5 101.5t81 65.5t115.5 23
q26 0 53.5 -4.5t52 -12.5t40.5 -19q21 -13 21 -28q0 -9 -7 -24t-16 -27t-16 -12q-4 0 -11 3.5t-18 8.5q-16 8 -39 15t-57 7q-38 0 -64.5 -11.5t-40.5 -33t-14 -51.5q0 -34 18 -54t47 -33t63 -26q32 -13 65 -28.5t61 -38.5t44.5 -57.5t16.5 -85.5q0 -50 -16.5 -87.5t-47 -63
t-71 -38.5t-88.5 -13zM250 -183q-25 0 -36.5 6t-11.5 19v53q0 13 11.5 19t36.5 6q26 0 37 -6t11 -19v-53q0 -13 -11 -19t-37 -6z" />
    <glyph glyph-name="uni1E9E" unicode="&#x1e9e;" horiz-adv-x="700" 
d="M441 -7q-34 0 -65.5 5.5t-56.5 14t-39.5 20.5t-14.5 25q0 10 7 23t16 23.5t16 10.5q17 0 32.5 -9t36.5 -18.5t55 -9.5q31 0 62.5 12t52.5 39.5t21 75.5q0 69 -39.5 96t-105.5 27h-33q-6 0 -12.5 11t-11 26t-4.5 26q0 8 3 12l136 195q-24 6 -56.5 11t-74.5 5
q-86 0 -128 -44.5t-42 -139.5v-407q0 -25 -46 -25h-15q-46 0 -46 25v408q0 137 70.5 207t206.5 68q69 -1 132 -10.5t104 -19.5q5 -1 11 -12t10.5 -25.5t4.5 -26.5q0 -6 -2 -11l-139 -197q51 -11 92 -34.5t65.5 -64t24.5 -102.5q0 -55 -20 -95t-53 -65.5t-73.5 -37.5
t-81.5 -12z" />
    <glyph glyph-name="uni018F" unicode="&#x18f;" horiz-adv-x="672" 
d="M322 -7q-66 0 -115.5 22.5t-81 65t-47 103t-15.5 137.5q0 6 7 17t16 20t15 9h399q-6 91 -28 147t-60 82t-95 26t-98.5 -15t-66.5 -29.5t-34 -14.5q-8 0 -17 11.5t-16 25.5t-7 20q0 16 20.5 31t55 27.5t77.5 20.5t87 8q99 0 163 -42t95.5 -125.5t31.5 -207.5
q0 -115 -33 -190t-97 -112t-156 -37zM324 78q52 0 89.5 22t59.5 68t27 119h-332q0 -102 38 -155.5t118 -53.5z" />
    <glyph glyph-name="T" unicode="T" horiz-adv-x="549" 
d="M268 -2q-46 0 -46 25v585h-183q-22 0 -22 36v20q0 36 22 36h471q22 0 22 -36v-20q0 -36 -22 -36h-181v-585q0 -25 -46 -25h-15z" />
    <glyph glyph-name="Tbar" unicode="&#x166;" horiz-adv-x="549" 
d="M268 -2q-46 0 -46 25v585h-183q-22 0 -22 36v20q0 36 22 36h471q22 0 22 -36v-20q0 -36 -22 -36h-181v-585q0 -25 -46 -25h-15zM96 312q-23 0 -23 33v11q0 33 23 33h357q23 0 23 -33v-11q0 -33 -23 -33h-357z" />
    <glyph glyph-name="Tcaron" unicode="&#x164;" horiz-adv-x="549" 
d="M268 -2q-46 0 -46 25v585h-183q-22 0 -22 36v20q0 36 22 36h471q22 0 22 -36v-20q0 -36 -22 -36h-181v-585q0 -25 -46 -25h-15zM262 751q-27 0 -39.5 4.5t-25.5 20.5l-44 57q-9 10 -11 14t-2 8q0 6 6 9t23 3q18 0 29 -2.5t22 -11.5l55 -41l58 42q10 9 20.5 11t27.5 2
t23 -3t6 -9q0 -4 -2.5 -8t-11.5 -16l-43 -55q-12 -16 -25 -20.5t-40 -4.5h-26z" />
    <glyph glyph-name="uni0162" unicode="&#x162;" horiz-adv-x="549" 
d="M268 -2q-46 0 -46 25v585h-183q-22 0 -22 36v20q0 36 22 36h471q22 0 22 -36v-20q0 -36 -22 -36h-181v-585q0 -25 -46 -25h-15zM254 -211q-24 0 -52 5.5t-48 16t-20 23.5t6 21.5t16 8.5q12 0 36 -10t59 -10q10 0 21 2.5t19.5 9t8.5 19.5q0 16 -11 22t-25.5 9t-25.5 6
t-11 12q0 4 1.5 11t6.5 23t13 45h49l-17 -61l-14 7q50 0 77 -19t27 -54t-17 -53.5t-43.5 -26t-55.5 -7.5z" />
    <glyph glyph-name="uni021A" unicode="&#x21a;" horiz-adv-x="549" 
d="M268 -2q-46 0 -46 25v585h-183q-22 0 -22 36v20q0 36 22 36h471q22 0 22 -36v-20q0 -36 -22 -36h-181v-585q0 -25 -46 -25h-15zM224 -236q-11 0 -23.5 3.5t-12.5 13.5q1 11 11 27t19 41.5t7 64.5q0 15 11.5 25t34.5 10h15q21 0 32 -9t11 -24q0 -32 -11.5 -60t-28.5 -48.5
t-35 -32t-30 -11.5z" />
    <glyph glyph-name="uni1E6C" unicode="&#x1e6c;" horiz-adv-x="549" 
d="M268 -2q-46 0 -46 25v585h-183q-22 0 -22 36v20q0 36 22 36h471q22 0 22 -36v-20q0 -36 -22 -36h-181v-585q0 -25 -46 -25h-15zM272 -183q-25 0 -36.5 6t-11.5 19v53q0 13 11.5 19t36.5 6q26 0 37 -6t11 -19v-53q0 -13 -11 -19t-37 -6z" />
    <glyph glyph-name="U" unicode="U" horiz-adv-x="712" 
d="M356 -7q-134 0 -206 62t-72 172v450q0 25 46 25h15q46 0 46 -25v-449q0 -42 22 -74.5t61 -50.5t88 -18q50 0 88.5 18.5t60.5 50.5t22 74v449q0 25 46 25h15q46 0 46 -25v-450q0 -110 -72.5 -172t-205.5 -62z" />
    <glyph glyph-name="Uacute" unicode="&#xda;" horiz-adv-x="712" 
d="M356 -7q-134 0 -206 62t-72 172v450q0 25 46 25h15q46 0 46 -25v-449q0 -42 22 -74.5t61 -50.5t88 -18q50 0 88.5 18.5t60.5 50.5t22 74v449q0 25 46 25h15q46 0 46 -25v-450q0 -110 -72.5 -172t-205.5 -62zM298 751q-30 0 -30 13q0 4 3 9t9 11l54 58q14 15 30.5 20
t48.5 5q26 0 42 -4t16 -14q0 -7 -7 -15t-30 -23l-63 -39q-20 -13 -34 -17t-39 -4z" />
    <glyph glyph-name="Ubreve" unicode="&#x16c;" horiz-adv-x="712" 
d="M356 -7q-134 0 -206 62t-72 172v450q0 25 46 25h15q46 0 46 -25v-449q0 -42 22 -74.5t61 -50.5t88 -18q50 0 88.5 18.5t60.5 50.5t22 74v449q0 25 46 25h15q46 0 46 -25v-450q0 -110 -72.5 -172t-205.5 -62zM356 743q-42 0 -76.5 13.5t-55 38t-20.5 55.5q0 15 5.5 20.5
t17.5 5.5q9 0 14 -3t9 -11q7 -16 28.5 -31t77.5 -15q57 0 78.5 15t28.5 32q3 8 8.5 10.5t13.5 2.5q12 0 17.5 -5.5t5.5 -20.5q0 -31 -20.5 -55.5t-55 -38t-76.5 -13.5z" />
    <glyph glyph-name="uni01D3" unicode="&#x1d3;" horiz-adv-x="712" 
d="M356 -7q-134 0 -206 62t-72 172v450q0 25 46 25h15q46 0 46 -25v-449q0 -42 22 -74.5t61 -50.5t88 -18q50 0 88.5 18.5t60.5 50.5t22 74v449q0 25 46 25h15q46 0 46 -25v-450q0 -110 -72.5 -172t-205.5 -62zM343 751q-27 0 -39.5 4.5t-25.5 20.5l-44 57q-9 10 -11 14
t-2 8q0 6 6 9t23 3q18 0 29 -2.5t22 -11.5l55 -41l58 42q10 9 20.5 11t27.5 2t23 -3t6 -9q0 -4 -2.5 -8t-11.5 -16l-43 -55q-12 -16 -25 -20.5t-40 -4.5h-26z" />
    <glyph glyph-name="Ucircumflex" unicode="&#xdb;" horiz-adv-x="712" 
d="M356 -7q-134 0 -206 62t-72 172v450q0 25 46 25h15q46 0 46 -25v-449q0 -42 22 -74.5t61 -50.5t88 -18q50 0 88.5 18.5t60.5 50.5t22 74v449q0 25 46 25h15q46 0 46 -25v-450q0 -110 -72.5 -172t-205.5 -62zM248 740q-16 0 -21.5 3t-5.5 7t2.5 9t13.5 17l53 57
q11 13 22 18t34 5h20q23 0 33 -4.5t23 -18.5l51 -55q13 -14 15.5 -19t2.5 -9t-5.5 -7t-22.5 -3q-11 0 -23 3.5t-22 10.5l-62 39l-60 -38q-12 -7 -24.5 -11t-23.5 -4z" />
    <glyph glyph-name="uni0214" unicode="&#x214;" horiz-adv-x="712" 
d="M356 -7q-134 0 -206 62t-72 172v450q0 25 46 25h15q46 0 46 -25v-449q0 -42 22 -74.5t61 -50.5t88 -18q50 0 88.5 18.5t60.5 50.5t22 74v449q0 25 46 25h15q46 0 46 -25v-450q0 -110 -72.5 -172t-205.5 -62zM314 751q-25 0 -39 4t-34 17l-63 39q-23 16 -30 23.5t-7 14.5
q0 10 16 14t42 4q33 0 49 -5t30 -20l54 -58q6 -6 8.5 -11t2.5 -9q0 -13 -29 -13zM486 751q-25 0 -39 4t-34 17l-63 39q-23 16 -30 23.5t-7 14.5q0 10 15.5 14t42.5 4q33 0 49 -5t30 -20l54 -58q6 -6 8.5 -11t2.5 -9q0 -13 -29 -13z" />
    <glyph glyph-name="Udieresis" unicode="&#xdc;" horiz-adv-x="712" 
d="M356 -7q-134 0 -206 62t-72 172v450q0 25 46 25h15q46 0 46 -25v-449q0 -42 22 -74.5t61 -50.5t88 -18q50 0 88.5 18.5t60.5 50.5t22 74v449q0 25 46 25h15q46 0 46 -25v-450q0 -110 -72.5 -172t-205.5 -62zM440 755q-26 0 -38 6t-12 18v60q0 13 12 19t38 6t38 -6t12 -19
v-60q0 -12 -12 -18t-38 -6zM272 755q-26 0 -38 6t-12 18v60q0 13 12 19t38 6t38 -6t12 -19v-60q0 -12 -12 -18t-38 -6z" />
    <glyph glyph-name="uni01D7" unicode="&#x1d7;" horiz-adv-x="712" 
d="M356 -7q-134 0 -206 62t-72 172v450q0 25 46 25h15q46 0 46 -25v-449q0 -42 22 -74.5t61 -50.5t88 -18q50 0 88.5 18.5t60.5 50.5t22 74v449q0 25 46 25h15q46 0 46 -25v-450q0 -110 -72.5 -172t-205.5 -62zM440 755q-26 0 -38 6t-12 18v60q0 13 12 19t38 6t38 -6t12 -19
v-60q0 -12 -12 -18t-38 -6zM272 755q-26 0 -38 6t-12 18v60q0 13 12 19t38 6t38 -6t12 -19v-60q0 -12 -12 -18t-38 -6zM298 896q-30 0 -30 13q0 4 3 9t9 11l54 58q14 15 30.5 20t48.5 5q26 0 42 -4t16 -14q0 -7 -7 -15t-30 -23l-63 -40q-20 -12 -34 -16t-39 -4z" />
    <glyph glyph-name="uni01D9" unicode="&#x1d9;" horiz-adv-x="712" 
d="M356 -7q-134 0 -206 62t-72 172v450q0 25 46 25h15q46 0 46 -25v-449q0 -42 22 -74.5t61 -50.5t88 -18q50 0 88.5 18.5t60.5 50.5t22 74v449q0 25 46 25h15q46 0 46 -25v-450q0 -110 -72.5 -172t-205.5 -62zM440 755q-26 0 -38 6t-12 18v60q0 13 12 19t38 6t38 -6t12 -19
v-60q0 -12 -12 -18t-38 -6zM272 755q-26 0 -38 6t-12 18v60q0 13 12 19t38 6t38 -6t12 -19v-60q0 -12 -12 -18t-38 -6zM343 896q-27 0 -39.5 4t-25.5 21l-44 57q-9 10 -11 14t-2 8q0 6 6 9t23 3q18 0 29 -2.5t22 -11.5l55 -41l58 42q10 8 20.5 10.5t27.5 2.5t23 -3t6 -9
q0 -4 -2.5 -8t-11.5 -16l-43 -55q-12 -16 -25 -20.5t-40 -4.5h-26z" />
    <glyph glyph-name="uni01DB" unicode="&#x1db;" horiz-adv-x="712" 
d="M356 -7q-134 0 -206 62t-72 172v450q0 25 46 25h15q46 0 46 -25v-449q0 -42 22 -74.5t61 -50.5t88 -18q50 0 88.5 18.5t60.5 50.5t22 74v449q0 25 46 25h15q46 0 46 -25v-450q0 -110 -72.5 -172t-205.5 -62zM440 755q-26 0 -38 6t-12 18v60q0 13 12 19t38 6t38 -6t12 -19
v-60q0 -12 -12 -18t-38 -6zM272 755q-26 0 -38 6t-12 18v60q0 13 12 19t38 6t38 -6t12 -19v-60q0 -12 -12 -18t-38 -6zM414 896q-25 0 -39 4t-34 16l-63 40q-23 16 -30 23.5t-7 14.5q0 10 16 14t42 4q33 0 49 -5t30 -20l54 -58q6 -6 8.5 -11t2.5 -9q0 -13 -29 -13z" />
    <glyph glyph-name="uni01D5" unicode="&#x1d5;" horiz-adv-x="712" 
d="M356 -7q-134 0 -206 62t-72 172v450q0 25 46 25h15q46 0 46 -25v-449q0 -42 22 -74.5t61 -50.5t88 -18q50 0 88.5 18.5t60.5 50.5t22 74v449q0 25 46 25h15q46 0 46 -25v-450q0 -110 -72.5 -172t-205.5 -62zM440 755q-26 0 -38 6t-12 18v60q0 13 12 19t38 6t38 -6t12 -19
v-60q0 -12 -12 -18t-38 -6zM272 755q-26 0 -38 6t-12 18v60q0 13 12 19t38 6t38 -6t12 -19v-60q0 -12 -12 -18t-38 -6zM234 917q-23 0 -23 33v12q0 32 23 32h243q23 0 23 -32v-12q0 -33 -23 -33h-243z" />
    <glyph glyph-name="uni1EE4" unicode="&#x1ee4;" horiz-adv-x="712" 
d="M356 -7q-134 0 -206 62t-72 172v450q0 25 46 25h15q46 0 46 -25v-449q0 -42 22 -74.5t61 -50.5t88 -18q50 0 88.5 18.5t60.5 50.5t22 74v449q0 25 46 25h15q46 0 46 -25v-450q0 -110 -72.5 -172t-205.5 -62zM357 -183q-25 0 -36.5 6t-11.5 19v53q0 13 11.5 19t36.5 6
t36.5 -6t11.5 -19v-53q0 -13 -11.5 -19t-36.5 -6z" />
    <glyph glyph-name="Ugrave" unicode="&#xd9;" horiz-adv-x="712" 
d="M356 -7q-134 0 -206 62t-72 172v450q0 25 46 25h15q46 0 46 -25v-449q0 -42 22 -74.5t61 -50.5t88 -18q50 0 88.5 18.5t60.5 50.5t22 74v449q0 25 46 25h15q46 0 46 -25v-450q0 -110 -72.5 -172t-205.5 -62zM414 751q-25 0 -39 4t-34 17l-63 39q-23 16 -30 23.5t-7 14.5
q0 10 16 14t42 4q33 0 49 -5t30 -20l54 -58q6 -6 8.5 -11t2.5 -9q0 -13 -29 -13z" />
    <glyph glyph-name="uni1EE6" unicode="&#x1ee6;" horiz-adv-x="712" 
d="M356 -7q-134 0 -206 62t-72 172v450q0 25 46 25h15q46 0 46 -25v-449q0 -42 22 -74.5t61 -50.5t88 -18q50 0 88.5 18.5t60.5 50.5t22 74v449q0 25 46 25h15q46 0 46 -25v-450q0 -110 -72.5 -172t-205.5 -62zM343 738q-14 0 -27 12t-13 20q0 5 13 9.5t29.5 11t29.5 15.5
t13 22t-11.5 19t-26.5 6q-25 0 -41 -6t-27 -6q-10 0 -19 12t-9 23q0 7 15.5 14t38.5 12t44 5q48 0 76.5 -20.5t28.5 -52.5q0 -23 -14 -41t-34.5 -30.5t-39 -18.5t-26.5 -6z" />
    <glyph glyph-name="Uhorn" unicode="&#x1af;" horiz-adv-x="712" 
d="M740 757q0 -39 -25.5 -64.5t-80.5 -29.5v-436q0 -110 -72.5 -172t-205.5 -62q-134 0 -206 62t-72 172v450q0 25 46 25h15q46 0 46 -25v-449q0 -42 22 -74.5t61 -50.5t88 -18q50 0 88.5 18.5t60.5 50.5t22 74v449q0 25 46 25h42q30 0 41 10t11 24t-6.5 25t-13 19.5
t-6.5 14.5q0 11 9 17l26 18q6 4 14 4q13 0 25 -13t18.5 -31t6.5 -33z" />
    <glyph glyph-name="uni1EE8" unicode="&#x1ee8;" horiz-adv-x="712" 
d="M740 757q0 -39 -25.5 -64.5t-80.5 -29.5v-436q0 -110 -72.5 -172t-205.5 -62q-134 0 -206 62t-72 172v450q0 25 46 25h15q46 0 46 -25v-449q0 -42 22 -74.5t61 -50.5t88 -18q50 0 88.5 18.5t60.5 50.5t22 74v449q0 25 46 25h42q30 0 41 10t11 24t-6.5 25t-13 19.5
t-6.5 14.5q0 11 9 17l26 18q6 4 14 4q13 0 25 -13t18.5 -31t6.5 -33zM298 751q-30 0 -30 13q0 4 3 9t9 11l54 58q14 15 30.5 20t48.5 5q26 0 42 -4t16 -14q0 -7 -7 -15t-30 -23l-63 -39q-20 -13 -34 -17t-39 -4z" />
    <glyph glyph-name="uni1EF0" unicode="&#x1ef0;" horiz-adv-x="712" 
d="M740 757q0 -39 -25.5 -64.5t-80.5 -29.5v-436q0 -110 -72.5 -172t-205.5 -62q-134 0 -206 62t-72 172v450q0 25 46 25h15q46 0 46 -25v-449q0 -42 22 -74.5t61 -50.5t88 -18q50 0 88.5 18.5t60.5 50.5t22 74v449q0 25 46 25h42q30 0 41 10t11 24t-6.5 25t-13 19.5
t-6.5 14.5q0 11 9 17l26 18q6 4 14 4q13 0 25 -13t18.5 -31t6.5 -33zM357 -183q-25 0 -36.5 6t-11.5 19v53q0 13 11.5 19t36.5 6t36.5 -6t11.5 -19v-53q0 -13 -11.5 -19t-36.5 -6z" />
    <glyph glyph-name="uni1EEA" unicode="&#x1eea;" horiz-adv-x="712" 
d="M740 757q0 -39 -25.5 -64.5t-80.5 -29.5v-436q0 -110 -72.5 -172t-205.5 -62q-134 0 -206 62t-72 172v450q0 25 46 25h15q46 0 46 -25v-449q0 -42 22 -74.5t61 -50.5t88 -18q50 0 88.5 18.5t60.5 50.5t22 74v449q0 25 46 25h42q30 0 41 10t11 24t-6.5 25t-13 19.5
t-6.5 14.5q0 11 9 17l26 18q6 4 14 4q13 0 25 -13t18.5 -31t6.5 -33zM414 751q-25 0 -39 4t-34 17l-63 39q-23 16 -30 23.5t-7 14.5q0 10 16 14t42 4q33 0 49 -5t30 -20l54 -58q6 -6 8.5 -11t2.5 -9q0 -13 -29 -13z" />
    <glyph glyph-name="uni1EEC" unicode="&#x1eec;" horiz-adv-x="712" 
d="M740 757q0 -39 -25.5 -64.5t-80.5 -29.5v-436q0 -110 -72.5 -172t-205.5 -62q-134 0 -206 62t-72 172v450q0 25 46 25h15q46 0 46 -25v-449q0 -42 22 -74.5t61 -50.5t88 -18q50 0 88.5 18.5t60.5 50.5t22 74v449q0 25 46 25h42q30 0 41 10t11 24t-6.5 25t-13 19.5
t-6.5 14.5q0 11 9 17l26 18q6 4 14 4q13 0 25 -13t18.5 -31t6.5 -33zM343 738q-14 0 -27 12t-13 20q0 5 13 9.5t29.5 11t29.5 15.5t13 22t-11.5 19t-26.5 6q-25 0 -41 -6t-27 -6q-10 0 -19 12t-9 23q0 7 15.5 14t38.5 12t44 5q48 0 76.5 -20.5t28.5 -52.5q0 -23 -14 -41
t-34.5 -30.5t-39 -18.5t-26.5 -6z" />
    <glyph glyph-name="uni1EEE" unicode="&#x1eee;" horiz-adv-x="712" 
d="M740 757q0 -39 -25.5 -64.5t-80.5 -29.5v-436q0 -110 -72.5 -172t-205.5 -62q-134 0 -206 62t-72 172v450q0 25 46 25h15q46 0 46 -25v-449q0 -42 22 -74.5t61 -50.5t88 -18q50 0 88.5 18.5t60.5 50.5t22 74v449q0 25 46 25h42q30 0 41 10t11 24t-6.5 25t-13 19.5
t-6.5 14.5q0 11 9 17l26 18q6 4 14 4q13 0 25 -13t18.5 -31t6.5 -33zM209 754q-8 0 -21 7t-13 16q0 4 1 8.5t3 8.5q13 31 38.5 50.5t60.5 19.5q27 0 55 -9.5t54 -19.5t45 -10q21 0 33 10t21 19.5t17 9.5q9 0 21.5 -8t12.5 -17q0 -7 -5 -16q-15 -30 -39.5 -49t-59.5 -19
q-28 0 -56.5 10t-54 19.5t-46.5 9.5q-20 0 -31.5 -9.5t-19 -20t-16.5 -10.5z" />
    <glyph glyph-name="Uhungarumlaut" unicode="&#x170;" horiz-adv-x="712" 
d="M356 -7q-134 0 -206 62t-72 172v450q0 25 46 25h15q46 0 46 -25v-449q0 -42 22 -74.5t61 -50.5t88 -18q50 0 88.5 18.5t60.5 50.5t22 74v449q0 25 46 25h15q46 0 46 -25v-450q0 -110 -72.5 -172t-205.5 -62zM225 751q-30 0 -30 13q0 4 2.5 9t9.5 11l54 58q14 15 30.5 20
t48.5 5q26 0 42 -4t16 -14q0 -7 -7 -15t-30 -23l-64 -39q-19 -13 -33 -17t-39 -4zM396 751q-29 0 -29 13q0 4 2.5 9t9.5 11l54 58q13 15 30 20t48 5q27 0 43 -4t16 -14q0 -7 -7 -15t-30 -23l-64 -39q-19 -13 -33 -17t-40 -4z" />
    <glyph glyph-name="uni0216" unicode="&#x216;" horiz-adv-x="712" 
d="M356 -7q-134 0 -206 62t-72 172v450q0 25 46 25h15q46 0 46 -25v-449q0 -42 22 -74.5t61 -50.5t88 -18q50 0 88.5 18.5t60.5 50.5t22 74v449q0 25 46 25h15q46 0 46 -25v-450q0 -110 -72.5 -172t-205.5 -62zM356 885q-42 0 -76.5 -13.5t-55 -37t-20.5 -56.5
q0 -14 5.5 -20t17.5 -6q9 0 14 3.5t9 10.5q7 17 28.5 31.5t77.5 14.5q57 0 78.5 -15t28.5 -32q3 -7 8.5 -10t13.5 -3q12 0 17.5 6t5.5 20q0 33 -20.5 56.5t-55 37t-76.5 13.5z" />
    <glyph glyph-name="Umacron" unicode="&#x16a;" horiz-adv-x="712" 
d="M356 -7q-134 0 -206 62t-72 172v450q0 25 46 25h15q46 0 46 -25v-449q0 -42 22 -74.5t61 -50.5t88 -18q50 0 88.5 18.5t60.5 50.5t22 74v449q0 25 46 25h15q46 0 46 -25v-450q0 -110 -72.5 -172t-205.5 -62zM234 772q-23 0 -23 33v12q0 33 23 33h243q23 0 23 -33v-12
q0 -33 -23 -33h-243z" />
    <glyph glyph-name="Uogonek" unicode="&#x172;" horiz-adv-x="712" 
d="M356 -7q-134 0 -206 62t-72 172v450q0 25 46 25h15q46 0 46 -25v-449q0 -42 22 -74.5t61 -50.5t88 -18q50 0 88.5 18.5t60.5 50.5t22 74v449q0 25 46 25h15q46 0 46 -25v-450q0 -110 -72.5 -172t-205.5 -62zM365 -187q-51 0 -77.5 24t-26.5 60q0 32 23.5 66t71.5 54
l51 -7q-35 -19 -53 -45.5t-18 -46.5q0 -13 9.5 -21.5t27.5 -8.5q20 0 30.5 5t22.5 5q11 0 16.5 -13t5.5 -30q0 -14 -13.5 -23.5t-32.5 -14t-37 -4.5z" />
    <glyph glyph-name="Uring" unicode="&#x16e;" horiz-adv-x="712" 
d="M356 -7q-134 0 -206 62t-72 172v450q0 25 46 25h15q46 0 46 -25v-449q0 -42 22 -74.5t61 -50.5t88 -18q50 0 88.5 18.5t60.5 50.5t22 74v449q0 25 46 25h15q46 0 46 -25v-450q0 -110 -72.5 -172t-205.5 -62zM355 739q-38 0 -63 25t-25 63t25 63.5t63 25.5t63.5 -25.5
t25.5 -63.5t-25.5 -63t-63.5 -25zM355 789q16 0 27.5 11t11.5 27t-11.5 27t-27.5 11q-15 0 -26.5 -11t-11.5 -27t11.5 -27t26.5 -11z" />
    <glyph glyph-name="Utilde" unicode="&#x168;" horiz-adv-x="712" 
d="M356 -7q-134 0 -206 62t-72 172v450q0 25 46 25h15q46 0 46 -25v-449q0 -42 22 -74.5t61 -50.5t88 -18q50 0 88.5 18.5t60.5 50.5t22 74v449q0 25 46 25h15q46 0 46 -25v-450q0 -110 -72.5 -172t-205.5 -62zM209 754q-8 0 -21 7t-13 16q0 4 1 8.5t3 8.5q13 31 38.5 50.5
t60.5 19.5q27 0 55 -9.5t54 -19.5t45 -10q21 0 33 10t21 19.5t17 9.5q9 0 21.5 -8t12.5 -17q0 -7 -5 -16q-15 -30 -39.5 -49t-59.5 -19q-28 0 -56.5 10t-54 19.5t-46.5 9.5q-20 0 -31.5 -9.5t-19 -20t-16.5 -10.5z" />
    <glyph glyph-name="V" unicode="V" horiz-adv-x="617" 
d="M290 -2q-17 0 -29 4t-15 13l-226 654q-1 4 -2 7.5t-1 7.5q0 18 48 18h17q17 0 29.5 -4t16.5 -16l157 -462q9 -26 15 -51t9 -44h4q4 22 11 47.5t14 47.5l156 462q4 11 16 15.5t30 4.5h12q48 0 48 -18q0 -6 -3 -16l-225 -653q-4 -9 -16 -13t-29 -4h-37z" />
    <glyph glyph-name="W" unicode="W" horiz-adv-x="910" 
d="M238 -2q-18 0 -30 4t-15 15l-167 651q-1 4 -1.5 7.5t-0.5 6.5q0 20 48 20h15q19 0 32 -4.5t15 -15.5l105 -418q6 -22 11 -49t9.5 -53t5.5 -45h4q4 21 8 42.5t8.5 42.5t9.5 39l110 443q2 10 14 14t29 4h23q17 0 29 -4t14 -14l105 -420q6 -24 11 -51.5t9.5 -52.5t5.5 -43h4
q4 19 8 41.5t8.5 44t8.5 38.5l109 441q2 11 15.5 15.5t32.5 4.5h7q48 0 48 -20q0 -1 -0.5 -5.5t-1.5 -8.5l-170 -651q-2 -11 -15 -15t-30 -4h-50q-17 0 -29.5 4t-15.5 15l-88 343q-9 31 -17.5 78.5t-12.5 87.5h-4q-4 -37 -10.5 -77.5t-12.5 -64.5l-96 -367q-3 -11 -16 -15
t-29 -4h-50z" />
    <glyph glyph-name="Wacute" unicode="&#x1e82;" horiz-adv-x="910" 
d="M238 -2q-18 0 -30 4t-15 15l-167 651q-1 4 -1.5 7.5t-0.5 6.5q0 20 48 20h15q19 0 32 -4.5t15 -15.5l105 -418q6 -22 11 -49t9.5 -53t5.5 -45h4q4 21 8 42.5t8.5 42.5t9.5 39l110 443q2 10 14 14t29 4h23q17 0 29 -4t14 -14l105 -420q6 -24 11 -51.5t9.5 -52.5t5.5 -43h4
q4 19 8 41.5t8.5 44t8.5 38.5l109 441q2 11 15.5 15.5t32.5 4.5h7q48 0 48 -20q0 -1 -0.5 -5.5t-1.5 -8.5l-170 -651q-2 -11 -15 -15t-30 -4h-50q-17 0 -29.5 4t-15.5 15l-88 343q-9 31 -17.5 78.5t-12.5 87.5h-4q-4 -37 -10.5 -77.5t-12.5 -64.5l-96 -367q-3 -11 -16 -15
t-29 -4h-50zM398 751q-30 0 -30 13q0 4 3 9t9 11l54 58q14 15 30.5 20t48.5 5q26 0 42 -4t16 -14q0 -7 -7 -15t-30 -23l-63 -39q-20 -13 -34 -17t-39 -4z" />
    <glyph glyph-name="Wcircumflex" unicode="&#x174;" horiz-adv-x="910" 
d="M238 -2q-18 0 -30 4t-15 15l-167 651q-1 4 -1.5 7.5t-0.5 6.5q0 20 48 20h15q19 0 32 -4.5t15 -15.5l105 -418q6 -22 11 -49t9.5 -53t5.5 -45h4q4 21 8 42.5t8.5 42.5t9.5 39l110 443q2 10 14 14t29 4h23q17 0 29 -4t14 -14l105 -420q6 -24 11 -51.5t9.5 -52.5t5.5 -43h4
q4 19 8 41.5t8.5 44t8.5 38.5l109 441q2 11 15.5 15.5t32.5 4.5h7q48 0 48 -20q0 -1 -0.5 -5.5t-1.5 -8.5l-170 -651q-2 -11 -15 -15t-30 -4h-50q-17 0 -29.5 4t-15.5 15l-88 343q-9 31 -17.5 78.5t-12.5 87.5h-4q-4 -37 -10.5 -77.5t-12.5 -64.5l-96 -367q-3 -11 -16 -15
t-29 -4h-50zM348 740q-16 0 -21.5 3t-5.5 7t2.5 9t13.5 17l53 57q11 13 22.5 18t33.5 5h20q23 0 33 -4.5t23 -18.5l51 -55q13 -14 15.5 -19t2.5 -9t-5.5 -7t-21.5 -3q-12 0 -24 3.5t-22 10.5l-62 39l-60 -38q-11 -7 -24 -11t-24 -4z" />
    <glyph glyph-name="Wdieresis" unicode="&#x1e84;" horiz-adv-x="910" 
d="M238 -2q-18 0 -30 4t-15 15l-167 651q-1 4 -1.5 7.5t-0.5 6.5q0 20 48 20h15q19 0 32 -4.5t15 -15.5l105 -418q6 -22 11 -49t9.5 -53t5.5 -45h4q4 21 8 42.5t8.5 42.5t9.5 39l110 443q2 10 14 14t29 4h23q17 0 29 -4t14 -14l105 -420q6 -24 11 -51.5t9.5 -52.5t5.5 -43h4
q4 19 8 41.5t8.5 44t8.5 38.5l109 441q2 11 15.5 15.5t32.5 4.5h7q48 0 48 -20q0 -1 -0.5 -5.5t-1.5 -8.5l-170 -651q-2 -11 -15 -15t-30 -4h-50q-17 0 -29.5 4t-15.5 15l-88 343q-9 31 -17.5 78.5t-12.5 87.5h-4q-4 -37 -10.5 -77.5t-12.5 -64.5l-96 -367q-3 -11 -16 -15
t-29 -4h-50zM540 755q-26 0 -38 6t-12 18v60q0 13 12 19t38 6t38 -6t12 -19v-60q0 -12 -12 -18t-38 -6zM372 755q-26 0 -37.5 6t-11.5 18v60q0 13 11.5 19t37.5 6q27 0 38.5 -6t11.5 -19v-60q0 -12 -11.5 -18t-38.5 -6z" />
    <glyph glyph-name="Wgrave" unicode="&#x1e80;" horiz-adv-x="910" 
d="M238 -2q-18 0 -30 4t-15 15l-167 651q-1 4 -1.5 7.5t-0.5 6.5q0 20 48 20h15q19 0 32 -4.5t15 -15.5l105 -418q6 -22 11 -49t9.5 -53t5.5 -45h4q4 21 8 42.5t8.5 42.5t9.5 39l110 443q2 10 14 14t29 4h23q17 0 29 -4t14 -14l105 -420q6 -24 11 -51.5t9.5 -52.5t5.5 -43h4
q4 19 8 41.5t8.5 44t8.5 38.5l109 441q2 11 15.5 15.5t32.5 4.5h7q48 0 48 -20q0 -1 -0.5 -5.5t-1.5 -8.5l-170 -651q-2 -11 -15 -15t-30 -4h-50q-17 0 -29.5 4t-15.5 15l-88 343q-9 31 -17.5 78.5t-12.5 87.5h-4q-4 -37 -10.5 -77.5t-12.5 -64.5l-96 -367q-3 -11 -16 -15
t-29 -4h-50zM514 751q-25 0 -39 4t-34 17l-63 39q-23 16 -30 23.5t-7 14.5q0 10 16 14t42 4q33 0 49 -5t30 -20l54 -58q7 -6 9.5 -11t2.5 -9q0 -13 -30 -13z" />
    <glyph glyph-name="X" unicode="X" horiz-adv-x="611" 
d="M67 -2q-27 0 -38.5 4.5t-11.5 13.5q0 7 8 20l219 329l-195 299q-9 13 -9 20q0 8 12 13t39 5h22q18 0 30 -3.5t18 -12.5l147 -225l152 226q6 9 19 12t29 3h16q27 0 38.5 -4.5t11.5 -13.5q0 -4 -2.5 -9l-5.5 -11l-197 -296l218 -332q8 -13 8 -20q0 -9 -11.5 -13.5
t-39.5 -4.5h-22q-18 0 -30 3.5t-18 12.5l-170 258l-172 -259q-6 -9 -19 -12t-29 -3h-17z" />
    <glyph glyph-name="Y" unicode="Y" horiz-adv-x="559" 
d="M272 -2q-46 0 -46 25v329l-206 312q-9 13 -9 20q0 8 12 13t39 5h20q18 0 30 -3.5t18 -12.5l152 -237l155 238q6 8 19.5 11.5t30.5 3.5h15q46 -1 46 -18q0 -4 -2.5 -9l-5.5 -11l-207 -315v-326q0 -25 -46 -25h-15z" />
    <glyph glyph-name="Yacute" unicode="&#xdd;" horiz-adv-x="559" 
d="M272 -2q-46 0 -46 25v329l-206 312q-9 13 -9 20q0 8 12 13t39 5h20q18 0 30 -3.5t18 -12.5l152 -237l155 238q6 8 19.5 11.5t30.5 3.5h15q46 -1 46 -18q0 -8 -8 -20l-207 -315v-326q0 -25 -46 -25h-15zM222 751q-30 0 -30 13q0 4 3 9t9 11l54 58q14 15 30.5 20t48.5 5
q26 0 42 -4t16 -14q0 -7 -7 -15t-30 -23l-63 -39q-20 -13 -34 -17t-39 -4z" />
    <glyph glyph-name="Ycircumflex" unicode="&#x176;" horiz-adv-x="559" 
d="M272 -2q-46 0 -46 25v329l-206 312q-9 13 -9 20q0 8 12 13t39 5h20q18 0 30 -3.5t18 -12.5l152 -237l155 238q6 8 19.5 11.5t30.5 3.5h15q46 -1 46 -18q0 -8 -8 -20l-207 -315v-326q0 -25 -46 -25h-15zM172 740q-16 0 -21.5 3t-5.5 7t2.5 9t13.5 17l53 57q11 13 22 18
t34 5h20q23 0 33 -4.5t23 -18.5l51 -55q13 -14 15.5 -19t2.5 -9t-5.5 -7t-22.5 -3q-11 0 -23 3.5t-22 10.5l-62 39l-60 -38q-12 -7 -24.5 -11t-23.5 -4z" />
    <glyph glyph-name="Ydieresis" unicode="&#x178;" horiz-adv-x="559" 
d="M272 -2q-46 0 -46 25v329l-206 312q-9 13 -9 20q0 8 12 13t39 5h20q18 0 30 -3.5t18 -12.5l152 -237l155 238q6 8 19.5 11.5t30.5 3.5h15q46 -1 46 -18q0 -8 -8 -20l-207 -315v-326q0 -25 -46 -25h-15zM364 755q-26 0 -38 6t-12 18v60q0 13 12 19t38 6t38 -6t12 -19v-60
q0 -12 -12 -18t-38 -6zM196 755q-26 0 -38 6t-12 18v60q0 13 12 19t38 6t38 -6t12 -19v-60q0 -12 -12 -18t-38 -6z" />
    <glyph glyph-name="uni1EF4" unicode="&#x1ef4;" horiz-adv-x="559" 
d="M272 -2q-46 0 -46 25v329l-206 312q-9 13 -9 20q0 8 12 13t39 5h20q18 0 30 -3.5t18 -12.5l152 -237l155 238q6 8 19.5 11.5t30.5 3.5h15q46 -1 46 -18q0 -8 -8 -20l-207 -315v-326q0 -25 -46 -25h-15zM280 -183q-25 0 -36.5 6t-11.5 19v53q0 13 11.5 19t36.5 6t36.5 -6
t11.5 -19v-53q0 -13 -11.5 -19t-36.5 -6z" />
    <glyph glyph-name="Ygrave" unicode="&#x1ef2;" horiz-adv-x="559" 
d="M272 -2q-46 0 -46 25v329l-206 312q-9 13 -9 20q0 8 12 13t39 5h20q18 0 30 -3.5t18 -12.5l152 -237l155 238q6 8 19.5 11.5t30.5 3.5h15q46 -1 46 -18q0 -8 -8 -20l-207 -315v-326q0 -25 -46 -25h-15zM338 751q-25 0 -39 4t-34 17l-63 39q-23 16 -30 23.5t-7 14.5
q0 10 16 14t42 4q33 0 49 -5t30 -20l54 -58q6 -6 8.5 -11t2.5 -9q0 -13 -29 -13z" />
    <glyph glyph-name="uni1EF6" unicode="&#x1ef6;" horiz-adv-x="559" 
d="M272 -2q-46 0 -46 25v329l-206 312q-9 13 -9 20q0 8 12 13t39 5h20q18 0 30 -3.5t18 -12.5l152 -237l155 238q6 8 19.5 11.5t30.5 3.5h15q46 -1 46 -18q0 -8 -8 -20l-207 -315v-326q0 -25 -46 -25h-15zM267 738q-14 0 -27 12t-13 20q0 5 13 9.5t29.5 11t29.5 15.5t13 22
t-11.5 19t-26.5 6q-25 0 -41 -6t-27 -6q-10 0 -19 12t-9 23q0 7 15.5 14t38.5 12t44 5q48 0 76.5 -20.5t28.5 -52.5q0 -23 -14 -41t-34.5 -30.5t-39 -18.5t-26.5 -6z" />
    <glyph glyph-name="uni0232" unicode="&#x232;" horiz-adv-x="559" 
d="M272 -2q-46 0 -46 25v329l-206 312q-9 13 -9 20q0 8 12 13t39 5h20q18 0 30 -3.5t18 -12.5l152 -237l155 238q6 8 19.5 11.5t30.5 3.5h15q46 -1 46 -18q0 -8 -8 -20l-207 -315v-326q0 -25 -46 -25h-15zM158 772q-23 0 -23 33v12q0 33 23 33h243q23 0 23 -33v-12
q0 -33 -23 -33h-243z" />
    <glyph glyph-name="uni1EF8" unicode="&#x1ef8;" horiz-adv-x="559" 
d="M272 -2q-46 0 -46 25v329l-206 312q-9 13 -9 20q0 8 12 13t39 5h20q18 0 30 -3.5t18 -12.5l152 -237l155 238q6 8 19.5 11.5t30.5 3.5h15q46 -1 46 -18q0 -8 -8 -20l-207 -315v-326q0 -25 -46 -25h-15zM133 754q-8 0 -21 7t-13 16q0 4 1 8.5t3 8.5q13 31 38.5 50.5
t60.5 19.5q27 0 55 -9.5t54 -19.5t45 -10q21 0 33 10t21 19.5t17 9.5q9 0 21.5 -8t12.5 -17q0 -7 -5 -16q-15 -30 -39.5 -49t-59.5 -19q-28 0 -56.5 10t-54 19.5t-46.5 9.5q-20 0 -31.5 -9.5t-19 -20t-16.5 -10.5z" />
    <glyph glyph-name="Z" unicode="Z" horiz-adv-x="616" 
d="M63 0q-6 0 -12.5 11t-11 26.5t-4.5 25.5q0 8 3 12l388 533h-336q-23 0 -23 39v14q0 39 23 39h457q5 0 11 -11.5t11 -26.5t5 -26q0 -8 -4 -13l-387 -531h366q23 0 23 -39v-14q0 -39 -23 -39h-486z" />
    <glyph glyph-name="Zacute" unicode="&#x179;" horiz-adv-x="616" 
d="M63 0q-6 0 -12.5 11t-11 26.5t-4.5 25.5q0 8 3 12l388 533h-336q-23 0 -23 39v14q0 39 23 39h457q5 0 11 -11.5t11 -26.5t5 -26q0 -8 -4 -13l-387 -531h366q23 0 23 -39v-14q0 -39 -23 -39h-486zM250 751q-30 0 -30 13q0 4 3 9t9 11l54 58q14 15 30.5 20t48.5 5
q26 0 42 -4t16 -14q0 -7 -7 -15t-30 -23l-63 -39q-20 -13 -34 -17t-39 -4z" />
    <glyph glyph-name="Zcaron" unicode="&#x17d;" horiz-adv-x="616" 
d="M63 0q-6 0 -12.5 11t-11 26.5t-4.5 25.5q0 8 3 12l388 533h-336q-23 0 -23 39v14q0 39 23 39h457q5 0 11 -11.5t11 -26.5t5 -26q0 -8 -4 -13l-387 -531h366q23 0 23 -39v-14q0 -39 -23 -39h-486zM295 751q-27 0 -39.5 4.5t-25.5 20.5l-44 57q-9 10 -11 14t-2 8q0 6 6 9
t23 3q18 0 29 -2.5t22 -11.5l55 -41l58 42q10 9 20.5 11t27.5 2t23 -3t6 -9q0 -4 -2.5 -8t-11.5 -16l-43 -55q-12 -16 -25 -20.5t-40 -4.5h-26z" />
    <glyph glyph-name="Zdotaccent" unicode="&#x17b;" horiz-adv-x="616" 
d="M63 0q-6 0 -12.5 11t-11 26.5t-4.5 25.5q0 8 3 12l388 533h-336q-23 0 -23 39v14q0 39 23 39h457q5 0 11 -11.5t11 -26.5t5 -26q0 -8 -4 -13l-387 -531h366q23 0 23 -39v-14q0 -39 -23 -39h-486zM308 752q-28 0 -40.5 7t-12.5 18v65q0 12 12.5 18.5t40.5 6.5t40.5 -6
t12.5 -19v-65q0 -11 -12.5 -18t-40.5 -7z" />
    <glyph glyph-name="uni1E92" unicode="&#x1e92;" horiz-adv-x="616" 
d="M63 0q-6 0 -12.5 11t-11 26.5t-4.5 25.5q0 8 3 12l388 533h-336q-23 0 -23 39v14q0 39 23 39h457q5 0 11 -11.5t11 -26.5t5 -26q0 -8 -4 -13l-387 -531h366q23 0 23 -39v-14q0 -39 -23 -39h-486zM313 -183q-25 0 -37 6t-12 19v53q0 13 12 19t37 6t36.5 -6t11.5 -19v-53
q0 -13 -11.5 -19t-36.5 -6z" />
    <glyph glyph-name="Y.loclGUA" horiz-adv-x="559" 
d="M260 -8q-51 0 -93 8t-67.5 21.5t-28.5 28.5q-1 6 -1 15.5v13.5q0 19 4 26t8 7q7 0 27.5 -8.5t54.5 -17.5t79 -9q54 0 86.5 17.5t46.5 58t14 108.5v67l18 -29q-29 -43 -78.5 -66t-104.5 -23q-77 0 -117.5 43t-40.5 128v296q0 25 46 25h10q46 0 46 -25v-282q0 -48 23 -73
t65 -25q40 0 74 19.5t59 47.5v313q0 25 46 25h10q46 0 46 -25v-403q0 -105 -26.5 -166.5t-78.5 -88.5t-127 -27z" />
    <glyph glyph-name="Yacute.loclGUA" horiz-adv-x="559" 
d="M260 -8q-51 0 -93 8t-67.5 21.5t-28.5 28.5q-1 6 -1 15.5v13.5q0 19 4 26t8 7q7 0 27.5 -8.5t54.5 -17.5t79 -9q54 0 86.5 17.5t46.5 58t14 108.5v67l18 -29q-29 -43 -78.5 -66t-104.5 -23q-77 0 -117.5 43t-40.5 128v296q0 25 46 25h10q46 0 46 -25v-282q0 -48 23 -73
t65 -25q40 0 74 19.5t59 47.5v313q0 25 46 25h10q46 0 46 -25v-403q0 -105 -26.5 -166.5t-78.5 -88.5t-127 -27zM218 751q-29 0 -29 13q0 4 2.5 9t8.5 11l54 58q14 15 30.5 20t48.5 5q27 0 42.5 -4t15.5 -14q0 -7 -7 -15t-30 -23l-63 -39q-19 -13 -33 -17t-40 -4z" />
    <glyph glyph-name="Ycircumflex.loclGUA" horiz-adv-x="559" 
d="M260 -8q-51 0 -93 8t-67.5 21.5t-28.5 28.5q-1 6 -1 15.5v13.5q0 19 4 26t8 7q7 0 27.5 -8.5t54.5 -17.5t79 -9q54 0 86.5 17.5t46.5 58t14 108.5v67l18 -29q-29 -43 -78.5 -66t-104.5 -23q-77 0 -117.5 43t-40.5 128v296q0 25 46 25h10q46 0 46 -25v-282q0 -48 23 -73
t65 -25q40 0 74 19.5t59 47.5v313q0 25 46 25h10q46 0 46 -25v-403q0 -105 -26.5 -166.5t-78.5 -88.5t-127 -27zM169 740q-17 0 -22.5 3t-5.5 7t2.5 9t13.5 17l54 57q11 13 22 18t33 5h20q23 0 33 -4.5t23 -18.5l52 -55q12 -14 14.5 -19t2.5 -9t-5 -7t-22 -3
q-12 0 -23.5 3.5t-22.5 10.5l-62 39l-59 -38q-12 -7 -24.5 -11t-23.5 -4z" />
    <glyph glyph-name="Ydieresis.loclGUA" horiz-adv-x="559" 
d="M260 -8q-51 0 -93 8t-67.5 21.5t-28.5 28.5q-1 6 -1 15.5v13.5q0 19 4 26t8 7q7 0 27.5 -8.5t54.5 -17.5t79 -9q54 0 86.5 17.5t46.5 58t14 108.5v67l18 -29q-29 -43 -78.5 -66t-104.5 -23q-77 0 -117.5 43t-40.5 128v296q0 25 46 25h10q46 0 46 -25v-282q0 -48 23 -73
t65 -25q40 0 74 19.5t59 47.5v313q0 25 46 25h10q46 0 46 -25v-403q0 -105 -26.5 -166.5t-78.5 -88.5t-127 -27zM360 755q-26 0 -37.5 6t-11.5 18v60q0 13 11.5 19t37.5 6t38 -6t12 -19v-60q0 -12 -12 -18t-38 -6zM193 755q-26 0 -38 6t-12 18v60q0 13 12 19t38 6t38 -6
t12 -19v-60q0 -12 -12 -18t-38 -6z" />
    <glyph glyph-name="uni1EF4.loclGUA" horiz-adv-x="559" 
d="M260 -8q-51 0 -93 8t-67.5 21.5t-28.5 28.5q-1 6 -1 15.5v13.5q0 19 4 26t8 7q7 0 27.5 -8.5t54.5 -17.5t79 -9q54 0 86.5 17.5t46.5 58t14 108.5v67l18 -29q-29 -43 -78.5 -66t-104.5 -23q-77 0 -117.5 43t-40.5 128v296q0 25 46 25h10q46 0 46 -25v-282q0 -48 23 -73
t65 -25q40 0 74 19.5t59 47.5v313q0 25 46 25h10q46 0 46 -25v-403q0 -105 -26.5 -166.5t-78.5 -88.5t-127 -27zM276 -183q-25 0 -36.5 6t-11.5 19v53q0 13 11.5 19t36.5 6t36.5 -6t11.5 -19v-53q0 -13 -11.5 -19t-36.5 -6z" />
    <glyph glyph-name="Ygrave.loclGUA" horiz-adv-x="559" 
d="M260 -8q-51 0 -93 8t-67.5 21.5t-28.5 28.5q-1 6 -1 15.5v13.5q0 19 4 26t8 7q7 0 27.5 -8.5t54.5 -17.5t79 -9q54 0 86.5 17.5t46.5 58t14 108.5v67l18 -29q-29 -43 -78.5 -66t-104.5 -23q-77 0 -117.5 43t-40.5 128v296q0 25 46 25h10q46 0 46 -25v-282q0 -48 23 -73
t65 -25q40 0 74 19.5t59 47.5v313q0 25 46 25h10q46 0 46 -25v-403q0 -105 -26.5 -166.5t-78.5 -88.5t-127 -27zM335 751q-25 0 -39 4t-34 17l-64 39q-23 16 -30 23.5t-7 14.5q0 10 16 14t43 4q32 0 48.5 -5t29.5 -20l54 -58q7 -6 9.5 -11t2.5 -9q0 -13 -29 -13z" />
    <glyph glyph-name="uni1EF6.loclGUA" horiz-adv-x="559" 
d="M260 -8q-51 0 -93 8t-67.5 21.5t-28.5 28.5q-1 6 -1 15.5v13.5q0 19 4 26t8 7q7 0 27.5 -8.5t54.5 -17.5t79 -9q54 0 86.5 17.5t46.5 58t14 108.5v67l18 -29q-29 -43 -78.5 -66t-104.5 -23q-77 0 -117.5 43t-40.5 128v296q0 25 46 25h10q46 0 46 -25v-282q0 -48 23 -73
t65 -25q40 0 74 19.5t59 47.5v313q0 25 46 25h10q46 0 46 -25v-403q0 -105 -26.5 -166.5t-78.5 -88.5t-127 -27zM264 738q-14 0 -27.5 12t-13.5 20q0 5 13.5 9.5t29.5 11t29.5 15.5t13.5 22t-11.5 19t-27.5 6q-24 0 -40.5 -6t-27.5 -6q-10 0 -19 12t-9 23q0 7 15.5 14
t38.5 12t44 5q49 0 77.5 -20.5t28.5 -52.5q0 -23 -14.5 -41t-34.5 -30.5t-38.5 -18.5t-26.5 -6z" />
    <glyph glyph-name="uni1EF8.loclGUA" horiz-adv-x="559" 
d="M260 -8q-51 0 -93 8t-67.5 21.5t-28.5 28.5q-1 6 -1 15.5v13.5q0 19 4 26t8 7q7 0 27.5 -8.5t54.5 -17.5t79 -9q54 0 86.5 17.5t46.5 58t14 108.5v67l18 -29q-29 -43 -78.5 -66t-104.5 -23q-77 0 -117.5 43t-40.5 128v296q0 25 46 25h10q46 0 46 -25v-282q0 -48 23 -73
t65 -25q40 0 74 19.5t59 47.5v313q0 25 46 25h10q46 0 46 -25v-403q0 -105 -26.5 -166.5t-78.5 -88.5t-127 -27zM130 754q-9 0 -22 7t-13 16q0 4 1.5 8.5t3.5 8.5q13 31 38.5 50.5t60.5 19.5q27 0 55 -9.5t53.5 -19.5t45.5 -10t32.5 10t21 19.5t17.5 9.5q8 0 20.5 -8
t12.5 -17q0 -7 -5 -16q-15 -30 -39.5 -49t-59.5 -19q-28 0 -56 10t-54 19.5t-47 9.5q-20 0 -31.5 -9.5t-18.5 -20t-16 -10.5z" />
    <glyph glyph-name="Cacute.loclPLK" horiz-adv-x="619" 
d="M378 -7q-166 0 -245 87t-79 271q0 356 326 356q34 0 66.5 -5t60 -13t45.5 -19q25 -14 25 -28q0 -9 -7.5 -25.5t-17.5 -29.5t-18 -13q-6 0 -23.5 10t-49.5 20t-80 10q-111 0 -164 -63.5t-53 -200.5q0 -135 52.5 -200t161.5 -65q50 0 85 12t56.5 23.5t27.5 11.5
q10 0 19.5 -13t16 -28t6.5 -22q0 -9 -8.5 -19t-24.5 -18q-19 -11 -47.5 -19.5t-62 -14t-68.5 -5.5zM366 759q-14 0 -22.5 3.5t-8.5 12.5q0 11 5.5 40t17.5 85q3 14 18.5 20t41.5 6q19 0 33.5 -2.5t14.5 -15.5q0 -5 -4 -17t-16.5 -37.5t-38.5 -74.5q-5 -10 -13.5 -15
t-27.5 -5z" />
    <glyph glyph-name="Nacute.loclPLK" horiz-adv-x="719" 
d="M130 -2q-46 0 -46 25v654q0 25 46 25h27q18 0 29.5 -4.5t19.5 -16.5l288 -438q11 -15 19 -29t15 -30l4 1q-1 17 -1.5 31.5t-0.5 36.5v424q0 25 46 25h13q46 0 46 -25v-654q0 -25 -46 -25h-25q-16 0 -26.5 4t-17.5 14l-295 447q-10 15 -18 29.5t-16 30.5l-4 -1
q2 -17 2 -31.5v-36.5v-431q0 -25 -46 -25h-13zM360 759q-13 0 -22 3.5t-9 12.5q0 11 5.5 40t17.5 85q3 14 18.5 20t41.5 6q19 0 33.5 -2.5t14.5 -15.5q0 -5 -4 -17t-16.5 -37.5t-38.5 -74.5q-5 -10 -13.5 -15t-27.5 -5z" />
    <glyph glyph-name="Oacute.loclPLK" horiz-adv-x="731" 
d="M365 -7q-151 0 -231 92t-80 266q0 176 80 266t231 90q152 0 232 -90t80 -266q0 -174 -80 -266t-232 -92zM365 85q99 0 150.5 68t51.5 198t-51.5 196.5t-150.5 66.5q-98 0 -149.5 -66.5t-51.5 -196.5t51.5 -198t149.5 -68zM366 759q-13 0 -22 3.5t-9 12.5q0 11 5.5 40
t17.5 85q3 14 18.5 20t41.5 6q19 0 33.5 -2.5t14.5 -15.5q0 -5 -4 -17t-16.5 -37.5t-38.5 -74.5q-5 -10 -13.5 -15t-27.5 -5z" />
    <glyph glyph-name="Sacute.loclPLK" horiz-adv-x="500" 
d="M248 -7q-68 0 -118.5 15.5t-75.5 33.5q-21 15 -21 29q0 10 7.5 25t18 27t16.5 12q4 0 10 -3t13 -8q20 -10 56 -24.5t86 -14.5q34 0 61 12t43.5 35.5t16.5 56.5q0 38 -22 60.5t-57 38t-73 31.5q-31 12 -60 27t-52 36.5t-37 54t-14 80.5q0 59 29.5 101.5t81 65.5t115.5 23
q26 0 53.5 -4.5t52 -12.5t40.5 -19q21 -13 21 -28q0 -9 -7 -24t-16 -27t-16 -12q-4 0 -11 3.5t-18 8.5q-16 8 -39 15t-57 7q-38 0 -64.5 -11.5t-40.5 -33t-14 -51.5q0 -34 18 -54t47 -33t63 -26q32 -13 65 -28.5t61 -38.5t44.5 -57.5t16.5 -85.5q0 -50 -16.5 -87.5t-47 -63
t-71 -38.5t-88.5 -13zM250 759q-13 0 -22 3.5t-9 12.5q0 11 5.5 40t17.5 85q3 14 18.5 20t41.5 6q19 0 33.5 -2.5t14.5 -15.5q0 -5 -4 -17t-16.5 -37.5t-38.5 -74.5q-5 -10 -13.5 -15t-27.5 -5z" />
    <glyph glyph-name="Zacute.loclPLK" horiz-adv-x="616" 
d="M63 0q-6 0 -12.5 11t-11 26.5t-4.5 25.5q0 8 3 12l388 533h-336q-23 0 -23 39v14q0 39 23 39h457q5 0 11 -11.5t11 -26.5t5 -26q0 -8 -4 -13l-387 -531h366q23 0 23 -39v-14q0 -39 -23 -39h-486zM308 759q-13 0 -22 3.5t-9 12.5q0 11 5.5 40t17.5 85q3 14 18.5 20t41.5 6
q19 0 33.5 -2.5t14.5 -15.5q0 -5 -4 -17t-16.5 -37.5t-38.5 -74.5q-5 -10 -13.5 -15t-27.5 -5z" />
    <glyph glyph-name="a" unicode="a" horiz-adv-x="545" 
d="M211 -7q-75 0 -119.5 38.5t-44.5 110.5q0 54 24 89.5t67.5 56t101.5 29t126 8.5v43q0 33 -22.5 55t-78.5 22q-42 0 -73.5 -10t-50 -20t-24.5 -10q-8 0 -17 12t-16 26.5t-7 20.5q0 14 26 29.5t69 26t94 10.5q67 0 112 -19.5t67.5 -55.5t22.5 -85v-214q0 -44 3 -71t6 -41
t3 -19q0 -8 -8.5 -13t-20.5 -8t-23.5 -4t-17.5 -1q-13 0 -20 11.5t-10.5 28t-6.5 30.5q-14 -17 -37 -34.5t-53.5 -29.5t-71.5 -12zM228 79q48 0 80.5 20t57.5 47v100q-38 0 -75.5 -3t-69 -12t-50 -28.5t-18.5 -52.5q0 -34 19 -52.5t56 -18.5z" />
    <glyph glyph-name="aacute" unicode="&#xe1;" horiz-adv-x="545" 
d="M211 -7q-75 0 -119.5 38.5t-44.5 110.5q0 54 24 89.5t67.5 56t101.5 29t126 8.5v43q0 33 -22.5 55t-78.5 22q-42 0 -73.5 -10t-50 -20t-24.5 -10q-8 0 -17 12t-16 26.5t-7 20.5q0 14 26 29.5t69 26t94 10.5q67 0 112 -19.5t67.5 -55.5t22.5 -85v-214q0 -44 3 -71t6 -41
t3 -19q0 -8 -8.5 -13t-20.5 -8t-23.5 -4t-17.5 -1q-13 0 -20 11.5t-10.5 28t-6.5 30.5q-14 -17 -37 -34.5t-53.5 -29.5t-71.5 -12zM228 79q48 0 80.5 20t57.5 47v100q-38 0 -75.5 -3t-69 -12t-50 -28.5t-18.5 -52.5q0 -34 19 -52.5t56 -18.5zM230 575q-15 0 -21 3.5t-6 9.5
q0 5 3.5 11.5t7.5 16.5l40 75q6 9 12.5 15t19.5 9t37 3q25 0 37 -3.5t12 -12.5q0 -8 -5.5 -17t-18.5 -24l-55 -60q-15 -17 -28.5 -21.5t-34.5 -4.5z" />
    <glyph glyph-name="abreve" unicode="&#x103;" horiz-adv-x="545" 
d="M211 -7q-75 0 -119.5 38.5t-44.5 110.5q0 54 24 89.5t67.5 56t101.5 29t126 8.5v43q0 33 -22.5 55t-78.5 22q-42 0 -73.5 -10t-50 -20t-24.5 -10q-8 0 -17 12t-16 26.5t-7 20.5q0 14 26 29.5t69 26t94 10.5q67 0 112 -19.5t67.5 -55.5t22.5 -85v-214q0 -44 3 -71t6 -41
t3 -19q0 -8 -8.5 -13t-20.5 -8t-23.5 -4t-17.5 -1q-13 0 -20 11.5t-10.5 28t-6.5 30.5q-14 -17 -37 -34.5t-53.5 -29.5t-71.5 -12zM228 79q48 0 80.5 20t57.5 47v100q-38 0 -75.5 -3t-69 -12t-50 -28.5t-18.5 -52.5q0 -34 19 -52.5t56 -18.5zM273 581q-37 0 -67.5 13.5
t-49.5 37.5t-19 56q0 14 6 20t17 6q10 0 15 -3t8 -11q5 -11 13 -21.5t25.5 -17.5t51.5 -7q35 0 52.5 7t25.5 18t12 21q3 8 8.5 11t13.5 3q12 0 17.5 -6t5.5 -20q0 -32 -18 -56t-48 -37.5t-69 -13.5z" />
    <glyph glyph-name="uni1EAF" unicode="&#x1eaf;" horiz-adv-x="545" 
d="M211 -7q-75 0 -119.5 38.5t-44.5 110.5q0 54 24 89.5t67.5 56t101.5 29t126 8.5v43q0 33 -22.5 55t-78.5 22q-42 0 -73.5 -10t-50 -20t-24.5 -10q-8 0 -17 12t-16 26.5t-7 20.5q0 14 26 29.5t69 26t94 10.5q67 0 112 -19.5t67.5 -55.5t22.5 -85v-214q0 -44 3 -71t6 -41
t3 -19q0 -8 -8.5 -13t-20.5 -8t-23.5 -4t-17.5 -1q-13 0 -20 11.5t-10.5 28t-6.5 30.5q-14 -17 -37 -34.5t-53.5 -29.5t-71.5 -12zM228 79q48 0 80.5 20t57.5 47v100q-38 0 -75.5 -3t-69 -12t-50 -28.5t-18.5 -52.5q0 -34 19 -52.5t56 -18.5zM273 581q-37 0 -67.5 13.5
t-49.5 37.5t-19 56q0 14 6 20t17 6q10 0 15 -3t8 -11q5 -11 13 -21.5t25.5 -17.5t51.5 -7q35 0 52.5 7t25.5 18t12 21q3 8 8.5 11t13.5 3q12 0 17.5 -6t5.5 -20q0 -32 -18 -56t-48 -37.5t-69 -13.5zM230 723q-15 0 -21 3.5t-6 9.5q0 5 3.5 11.5t7.5 15.5l40 75q6 10 12.5 16
t19.5 9t37 3q25 0 37 -3.5t12 -13.5q0 -7 -5.5 -16t-18.5 -24l-55 -61q-15 -16 -28.5 -20.5t-34.5 -4.5z" />
    <glyph glyph-name="uni1EB7" unicode="&#x1eb7;" horiz-adv-x="545" 
d="M211 -7q-75 0 -119.5 38.5t-44.5 110.5q0 54 24 89.5t67.5 56t101.5 29t126 8.5v43q0 33 -22.5 55t-78.5 22q-42 0 -73.5 -10t-50 -20t-24.5 -10q-8 0 -17 12t-16 26.5t-7 20.5q0 14 26 29.5t69 26t94 10.5q67 0 112 -19.5t67.5 -55.5t22.5 -85v-214q0 -44 3 -71t6 -41
t3 -19q0 -8 -8.5 -13t-20.5 -8t-23.5 -4t-17.5 -1q-13 0 -20 11.5t-10.5 28t-6.5 30.5q-14 -17 -37 -34.5t-53.5 -29.5t-71.5 -12zM228 79q48 0 80.5 20t57.5 47v100q-38 0 -75.5 -3t-69 -12t-50 -28.5t-18.5 -52.5q0 -34 19 -52.5t56 -18.5zM263 -183q-46 0 -46 25v53
q0 12 11.5 18.5t37.5 6.5q46 0 46 -25v-53q0 -12 -11.5 -18.5t-37.5 -6.5zM273 581q-37 0 -67.5 13.5t-49.5 37.5t-19 56q0 14 6 20t17 6q10 0 15 -3t8 -11q5 -11 13 -21.5t25.5 -17.5t51.5 -7q35 0 52.5 7t25.5 18t12 21q3 8 8.5 11t13.5 3q12 0 17.5 -6t5.5 -20
q0 -32 -18 -56t-48 -37.5t-69 -13.5z" />
    <glyph glyph-name="uni1EB1" unicode="&#x1eb1;" horiz-adv-x="545" 
d="M211 -7q-75 0 -119.5 38.5t-44.5 110.5q0 54 24 89.5t67.5 56t101.5 29t126 8.5v43q0 33 -22.5 55t-78.5 22q-42 0 -73.5 -10t-50 -20t-24.5 -10q-8 0 -17 12t-16 26.5t-7 20.5q0 14 26 29.5t69 26t94 10.5q67 0 112 -19.5t67.5 -55.5t22.5 -85v-214q0 -44 3 -71t6 -41
t3 -19q0 -8 -8.5 -13t-20.5 -8t-23.5 -4t-17.5 -1q-13 0 -20 11.5t-10.5 28t-6.5 30.5q-14 -17 -37 -34.5t-53.5 -29.5t-71.5 -12zM228 79q48 0 80.5 20t57.5 47v100q-38 0 -75.5 -3t-69 -12t-50 -28.5t-18.5 -52.5q0 -34 19 -52.5t56 -18.5zM273 581q-37 0 -67.5 13.5
t-49.5 37.5t-19 56q0 14 6 20t17 6q10 0 15 -3t8 -11q5 -11 13 -21.5t25.5 -17.5t51.5 -7q35 0 52.5 7t25.5 18t12 21q3 8 8.5 11t13.5 3q12 0 17.5 -6t5.5 -20q0 -32 -18 -56t-48 -37.5t-69 -13.5zM292 723q-20 0 -34 4.5t-28 20.5l-55 61q-13 15 -19 24t-6 16
q0 10 13 13.5t37 3.5q23 0 36.5 -3t20.5 -9t11 -16l40 -75q5 -9 8.5 -15.5t3.5 -11.5q0 -6 -6 -9.5t-22 -3.5z" />
    <glyph glyph-name="uni1EB3" unicode="&#x1eb3;" horiz-adv-x="545" 
d="M211 -7q-75 0 -119.5 38.5t-44.5 110.5q0 54 24 89.5t67.5 56t101.5 29t126 8.5v43q0 33 -22.5 55t-78.5 22q-42 0 -73.5 -10t-50 -20t-24.5 -10q-8 0 -17 12t-16 26.5t-7 20.5q0 14 26 29.5t69 26t94 10.5q67 0 112 -19.5t67.5 -55.5t22.5 -85v-214q0 -44 3 -71t6 -41
t3 -19q0 -8 -8.5 -13t-20.5 -8t-23.5 -4t-17.5 -1q-13 0 -20 11.5t-10.5 28t-6.5 30.5q-14 -17 -37 -34.5t-53.5 -29.5t-71.5 -12zM228 79q48 0 80.5 20t57.5 47v100q-38 0 -75.5 -3t-69 -12t-50 -28.5t-18.5 -52.5q0 -34 19 -52.5t56 -18.5zM273 581q-37 0 -67.5 13.5
t-49.5 37.5t-19 56q0 14 6 20t17 6q10 0 15 -3t8 -11q5 -11 13 -21.5t25.5 -17.5t51.5 -7q35 0 52.5 7t25.5 18t12 21q3 8 8.5 11t13.5 3q12 0 17.5 -6t5.5 -20q0 -32 -18 -56t-48 -37.5t-69 -13.5zM267 713q-11 0 -24.5 7t-13.5 14q0 6 9.5 14.5t22 18t22 22.5t9.5 30
q0 13 -10.5 19t-24.5 6q-21 0 -30.5 -6.5t-14.5 -6.5q-6 0 -16 14t-10 22q0 7 12.5 14t30.5 12t36 5q22 0 44.5 -7.5t37.5 -23t15 -42.5q0 -24 -12.5 -44t-29.5 -35.5t-32 -24t-21 -8.5z" />
    <glyph glyph-name="uni1EB5" unicode="&#x1eb5;" horiz-adv-x="545" 
d="M211 -7q-75 0 -119.5 38.5t-44.5 110.5q0 54 24 89.5t67.5 56t101.5 29t126 8.5v43q0 33 -22.5 55t-78.5 22q-42 0 -73.5 -10t-50 -20t-24.5 -10q-8 0 -17 12t-16 26.5t-7 20.5q0 14 26 29.5t69 26t94 10.5q67 0 112 -19.5t67.5 -55.5t22.5 -85v-214q0 -44 3 -71t6 -41
t3 -19q0 -8 -8.5 -13t-20.5 -8t-23.5 -4t-17.5 -1q-13 0 -20 11.5t-10.5 28t-6.5 30.5q-14 -17 -37 -34.5t-53.5 -29.5t-71.5 -12zM228 79q48 0 80.5 20t57.5 47v100q-38 0 -75.5 -3t-69 -12t-50 -28.5t-18.5 -52.5q0 -34 19 -52.5t56 -18.5zM273 581q-37 0 -67.5 13.5
t-49.5 37.5t-19 56q0 14 6 20t17 6q10 0 15 -3t8 -11q5 -11 13 -21.5t25.5 -17.5t51.5 -7q35 0 52.5 7t25.5 18t12 21q3 8 8.5 11t13.5 3q12 0 17.5 -6t5.5 -20q0 -32 -18 -56t-48 -37.5t-69 -13.5zM127 737q-4 0 -13 2.5t-15.5 7.5t-6.5 11q0 8 3 16q15 36 38.5 52.5
t56.5 16.5q25 0 49 -8.5t47.5 -17t44.5 -8.5q20 0 30.5 9t17 18t14.5 9q5 0 13.5 -3.5t15.5 -9t7 -10.5q0 -4 -1 -7.5t-4 -10.5q-15 -31 -37.5 -48t-57.5 -17q-24 0 -49.5 8.5t-49 17t-42.5 8.5q-18 0 -28.5 -9t-17 -18t-15.5 -9z" />
    <glyph glyph-name="uni01CE" unicode="&#x1ce;" horiz-adv-x="545" 
d="M211 -7q-75 0 -119.5 38.5t-44.5 110.5q0 54 24 89.5t67.5 56t101.5 29t126 8.5v43q0 33 -22.5 55t-78.5 22q-42 0 -73.5 -10t-50 -20t-24.5 -10q-8 0 -17 12t-16 26.5t-7 20.5q0 14 26 29.5t69 26t94 10.5q67 0 112 -19.5t67.5 -55.5t22.5 -85v-214q0 -44 3 -71t6 -41
t3 -19q0 -8 -8.5 -13t-20.5 -8t-23.5 -4t-17.5 -1q-13 0 -20 11.5t-10.5 28t-6.5 30.5q-14 -17 -37 -34.5t-53.5 -29.5t-71.5 -12zM228 79q48 0 80.5 20t57.5 47v100q-38 0 -75.5 -3t-69 -12t-50 -28.5t-18.5 -52.5q0 -34 19 -52.5t56 -18.5zM263 575q-31 0 -43.5 6
t-19.5 20l-41 76q-5 10 -8.5 16.5t-3.5 10.5q0 14 28 14q19 0 30 -5t23 -19l46 -55l46 55q12 14 22 19t29 5q28 0 28 -14q0 -4 -3.5 -10.5t-8.5 -16.5l-41 -76q-7 -13 -19.5 -19.5t-43.5 -6.5h-20z" />
    <glyph glyph-name="acircumflex" unicode="&#xe2;" horiz-adv-x="545" 
d="M211 -7q-75 0 -119.5 38.5t-44.5 110.5q0 54 24 89.5t67.5 56t101.5 29t126 8.5v43q0 33 -22.5 55t-78.5 22q-42 0 -73.5 -10t-50 -20t-24.5 -10q-8 0 -17 12t-16 26.5t-7 20.5q0 14 26 29.5t69 26t94 10.5q67 0 112 -19.5t67.5 -55.5t22.5 -85v-214q0 -44 3 -71t6 -41
t3 -19q0 -8 -8.5 -13t-20.5 -8t-23.5 -4t-17.5 -1q-13 0 -20 11.5t-10.5 28t-6.5 30.5q-14 -17 -37 -34.5t-53.5 -29.5t-71.5 -12zM228 79q48 0 80.5 20t57.5 47v100q-38 0 -75.5 -3t-69 -12t-50 -28.5t-18.5 -52.5q0 -34 19 -52.5t56 -18.5zM175 575q-28 0 -28 13
q0 5 3.5 11.5t8.5 16.5l41 76q7 14 19.5 20t43.5 6h19q32 0 44.5 -6.5t19.5 -19.5l41 -76q5 -10 8 -16.5t3 -11.5q0 -13 -27 -13q-19 0 -29 5t-23 19l-46 55l-46 -55q-12 -14 -22.5 -19t-29.5 -5z" />
    <glyph glyph-name="uni1EA5" unicode="&#x1ea5;" horiz-adv-x="545" 
d="M211 -7q-75 0 -119.5 38.5t-44.5 110.5q0 54 24 89.5t67.5 56t101.5 29t126 8.5v43q0 33 -22.5 55t-78.5 22q-42 0 -73.5 -10t-50 -20t-24.5 -10q-8 0 -17 12t-16 26.5t-7 20.5q0 14 26 29.5t69 26t94 10.5q67 0 112 -19.5t67.5 -55.5t22.5 -85v-214q0 -44 3 -71t6 -41
t3 -19q0 -8 -8.5 -13t-20.5 -8t-23.5 -4t-17.5 -1q-13 0 -20 11.5t-10.5 28t-6.5 30.5q-14 -17 -37 -34.5t-53.5 -29.5t-71.5 -12zM228 79q48 0 80.5 20t57.5 47v100q-38 0 -75.5 -3t-69 -12t-50 -28.5t-18.5 -52.5q0 -34 19 -52.5t56 -18.5zM175 575q-28 0 -28 13
q0 5 3.5 11.5t8.5 16.5l41 76q7 14 19.5 20t43.5 6h19q32 0 44.5 -6.5t19.5 -19.5l41 -76q5 -10 8 -16.5t3 -11.5q0 -13 -27 -13q-19 0 -29 5t-23 19l-46 55l-46 -55q-12 -14 -22.5 -19t-29.5 -5zM230 752q-15 0 -21 3.5t-6 9.5q0 5 3.5 11.5t7.5 16.5l40 75q6 9 12.5 15
t19.5 9t37 3q25 0 37 -3.5t12 -12.5q0 -8 -5.5 -17t-18.5 -24l-55 -60q-15 -17 -28.5 -21.5t-34.5 -4.5z" />
    <glyph glyph-name="uni1EAD" unicode="&#x1ead;" horiz-adv-x="545" 
d="M211 -7q-75 0 -119.5 38.5t-44.5 110.5q0 54 24 89.5t67.5 56t101.5 29t126 8.5v43q0 33 -22.5 55t-78.5 22q-42 0 -73.5 -10t-50 -20t-24.5 -10q-8 0 -17 12t-16 26.5t-7 20.5q0 14 26 29.5t69 26t94 10.5q67 0 112 -19.5t67.5 -55.5t22.5 -85v-214q0 -44 3 -71t6 -41
t3 -19q0 -8 -8.5 -13t-20.5 -8t-23.5 -4t-17.5 -1q-13 0 -20 11.5t-10.5 28t-6.5 30.5q-14 -17 -37 -34.5t-53.5 -29.5t-71.5 -12zM228 79q48 0 80.5 20t57.5 47v100q-38 0 -75.5 -3t-69 -12t-50 -28.5t-18.5 -52.5q0 -34 19 -52.5t56 -18.5zM263 -183q-46 0 -46 25v53
q0 12 11.5 18.5t37.5 6.5q46 0 46 -25v-53q0 -12 -11.5 -18.5t-37.5 -6.5zM175 575q-28 0 -28 13q0 5 3.5 11.5t8.5 16.5l41 76q7 14 19.5 20t43.5 6h19q32 0 44.5 -6.5t19.5 -19.5l41 -76q5 -10 8 -16.5t3 -11.5q0 -13 -27 -13q-19 0 -29 5t-23 19l-46 55l-46 -55
q-12 -14 -22.5 -19t-29.5 -5z" />
    <glyph glyph-name="uni1EA7" unicode="&#x1ea7;" horiz-adv-x="545" 
d="M211 -7q-75 0 -119.5 38.5t-44.5 110.5q0 54 24 89.5t67.5 56t101.5 29t126 8.5v43q0 33 -22.5 55t-78.5 22q-42 0 -73.5 -10t-50 -20t-24.5 -10q-8 0 -17 12t-16 26.5t-7 20.5q0 14 26 29.5t69 26t94 10.5q67 0 112 -19.5t67.5 -55.5t22.5 -85v-214q0 -44 3 -71t6 -41
t3 -19q0 -8 -8.5 -13t-20.5 -8t-23.5 -4t-17.5 -1q-13 0 -20 11.5t-10.5 28t-6.5 30.5q-14 -17 -37 -34.5t-53.5 -29.5t-71.5 -12zM228 79q48 0 80.5 20t57.5 47v100q-38 0 -75.5 -3t-69 -12t-50 -28.5t-18.5 -52.5q0 -34 19 -52.5t56 -18.5zM175 575q-28 0 -28 13
q0 5 3.5 11.5t8.5 16.5l41 76q7 14 19.5 20t43.5 6h19q32 0 44.5 -6.5t19.5 -19.5l41 -76q5 -10 8 -16.5t3 -11.5q0 -13 -27 -13q-19 0 -29 5t-23 19l-46 55l-46 -55q-12 -14 -22.5 -19t-29.5 -5zM292 752q-20 0 -34 4.5t-28 21.5l-55 60q-13 15 -19 24t-6 17q0 9 13 12.5
t37 3.5q23 0 36.5 -3t20.5 -9t11 -15l40 -75q5 -10 8.5 -16.5t3.5 -11.5q0 -6 -6 -9.5t-22 -3.5z" />
    <glyph glyph-name="uni1EA9" unicode="&#x1ea9;" horiz-adv-x="545" 
d="M211 -7q-75 0 -119.5 38.5t-44.5 110.5q0 54 24 89.5t67.5 56t101.5 29t126 8.5v43q0 33 -22.5 55t-78.5 22q-42 0 -73.5 -10t-50 -20t-24.5 -10q-8 0 -17 12t-16 26.5t-7 20.5q0 14 26 29.5t69 26t94 10.5q67 0 112 -19.5t67.5 -55.5t22.5 -85v-214q0 -44 3 -71t6 -41
t3 -19q0 -8 -8.5 -13t-20.5 -8t-23.5 -4t-17.5 -1q-13 0 -20 11.5t-10.5 28t-6.5 30.5q-14 -17 -37 -34.5t-53.5 -29.5t-71.5 -12zM228 79q48 0 80.5 20t57.5 47v100q-38 0 -75.5 -3t-69 -12t-50 -28.5t-18.5 -52.5q0 -34 19 -52.5t56 -18.5zM175 575q-28 0 -28 13
q0 5 3.5 11.5t8.5 16.5l41 76q7 14 19.5 20t43.5 6h19q32 0 44.5 -6.5t19.5 -19.5l41 -76q5 -10 8 -16.5t3 -11.5q0 -13 -27 -13q-19 0 -29 5t-23 19l-46 55l-46 -55q-12 -14 -22.5 -19t-29.5 -5zM267 742q-11 0 -24.5 7t-13.5 14t9.5 15t22 18t22 22.5t9.5 29.5
q0 13 -10.5 19t-24.5 6q-21 0 -30.5 -6t-14.5 -6q-6 0 -16 13.5t-10 21.5q0 7 12.5 14t30.5 12t36 5q22 0 44.5 -7t37.5 -23t15 -43q0 -24 -12.5 -44t-29.5 -35t-32 -24t-21 -9z" />
    <glyph glyph-name="uni1EAB" unicode="&#x1eab;" horiz-adv-x="545" 
d="M211 -7q-75 0 -119.5 38.5t-44.5 110.5q0 54 24 89.5t67.5 56t101.5 29t126 8.5v43q0 33 -22.5 55t-78.5 22q-42 0 -73.5 -10t-50 -20t-24.5 -10q-8 0 -17 12t-16 26.5t-7 20.5q0 14 26 29.5t69 26t94 10.5q67 0 112 -19.5t67.5 -55.5t22.5 -85v-214q0 -44 3 -71t6 -41
t3 -19q0 -8 -8.5 -13t-20.5 -8t-23.5 -4t-17.5 -1q-13 0 -20 11.5t-10.5 28t-6.5 30.5q-14 -17 -37 -34.5t-53.5 -29.5t-71.5 -12zM228 79q48 0 80.5 20t57.5 47v100q-38 0 -75.5 -3t-69 -12t-50 -28.5t-18.5 -52.5q0 -34 19 -52.5t56 -18.5zM175 575q-28 0 -28 13
q0 5 3.5 11.5t8.5 16.5l41 76q7 14 19.5 20t43.5 6h19q32 0 44.5 -6.5t19.5 -19.5l41 -76q5 -10 8 -16.5t3 -11.5q0 -13 -27 -13q-19 0 -29 5t-23 19l-46 55l-46 -55q-12 -14 -22.5 -19t-29.5 -5zM127 766q-4 0 -13 2.5t-15.5 8t-6.5 11.5q0 7 3 15q15 36 38.5 52.5
t56.5 16.5q25 0 49 -8.5t47.5 -17t44.5 -8.5q20 0 30.5 9t17 18t14.5 9q5 0 13.5 -3.5t15.5 -8.5t7 -11q0 -3 -1 -7t-4 -10q-15 -32 -37.5 -49t-57.5 -17q-24 0 -49.5 8.5t-49 17.5t-42.5 9q-18 0 -28.5 -9t-17 -18.5t-15.5 -9.5z" />
    <glyph glyph-name="uni0201" unicode="&#x201;" horiz-adv-x="545" 
d="M211 -7q-75 0 -119.5 38.5t-44.5 110.5q0 54 24 89.5t67.5 56t101.5 29t126 8.5v43q0 33 -22.5 55t-78.5 22q-42 0 -73.5 -10t-50 -20t-24.5 -10q-8 0 -17 12t-16 26.5t-7 20.5q0 14 26 29.5t69 26t94 10.5q67 0 112 -19.5t67.5 -55.5t22.5 -85v-214q0 -44 3 -71t6 -41
t3 -19q0 -8 -8.5 -13t-20.5 -8t-23.5 -4t-17.5 -1q-13 0 -20 11.5t-10.5 28t-6.5 30.5q-14 -17 -37 -34.5t-53.5 -29.5t-71.5 -12zM228 79q48 0 80.5 20t57.5 47v100q-38 0 -75.5 -3t-69 -12t-50 -28.5t-18.5 -52.5q0 -34 19 -52.5t56 -18.5zM227 575q-21 0 -34.5 4.5
t-28.5 21.5l-55 60q-13 15 -18.5 24t-5.5 17q0 9 12.5 12.5t36.5 3.5t37 -3t20 -9t12 -15l40 -75q5 -10 8 -16.5t3 -11.5q0 -6 -6 -9.5t-21 -3.5zM383 575q-21 0 -34.5 4.5t-28.5 21.5l-54 60q-14 15 -19.5 24t-5.5 17q0 9 12.5 12.5t36.5 3.5t37 -3t20 -9t12 -15l40 -75
q5 -10 8.5 -16.5t3.5 -11.5q0 -6 -6.5 -9.5t-21.5 -3.5z" />
    <glyph glyph-name="adieresis" unicode="&#xe4;" horiz-adv-x="545" 
d="M211 -7q-75 0 -119.5 38.5t-44.5 110.5q0 54 24 89.5t67.5 56t101.5 29t126 8.5v43q0 33 -22.5 55t-78.5 22q-42 0 -73.5 -10t-50 -20t-24.5 -10q-8 0 -17 12t-16 26.5t-7 20.5q0 14 26 29.5t69 26t94 10.5q67 0 112 -19.5t67.5 -55.5t22.5 -85v-214q0 -44 3 -71t6 -41
t3 -19q0 -8 -8.5 -13t-20.5 -8t-23.5 -4t-17.5 -1q-13 0 -20 11.5t-10.5 28t-6.5 30.5q-14 -17 -37 -34.5t-53.5 -29.5t-71.5 -12zM228 79q48 0 80.5 20t57.5 47v100q-38 0 -75.5 -3t-69 -12t-50 -28.5t-18.5 -52.5q0 -34 19 -52.5t56 -18.5zM353 592q-26 0 -38 6.5
t-12 18.5v59q0 12 12 18t38 6q25 0 37 -6t12 -18v-59q0 -12 -12 -18.5t-37 -6.5zM193 592q-25 0 -37 6.5t-12 18.5v59q0 12 12 18t37 6q26 0 38 -6t12 -18v-59q0 -12 -12 -18.5t-38 -6.5z" />
    <glyph glyph-name="uni1EA1" unicode="&#x1ea1;" horiz-adv-x="545" 
d="M211 -7q-75 0 -119.5 38.5t-44.5 110.5q0 54 24 89.5t67.5 56t101.5 29t126 8.5v43q0 33 -22.5 55t-78.5 22q-42 0 -73.5 -10t-50 -20t-24.5 -10q-8 0 -17 12t-16 26.5t-7 20.5q0 14 26 29.5t69 26t94 10.5q67 0 112 -19.5t67.5 -55.5t22.5 -85v-214q0 -44 3 -71t6 -41
t3 -19q0 -8 -8.5 -13t-20.5 -8t-23.5 -4t-17.5 -1q-13 0 -20 11.5t-10.5 28t-6.5 30.5q-14 -17 -37 -34.5t-53.5 -29.5t-71.5 -12zM228 79q48 0 80.5 20t57.5 47v100q-38 0 -75.5 -3t-69 -12t-50 -28.5t-18.5 -52.5q0 -34 19 -52.5t56 -18.5zM263 -183q-46 0 -46 25v53
q0 12 11.5 18.5t37.5 6.5q46 0 46 -25v-53q0 -12 -11.5 -18.5t-37.5 -6.5z" />
    <glyph glyph-name="agrave" unicode="&#xe0;" horiz-adv-x="545" 
d="M211 -7q-75 0 -119.5 38.5t-44.5 110.5q0 54 24 89.5t67.5 56t101.5 29t126 8.5v43q0 33 -22.5 55t-78.5 22q-42 0 -73.5 -10t-50 -20t-24.5 -10q-8 0 -17 12t-16 26.5t-7 20.5q0 14 26 29.5t69 26t94 10.5q67 0 112 -19.5t67.5 -55.5t22.5 -85v-214q0 -44 3 -71t6 -41
t3 -19q0 -8 -8.5 -13t-20.5 -8t-23.5 -4t-17.5 -1q-13 0 -20 11.5t-10.5 28t-6.5 30.5q-14 -17 -37 -34.5t-53.5 -29.5t-71.5 -12zM228 79q48 0 80.5 20t57.5 47v100q-38 0 -75.5 -3t-69 -12t-50 -28.5t-18.5 -52.5q0 -34 19 -52.5t56 -18.5zM292 575q-20 0 -34 4.5
t-28 21.5l-55 60q-13 15 -19 24t-6 17q0 9 13 12.5t37 3.5q23 0 36.5 -3t20.5 -9t11 -15l40 -75q5 -10 8.5 -16.5t3.5 -11.5q0 -6 -6 -9.5t-22 -3.5z" />
    <glyph glyph-name="uni1EA3" unicode="&#x1ea3;" horiz-adv-x="545" 
d="M211 -7q-75 0 -119.5 38.5t-44.5 110.5q0 54 24 89.5t67.5 56t101.5 29t126 8.5v43q0 33 -22.5 55t-78.5 22q-42 0 -73.5 -10t-50 -20t-24.5 -10q-8 0 -17 12t-16 26.5t-7 20.5q0 14 26 29.5t69 26t94 10.5q67 0 112 -19.5t67.5 -55.5t22.5 -85v-214q0 -44 3 -71t6 -41
t3 -19q0 -8 -8.5 -13t-20.5 -8t-23.5 -4t-17.5 -1q-13 0 -20 11.5t-10.5 28t-6.5 30.5q-14 -17 -37 -34.5t-53.5 -29.5t-71.5 -12zM228 79q48 0 80.5 20t57.5 47v100q-38 0 -75.5 -3t-69 -12t-50 -28.5t-18.5 -52.5q0 -34 19 -52.5t56 -18.5zM267 565q-11 0 -24.5 7
t-13.5 14t9.5 15t22 18t22 22.5t9.5 29.5q0 13 -10.5 19t-24.5 6q-21 0 -30.5 -6t-14.5 -6q-6 0 -16 13.5t-10 21.5q0 7 12.5 14t30.5 12t36 5q22 0 44.5 -7t37.5 -23t15 -43q0 -24 -12.5 -44t-29.5 -35t-32 -24t-21 -9z" />
    <glyph glyph-name="uni0203" unicode="&#x203;" horiz-adv-x="545" 
d="M211 -7q-75 0 -119.5 38.5t-44.5 110.5q0 54 24 89.5t67.5 56t101.5 29t126 8.5v43q0 33 -22.5 55t-78.5 22q-42 0 -73.5 -10t-50 -20t-24.5 -10q-8 0 -17 12t-16 26.5t-7 20.5q0 14 26 29.5t69 26t94 10.5q67 0 112 -19.5t67.5 -55.5t22.5 -85v-214q0 -44 3 -71t6 -41
t3 -19q0 -8 -8.5 -13t-20.5 -8t-23.5 -4t-17.5 -1q-13 0 -20 11.5t-10.5 28t-6.5 30.5q-14 -17 -37 -34.5t-53.5 -29.5t-71.5 -12zM228 79q48 0 80.5 20t57.5 47v100q-38 0 -75.5 -3t-69 -12t-50 -28.5t-18.5 -52.5q0 -34 19 -52.5t56 -18.5zM273 716q-37 0 -67.5 -13.5
t-49.5 -37t-19 -56.5q0 -14 6 -19.5t17 -5.5q10 0 15 3t8 10q5 12 13 22t25.5 17t51.5 7q35 0 52.5 -7t25.5 -17.5t12 -21.5q3 -7 8.5 -10t13.5 -3q12 0 17.5 5.5t5.5 19.5q0 33 -18 56.5t-48 37t-69 13.5z" />
    <glyph glyph-name="amacron" unicode="&#x101;" horiz-adv-x="545" 
d="M211 -7q-75 0 -119.5 38.5t-44.5 110.5q0 54 24 89.5t67.5 56t101.5 29t126 8.5v43q0 33 -22.5 55t-78.5 22q-42 0 -73.5 -10t-50 -20t-24.5 -10q-8 0 -17 12t-16 26.5t-7 20.5q0 14 26 29.5t69 26t94 10.5q67 0 112 -19.5t67.5 -55.5t22.5 -85v-214q0 -44 3 -71t6 -41
t3 -19q0 -8 -8.5 -13t-20.5 -8t-23.5 -4t-17.5 -1q-13 0 -20 11.5t-10.5 28t-6.5 30.5q-14 -17 -37 -34.5t-53.5 -29.5t-71.5 -12zM228 79q48 0 80.5 20t57.5 47v100q-38 0 -75.5 -3t-69 -12t-50 -28.5t-18.5 -52.5q0 -34 19 -52.5t56 -18.5zM161 608q-22 0 -22 33v11
q0 33 22 33h223q22 0 22 -33v-11q0 -33 -22 -33h-223z" />
    <glyph glyph-name="aogonek" unicode="&#x105;" horiz-adv-x="545" 
d="M211 -7q-75 0 -119.5 38.5t-44.5 110.5q0 54 24 89.5t67.5 56t101.5 29t126 8.5v43q0 33 -22.5 55t-78.5 22q-42 0 -73.5 -10t-50 -20t-24.5 -10q-8 0 -17 12t-16 26.5t-7 20.5q0 14 26 29.5t69 26t94 10.5q67 0 112 -19.5t67.5 -55.5t22.5 -85v-214q0 -44 3 -71t6 -41
t3 -19q0 -8 -8.5 -13t-20.5 -8t-23.5 -4t-17.5 -1q-13 0 -20 11.5t-10.5 28t-6.5 30.5q-14 -17 -37 -34.5t-53.5 -29.5t-71.5 -12zM228 79q48 0 80.5 20t57.5 47v100q-38 0 -75.5 -3t-69 -12t-50 -28.5t-18.5 -52.5q0 -34 19 -52.5t56 -18.5zM424 -186q-51 0 -77.5 23.5
t-26.5 59.5q0 32 23.5 66t71.5 54l52 -7q-36 -19 -54 -45.5t-18 -46.5q0 -13 9.5 -21t28.5 -8q20 0 30 4.5t22 4.5q11 0 17 -13t6 -29q0 -15 -14 -24.5t-33 -13.5t-37 -4z" />
    <glyph glyph-name="aring" unicode="&#xe5;" horiz-adv-x="545" 
d="M211 -7q-75 0 -119.5 38.5t-44.5 110.5q0 54 24 89.5t67.5 56t101.5 29t126 8.5v43q0 33 -22.5 55t-78.5 22q-42 0 -73.5 -10t-50 -20t-24.5 -10q-8 0 -17 12t-16 26.5t-7 20.5q0 14 26 29.5t69 26t94 10.5q67 0 112 -19.5t67.5 -55.5t22.5 -85v-214q0 -44 3 -71t6 -41
t3 -19q0 -8 -8.5 -13t-20.5 -8t-23.5 -4t-17.5 -1q-13 0 -20 11.5t-10.5 28t-6.5 30.5q-14 -17 -37 -34.5t-53.5 -29.5t-71.5 -12zM228 79q48 0 80.5 20t57.5 47v100q-38 0 -75.5 -3t-69 -12t-50 -28.5t-18.5 -52.5q0 -34 19 -52.5t56 -18.5zM272 562q-38 0 -63.5 25
t-25.5 63t25.5 63.5t63.5 25.5t64 -25.5t26 -63.5t-26 -63t-64 -25zM272 614q16 0 26 10.5t10 25.5t-10 25.5t-26 10.5q-15 0 -25 -10.5t-10 -25.5t10 -25.5t25 -10.5z" />
    <glyph glyph-name="aringacute" unicode="&#x1fb;" horiz-adv-x="545" 
d="M211 -7q-75 0 -119.5 38.5t-44.5 110.5q0 54 24 89.5t67.5 56t101.5 29t126 8.5v43q0 33 -22.5 55t-78.5 22q-42 0 -73.5 -10t-50 -20t-24.5 -10q-8 0 -17 12t-16 26.5t-7 20.5q0 14 26 29.5t69 26t94 10.5q67 0 112 -19.5t67.5 -55.5t22.5 -85v-214q0 -44 3 -71t6 -41
t3 -19q0 -8 -8.5 -13t-20.5 -8t-23.5 -4t-17.5 -1q-13 0 -20 11.5t-10.5 28t-6.5 30.5q-14 -17 -37 -34.5t-53.5 -29.5t-71.5 -12zM228 79q48 0 80.5 20t57.5 47v100q-38 0 -75.5 -3t-69 -12t-50 -28.5t-18.5 -52.5q0 -34 19 -52.5t56 -18.5zM272 562q-38 0 -63.5 25
t-25.5 63t25.5 63.5t63.5 25.5t64 -25.5t26 -63.5t-26 -63t-64 -25zM272 614q16 0 26 10.5t10 25.5t-10 25.5t-26 10.5q-15 0 -25 -10.5t-10 -25.5t10 -25.5t25 -10.5zM230 756q-15 0 -21 3.5t-6 10.5q0 5 3.5 11t7.5 16l40 75q6 10 12.5 15.5t19.5 8.5t37 3q25 0 37 -3.5
t12 -12.5q0 -7 -5.5 -16t-18.5 -24l-55 -61q-15 -16 -28.5 -21t-34.5 -5z" />
    <glyph glyph-name="atilde" unicode="&#xe3;" horiz-adv-x="545" 
d="M211 -7q-75 0 -119.5 38.5t-44.5 110.5q0 54 24 89.5t67.5 56t101.5 29t126 8.5v43q0 33 -22.5 55t-78.5 22q-42 0 -73.5 -10t-50 -20t-24.5 -10q-8 0 -17 12t-16 26.5t-7 20.5q0 14 26 29.5t69 26t94 10.5q67 0 112 -19.5t67.5 -55.5t22.5 -85v-214q0 -44 3 -71t6 -41
t3 -19q0 -8 -8.5 -13t-20.5 -8t-23.5 -4t-17.5 -1q-13 0 -20 11.5t-10.5 28t-6.5 30.5q-14 -17 -37 -34.5t-53.5 -29.5t-71.5 -12zM228 79q48 0 80.5 20t57.5 47v100q-38 0 -75.5 -3t-69 -12t-50 -28.5t-18.5 -52.5q0 -34 19 -52.5t56 -18.5zM127 589q-4 0 -13 2.5t-15.5 8
t-6.5 11.5q0 7 3 15q15 36 38.5 52.5t56.5 16.5q25 0 49 -8.5t47.5 -17t44.5 -8.5q20 0 30.5 9t17 18t14.5 9q5 0 13.5 -3.5t15.5 -8.5t7 -11q0 -3 -1 -7t-4 -10q-15 -32 -37.5 -49t-57.5 -17q-24 0 -49.5 8.5t-49 17.5t-42.5 9q-18 0 -28.5 -9t-17 -18.5t-15.5 -9.5z" />
    <glyph glyph-name="ae" unicode="&#xe6;" horiz-adv-x="819" 
d="M217 -7q-76 0 -123 38.5t-47 110.5q0 47 21 79.5t59 52.5t91.5 30t118.5 11q6 54 25 93q-12 17 -35.5 27t-61.5 10q-41 0 -72 -10t-50.5 -20t-25.5 -10q-8 0 -17 12t-16 26.5t-7 20.5q0 14 26 29.5t69 26t94 10.5q52 0 91 -12t64 -33q57 45 146 45q72 0 118 -30
t68.5 -85.5t22.5 -132.5q0 -6 -6.5 -17t-15.5 -20t-16 -9h-295q3 -55 19.5 -90t47 -51.5t72.5 -16.5q41 0 69.5 10t46 19.5t23.5 9.5q8 0 17 -11.5t16 -25t7 -20.5q0 -12 -15.5 -24t-41.5 -21.5t-58 -15.5t-65 -6q-62 0 -108 17t-76 48q-17 -15 -44 -30.5t-61 -25t-75 -9.5z
M228 79q41 0 72 14t54 37q-18 45 -20 106q-47 -1 -88.5 -8t-67 -25t-25.5 -53q0 -34 19 -52.5t56 -18.5zM442 316h229q0 63 -27 96t-79 33q-35 0 -61 -13.5t-41.5 -42t-20.5 -73.5z" />
    <glyph glyph-name="aeacute" unicode="&#x1fd;" horiz-adv-x="819" 
d="M217 -7q-76 0 -123 38.5t-47 110.5q0 47 21 79.5t59 52.5t91.5 30t118.5 11q6 54 25 93q-12 17 -35.5 27t-61.5 10q-41 0 -72 -10t-50.5 -20t-25.5 -10q-8 0 -17 12t-16 26.5t-7 20.5q0 14 26 29.5t69 26t94 10.5q52 0 91 -12t64 -33q57 45 146 45q72 0 118 -30
t68.5 -85.5t22.5 -132.5q0 -6 -6.5 -17t-15.5 -20t-16 -9h-295q3 -55 19.5 -90t47 -51.5t72.5 -16.5q41 0 69.5 10t46 19.5t23.5 9.5q8 0 17 -11.5t16 -25t7 -20.5q0 -12 -15.5 -24t-41.5 -21.5t-58 -15.5t-65 -6q-62 0 -108 17t-76 48q-17 -15 -44 -30.5t-61 -25t-75 -9.5z
M228 79q41 0 72 14t54 37q-18 45 -20 106q-47 -1 -88.5 -8t-67 -25t-25.5 -53q0 -34 19 -52.5t56 -18.5zM442 316h229q0 63 -27 96t-79 33q-35 0 -61 -13.5t-41.5 -42t-20.5 -73.5zM383 575q-15 0 -21.5 3.5t-6.5 9.5q0 5 3.5 11.5t8.5 16.5l40 75q5 9 11.5 15t19.5 9t37 3
q25 0 37.5 -3.5t12.5 -12.5q0 -8 -6 -17t-19 -24l-55 -60q-14 -17 -28 -21.5t-34 -4.5z" />
    <glyph glyph-name="b" unicode="b" horiz-adv-x="569" 
d="M326 -7q-43 0 -81.5 19.5t-69.5 55.5q-6 -33 -16 -54q-4 -10 -12 -13t-23 -3h-6q-38 0 -38 25v705q0 25 45 25h11q46 0 46 -25v-244q25 20 56.5 33t74.5 13q93 0 149 -70t56 -198q0 -81 -23.5 -141.5t-66.5 -94t-102 -33.5zM302 80q54 0 82.5 48.5t28.5 138.5
q0 85 -30.5 130.5t-92.5 45.5q-29 0 -57 -9.5t-51 -27.5v-260q26 -30 57 -48t63 -18z" />
    <glyph glyph-name="c" unicode="c" horiz-adv-x="485" 
d="M297 -7q-123 0 -185.5 63.5t-62.5 205.5q0 75 19 126.5t52.5 82.5t77.5 45t94 14q38 0 73.5 -7t58 -19t22.5 -27q0 -8 -6.5 -23t-15 -26.5t-16.5 -11.5q-1 0 -4 1.5t-9 3.5q-13 6 -38.5 15t-63.5 9q-65 0 -100.5 -42t-35.5 -138q0 -97 32 -142t109 -45q40 0 67.5 9.5
t41.5 16.5q5 2 8 3t5 1q8 0 17 -11.5t15.5 -25t6.5 -21.5q0 -13 -15 -23t-39 -17.5t-52.5 -12t-55.5 -4.5z" />
    <glyph glyph-name="cacute" unicode="&#x107;" horiz-adv-x="485" 
d="M297 -7q-123 0 -185.5 63.5t-62.5 205.5q0 75 19 126.5t52.5 82.5t77.5 45t94 14q38 0 73.5 -7t58 -19t22.5 -27q0 -8 -6.5 -23t-15 -26.5t-16.5 -11.5q-1 0 -4 2t-9 3q-13 6 -38.5 15t-63.5 9q-65 0 -100.5 -42t-35.5 -138q0 -97 32 -142t109 -45q40 0 68 9.5t41 16.5
q5 2 8 3t5 1q8 0 17 -11.5t15.5 -25t6.5 -21.5q0 -13 -15 -23t-39 -17.5t-52.5 -12t-55.5 -4.5zM234 575q-15 0 -21.5 3.5t-6.5 9.5q0 5 3.5 11.5t8.5 16.5l40 75q5 9 11.5 15t20 9t36.5 3q25 0 37.5 -3.5t12.5 -12.5q0 -8 -6 -17t-19 -24l-55 -60q-14 -17 -28 -21.5
t-34 -4.5z" />
    <glyph glyph-name="ccaron" unicode="&#x10d;" horiz-adv-x="485" 
d="M297 -7q-123 0 -185.5 63.5t-62.5 205.5q0 75 19 126.5t52.5 82.5t77.5 45t94 14q38 0 73.5 -7t58 -19t22.5 -27q0 -8 -6.5 -23t-15 -26.5t-16.5 -11.5q-1 0 -4 2t-9 3q-13 6 -38.5 15t-63.5 9q-65 0 -100.5 -42t-35.5 -138q0 -97 32 -142t109 -45q40 0 68 9.5t41 16.5
q5 2 8 3t5 1q8 0 17 -11.5t15.5 -25t6.5 -21.5q0 -13 -15 -23t-39 -17.5t-52.5 -12t-55.5 -4.5zM267 575q-31 0 -43.5 6t-19.5 20l-42 76q-4 10 -7.5 16.5t-3.5 10.5q0 14 27 14q20 0 30.5 -5t22.5 -19l46 -55l46 55q12 14 22 19t30 5q27 0 27 -14q0 -4 -3 -10.5t-9 -16.5
l-41 -76q-7 -13 -19 -19.5t-44 -6.5h-19z" />
    <glyph glyph-name="ccedilla" unicode="&#xe7;" horiz-adv-x="485" 
d="M297 -7q-123 0 -185.5 63.5t-62.5 205.5q0 75 19 126.5t52.5 82.5t77.5 45t94 14q38 0 73.5 -7t58 -19t22.5 -27q0 -8 -6.5 -23t-15 -26.5t-16.5 -11.5q-1 0 -4 2t-9 3q-13 6 -38.5 15t-63.5 9q-65 0 -100.5 -42t-35.5 -138q0 -97 32 -142t109 -45q40 0 68 9.5t41 16.5
q5 2 8 3t5 1q8 0 17 -11.5t15.5 -25t6.5 -21.5q0 -13 -15 -23t-39 -17.5t-52.5 -12t-55.5 -4.5zM270 -211q-23 0 -51 5.5t-48 16t-20 23.5t5.5 21.5t15.5 8.5q13 0 37 -10t59 -10q10 0 21 2.5t19 9t8 19.5q0 16 -11 22t-25 9t-25 6t-11 12q0 4 1.5 11t6 23t13.5 45h49
l-18 -61l-13 7q50 0 76.5 -19t26.5 -54t-17 -53.5t-43 -26t-56 -7.5z" />
    <glyph glyph-name="ccircumflex" unicode="&#x109;" horiz-adv-x="485" 
d="M297 -7q-123 0 -185.5 63.5t-62.5 205.5q0 75 19 126.5t52.5 82.5t77.5 45t94 14q38 0 73.5 -7t58 -19t22.5 -27q0 -8 -6.5 -23t-15 -26.5t-16.5 -11.5q-1 0 -4 2t-9 3q-13 6 -38.5 15t-63.5 9q-65 0 -100.5 -42t-35.5 -138q0 -97 32 -142t109 -45q40 0 68 9.5t41 16.5
q5 2 8 3t5 1q8 0 17 -11.5t15.5 -25t6.5 -21.5q0 -13 -15 -23t-39 -17.5t-52.5 -12t-55.5 -4.5zM178 575q-27 0 -27 13q0 5 3.5 11.5t7.5 16.5l41 76q8 14 20 20t43 6h20q32 0 44 -6.5t19 -19.5l41 -76q5 -10 8.5 -16.5t3.5 -11.5q0 -13 -28 -13q-19 0 -29 5t-22 19l-46 55
l-46 -55q-12 -14 -22.5 -19t-30.5 -5z" />
    <glyph glyph-name="cdotaccent" unicode="&#x10b;" horiz-adv-x="485" 
d="M297 -7q-123 0 -185.5 63.5t-62.5 205.5q0 75 19 126.5t52.5 82.5t77.5 45t94 14q38 0 73.5 -7t58 -19t22.5 -27q0 -8 -6.5 -23t-15 -26.5t-16.5 -11.5q-1 0 -4 2t-9 3q-13 6 -38.5 15t-63.5 9q-65 0 -100.5 -42t-35.5 -138q0 -97 32 -142t109 -45q40 0 68 9.5t41 16.5
q5 2 8 3t5 1q8 0 17 -11.5t15.5 -25t6.5 -21.5q0 -13 -15 -23t-39 -17.5t-52.5 -12t-55.5 -4.5zM276 589q-28 0 -40 6.5t-12 18.5v65q0 12 12 18.5t40 6.5q29 0 41 -6.5t12 -18.5v-65q0 -12 -12 -18.5t-41 -6.5z" />
    <glyph glyph-name="d" unicode="d" horiz-adv-x="565" 
d="M241 -7q-58 0 -101 33.5t-67 94t-24 140.5q0 129 56.5 199t148.5 70q44 0 75 -13t57 -33v244q0 25 45 25h11q46 0 46 -25v-572q0 -44 3 -71t6 -41t3 -19q0 -8 -8.5 -13t-20.5 -8t-24 -4t-18 -1q-13 0 -19.5 11.5t-10 28t-6.5 29.5q-31 -36 -69.5 -55.5t-82.5 -19.5z
M266 80q32 0 63 18t57 48v260q-23 18 -50 27.5t-58 9.5q-61 0 -92 -45.5t-31 -130.5q0 -90 28.5 -138.5t82.5 -48.5z" />
    <glyph glyph-name="eth" unicode="&#xf0;" horiz-adv-x="569" 
d="M286 -7q-114 0 -174.5 69t-60.5 198q0 130 60.5 200t174.5 70q27 0 51 -4.5t45 -13.5l-12 -20q-12 32 -26 59t-28 51q-37 -5 -53 -7.5t-20 -3t-6 -0.5q-11 0 -20 11.5t-9 23.5q0 11 16 14l64 9q-11 15 -20.5 28.5t-9.5 19.5q0 12 17 14l18 2t19 1q18 0 30 -11
q9 -9 17 -19t18 -24q36 6 51.5 8t19.5 2.5l4 0.5q14 0 21 -14t7 -21q0 -12 -16 -14l-56 -7q31 -48 56 -105.5t39.5 -120.5t14.5 -129q0 -130 -59 -198.5t-173 -68.5zM284 78q67 0 98 45t31 138t-31 138.5t-98 45.5q-66 0 -97 -45t-31 -139q0 -93 31 -138t97 -45z" />
    <glyph glyph-name="dcaron" unicode="&#x10f;" horiz-adv-x="565" 
d="M241 -7q-58 0 -101 33.5t-67 94t-24 140.5q0 129 56.5 199t148.5 70q44 0 75 -13t57 -33v244q0 25 45 25h11q46 0 46 -25v-572q0 -44 3 -71t6 -41t3 -19q0 -8 -8.5 -13t-20.5 -8t-24 -4t-18 -1q-13 0 -19.5 11.5t-10 28t-6.5 29.5q-31 -36 -69.5 -55.5t-82.5 -19.5z
M266 80q32 0 63 18t57 48v260q-23 18 -50 27.5t-58 9.5q-61 0 -92 -45.5t-31 -130.5q0 -90 28.5 -138.5t82.5 -48.5zM559 574q-9 0 -21 3.5t-12 13.5q0 22 5 51t5 75q0 15 10.5 25t32.5 10h12q21 0 32 -9t11 -24q0 -41 -13.5 -74t-31 -52t-30.5 -19z" />
    <glyph glyph-name="dcroat" unicode="&#x111;" horiz-adv-x="565" 
d="M202 592q-23 0 -23 33v11q0 33 23 33h340q23 0 23 -33v-11q0 -33 -23 -33h-340zM241 -7q-58 0 -101 33.5t-67 94t-24 140.5q0 129 56.5 199t148.5 70q44 0 75 -13t57 -33v244q0 25 45 25h11q46 0 46 -25v-572q0 -44 3 -71t6 -41t3 -19q0 -8 -8.5 -13t-20.5 -8t-24 -4
t-18 -1q-13 0 -19.5 11.5t-10 28t-6.5 29.5q-31 -36 -69.5 -55.5t-82.5 -19.5zM266 80q32 0 63 18t57 48v260q-23 18 -50 27.5t-58 9.5q-61 0 -92 -45.5t-31 -130.5q0 -90 28.5 -138.5t82.5 -48.5z" />
    <glyph glyph-name="uni1E0D" unicode="&#x1e0d;" horiz-adv-x="565" 
d="M241 -7q-58 0 -101 33.5t-67 94t-24 140.5q0 129 56.5 199t148.5 70q44 0 75 -13t57 -33v244q0 25 45 25h11q46 0 46 -25v-572q0 -44 3 -71t6 -41t3 -19q0 -8 -8.5 -13t-20.5 -8t-24 -4t-18 -1q-13 0 -19.5 11.5t-10 28t-6.5 29.5q-31 -36 -69.5 -55.5t-82.5 -19.5z
M266 80q32 0 63 18t57 48v260q-23 18 -50 27.5t-58 9.5q-61 0 -92 -45.5t-31 -130.5q0 -90 28.5 -138.5t82.5 -48.5zM282 -183q-45 0 -45 25v53q0 12 11 18.5t37 6.5q46 0 46 -25v-53q0 -12 -11 -18.5t-38 -6.5z" />
    <glyph glyph-name="uni01F3" unicode="&#x1f3;" horiz-adv-x="1054" 
d="M241 -7q-58 0 -101 33.5t-67 94t-24 140.5q0 129 56.5 199t148.5 70q44 0 75 -13t57 -33v244q0 25 45 25h11q46 0 46 -25v-572q0 -44 3 -71t6 -41t3 -19q0 -8 -8.5 -13t-20.5 -8t-24 -4t-18 -1q-13 0 -19.5 11.5t-10 28t-6.5 29.5q-31 -36 -69.5 -55.5t-82.5 -19.5z
M266 80q32 0 63 18t57 48v260q-23 18 -50 27.5t-58 9.5q-61 0 -92 -45.5t-31 -130.5q0 -90 28.5 -138.5t82.5 -48.5zM623 0q-4 0 -10 10t-10 23.5t-4 24.5q0 8 3 12l275 368h-236q-23 0 -23 36v13q0 36 23 36h352q5 0 10 -10.5t8.5 -24.5t3.5 -24q0 -7 -2 -12l-274 -367h255
q23 0 23 -36v-13q0 -36 -23 -36h-371z" />
    <glyph glyph-name="uni01C6" unicode="&#x1c6;" horiz-adv-x="1054" 
d="M241 -7q-58 0 -101 33.5t-67 94t-24 140.5q0 129 56.5 199t148.5 70q44 0 75 -13t57 -33v244q0 25 45 25h11q46 0 46 -25v-572q0 -44 3 -71t6 -41t3 -19q0 -8 -8.5 -13t-20.5 -8t-24 -4t-18 -1q-13 0 -19.5 11.5t-10 28t-6.5 29.5q-31 -36 -69.5 -55.5t-82.5 -19.5z
M266 80q32 0 63 18t57 48v260q-23 18 -50 27.5t-58 9.5q-61 0 -92 -45.5t-31 -130.5q0 -90 28.5 -138.5t82.5 -48.5zM623 0q-4 0 -10 10t-10 23.5t-4 24.5q0 8 3 12l275 368h-236q-23 0 -23 36v13q0 36 23 36h352q5 0 10 -10.5t8.5 -24.5t3.5 -24q0 -7 -2 -12l-274 -367h255
q23 0 23 -36v-13q0 -36 -23 -36h-371zM800 575q-31 0 -43.5 6t-19.5 20l-41 76q-5 10 -8.5 16.5t-3.5 10.5q0 14 28 14q19 0 30 -5t23 -19l46 -55l46 55q12 14 22 19t29 5q28 0 28 -14q0 -4 -3.5 -10.5t-8.5 -16.5l-41 -76q-7 -13 -19.5 -19.5t-43.5 -6.5h-20z" />
    <glyph glyph-name="e" unicode="e" horiz-adv-x="539" 
d="M301 -7q-128 0 -189 67.5t-61 197.5q0 92 28 152t81 90t127 30q72 0 118 -32t68.5 -90t22.5 -139q0 -6 -7 -17t-16 -20t-15 -9h-299q6 -76 41 -110.5t102 -34.5q41 0 69.5 10t46 19.5t23.5 9.5q8 0 17 -11.5t16 -25t7 -20.5q0 -12 -15.5 -24t-41.5 -21.5t-58 -15.5
t-65 -6zM159 303h232q0 69 -26 105.5t-80 36.5q-55 0 -87 -34.5t-39 -107.5z" />
    <glyph glyph-name="eacute" unicode="&#xe9;" horiz-adv-x="539" 
d="M301 -7q-128 0 -189 67.5t-61 197.5q0 92 28 152t81 90t127 30q72 0 118 -32t68.5 -90t22.5 -139q0 -6 -7 -17t-16 -20t-15 -9h-299q6 -76 41 -110.5t102 -34.5q41 0 69.5 10t46 19.5t23.5 9.5q8 0 17 -11.5t16 -25t7 -20.5q0 -12 -15.5 -24t-41.5 -21.5t-58 -15.5
t-65 -6zM159 303h232q0 69 -26 105.5t-80 36.5q-55 0 -87 -34.5t-39 -107.5zM234 575q-15 0 -21.5 3.5t-6.5 9.5q0 5 3.5 11.5t8.5 16.5l40 75q5 9 11.5 15t20 9t36.5 3q25 0 37.5 -3.5t12.5 -12.5q0 -8 -6 -17t-19 -24l-55 -60q-14 -17 -28 -21.5t-34 -4.5z" />
    <glyph glyph-name="ebreve" unicode="&#x115;" horiz-adv-x="539" 
d="M301 -7q-128 0 -189 67.5t-61 197.5q0 92 28 152t81 90t127 30q72 0 118 -32t68.5 -90t22.5 -139q0 -6 -7 -17t-16 -20t-15 -9h-299q6 -76 41 -110.5t102 -34.5q41 0 69.5 10t46 19.5t23.5 9.5q8 0 17 -11.5t16 -25t7 -20.5q0 -12 -15.5 -24t-41.5 -21.5t-58 -15.5
t-65 -6zM159 303h232q0 69 -26 105.5t-80 36.5q-55 0 -87 -34.5t-39 -107.5zM276 581q-37 0 -67.5 13.5t-49 37.5t-18.5 56q0 14 5.5 20t17.5 6q9 0 14 -3t9 -11q5 -11 12.5 -21.5t25.5 -17.5t51 -7q35 0 52.5 7t25.5 18t12 21q3 8 8.5 11t13.5 3q12 0 17.5 -6t5.5 -20
q0 -32 -17.5 -56t-48 -37.5t-69.5 -13.5z" />
    <glyph glyph-name="ecaron" unicode="&#x11b;" horiz-adv-x="539" 
d="M301 -7q-128 0 -189 67.5t-61 197.5q0 92 28 152t81 90t127 30q72 0 118 -32t68.5 -90t22.5 -139q0 -6 -7 -17t-16 -20t-15 -9h-299q6 -76 41 -110.5t102 -34.5q41 0 69.5 10t46 19.5t23.5 9.5q8 0 17 -11.5t16 -25t7 -20.5q0 -12 -15.5 -24t-41.5 -21.5t-58 -15.5
t-65 -6zM159 303h232q0 69 -26 105.5t-80 36.5q-55 0 -87 -34.5t-39 -107.5zM267 575q-31 0 -43.5 6t-19.5 20l-42 76q-4 10 -7.5 16.5t-3.5 10.5q0 14 27 14q20 0 30.5 -5t22.5 -19l46 -55l46 55q12 14 22 19t30 5q27 0 27 -14q0 -4 -3 -10.5t-9 -16.5l-41 -76
q-7 -13 -19 -19.5t-44 -6.5h-19z" />
    <glyph glyph-name="ecircumflex" unicode="&#xea;" horiz-adv-x="539" 
d="M301 -7q-128 0 -189 67.5t-61 197.5q0 92 28 152t81 90t127 30q72 0 118 -32t68.5 -90t22.5 -139q0 -6 -7 -17t-16 -20t-15 -9h-299q6 -76 41 -110.5t102 -34.5q41 0 69.5 10t46 19.5t23.5 9.5q8 0 17 -11.5t16 -25t7 -20.5q0 -12 -15.5 -24t-41.5 -21.5t-58 -15.5
t-65 -6zM159 303h232q0 69 -26 105.5t-80 36.5q-55 0 -87 -34.5t-39 -107.5zM178 575q-27 0 -27 13q0 5 3.5 11.5t7.5 16.5l41 76q8 14 20 20t43 6h20q32 0 44 -6.5t19 -19.5l41 -76q5 -10 8.5 -16.5t3.5 -11.5q0 -13 -28 -13q-19 0 -29 5t-22 19l-46 55l-46 -55
q-12 -14 -22.5 -19t-30.5 -5z" />
    <glyph glyph-name="uni1EBF" unicode="&#x1ebf;" horiz-adv-x="539" 
d="M301 -7q-128 0 -189 67.5t-61 197.5q0 92 28 152t81 90t127 30q72 0 118 -32t68.5 -90t22.5 -139q0 -6 -7 -17t-16 -20t-15 -9h-299q6 -76 41 -110.5t102 -34.5q41 0 69.5 10t46 19.5t23.5 9.5q8 0 17 -11.5t16 -25t7 -20.5q0 -12 -15.5 -24t-41.5 -21.5t-58 -15.5
t-65 -6zM159 303h232q0 69 -26 105.5t-80 36.5q-55 0 -87 -34.5t-39 -107.5zM178 575q-27 0 -27 13q0 5 3.5 11.5t7.5 16.5l41 76q8 14 20 20t43 6h20q32 0 44 -6.5t19 -19.5l41 -76q5 -10 8.5 -16.5t3.5 -11.5q0 -13 -28 -13q-19 0 -29 5t-22 19l-46 55l-46 -55
q-12 -14 -22.5 -19t-30.5 -5zM234 752q-15 0 -21.5 3.5t-6.5 9.5q0 5 3.5 11.5t8.5 16.5l40 75q5 9 11.5 15t20 9t36.5 3q25 0 37.5 -3.5t12.5 -12.5q0 -8 -6 -17t-19 -24l-55 -60q-14 -17 -28 -21.5t-34 -4.5z" />
    <glyph glyph-name="uni1EC7" unicode="&#x1ec7;" horiz-adv-x="539" 
d="M301 -7q-128 0 -189 67.5t-61 197.5q0 92 28 152t81 90t127 30q72 0 118 -32t68.5 -90t22.5 -139q0 -6 -7 -17t-16 -20t-15 -9h-299q6 -76 41 -110.5t102 -34.5q41 0 69.5 10t46 19.5t23.5 9.5q8 0 17 -11.5t16 -25t7 -20.5q0 -12 -15.5 -24t-41.5 -21.5t-58 -15.5
t-65 -6zM159 303h232q0 69 -26 105.5t-80 36.5q-55 0 -87 -34.5t-39 -107.5zM269 -183q-46 0 -46 25v53q0 12 11 18.5t37 6.5q46 0 46 -25v-53q0 -12 -11 -18.5t-37 -6.5zM178 575q-27 0 -27 13q0 5 3.5 11.5t7.5 16.5l41 76q8 14 20 20t43 6h20q32 0 44 -6.5t19 -19.5
l41 -76q5 -10 8.5 -16.5t3.5 -11.5q0 -13 -28 -13q-19 0 -29 5t-22 19l-46 55l-46 -55q-12 -14 -22.5 -19t-30.5 -5z" />
    <glyph glyph-name="uni1EC1" unicode="&#x1ec1;" horiz-adv-x="539" 
d="M301 -7q-128 0 -189 67.5t-61 197.5q0 92 28 152t81 90t127 30q72 0 118 -32t68.5 -90t22.5 -139q0 -6 -7 -17t-16 -20t-15 -9h-299q6 -76 41 -110.5t102 -34.5q41 0 69.5 10t46 19.5t23.5 9.5q8 0 17 -11.5t16 -25t7 -20.5q0 -12 -15.5 -24t-41.5 -21.5t-58 -15.5
t-65 -6zM159 303h232q0 69 -26 105.5t-80 36.5q-55 0 -87 -34.5t-39 -107.5zM178 575q-27 0 -27 13q0 5 3.5 11.5t7.5 16.5l41 76q8 14 20 20t43 6h20q32 0 44 -6.5t19 -19.5l41 -76q5 -10 8.5 -16.5t3.5 -11.5q0 -13 -28 -13q-19 0 -29 5t-22 19l-46 55l-46 -55
q-12 -14 -22.5 -19t-30.5 -5zM296 752q-21 0 -34.5 4.5t-28.5 21.5l-55 60q-13 15 -18.5 24t-5.5 17q0 9 12.5 12.5t36.5 3.5t37 -3t20 -9t12 -15l40 -75q5 -10 8 -16.5t3 -11.5q0 -6 -6 -9.5t-21 -3.5z" />
    <glyph glyph-name="uni1EC3" unicode="&#x1ec3;" horiz-adv-x="539" 
d="M301 -7q-128 0 -189 67.5t-61 197.5q0 92 28 152t81 90t127 30q72 0 118 -32t68.5 -90t22.5 -139q0 -6 -7 -17t-16 -20t-15 -9h-299q6 -76 41 -110.5t102 -34.5q41 0 69.5 10t46 19.5t23.5 9.5q8 0 17 -11.5t16 -25t7 -20.5q0 -12 -15.5 -24t-41.5 -21.5t-58 -15.5
t-65 -6zM159 303h232q0 69 -26 105.5t-80 36.5q-55 0 -87 -34.5t-39 -107.5zM178 575q-27 0 -27 13q0 5 3.5 11.5t7.5 16.5l41 76q8 14 20 20t43 6h20q32 0 44 -6.5t19 -19.5l41 -76q5 -10 8.5 -16.5t3.5 -11.5q0 -13 -28 -13q-19 0 -29 5t-22 19l-46 55l-46 -55
q-12 -14 -22.5 -19t-30.5 -5zM270 742q-10 0 -24 7t-14 14t10 15l22.5 18t22 22.5t9.5 29.5q0 13 -11 19t-25 6q-21 0 -30.5 -6t-14.5 -6q-6 0 -15.5 13.5t-9.5 21.5q0 7 12 14t30.5 12t35.5 5q23 0 45.5 -7t37 -23t14.5 -43q0 -24 -12 -44t-29 -35t-32.5 -24t-21.5 -9z" />
    <glyph glyph-name="uni1EC5" unicode="&#x1ec5;" horiz-adv-x="539" 
d="M301 -7q-128 0 -189 67.5t-61 197.5q0 92 28 152t81 90t127 30q72 0 118 -32t68.5 -90t22.5 -139q0 -6 -7 -17t-16 -20t-15 -9h-299q6 -76 41 -110.5t102 -34.5q41 0 69.5 10t46 19.5t23.5 9.5q8 0 17 -11.5t16 -25t7 -20.5q0 -12 -15.5 -24t-41.5 -21.5t-58 -15.5
t-65 -6zM159 303h232q0 69 -26 105.5t-80 36.5q-55 0 -87 -34.5t-39 -107.5zM178 575q-27 0 -27 13q0 5 3.5 11.5t7.5 16.5l41 76q8 14 20 20t43 6h20q32 0 44 -6.5t19 -19.5l41 -76q5 -10 8.5 -16.5t3.5 -11.5q0 -13 -28 -13q-19 0 -29 5t-22 19l-46 55l-46 -55
q-12 -14 -22.5 -19t-30.5 -5zM130 766q-4 0 -12.5 2.5t-15.5 8t-7 11.5q0 7 4 15q14 36 38 52.5t57 16.5q24 0 48 -8.5t47.5 -17t44.5 -8.5t31 9t16.5 18t15.5 9q4 0 12.5 -3.5t16 -8.5t7.5 -11q0 -3 -1 -7t-4 -10q-16 -32 -38.5 -49t-57.5 -17q-24 0 -49.5 8.5t-49 17.5
t-41.5 9t-29 -9t-17.5 -18.5t-15.5 -9.5z" />
    <glyph glyph-name="uni0205" unicode="&#x205;" horiz-adv-x="539" 
d="M301 -7q-128 0 -189 67.5t-61 197.5q0 92 28 152t81 90t127 30q72 0 118 -32t68.5 -90t22.5 -139q0 -6 -7 -17t-16 -20t-15 -9h-299q6 -76 41 -110.5t102 -34.5q41 0 69.5 10t46 19.5t23.5 9.5q8 0 17 -11.5t16 -25t7 -20.5q0 -12 -15.5 -24t-41.5 -21.5t-58 -15.5
t-65 -6zM159 303h232q0 69 -26 105.5t-80 36.5q-55 0 -87 -34.5t-39 -107.5zM230 575q-20 0 -34 4.5t-28 21.5l-55 60q-13 15 -19 24t-6 17q0 9 13 12.5t37 3.5t37 -3t20 -9t11 -15l40 -75q6 -10 9 -16.5t3 -11.5q0 -6 -6 -9.5t-22 -3.5zM386 575q-20 0 -34 4.5t-28 21.5
l-55 60q-13 15 -19 24t-6 17q0 9 13 12.5t37 3.5t37 -3t20 -9t11 -15l40 -75q6 -10 9 -16.5t3 -11.5q0 -6 -6 -9.5t-22 -3.5z" />
    <glyph glyph-name="edieresis" unicode="&#xeb;" horiz-adv-x="539" 
d="M301 -7q-128 0 -189 67.5t-61 197.5q0 92 28 152t81 90t127 30q72 0 118 -32t68.5 -90t22.5 -139q0 -6 -7 -17t-16 -20t-15 -9h-299q6 -76 41 -110.5t102 -34.5q41 0 69.5 10t46 19.5t23.5 9.5q8 0 17 -11.5t16 -25t7 -20.5q0 -12 -15.5 -24t-41.5 -21.5t-58 -15.5
t-65 -6zM159 303h232q0 69 -26 105.5t-80 36.5q-55 0 -87 -34.5t-39 -107.5zM356 592q-26 0 -37.5 6.5t-11.5 18.5v59q0 12 11.5 18t37.5 6t37.5 -6t11.5 -18v-59q0 -12 -11.5 -18.5t-37.5 -6.5zM197 592q-26 0 -37.5 6.5t-11.5 18.5v59q0 12 11.5 18t37.5 6t37.5 -6
t11.5 -18v-59q0 -12 -11.5 -18.5t-37.5 -6.5z" />
    <glyph glyph-name="edotaccent" unicode="&#x117;" horiz-adv-x="539" 
d="M301 -7q-128 0 -189 67.5t-61 197.5q0 92 28 152t81 90t127 30q72 0 118 -32t68.5 -90t22.5 -139q0 -6 -7 -17t-16 -20t-15 -9h-299q6 -76 41 -110.5t102 -34.5q41 0 69.5 10t46 19.5t23.5 9.5q8 0 17 -11.5t16 -25t7 -20.5q0 -12 -15.5 -24t-41.5 -21.5t-58 -15.5
t-65 -6zM159 303h232q0 69 -26 105.5t-80 36.5q-55 0 -87 -34.5t-39 -107.5zM276 589q-28 0 -40 6.5t-12 18.5v65q0 12 12 18.5t40 6.5q29 0 41 -6.5t12 -18.5v-65q0 -12 -12 -18.5t-41 -6.5z" />
    <glyph glyph-name="uni1EB9" unicode="&#x1eb9;" horiz-adv-x="539" 
d="M301 -7q-128 0 -189 67.5t-61 197.5q0 92 28 152t81 90t127 30q72 0 118 -32t68.5 -90t22.5 -139q0 -6 -7 -17t-16 -20t-15 -9h-299q6 -76 41 -110.5t102 -34.5q41 0 69.5 10t46 19.5t23.5 9.5q8 0 17 -11.5t16 -25t7 -20.5q0 -12 -15.5 -24t-41.5 -21.5t-58 -15.5
t-65 -6zM159 303h232q0 69 -26 105.5t-80 36.5q-55 0 -87 -34.5t-39 -107.5zM269 -183q-46 0 -46 25v53q0 12 11 18.5t37 6.5q46 0 46 -25v-53q0 -12 -11 -18.5t-37 -6.5z" />
    <glyph glyph-name="egrave" unicode="&#xe8;" horiz-adv-x="539" 
d="M301 -7q-128 0 -189 67.5t-61 197.5q0 92 28 152t81 90t127 30q72 0 118 -32t68.5 -90t22.5 -139q0 -6 -7 -17t-16 -20t-15 -9h-299q6 -76 41 -110.5t102 -34.5q41 0 69.5 10t46 19.5t23.5 9.5q8 0 17 -11.5t16 -25t7 -20.5q0 -12 -15.5 -24t-41.5 -21.5t-58 -15.5
t-65 -6zM159 303h232q0 69 -26 105.5t-80 36.5q-55 0 -87 -34.5t-39 -107.5zM296 575q-21 0 -34.5 4.5t-28.5 21.5l-55 60q-13 15 -18.5 24t-5.5 17q0 9 12.5 12.5t36.5 3.5t37 -3t20 -9t12 -15l40 -75q5 -10 8 -16.5t3 -11.5q0 -6 -6 -9.5t-21 -3.5z" />
    <glyph glyph-name="uni1EBB" unicode="&#x1ebb;" horiz-adv-x="539" 
d="M301 -7q-128 0 -189 67.5t-61 197.5q0 92 28 152t81 90t127 30q72 0 118 -32t68.5 -90t22.5 -139q0 -6 -7 -17t-16 -20t-15 -9h-299q6 -76 41 -110.5t102 -34.5q41 0 69.5 10t46 19.5t23.5 9.5q8 0 17 -11.5t16 -25t7 -20.5q0 -12 -15.5 -24t-41.5 -21.5t-58 -15.5
t-65 -6zM159 303h232q0 69 -26 105.5t-80 36.5q-55 0 -87 -34.5t-39 -107.5zM270 565q-10 0 -24 7t-14 14t10 15l22.5 18t22 22.5t9.5 29.5q0 13 -11 19t-25 6q-21 0 -30.5 -6t-14.5 -6q-6 0 -15.5 13.5t-9.5 21.5q0 7 12 14t30.5 12t35.5 5q23 0 45.5 -7t37 -23t14.5 -43
q0 -24 -12 -44t-29 -35t-32.5 -24t-21.5 -9z" />
    <glyph glyph-name="uni0207" unicode="&#x207;" horiz-adv-x="539" 
d="M301 -7q-128 0 -189 67.5t-61 197.5q0 92 28 152t81 90t127 30q72 0 118 -32t68.5 -90t22.5 -139q0 -6 -7 -17t-16 -20t-15 -9h-299q6 -76 41 -110.5t102 -34.5q41 0 69.5 10t46 19.5t23.5 9.5q8 0 17 -11.5t16 -25t7 -20.5q0 -12 -15.5 -24t-41.5 -21.5t-58 -15.5
t-65 -6zM159 303h232q0 69 -26 105.5t-80 36.5q-55 0 -87 -34.5t-39 -107.5zM276 716q-37 0 -67.5 -13.5t-49 -37t-18.5 -56.5q0 -14 5.5 -19.5t17.5 -5.5q9 0 14 3t9 10q5 12 12.5 22t25.5 17t51 7q35 0 52.5 -7t25.5 -17.5t12 -21.5q3 -7 8.5 -10t13.5 -3q12 0 17.5 5.5
t5.5 19.5q0 33 -17.5 56.5t-48 37t-69.5 13.5z" />
    <glyph glyph-name="emacron" unicode="&#x113;" horiz-adv-x="539" 
d="M301 -7q-128 0 -189 67.5t-61 197.5q0 92 28 152t81 90t127 30q72 0 118 -32t68.5 -90t22.5 -139q0 -6 -7 -17t-16 -20t-15 -9h-299q6 -76 41 -110.5t102 -34.5q41 0 69.5 10t46 19.5t23.5 9.5q8 0 17 -11.5t16 -25t7 -20.5q0 -12 -15.5 -24t-41.5 -21.5t-58 -15.5
t-65 -6zM159 303h232q0 69 -26 105.5t-80 36.5q-55 0 -87 -34.5t-39 -107.5zM165 608q-23 0 -23 33v11q0 33 23 33h222q23 0 23 -33v-11q0 -33 -23 -33h-222z" />
    <glyph glyph-name="eogonek" unicode="&#x119;" horiz-adv-x="539" 
d="M301 -7q-128 0 -189 67.5t-61 197.5q0 92 28 152t81 90t127 30q72 0 118 -32t68.5 -90t22.5 -139q0 -6 -7 -17t-16 -20t-15 -9h-299q6 -76 41 -110.5t102 -34.5q41 0 69.5 10t46 19.5t23.5 9.5q8 0 17 -11.5t16 -25t7 -20.5q0 -12 -15.5 -24t-41.5 -21.5t-58 -15.5
t-65 -6zM159 303h232q0 69 -26 105.5t-80 36.5q-55 0 -87 -34.5t-39 -107.5zM339 -187q-51 0 -77.5 24t-26.5 60q0 32 24 66t71 54l52 -7q-36 -19 -54 -45.5t-18 -46.5q0 -13 9.5 -21.5t28.5 -8.5q20 0 30 5t22 5q11 0 17 -13t6 -30q0 -14 -13.5 -23.5t-33 -14t-37.5 -4.5z
" />
    <glyph glyph-name="uni1EBD" unicode="&#x1ebd;" horiz-adv-x="539" 
d="M301 -7q-128 0 -189 67.5t-61 197.5q0 92 28 152t81 90t127 30q72 0 118 -32t68.5 -90t22.5 -139q0 -6 -7 -17t-16 -20t-15 -9h-299q6 -76 41 -110.5t102 -34.5q41 0 69.5 10t46 19.5t23.5 9.5q8 0 17 -11.5t16 -25t7 -20.5q0 -12 -15.5 -24t-41.5 -21.5t-58 -15.5
t-65 -6zM159 303h232q0 69 -26 105.5t-80 36.5q-55 0 -87 -34.5t-39 -107.5zM130 589q-4 0 -12.5 2.5t-15.5 8t-7 11.5q0 7 4 15q14 36 38 52.5t57 16.5q24 0 48 -8.5t47.5 -17t44.5 -8.5t31 9t16.5 18t15.5 9q4 0 12.5 -3.5t16 -8.5t7.5 -11q0 -3 -1 -7t-4 -10
q-16 -32 -38.5 -49t-57.5 -17q-24 0 -49.5 8.5t-49 17.5t-41.5 9t-29 -9t-17.5 -18.5t-15.5 -9.5z" />
    <glyph glyph-name="uni0259" unicode="&#x259;" horiz-adv-x="539" 
d="M238 530q128 0 189 -67.5t61 -197.5q0 -91 -28 -151.5t-80.5 -90.5t-127.5 -30q-71 0 -117.5 32t-69 90t-22.5 139q0 6 7 17t16 20t15 9h299q-6 76 -41 110.5t-102 34.5q-40 0 -69 -10t-46.5 -19.5t-23.5 -9.5q-8 0 -17 11.5t-16 25.5t-7 20q0 12 16 24t41.5 21.5
t57.5 15.5t65 6zM380 220h-232q0 -69 26.5 -105.5t79.5 -36.5q55 0 87 34.5t39 107.5z" />
    <glyph glyph-name="f" unicode="f" horiz-adv-x="325" 
d="M145 -2q-45 0 -45 25v415h-34q-23 0 -23 36v13q0 36 23 36h34v89q0 44 12 72t31.5 44.5t43 22.5t47.5 6q14 0 33 -2t33 -9.5t14 -23.5q0 -4 -2.5 -17.5t-8 -25.5t-13.5 -12q-6 0 -13.5 2.5t-25.5 2.5q-14 0 -25 -5t-17.5 -18.5t-6.5 -41.5v-84h76q23 0 23 -36v-13
q0 -36 -23 -36h-76v-415q0 -25 -46 -25h-11z" />
    <glyph glyph-name="g" unicode="g" horiz-adv-x="546" 
d="M256 -212q-65 0 -113 13.5t-74 43t-26 76.5q0 43 24.5 75t63.5 48l1 3q-18 13 -29 33t-11 47q0 31 14.5 54t41.5 40q-41 21 -63 57.5t-22 83.5q0 52 24.5 89t70 58t108.5 21q17 0 33 -2t31 -5h176q23 0 23 -36v-13q0 -35 -22 -35q-10 0 -32 2t-36 5l-1 -2
q16 -19 22.5 -39t6.5 -43q0 -50 -24 -87t-68 -57.5t-107 -20.5q-44 0 -64 -12.5t-20 -40.5q0 -26 23 -38t58.5 -16.5t74.5 -9.5q43 -6 79.5 -20t58 -41t21.5 -75t-28 -83t-82.5 -54t-132.5 -19zM267 -129q68 0 101 17t33 52q0 25 -19 37t-50 17.5t-66.5 9t-68.5 11.5
q-24 -11 -40.5 -29.5t-16.5 -46.5q0 -35 29.5 -51.5t97.5 -16.5zM265 277q43 0 74 19t31 67t-31 67t-74 19t-73.5 -19t-30.5 -67t30.5 -67t73.5 -19z" />
    <glyph glyph-name="gbreve" unicode="&#x11f;" horiz-adv-x="546" 
d="M256 -212q-65 0 -113 13.5t-74 43t-26 76.5q0 43 24.5 75t63.5 48l1 3q-18 13 -29 33t-11 47q0 31 14.5 54t41.5 40q-41 21 -63 57.5t-22 83.5q0 52 24.5 89t70 58t108.5 21q17 0 33 -2t31 -5h176q23 0 23 -36v-13q0 -35 -22 -35q-10 0 -32 2t-36 5l-1 -2
q16 -19 22.5 -39t6.5 -43q0 -50 -24 -87t-68 -57.5t-107 -20.5q-44 0 -64 -12.5t-20 -40.5q0 -26 23 -38t58.5 -16.5t74.5 -9.5q43 -6 79.5 -20t58 -41t21.5 -75t-28 -83t-82.5 -54t-132.5 -19zM267 -129q68 0 101 17t33 52q0 25 -19 37t-50 17.5t-66.5 9t-68.5 11.5
q-24 -11 -40.5 -29.5t-16.5 -46.5q0 -35 29.5 -51.5t97.5 -16.5zM265 277q43 0 74 19t31 67t-31 67t-74 19t-73.5 -19t-30.5 -67t30.5 -67t73.5 -19zM273 581q-37 0 -67.5 13.5t-49.5 37.5t-19 56q0 14 6 20t17 6q10 0 15 -3t8 -11q5 -11 13 -21.5t25.5 -17.5t51.5 -7
q35 0 52.5 7t25.5 18t12 21q3 8 8.5 11t13.5 3q12 0 17.5 -6t5.5 -20q0 -32 -18 -56t-48 -37.5t-69 -13.5z" />
    <glyph glyph-name="gcaron" unicode="&#x1e7;" horiz-adv-x="546" 
d="M256 -212q-65 0 -113 13.5t-74 43t-26 76.5q0 43 24.5 75t63.5 48l1 3q-18 13 -29 33t-11 47q0 31 14.5 54t41.5 40q-41 21 -63 57.5t-22 83.5q0 52 24.5 89t70 58t108.5 21q17 0 33 -2t31 -5h176q23 0 23 -36v-13q0 -35 -22 -35q-10 0 -32 2t-36 5l-1 -2
q16 -19 22.5 -39t6.5 -43q0 -50 -24 -87t-68 -57.5t-107 -20.5q-44 0 -64 -12.5t-20 -40.5q0 -26 23 -38t58.5 -16.5t74.5 -9.5q43 -6 79.5 -20t58 -41t21.5 -75t-28 -83t-82.5 -54t-132.5 -19zM267 -129q68 0 101 17t33 52q0 25 -19 37t-50 17.5t-66.5 9t-68.5 11.5
q-24 -11 -40.5 -29.5t-16.5 -46.5q0 -35 29.5 -51.5t97.5 -16.5zM265 277q43 0 74 19t31 67t-31 67t-74 19t-73.5 -19t-30.5 -67t30.5 -67t73.5 -19zM263 575q-31 0 -43.5 6t-19.5 20l-41 76q-5 10 -8.5 16.5t-3.5 10.5q0 14 28 14q19 0 30 -5t23 -19l46 -55l46 55
q12 14 22 19t29 5q28 0 28 -14q0 -4 -3.5 -10.5t-8.5 -16.5l-41 -76q-7 -13 -19.5 -19.5t-43.5 -6.5h-20z" />
    <glyph glyph-name="gcircumflex" unicode="&#x11d;" horiz-adv-x="546" 
d="M256 -212q-65 0 -113 13.5t-74 43t-26 76.5q0 43 24.5 75t63.5 48l1 3q-18 13 -29 33t-11 47q0 31 14.5 54t41.5 40q-41 21 -63 57.5t-22 83.5q0 52 24.5 89t70 58t108.5 21q17 0 33 -2t31 -5h176q23 0 23 -36v-13q0 -35 -22 -35q-10 0 -32 2t-36 5l-1 -2
q16 -19 22.5 -39t6.5 -43q0 -50 -24 -87t-68 -57.5t-107 -20.5q-44 0 -64 -12.5t-20 -40.5q0 -26 23 -38t58.5 -16.5t74.5 -9.5q43 -6 79.5 -20t58 -41t21.5 -75t-28 -83t-82.5 -54t-132.5 -19zM267 -129q68 0 101 17t33 52q0 25 -19 37t-50 17.5t-66.5 9t-68.5 11.5
q-24 -11 -40.5 -29.5t-16.5 -46.5q0 -35 29.5 -51.5t97.5 -16.5zM265 277q43 0 74 19t31 67t-31 67t-74 19t-73.5 -19t-30.5 -67t30.5 -67t73.5 -19zM175 575q-28 0 -28 13q0 5 3.5 11.5t8.5 16.5l41 76q7 14 19.5 20t43.5 6h19q32 0 44.5 -6.5t19.5 -19.5l41 -76
q5 -10 8 -16.5t3 -11.5q0 -13 -27 -13q-19 0 -29 5t-23 19l-46 55l-46 -55q-12 -14 -22.5 -19t-29.5 -5z" />
    <glyph glyph-name="uni0123" unicode="&#x123;" horiz-adv-x="546" 
d="M256 -212q-65 0 -113 13.5t-74 43t-26 76.5q0 43 24.5 75t63.5 48l1 3q-18 13 -29 33t-11 47q0 31 14.5 54t41.5 40q-41 21 -63 57.5t-22 83.5q0 52 24.5 89t70 58t108.5 21q17 0 33 -2t31 -5h176q23 0 23 -36v-13q0 -35 -22 -35q-10 0 -32 2t-36 5l-1 -2
q16 -19 22.5 -39t6.5 -43q0 -50 -24 -87t-68 -57.5t-107 -20.5q-44 0 -64 -12.5t-20 -40.5q0 -26 23 -38t58.5 -16.5t74.5 -9.5q43 -6 79.5 -20t58 -41t21.5 -75t-28 -83t-82.5 -54t-132.5 -19zM267 -129q68 0 101 17t33 52q0 25 -19 37t-50 17.5t-66.5 9t-68.5 11.5
q-24 -11 -40.5 -29.5t-16.5 -46.5q0 -35 29.5 -51.5t97.5 -16.5zM265 277q43 0 74 19t31 67t-31 67t-74 19t-73.5 -19t-30.5 -67t30.5 -67t73.5 -19zM259 599q-21 0 -32 9t-11 23q0 33 11 61t28.5 48.5t35 32t29.5 11.5q10 0 22 -3.5t12 -13.5t-9 -26.5t-19 -42t-10 -64.5
q0 -16 -11 -25.5t-34 -9.5h-12z" />
    <glyph glyph-name="gdotaccent" unicode="&#x121;" horiz-adv-x="546" 
d="M256 -212q-65 0 -113 13.5t-74 43t-26 76.5q0 43 24.5 75t63.5 48l1 3q-18 13 -29 33t-11 47q0 31 14.5 54t41.5 40q-41 21 -63 57.5t-22 83.5q0 52 24.5 89t70 58t108.5 21q17 0 33 -2t31 -5h176q23 0 23 -36v-13q0 -35 -22 -35q-10 0 -32 2t-36 5l-1 -2
q16 -19 22.5 -39t6.5 -43q0 -50 -24 -87t-68 -57.5t-107 -20.5q-44 0 -64 -12.5t-20 -40.5q0 -26 23 -38t58.5 -16.5t74.5 -9.5q43 -6 79.5 -20t58 -41t21.5 -75t-28 -83t-82.5 -54t-132.5 -19zM267 -129q68 0 101 17t33 52q0 25 -19 37t-50 17.5t-66.5 9t-68.5 11.5
q-24 -11 -40.5 -29.5t-16.5 -46.5q0 -35 29.5 -51.5t97.5 -16.5zM265 277q43 0 74 19t31 67t-31 67t-74 19t-73.5 -19t-30.5 -67t30.5 -67t73.5 -19zM273 589q-28 0 -40.5 6.5t-12.5 18.5v65q0 12 12.5 18.5t40.5 6.5t40.5 -6.5t12.5 -18.5v-65q0 -12 -12.5 -18.5
t-40.5 -6.5z" />
    <glyph glyph-name="h" unicode="h" horiz-adv-x="565" 
d="M130 -2q-45 0 -45 25v705q0 25 45 25h11q46 0 46 -25v-267q25 26 63.5 47.5t85.5 21.5q29 0 56.5 -7.5t50.5 -25.5t36.5 -49.5t13.5 -79.5v-345q0 -25 -46 -25h-10q-46 0 -46 25v333q0 39 -22.5 62.5t-68.5 23.5q-25 0 -45 -9t-35 -21.5t-23.5 -22.5t-9.5 -13v-353
q0 -25 -46 -25h-11z" />
    <glyph glyph-name="hbar" unicode="&#x127;" horiz-adv-x="565" 
d="M28 592q-28 0 -28 33v11q0 33 28 33h301q29 0 29 -33v-11q0 -33 -29 -33h-301zM130 -2q-45 0 -45 25v705q0 25 45 25h11q46 0 46 -25v-267q25 26 63.5 47.5t85.5 21.5q29 0 56.5 -7.5t50.5 -25.5t36.5 -49.5t13.5 -79.5v-345q0 -25 -46 -25h-10q-46 0 -46 25v333
q0 39 -22.5 62.5t-68.5 23.5q-25 0 -45 -9t-35 -21.5t-23.5 -22.5t-9.5 -13v-353q0 -25 -46 -25h-11z" />
    <glyph glyph-name="hcircumflex" unicode="&#x125;" horiz-adv-x="565" 
d="M130 -2q-45 0 -45 25v705q0 25 45 25h11q46 0 46 -25v-267q25 26 63.5 47.5t85.5 21.5q29 0 56.5 -7.5t50.5 -25.5t36.5 -49.5t13.5 -79.5v-345q0 -25 -46 -25h-10q-46 0 -46 25v333q0 39 -22.5 62.5t-68.5 23.5q-25 0 -45 -9t-35 -21.5t-23.5 -22.5t-9.5 -13v-353
q0 -25 -46 -25h-11zM28 768q-16 0 -21.5 3t-5.5 7t2.5 9t13.5 17l53 57q11 13 22 18t34 5h20q23 0 33 -4.5t23 -18.5l51 -56q13 -13 15.5 -18t2.5 -9t-5.5 -7t-22.5 -3q-11 0 -23 3.5t-22 10.5l-62 39l-60 -38q-12 -7 -24.5 -11t-23.5 -4z" />
    <glyph glyph-name="uni1E25" unicode="&#x1e25;" horiz-adv-x="565" 
d="M130 -2q-45 0 -45 25v705q0 25 45 25h11q46 0 46 -25v-267q25 26 63.5 47.5t85.5 21.5q29 0 56.5 -7.5t50.5 -25.5t36.5 -49.5t13.5 -79.5v-345q0 -25 -46 -25h-10q-46 0 -46 25v333q0 39 -22.5 62.5t-68.5 23.5q-25 0 -45 -9t-35 -21.5t-23.5 -22.5t-9.5 -13v-353
q0 -25 -46 -25h-11zM280 -183q-45 0 -45 25v53q0 12 11 18.5t37 6.5q46 0 46 -25v-53q0 -12 -11 -18.5t-38 -6.5z" />
    <glyph glyph-name="i" unicode="i" horiz-adv-x="265" 
d="M128 -2q-46 0 -46 25v477q0 25 46 25h10q46 0 46 -25v-477q0 -25 -46 -25h-10zM133 589q-28 0 -40.5 6.5t-12.5 18.5v65q0 12 12.5 18.5t40.5 6.5t40.5 -6.5t12.5 -18.5v-65q0 -12 -12.5 -18.5t-40.5 -6.5z" />
    <glyph glyph-name="dotlessi" unicode="&#x131;" horiz-adv-x="265" 
d="M128 -2q-46 0 -46 25v477q0 25 46 25h10q46 0 46 -25v-477q0 -25 -46 -25h-10z" />
    <glyph glyph-name="iacute" unicode="&#xed;" horiz-adv-x="265" 
d="M128 -2q-46 0 -46 25v477q0 25 46 25h10q46 0 46 -25v-477q0 -25 -46 -25h-10zM90 575q-15 0 -21 3.5t-6 9.5q0 5 3.5 11.5t7.5 16.5l40 75q6 9 12.5 15t19.5 9t37 3q25 0 37 -3.5t12 -12.5q0 -8 -5.5 -17t-18.5 -24l-55 -60q-15 -17 -28.5 -21.5t-34.5 -4.5z" />
    <glyph glyph-name="ibreve" unicode="&#x12d;" horiz-adv-x="265" 
d="M128 -2q-46 0 -46 25v477q0 25 46 25h10q46 0 46 -25v-477q0 -25 -46 -25h-10zM133 581q-37 0 -67.5 13.5t-49.5 37.5t-19 56q0 14 6 20t17 6q10 0 15 -3t8 -11q5 -11 13 -21.5t25.5 -17.5t51.5 -7q35 0 52.5 7t25.5 18t12 21q3 8 8.5 11t13.5 3q12 0 17.5 -6t5.5 -20
q0 -32 -18 -56t-48 -37.5t-69 -13.5z" />
    <glyph glyph-name="uni01D0" unicode="&#x1d0;" horiz-adv-x="265" 
d="M128 -2q-46 0 -46 25v477q0 25 46 25h10q46 0 46 -25v-477q0 -25 -46 -25h-10zM123 575q-31 0 -43.5 6t-19.5 20l-41 76q-5 10 -8.5 16.5t-3.5 10.5q0 14 28 14q19 0 30 -5t23 -19l46 -55l46 55q12 14 22 19t29 5q28 0 28 -14q0 -4 -3.5 -10.5t-8.5 -16.5l-41 -76
q-7 -13 -19.5 -19.5t-43.5 -6.5h-20z" />
    <glyph glyph-name="icircumflex" unicode="&#xee;" horiz-adv-x="265" 
d="M128 -2q-46 0 -46 25v477q0 25 46 25h10q46 0 46 -25v-477q0 -25 -46 -25h-10zM35 575q-28 0 -28 13q0 5 3.5 11.5t8.5 16.5l41 76q7 14 19.5 20t43.5 6h19q32 0 44.5 -6.5t19.5 -19.5l41 -76q5 -10 8 -16.5t3 -11.5q0 -13 -27 -13q-19 0 -29 5t-23 19l-46 55l-46 -55
q-12 -14 -22.5 -19t-29.5 -5z" />
    <glyph glyph-name="uni0209" unicode="&#x209;" horiz-adv-x="265" 
d="M128 -2q-46 0 -46 25v477q0 25 46 25h10q46 0 46 -25v-477q0 -25 -46 -25h-10zM87 575q-21 0 -34.5 4.5t-28.5 21.5l-55 60q-13 15 -18.5 24t-5.5 17q0 9 12.5 12.5t36.5 3.5t37 -3t20 -9t12 -15l40 -75q5 -10 8 -16.5t3 -11.5q0 -6 -6 -9.5t-21 -3.5zM243 575
q-21 0 -34.5 4.5t-28.5 21.5l-54 60q-14 15 -19.5 24t-5.5 17q0 9 12.5 12.5t36.5 3.5t37 -3t20 -9t12 -15l40 -75q5 -10 8.5 -16.5t3.5 -11.5q0 -6 -6.5 -9.5t-21.5 -3.5z" />
    <glyph glyph-name="idieresis" unicode="&#xef;" horiz-adv-x="265" 
d="M128 -2q-46 0 -46 25v477q0 25 46 25h10q46 0 46 -25v-477q0 -25 -46 -25h-10zM213 592q-26 0 -38 6.5t-12 18.5v59q0 12 12 18t38 6q25 0 37 -6t12 -18v-59q0 -12 -12 -18.5t-37 -6.5zM53 592q-25 0 -37 6.5t-12 18.5v59q0 12 12 18t37 6q26 0 38 -6t12 -18v-59
q0 -12 -12 -18.5t-38 -6.5z" />
    <glyph glyph-name="i.loclTRK" horiz-adv-x="265" 
d="M128 -2q-46 0 -46 25v477q0 25 46 25h10q46 0 46 -25v-477q0 -25 -46 -25h-10zM133 589q-28 0 -40.5 6.5t-12.5 18.5v65q0 12 12.5 18.5t40.5 6.5t40.5 -6.5t12.5 -18.5v-65q0 -12 -12.5 -18.5t-40.5 -6.5z" />
    <glyph glyph-name="uni1ECB" unicode="&#x1ecb;" horiz-adv-x="265" 
d="M128 -2q-46 0 -46 25v477q0 25 46 25h10q46 0 46 -25v-477q0 -25 -46 -25h-10zM133 589q-28 0 -40.5 6.5t-12.5 18.5v65q0 12 12.5 18.5t40.5 6.5t40.5 -6.5t12.5 -18.5v-65q0 -12 -12.5 -18.5t-40.5 -6.5zM130 -183q-46 0 -46 25v53q0 12 11 18.5t37 6.5q46 0 46 -25
v-53q0 -12 -11 -18.5t-37 -6.5z" />
    <glyph glyph-name="igrave" unicode="&#xec;" horiz-adv-x="265" 
d="M128 -2q-46 0 -46 25v477q0 25 46 25h10q46 0 46 -25v-477q0 -25 -46 -25h-10zM152 575q-20 0 -34 4.5t-28 21.5l-55 60q-13 15 -19 24t-6 17q0 9 13 12.5t37 3.5q23 0 36.5 -3t20.5 -9t11 -15l40 -75q5 -10 8.5 -16.5t3.5 -11.5q0 -6 -6 -9.5t-22 -3.5z" />
    <glyph glyph-name="uni1EC9" unicode="&#x1ec9;" horiz-adv-x="265" 
d="M128 -2q-46 0 -46 25v477q0 25 46 25h10q46 0 46 -25v-477q0 -25 -46 -25h-10zM127 565q-11 0 -24.5 7t-13.5 14t9.5 15t22 18t22 22.5t9.5 29.5q0 13 -10.5 19t-24.5 6q-21 0 -30.5 -6t-14.5 -6q-6 0 -16 13.5t-10 21.5q0 7 12.5 14t31 12t35.5 5q22 0 44.5 -7t37.5 -23
t15 -43q0 -24 -12.5 -44t-29.5 -35t-32 -24t-21 -9z" />
    <glyph glyph-name="uni020B" unicode="&#x20b;" horiz-adv-x="265" 
d="M128 -2q-46 0 -46 25v477q0 25 46 25h10q46 0 46 -25v-477q0 -25 -46 -25h-10zM133 716q-37 0 -67.5 -13.5t-49.5 -37t-19 -56.5q0 -14 6 -19.5t17 -5.5q10 0 15 3t8 10q5 12 13 22t25.5 17t51.5 7q35 0 52.5 -7t25.5 -17.5t12 -21.5q3 -7 8.5 -10t13.5 -3q12 0 17.5 5.5
t5.5 19.5q0 33 -18 56.5t-48 37t-69 13.5z" />
    <glyph glyph-name="ij" unicode="&#x133;" horiz-adv-x="541" 
d="M128 -2q-46 0 -46 25v477q0 25 46 25h10q46 0 46 -25v-477q0 -25 -46 -25h-10zM133 589q-28 0 -40.5 6.5t-12.5 18.5v65q0 12 12.5 18.5t40.5 6.5t40.5 -6.5t12.5 -18.5v-65q0 -12 -12.5 -18.5t-40.5 -6.5zM326 -212q-21 0 -40 3t-30.5 11t-11.5 22q0 7 3 19.5t8.5 23.5
t13.5 11q6 0 13.5 -2.5t25.5 -2.5q22 0 35.5 13.5t13.5 51.5v562q0 25 46 25h11q46 0 46 -25v-567q0 -43 -12.5 -71t-32.5 -44t-43.5 -23t-45.5 -7zM408 589q-28 0 -40 6.5t-12 18.5v65q0 12 12 18.5t40 6.5q29 0 41 -6.5t12 -18.5v-65q0 -12 -12 -18.5t-41 -6.5z" />
    <glyph glyph-name="imacron" unicode="&#x12b;" horiz-adv-x="265" 
d="M128 -2q-46 0 -46 25v477q0 25 46 25h10q46 0 46 -25v-477q0 -25 -46 -25h-10zM21 608q-22 0 -22 33v11q0 33 22 33h223q22 0 22 -33v-11q0 -33 -22 -33h-223z" />
    <glyph glyph-name="iogonek" unicode="&#x12f;" horiz-adv-x="265" 
d="M128 -2q-46 0 -46 25v477q0 25 46 25h10q46 0 46 -25v-477q0 -25 -46 -25h-10zM133 589q-28 0 -40.5 6.5t-12.5 18.5v65q0 12 12.5 18.5t40.5 6.5t40.5 -6.5t12.5 -18.5v-65q0 -12 -12.5 -18.5t-40.5 -6.5zM133 -187q-50 0 -77 24t-27 60q0 32 24 66t72 54l51 -7
q-35 -19 -53.5 -45.5t-18.5 -46.5q0 -13 10 -21.5t28 -8.5q20 0 30.5 5t21.5 5t17 -13t6 -30q0 -14 -13.5 -23.5t-33 -14t-37.5 -4.5z" />
    <glyph glyph-name="itilde" unicode="&#x129;" horiz-adv-x="265" 
d="M128 -2q-46 0 -46 25v477q0 25 46 25h10q46 0 46 -25v-477q0 -25 -46 -25h-10zM-13 589q-4 0 -13 2.5t-15.5 8t-6.5 11.5q0 7 3 15q15 36 38.5 52.5t56.5 16.5q25 0 49 -8.5t47.5 -17t44.5 -8.5q20 0 30.5 9t17 18t14.5 9q5 0 13.5 -3.5t15.5 -8.5t7 -11q0 -3 -1 -7
t-4 -10q-15 -32 -37.5 -49t-57.5 -17q-24 0 -49.5 8.5t-49 17.5t-42.5 9q-18 0 -28.5 -9t-17 -18.5t-15.5 -9.5z" />
    <glyph glyph-name="j" unicode="j" horiz-adv-x="276" 
d="M61 -212q-21 0 -40 3t-30.5 11t-11.5 22q0 7 3 19.5t8.5 23.5t13.5 11q6 0 13.5 -2.5t25.5 -2.5q22 0 35.5 13.5t13.5 51.5v562q0 25 46 25h11q46 0 46 -25v-567q0 -43 -12.5 -71t-32.5 -44t-43.5 -23t-45.5 -7zM143 589q-28 0 -40 6.5t-12 18.5v65q0 12 12 18.5t40 6.5
q29 0 41 -6.5t12 -18.5v-65q0 -12 -12 -18.5t-41 -6.5z" />
    <glyph glyph-name="uni0237" unicode="&#x237;" horiz-adv-x="276" 
d="M61 -212q-21 0 -40 3t-30.5 11t-11.5 22q0 7 3 19.5t8.5 23.5t13.5 11q6 0 13.5 -2.5t25.5 -2.5q22 0 35.5 13.5t13.5 51.5v562q0 25 46 25h11q46 0 46 -25v-567q0 -43 -12.5 -71t-32.5 -44t-43.5 -23t-45.5 -7z" />
    <glyph glyph-name="jcircumflex" unicode="&#x135;" horiz-adv-x="276" 
d="M61 -212q-21 0 -40 3t-30.5 11t-11.5 22q0 7 3 19.5t8.5 23.5t13.5 11q6 0 13.5 -2.5t25.5 -2.5q22 0 35.5 13.5t13.5 51.5v562q0 25 46 25h11q46 0 46 -25v-567q0 -43 -12.5 -71t-32.5 -44t-43.5 -23t-45.5 -7zM45 575q-28 0 -28 13q0 5 3.5 11.5t8.5 16.5l41 76
q7 14 19.5 20t43.5 6h20q31 0 43.5 -6.5t19.5 -19.5l41 -76q5 -10 8.5 -16.5t3.5 -11.5q0 -13 -28 -13q-19 0 -29 5t-22 19l-46 55l-46 -55q-12 -14 -23 -19t-30 -5z" />
    <glyph glyph-name="k" unicode="k" horiz-adv-x="521" 
d="M132 -2q-46 0 -46 25v705q0 25 46 25h11q45 0 45 -25v-433h4l171 215q8 9 23 12t33 3h13q41 0 41 -14q0 -8 -10 -20l-197 -246v65l219 -280q8 -11 8 -18q0 -14 -48 -14h-14q-18 0 -33 2.5t-23 12.5l-183 235l-4 -1v-224q0 -25 -45 -25h-11z" />
    <glyph glyph-name="uni0137" unicode="&#x137;" horiz-adv-x="521" 
d="M132 -2q-46 0 -46 25v705q0 25 46 25h11q45 0 45 -25v-433h4l171 215q8 9 23 12t33 3h13q41 0 41 -14q0 -8 -10 -20l-197 -246v65l219 -280q8 -11 8 -18q0 -14 -48 -14h-14q-18 0 -33 2.5t-23 12.5l-183 235l-4 -1v-224q0 -25 -45 -25h-11zM214 -236q-9 0 -21.5 3.5
t-12.5 13.5q0 11 10 27t19 41.5t9 64.5q0 15 11.5 25t34.5 10h12q21 0 31.5 -9t10.5 -24q0 -32 -11 -60t-28 -48.5t-35 -32t-30 -11.5z" />
    <glyph glyph-name="kgreenlandic" unicode="&#x138;" horiz-adv-x="521" 
d="M130 -2q-46 0 -46 25v478q0 25 46 25h10q46 0 46 -25v-206h4l175 215q8 9 23 12t33 3h13q41 0 41 -14q0 -8 -9 -20l-177 -212l195 -249q9 -11 9 -18q0 -14 -48 -14h-15q-18 0 -33 2.5t-23 12.5l-184 235l-4 -1v-224q0 -25 -46 -25h-10z" />
    <glyph glyph-name="l" unicode="l" horiz-adv-x="297" 
d="M210 -7q-23 0 -46.5 7t-43 23t-31.5 44.5t-12 70.5v590q0 25 45 25h11q46 0 46 -25v-585q0 -38 14 -51.5t35 -13.5q17 0 24.5 2.5t13.5 2.5q8 0 13 -12t8 -25t3 -17q0 -16 -14 -23.5t-32.5 -10t-33.5 -2.5z" />
    <glyph glyph-name="lacute" unicode="&#x13a;" horiz-adv-x="297" 
d="M210 -7q-23 0 -46.5 7t-43 23t-31.5 44.5t-12 70.5v590q0 25 45 25h11q46 0 46 -25v-585q0 -38 14 -51.5t35 -13.5q17 0 24.5 2.5t13.5 2.5q8 0 13 -12t8 -25t3 -17q0 -16 -14 -23.5t-32.5 -10t-33.5 -2.5zM70 771q-30 0 -30 13q0 4 3 9t9 11l54 58q14 15 30.5 20t48.5 5
q26 0 42 -4t16 -14q0 -7 -7 -15t-30 -23l-63 -39q-20 -13 -34 -17t-39 -4z" />
    <glyph glyph-name="lcaron" unicode="&#x13e;" horiz-adv-x="297" 
d="M210 -7q-23 0 -46.5 7t-43 23t-31.5 44.5t-12 70.5v590q0 25 45 25h11q46 0 46 -25v-585q0 -38 14 -51.5t35 -13.5q17 0 24.5 2.5t13.5 2.5q8 0 13 -12t8 -25t3 -17q0 -16 -14 -23.5t-32.5 -10t-33.5 -2.5zM274 576q-9 0 -21 3.5t-12 13.5q0 22 5 51t5 75q0 15 10.5 25
t32.5 10h12q21 0 32 -9t11 -24q0 -41 -13.5 -74t-31 -52t-30.5 -19z" />
    <glyph glyph-name="uni013C" unicode="&#x13c;" horiz-adv-x="297" 
d="M210 -7q-23 0 -46.5 7t-43 23t-31.5 44.5t-12 70.5v590q0 25 45 25h11q46 0 46 -25v-585q0 -38 14 -51.5t35 -13.5q17 0 24.5 2.5t13.5 2.5q8 0 13 -12t8 -25t3 -17q0 -16 -14 -23.5t-32.5 -10t-33.5 -2.5zM133 -236q-9 0 -21 3.5t-12 13.5q0 11 9.5 27t18.5 41.5t9 64.5
q0 15 11.5 25t34.5 10h12q21 0 32 -9t11 -24q0 -32 -11.5 -60t-28.5 -48.5t-35 -32t-30 -11.5z" />
    <glyph glyph-name="ldot" unicode="&#x140;" horiz-adv-x="297" 
d="M277 319q-20 0 -34 14t-14 35t14 35t34 14q21 0 35.5 -14t14.5 -35t-14.5 -35t-35.5 -14zM210 -7q-23 0 -46.5 7t-43 23t-31.5 44.5t-12 70.5v590q0 25 45 25h11q46 0 46 -25v-585q0 -38 14 -51.5t35 -13.5q17 0 24.5 2.5t13.5 2.5q8 0 13 -12t8 -25t3 -17
q0 -16 -14 -23.5t-32.5 -10t-33.5 -2.5z" />
    <glyph glyph-name="uni01C9" unicode="&#x1c9;" horiz-adv-x="573" 
d="M210 -7q-23 0 -46.5 7t-43 23t-31.5 44.5t-12 70.5v590q0 25 45 25h11q46 0 46 -25v-585q0 -38 14 -51.5t35 -13.5q17 0 24.5 2.5t13.5 2.5q8 0 13 -12t8 -25t3 -17q0 -16 -14 -23.5t-32.5 -10t-33.5 -2.5zM358 -212q-21 0 -40 3t-30.5 11t-11.5 22q0 7 3 19.5t8.5 23.5
t13.5 11q6 0 13.5 -2.5t25.5 -2.5q22 0 35.5 13.5t13.5 51.5v562q0 25 46 25h11q46 0 46 -25v-567q0 -43 -12.5 -71t-32.5 -44t-43.5 -23t-45.5 -7zM440 589q-28 0 -40 6.5t-12 18.5v65q0 12 12 18.5t40 6.5q29 0 41 -6.5t12 -18.5v-65q0 -12 -12 -18.5t-41 -6.5z" />
    <glyph glyph-name="lslash" unicode="&#x142;" horiz-adv-x="297" 
d="M38 323q-9 -5 -12 -5q-9 0 -9 16v10q0 22 21 35l183 109q4 2 6.5 3t5.5 1q9 0 9 -16v-10q0 -12 -5 -20t-16 -14zM210 -7q-23 0 -46.5 7t-43 23t-31.5 44.5t-12 70.5v590q0 25 45 25h11q46 0 46 -25v-585q0 -38 14 -51.5t35 -13.5q17 0 24.5 2.5t13.5 2.5q8 0 13 -12
t8 -25t3 -17q0 -16 -14 -23.5t-32.5 -10t-33.5 -2.5z" />
    <glyph glyph-name="m" unicode="m" horiz-adv-x="848" 
d="M124 -2q-46 0 -46 25v341q0 44 -3 71t-6 41t-3 18q0 8 8.5 13t20.5 8t24 4t18 1q13 0 20 -11t10.5 -26.5t6.5 -28.5q24 29 63 52.5t87 23.5q28 0 55 -7t49.5 -25t35.5 -49q27 32 68.5 56.5t89.5 24.5q28 0 55 -7.5t49.5 -25.5t36 -49.5t13.5 -79.5v-345q0 -25 -46 -25
h-11q-46 0 -46 25v333q0 39 -21 62.5t-64 23.5q-26 0 -46.5 -10.5t-36 -25t-23.5 -26t-10 -13.5l-1 47q5 -11 6 -23.5t1 -24.5v-343q0 -25 -46 -25h-10q-46 0 -46 25v333q0 39 -21 62.5t-65 23.5q-23 0 -43 -9t-34.5 -21t-22.5 -22.5t-9 -12.5v-354q0 -25 -46 -25h-11z" />
    <glyph glyph-name="n" unicode="n" horiz-adv-x="557" 
d="M125 -2q-46 0 -46 25v341q0 44 -3 71t-6 41t-3 18q0 8 8.5 13t20.5 8t24 4t18 1q13 0 20 -11t10 -26.5t6 -28.5q29 34 69.5 55t84.5 21q77 0 118 -42t41 -120v-345q0 -25 -46 -25h-11q-46 0 -46 25v333q0 41 -22.5 63.5t-67.5 22.5q-33 0 -62.5 -19t-49.5 -47v-353
q0 -25 -46 -25h-11z" />
    <glyph glyph-name="nacute" unicode="&#x144;" horiz-adv-x="557" 
d="M125 -2q-46 0 -46 25v341q0 44 -3 71t-6 41t-3 18q0 8 8.5 13t20.5 8t24 4t18 1q13 0 20 -11t10 -26.5t6 -28.5q29 34 69.5 55t84.5 21q77 0 118 -42t41 -120v-345q0 -25 -46 -25h-11q-46 0 -46 25v333q0 41 -22.5 63.5t-67.5 22.5q-33 0 -62.5 -19t-49.5 -47v-353
q0 -25 -46 -25h-11zM236 575q-15 0 -21 3.5t-6 9.5q0 5 3.5 11.5t7.5 16.5l40 75q6 9 12.5 15t19.5 9t37 3q25 0 37 -3.5t12 -12.5q0 -8 -5.5 -17t-18.5 -24l-55 -60q-15 -17 -28.5 -21.5t-34.5 -4.5z" />
    <glyph glyph-name="napostrophe" unicode="&#x149;" horiz-adv-x="557" 
d="M6 539q-9 0 -21 3.5t-12 13.5q0 11 9.5 27t18.5 42t9 64q0 16 11.5 26t34.5 10h12q21 0 32 -9t11 -24q0 -33 -11 -61t-28.5 -48.5t-35 -32t-30.5 -11.5zM125 -2q-46 0 -46 25v341q0 44 -3 71t-6 41t-3 18q0 8 8.5 13t20.5 8t24 4t18 1q13 0 20 -11t10 -26.5t6 -28.5
q29 34 69.5 55t84.5 21q77 0 118 -42t41 -120v-345q0 -25 -46 -25h-11q-46 0 -46 25v333q0 41 -22.5 63.5t-67.5 22.5q-33 0 -62.5 -19t-49.5 -47v-353q0 -25 -46 -25h-11z" />
    <glyph glyph-name="ncaron" unicode="&#x148;" horiz-adv-x="557" 
d="M125 -2q-46 0 -46 25v341q0 44 -3 71t-6 41t-3 18q0 8 8.5 13t20.5 8t24 4t18 1q13 0 20 -11t10 -26.5t6 -28.5q29 34 69.5 55t84.5 21q77 0 118 -42t41 -120v-345q0 -25 -46 -25h-11q-46 0 -46 25v333q0 41 -22.5 63.5t-67.5 22.5q-33 0 -62.5 -19t-49.5 -47v-353
q0 -25 -46 -25h-11zM269 575q-31 0 -43.5 6t-19.5 20l-41 76q-5 10 -8.5 16.5t-3.5 10.5q0 14 28 14q19 0 30 -5t23 -19l46 -55l46 55q12 14 22 19t29 5q28 0 28 -14q0 -4 -3.5 -10.5t-8.5 -16.5l-41 -76q-7 -13 -19.5 -19.5t-43.5 -6.5h-20z" />
    <glyph glyph-name="uni0146" unicode="&#x146;" horiz-adv-x="557" 
d="M125 -2q-46 0 -46 25v341q0 44 -3 71t-6 41t-3 18q0 8 8.5 13t20.5 8t24 4t18 1q13 0 20 -11t10 -26.5t6 -28.5q29 34 69.5 55t84.5 21q77 0 118 -42t41 -120v-345q0 -25 -46 -25h-11q-46 0 -46 25v333q0 41 -22.5 63.5t-67.5 22.5q-33 0 -62.5 -19t-49.5 -47v-353
q0 -25 -46 -25h-11zM232 -236q-9 0 -21.5 3.5t-12.5 13.5q0 11 10 27t19 41.5t9 64.5q0 15 11.5 25t34.5 10h12q21 0 31.5 -9t10.5 -24q0 -32 -11 -60t-28 -48.5t-35 -32t-30 -11.5z" />
    <glyph glyph-name="uni1E45" unicode="&#x1e45;" horiz-adv-x="557" 
d="M125 -2q-46 0 -46 25v341q0 44 -3 71t-6 41t-3 18q0 8 8.5 13t20.5 8t24 4t18 1q13 0 20 -11t10 -26.5t6 -28.5q29 34 69.5 55t84.5 21q77 0 118 -42t41 -120v-345q0 -25 -46 -25h-11q-46 0 -46 25v333q0 41 -22.5 63.5t-67.5 22.5q-33 0 -62.5 -19t-49.5 -47v-353
q0 -25 -46 -25h-11zM279 589q-28 0 -40.5 6.5t-12.5 18.5v65q0 12 12.5 18.5t40.5 6.5t40.5 -6.5t12.5 -18.5v-65q0 -12 -12.5 -18.5t-40.5 -6.5z" />
    <glyph glyph-name="eng" unicode="&#x14b;" horiz-adv-x="557" 
d="M353 -212q-20 0 -39 3t-31 11t-12 22q0 7 3.5 19.5t9 23.5t13.5 11q6 0 13.5 -2.5t25.5 -2.5q21 0 35 13.5t14 51.5v418q0 41 -23 63.5t-67 22.5q-33 0 -63 -19t-50 -47v-353q0 -25 -46 -25h-11q-45 0 -45 25v341q0 44 -3 71t-6 41t-3 18q0 8 8.5 13t20.5 8t23.5 4
t17.5 1q14 0 20.5 -11t10 -26.5t6.5 -28.5q29 34 69.5 55t84.5 21q76 0 117 -42t41 -120v-435q0 -43 -12.5 -71t-32.5 -44t-43 -23t-46 -7z" />
    <glyph glyph-name="uni0272" unicode="&#x272;" horiz-adv-x="557" 
d="M48 -212q-21 0 -40 3t-30.5 11t-11.5 22q0 7 3 19.5t8.5 23.5t13.5 11q6 0 13.5 -2.5t25.5 -2.5q22 0 35.5 13.5t13.5 51.5v426q0 44 -3 71t-6 41t-3 18q0 8 8.5 13t20.5 8t24 4t18 1q13 0 20 -11t10 -26.5t6 -28.5q29 34 69.5 55t84.5 21q77 0 118 -42t41 -120v-345
q0 -25 -46 -25h-11q-46 0 -46 25v333q0 41 -22.5 63.5t-67.5 22.5q-33 0 -62.5 -19t-49.5 -47v-443q0 -43 -12.5 -71t-32.5 -44t-43.5 -23t-45.5 -7z" />
    <glyph glyph-name="uni01CC" unicode="&#x1cc;" horiz-adv-x="833" 
d="M125 -2q-46 0 -46 25v341q0 44 -3 71t-6 41t-3 18q0 8 8.5 13t20.5 8t24 4t18 1q13 0 20 -11t10 -26.5t6 -28.5q29 34 69.5 55t84.5 21q77 0 118 -42t41 -120v-345q0 -25 -46 -25h-11q-46 0 -46 25v333q0 41 -22.5 63.5t-67.5 22.5q-33 0 -62.5 -19t-49.5 -47v-353
q0 -25 -46 -25h-11zM618 -212q-21 0 -40 3t-30.5 11t-11.5 22q0 7 3 19.5t8.5 23.5t13.5 11q6 0 13.5 -2.5t25.5 -2.5q22 0 35.5 13.5t13.5 51.5v562q0 25 46 25h11q46 0 46 -25v-567q0 -43 -12.5 -71t-32.5 -44t-43.5 -23t-45.5 -7zM700 589q-28 0 -40 6.5t-12 18.5v65
q0 12 12 18.5t40 6.5q29 0 41 -6.5t12 -18.5v-65q0 -12 -12 -18.5t-41 -6.5z" />
    <glyph glyph-name="ntilde" unicode="&#xf1;" horiz-adv-x="557" 
d="M125 -2q-46 0 -46 25v341q0 44 -3 71t-6 41t-3 18q0 8 8.5 13t20.5 8t24 4t18 1q13 0 20 -11t10 -26.5t6 -28.5q29 34 69.5 55t84.5 21q77 0 118 -42t41 -120v-345q0 -25 -46 -25h-11q-46 0 -46 25v333q0 41 -22.5 63.5t-67.5 22.5q-33 0 -62.5 -19t-49.5 -47v-353
q0 -25 -46 -25h-11zM133 589q-4 0 -13 2.5t-15.5 8t-6.5 11.5q0 7 3 15q15 36 38.5 52.5t56.5 16.5q25 0 49 -8.5t47.5 -17t44.5 -8.5q20 0 30.5 9t17 18t14.5 9q5 0 13.5 -3.5t15.5 -8.5t7 -11q0 -3 -1 -7t-4 -10q-15 -32 -37.5 -49t-57.5 -17q-24 0 -49.5 8.5t-49 17.5
t-42.5 9q-18 0 -28.5 -9t-17 -18.5t-15.5 -9.5z" />
    <glyph glyph-name="o" unicode="o" horiz-adv-x="569" 
d="M286 -7q-114 0 -174.5 69t-60.5 198q0 130 60.5 200t174.5 70q113 0 172.5 -69.5t59.5 -200.5q0 -130 -58.5 -198.5t-173.5 -68.5zM284 78q67 0 98 45t31 138t-31 138.5t-98 45.5q-66 0 -96.5 -45t-30.5 -139q0 -93 30.5 -138t96.5 -45z" />
    <glyph glyph-name="oacute" unicode="&#xf3;" horiz-adv-x="569" 
d="M286 -7q-114 0 -174.5 69t-60.5 198q0 130 60.5 200t174.5 70q113 0 172.5 -69.5t59.5 -200.5q0 -130 -59 -198.5t-173 -68.5zM284 78q67 0 98 45t31 138t-31 138.5t-98 45.5q-66 0 -96.5 -45t-30.5 -139q0 -93 30.5 -138t96.5 -45zM242 575q-15 0 -21 3.5t-6 9.5
q0 5 3.5 11.5t7.5 16.5l40 75q6 9 12.5 15t19.5 9t37 3q25 0 37 -3.5t12 -12.5q0 -8 -5.5 -17t-18.5 -24l-55 -60q-15 -17 -28.5 -21.5t-34.5 -4.5z" />
    <glyph glyph-name="obreve" unicode="&#x14f;" horiz-adv-x="569" 
d="M286 -7q-114 0 -174.5 69t-60.5 198q0 130 60.5 200t174.5 70q113 0 172.5 -69.5t59.5 -200.5q0 -130 -59 -198.5t-173 -68.5zM284 78q67 0 98 45t31 138t-31 138.5t-98 45.5q-66 0 -96.5 -45t-30.5 -139q0 -93 30.5 -138t96.5 -45zM285 581q-37 0 -67.5 13.5t-49.5 37.5
t-19 56q0 14 6 20t17 6q10 0 15 -3t8 -11q5 -11 13 -21.5t25.5 -17.5t51.5 -7q35 0 52.5 7t25.5 18t12 21q3 8 8.5 11t13.5 3q12 0 17.5 -6t5.5 -20q0 -32 -18 -56t-48 -37.5t-69 -13.5z" />
    <glyph glyph-name="uni01D2" unicode="&#x1d2;" horiz-adv-x="569" 
d="M286 -7q-114 0 -174.5 69t-60.5 198q0 130 60.5 200t174.5 70q113 0 172.5 -69.5t59.5 -200.5q0 -130 -59 -198.5t-173 -68.5zM284 78q67 0 98 45t31 138t-31 138.5t-98 45.5q-66 0 -96.5 -45t-30.5 -139q0 -93 30.5 -138t96.5 -45zM275 575q-31 0 -43.5 6t-19.5 20
l-41 76q-5 10 -8.5 16.5t-3.5 10.5q0 14 28 14q19 0 30 -5t23 -19l46 -55l46 55q12 14 22 19t29 5q28 0 28 -14q0 -4 -3.5 -10.5t-8.5 -16.5l-41 -76q-7 -13 -19.5 -19.5t-43.5 -6.5h-20z" />
    <glyph glyph-name="ocircumflex" unicode="&#xf4;" horiz-adv-x="569" 
d="M286 -7q-114 0 -174.5 69t-60.5 198q0 130 60.5 200t174.5 70q113 0 172.5 -69.5t59.5 -200.5q0 -130 -59 -198.5t-173 -68.5zM284 78q67 0 98 45t31 138t-31 138.5t-98 45.5q-66 0 -96.5 -45t-30.5 -139q0 -93 30.5 -138t96.5 -45zM187 575q-28 0 -28 13q0 5 3.5 11.5
t8.5 16.5l41 76q7 14 19.5 20t43.5 6h19q32 0 44.5 -6.5t19.5 -19.5l41 -76q5 -10 8 -16.5t3 -11.5q0 -13 -27 -13q-19 0 -29 5t-23 19l-46 55l-46 -55q-12 -14 -22.5 -19t-29.5 -5z" />
    <glyph glyph-name="uni1ED1" unicode="&#x1ed1;" horiz-adv-x="569" 
d="M286 -7q-114 0 -174.5 69t-60.5 198q0 130 60.5 200t174.5 70q113 0 172.5 -69.5t59.5 -200.5q0 -130 -59 -198.5t-173 -68.5zM284 78q67 0 98 45t31 138t-31 138.5t-98 45.5q-66 0 -96.5 -45t-30.5 -139q0 -93 30.5 -138t96.5 -45zM187 575q-28 0 -28 13q0 5 3.5 11.5
t8.5 16.5l41 76q7 14 19.5 20t43.5 6h19q32 0 44.5 -6.5t19.5 -19.5l41 -76q5 -10 8 -16.5t3 -11.5q0 -13 -27 -13q-19 0 -29 5t-23 19l-46 55l-46 -55q-12 -14 -22.5 -19t-29.5 -5zM242 752q-15 0 -21 3.5t-6 9.5q0 5 3.5 11.5t7.5 16.5l40 75q6 9 12.5 15t19.5 9t37 3
q25 0 37 -3.5t12 -12.5q0 -8 -5.5 -17t-18.5 -24l-55 -60q-15 -17 -28.5 -21.5t-34.5 -4.5z" />
    <glyph glyph-name="uni1ED9" unicode="&#x1ed9;" horiz-adv-x="569" 
d="M286 -7q-114 0 -174.5 69t-60.5 198q0 130 60.5 200t174.5 70q113 0 172.5 -69.5t59.5 -200.5q0 -130 -59 -198.5t-173 -68.5zM284 78q67 0 98 45t31 138t-31 138.5t-98 45.5q-66 0 -96.5 -45t-30.5 -139q0 -93 30.5 -138t96.5 -45zM290 -183q-46 0 -46 25v53
q0 12 11 18.5t37 6.5q46 0 46 -25v-53q0 -12 -11 -18.5t-37 -6.5zM187 575q-28 0 -28 13q0 5 3.5 11.5t8.5 16.5l41 76q7 14 19.5 20t43.5 6h19q32 0 44.5 -6.5t19.5 -19.5l41 -76q5 -10 8 -16.5t3 -11.5q0 -13 -27 -13q-19 0 -29 5t-23 19l-46 55l-46 -55
q-12 -14 -22.5 -19t-29.5 -5z" />
    <glyph glyph-name="uni1ED3" unicode="&#x1ed3;" horiz-adv-x="569" 
d="M286 -7q-114 0 -174.5 69t-60.5 198q0 130 60.5 200t174.5 70q113 0 172.5 -69.5t59.5 -200.5q0 -130 -59 -198.5t-173 -68.5zM284 78q67 0 98 45t31 138t-31 138.5t-98 45.5q-66 0 -96.5 -45t-30.5 -139q0 -93 30.5 -138t96.5 -45zM187 575q-28 0 -28 13q0 5 3.5 11.5
t8.5 16.5l41 76q7 14 19.5 20t43.5 6h19q32 0 44.5 -6.5t19.5 -19.5l41 -76q5 -10 8 -16.5t3 -11.5q0 -13 -27 -13q-19 0 -29 5t-23 19l-46 55l-46 -55q-12 -14 -22.5 -19t-29.5 -5zM304 752q-20 0 -34 4.5t-28 21.5l-55 60q-13 15 -19 24t-6 17q0 9 13 12.5t37 3.5
q23 0 36.5 -3t20.5 -9t11 -15l40 -75q5 -10 8.5 -16.5t3.5 -11.5q0 -6 -6 -9.5t-22 -3.5z" />
    <glyph glyph-name="uni1ED5" unicode="&#x1ed5;" horiz-adv-x="569" 
d="M286 -7q-114 0 -174.5 69t-60.5 198q0 130 60.5 200t174.5 70q113 0 172.5 -69.5t59.5 -200.5q0 -130 -59 -198.5t-173 -68.5zM284 78q67 0 98 45t31 138t-31 138.5t-98 45.5q-66 0 -96.5 -45t-30.5 -139q0 -93 30.5 -138t96.5 -45zM187 575q-28 0 -28 13q0 5 3.5 11.5
t8.5 16.5l41 76q7 14 19.5 20t43.5 6h19q32 0 44.5 -6.5t19.5 -19.5l41 -76q5 -10 8 -16.5t3 -11.5q0 -13 -27 -13q-19 0 -29 5t-23 19l-46 55l-46 -55q-12 -14 -22.5 -19t-29.5 -5zM279 742q-11 0 -24.5 7t-13.5 14t9.5 15t22 18t22 22.5t9.5 29.5q0 13 -10.5 19t-24.5 6
q-21 0 -30.5 -6t-14.5 -6q-6 0 -16 13.5t-10 21.5q0 7 12.5 14t31 12t35.5 5q22 0 44.5 -7t37.5 -23t15 -43q0 -24 -12.5 -44t-29.5 -35t-32 -24t-21 -9z" />
    <glyph glyph-name="uni1ED7" unicode="&#x1ed7;" horiz-adv-x="569" 
d="M286 -7q-114 0 -174.5 69t-60.5 198q0 130 60.5 200t174.5 70q113 0 172.5 -69.5t59.5 -200.5q0 -130 -59 -198.5t-173 -68.5zM284 78q67 0 98 45t31 138t-31 138.5t-98 45.5q-66 0 -96.5 -45t-30.5 -139q0 -93 30.5 -138t96.5 -45zM187 575q-28 0 -28 13q0 5 3.5 11.5
t8.5 16.5l41 76q7 14 19.5 20t43.5 6h19q32 0 44.5 -6.5t19.5 -19.5l41 -76q5 -10 8 -16.5t3 -11.5q0 -13 -27 -13q-19 0 -29 5t-23 19l-46 55l-46 -55q-12 -14 -22.5 -19t-29.5 -5zM139 766q-4 0 -13 2.5t-15.5 8t-6.5 11.5q0 7 3 15q15 36 38.5 52.5t56.5 16.5
q25 0 49 -8.5t47.5 -17t44.5 -8.5q20 0 30.5 9t17 18t14.5 9q5 0 13.5 -3.5t15.5 -8.5t7 -11q0 -3 -1 -7t-4 -10q-15 -32 -37.5 -49t-57.5 -17q-24 0 -49.5 8.5t-49 17.5t-42.5 9q-18 0 -28.5 -9t-17 -18.5t-15.5 -9.5z" />
    <glyph glyph-name="uni020D" unicode="&#x20d;" horiz-adv-x="569" 
d="M286 -7q-114 0 -174.5 69t-60.5 198q0 130 60.5 200t174.5 70q113 0 172.5 -69.5t59.5 -200.5q0 -130 -59 -198.5t-173 -68.5zM284 78q67 0 98 45t31 138t-31 138.5t-98 45.5q-66 0 -96.5 -45t-30.5 -139q0 -93 30.5 -138t96.5 -45zM239 575q-21 0 -34.5 4.5t-28.5 21.5
l-55 60q-13 15 -18.5 24t-5.5 17q0 9 12.5 12.5t36.5 3.5t37 -3t20 -9t12 -15l40 -75q5 -10 8 -16.5t3 -11.5q0 -6 -6 -9.5t-21 -3.5zM395 575q-21 0 -34.5 4.5t-28.5 21.5l-54 60q-14 15 -19.5 24t-5.5 17q0 9 12.5 12.5t36.5 3.5t37 -3t20 -9t12 -15l40 -75
q5 -10 8.5 -16.5t3.5 -11.5q0 -6 -6.5 -9.5t-21.5 -3.5z" />
    <glyph glyph-name="odieresis" unicode="&#xf6;" horiz-adv-x="569" 
d="M286 -7q-114 0 -174.5 69t-60.5 198q0 130 60.5 200t174.5 70q113 0 172.5 -69.5t59.5 -200.5q0 -130 -59 -198.5t-173 -68.5zM284 78q67 0 98 45t31 138t-31 138.5t-98 45.5q-66 0 -96.5 -45t-30.5 -139q0 -93 30.5 -138t96.5 -45zM365 592q-26 0 -38 6.5t-12 18.5v59
q0 12 12 18t38 6q25 0 37 -6t12 -18v-59q0 -12 -12 -18.5t-37 -6.5zM205 592q-25 0 -37 6.5t-12 18.5v59q0 12 12 18t37 6q26 0 38 -6t12 -18v-59q0 -12 -12 -18.5t-38 -6.5z" />
    <glyph glyph-name="uni022B" unicode="&#x22b;" horiz-adv-x="569" 
d="M286 -7q-114 0 -174.5 69t-60.5 198q0 130 60.5 200t174.5 70q113 0 172.5 -69.5t59.5 -200.5q0 -130 -59 -198.5t-173 -68.5zM284 78q67 0 98 45t31 138t-31 138.5t-98 45.5q-66 0 -96.5 -45t-30.5 -139q0 -93 30.5 -138t96.5 -45zM365 592q-26 0 -38 6.5t-12 18.5v59
q0 12 12 18t38 6q25 0 37 -6t12 -18v-59q0 -12 -12 -18.5t-37 -6.5zM205 592q-25 0 -37 6.5t-12 18.5v59q0 12 12 18t37 6q26 0 38 -6t12 -18v-59q0 -12 -12 -18.5t-38 -6.5zM173 763q-22 0 -22 32v12q0 33 22 33h223q22 0 22 -33v-12q0 -32 -22 -32h-223z" />
    <glyph glyph-name="uni0231" unicode="&#x231;" horiz-adv-x="569" 
d="M286 -7q-114 0 -174.5 69t-60.5 198q0 130 60.5 200t174.5 70q113 0 172.5 -69.5t59.5 -200.5q0 -130 -59 -198.5t-173 -68.5zM284 78q67 0 98 45t31 138t-31 138.5t-98 45.5q-66 0 -96.5 -45t-30.5 -139q0 -93 30.5 -138t96.5 -45zM285 589q-28 0 -40.5 6.5t-12.5 18.5
v65q0 12 12.5 18.5t40.5 6.5t40.5 -6.5t12.5 -18.5v-65q0 -12 -12.5 -18.5t-40.5 -6.5zM173 763q-22 0 -22 32v12q0 33 22 33h223q22 0 22 -33v-12q0 -32 -22 -32h-223z" />
    <glyph glyph-name="uni1ECD" unicode="&#x1ecd;" horiz-adv-x="569" 
d="M286 -7q-114 0 -174.5 69t-60.5 198q0 130 60.5 200t174.5 70q113 0 172.5 -69.5t59.5 -200.5q0 -130 -59 -198.5t-173 -68.5zM284 78q67 0 98 45t31 138t-31 138.5t-98 45.5q-66 0 -96.5 -45t-30.5 -139q0 -93 30.5 -138t96.5 -45zM290 -183q-46 0 -46 25v53
q0 12 11 18.5t37 6.5q46 0 46 -25v-53q0 -12 -11 -18.5t-37 -6.5z" />
    <glyph glyph-name="ograve" unicode="&#xf2;" horiz-adv-x="569" 
d="M286 -7q-114 0 -174.5 69t-60.5 198q0 130 60.5 200t174.5 70q113 0 172.5 -69.5t59.5 -200.5q0 -130 -59 -198.5t-173 -68.5zM284 78q67 0 98 45t31 138t-31 138.5t-98 45.5q-66 0 -96.5 -45t-30.5 -139q0 -93 30.5 -138t96.5 -45zM304 575q-20 0 -34 4.5t-28 21.5
l-55 60q-13 15 -19 24t-6 17q0 9 13 12.5t37 3.5q23 0 36.5 -3t20.5 -9t11 -15l40 -75q5 -10 8.5 -16.5t3.5 -11.5q0 -6 -6 -9.5t-22 -3.5z" />
    <glyph glyph-name="uni1ECF" unicode="&#x1ecf;" horiz-adv-x="569" 
d="M286 -7q-114 0 -174.5 69t-60.5 198q0 130 60.5 200t174.5 70q113 0 172.5 -69.5t59.5 -200.5q0 -130 -59 -198.5t-173 -68.5zM284 78q67 0 98 45t31 138t-31 138.5t-98 45.5q-66 0 -96.5 -45t-30.5 -139q0 -93 30.5 -138t96.5 -45zM279 565q-11 0 -24.5 7t-13.5 14
t9.5 15t22 18t22 22.5t9.5 29.5q0 13 -10.5 19t-24.5 6q-21 0 -30.5 -6t-14.5 -6q-6 0 -16 13.5t-10 21.5q0 7 12.5 14t31 12t35.5 5q22 0 44.5 -7t37.5 -23t15 -43q0 -24 -12.5 -44t-29.5 -35t-32 -24t-21 -9z" />
    <glyph glyph-name="ohorn" unicode="&#x1a1;" horiz-adv-x="569" 
d="M286 -7q-114 0 -174.5 69t-60.5 198q0 130 60.5 200t174.5 70q45 0 84 -12q19 -6 31 -9.5t28 -3.5q24 0 34 10t10 24t-6.5 25t-13 19.5t-6.5 14.5q0 11 9 17l27 18q5 4 13 4q12 0 22 -13t16 -31t6 -33q0 -35 -22 -59t-69 -30q69 -70 69 -211q0 -130 -59 -198.5
t-173 -68.5zM284 78q67 0 98 45t31 138t-31 138.5t-98 45.5q-66 0 -96.5 -45t-30.5 -139q0 -93 30.5 -138t96.5 -45z" />
    <glyph glyph-name="uni1EDB" unicode="&#x1edb;" horiz-adv-x="569" 
d="M286 -7q-114 0 -174.5 69t-60.5 198q0 130 60.5 200t174.5 70q45 0 84 -12q19 -6 31 -9.5t28 -3.5q24 0 34 10t10 24t-6.5 25t-13 19.5t-6.5 14.5q0 11 9 17l27 18q5 4 13 4q12 0 22 -13t16 -31t6 -33q0 -35 -22 -59t-69 -30q69 -70 69 -211q0 -130 -59 -198.5
t-173 -68.5zM284 78q67 0 98 45t31 138t-31 138.5t-98 45.5q-66 0 -96.5 -45t-30.5 -139q0 -93 30.5 -138t96.5 -45zM242 575q-15 0 -21 3.5t-6 9.5q0 5 3.5 11.5t7.5 16.5l40 75q6 9 12.5 15t19.5 9t37 3q25 0 37 -3.5t12 -12.5q0 -8 -5.5 -17t-18.5 -24l-55 -60
q-15 -17 -28.5 -21.5t-34.5 -4.5z" />
    <glyph glyph-name="uni1EE3" unicode="&#x1ee3;" horiz-adv-x="569" 
d="M286 -7q-114 0 -174.5 69t-60.5 198q0 130 60.5 200t174.5 70q45 0 84 -12q19 -6 31 -9.5t28 -3.5q24 0 34 10t10 24t-6.5 25t-13 19.5t-6.5 14.5q0 11 9 17l27 18q5 4 13 4q12 0 22 -13t16 -31t6 -33q0 -35 -22 -59t-69 -30q69 -70 69 -211q0 -130 -59 -198.5
t-173 -68.5zM284 78q67 0 98 45t31 138t-31 138.5t-98 45.5q-66 0 -96.5 -45t-30.5 -139q0 -93 30.5 -138t96.5 -45zM290 -183q-46 0 -46 25v53q0 12 11 18.5t37 6.5q46 0 46 -25v-53q0 -12 -11 -18.5t-37 -6.5z" />
    <glyph glyph-name="uni1EDD" unicode="&#x1edd;" horiz-adv-x="569" 
d="M286 -7q-114 0 -174.5 69t-60.5 198q0 130 60.5 200t174.5 70q45 0 84 -12q19 -6 31 -9.5t28 -3.5q24 0 34 10t10 24t-6.5 25t-13 19.5t-6.5 14.5q0 11 9 17l27 18q5 4 13 4q12 0 22 -13t16 -31t6 -33q0 -35 -22 -59t-69 -30q69 -70 69 -211q0 -130 -59 -198.5
t-173 -68.5zM284 78q67 0 98 45t31 138t-31 138.5t-98 45.5q-66 0 -96.5 -45t-30.5 -139q0 -93 30.5 -138t96.5 -45zM304 575q-20 0 -34 4.5t-28 21.5l-55 60q-13 15 -19 24t-6 17q0 9 13 12.5t37 3.5q23 0 36.5 -3t20.5 -9t11 -15l40 -75q5 -10 8.5 -16.5t3.5 -11.5
q0 -6 -6 -9.5t-22 -3.5z" />
    <glyph glyph-name="uni1EDF" unicode="&#x1edf;" horiz-adv-x="569" 
d="M286 -7q-114 0 -174.5 69t-60.5 198q0 130 60.5 200t174.5 70q45 0 84 -12q19 -6 31 -9.5t28 -3.5q24 0 34 10t10 24t-6.5 25t-13 19.5t-6.5 14.5q0 11 9 17l27 18q5 4 13 4q12 0 22 -13t16 -31t6 -33q0 -35 -22 -59t-69 -30q69 -70 69 -211q0 -130 -59 -198.5
t-173 -68.5zM284 78q67 0 98 45t31 138t-31 138.5t-98 45.5q-66 0 -96.5 -45t-30.5 -139q0 -93 30.5 -138t96.5 -45zM279 565q-11 0 -24.5 7t-13.5 14t9.5 15t22 18t22 22.5t9.5 29.5q0 13 -10.5 19t-24.5 6q-21 0 -30.5 -6t-14.5 -6q-6 0 -16 13.5t-10 21.5q0 7 12.5 14
t31 12t35.5 5q22 0 44.5 -7t37.5 -23t15 -43q0 -24 -12.5 -44t-29.5 -35t-32 -24t-21 -9z" />
    <glyph glyph-name="uni1EE1" unicode="&#x1ee1;" horiz-adv-x="569" 
d="M286 -7q-114 0 -174.5 69t-60.5 198q0 130 60.5 200t174.5 70q45 0 84 -12q19 -6 31 -9.5t28 -3.5q24 0 34 10t10 24t-6.5 25t-13 19.5t-6.5 14.5q0 11 9 17l27 18q5 4 13 4q12 0 22 -13t16 -31t6 -33q0 -35 -22 -59t-69 -30q69 -70 69 -211q0 -130 -59 -198.5
t-173 -68.5zM284 78q67 0 98 45t31 138t-31 138.5t-98 45.5q-66 0 -96.5 -45t-30.5 -139q0 -93 30.5 -138t96.5 -45zM139 589q-4 0 -13 2.5t-15.5 8t-6.5 11.5q0 7 3 15q15 36 38.5 52.5t56.5 16.5q25 0 49 -8.5t47.5 -17t44.5 -8.5q20 0 30.5 9t17 18t14.5 9q5 0 13.5 -3.5
t15.5 -8.5t7 -11q0 -3 -1 -7t-4 -10q-15 -32 -37.5 -49t-57.5 -17q-24 0 -49.5 8.5t-49 17.5t-42.5 9q-18 0 -28.5 -9t-17 -18.5t-15.5 -9.5z" />
    <glyph glyph-name="ohungarumlaut" unicode="&#x151;" horiz-adv-x="569" 
d="M286 -7q-114 0 -174.5 69t-60.5 198q0 130 60.5 200t174.5 70q113 0 172.5 -69.5t59.5 -200.5q0 -130 -59 -198.5t-173 -68.5zM284 78q67 0 98 45t31 138t-31 138.5t-98 45.5q-66 0 -96.5 -45t-30.5 -139q0 -93 30.5 -138t96.5 -45zM180 575q-15 0 -21.5 3.5t-6.5 9.5
q0 5 3.5 11.5t8.5 16.5l40 75q5 9 11.5 15t20 9t37.5 3t36.5 -3.5t12.5 -12.5q0 -8 -5.5 -17t-19.5 -24l-55 -60q-14 -17 -28 -21.5t-34 -4.5zM333 575q-15 0 -21.5 3.5t-6.5 9.5q0 5 3.5 11.5t8.5 16.5l40 75q6 9 12 15t19.5 9t37.5 3t36.5 -3.5t12.5 -12.5q0 -8 -5.5 -17
t-19.5 -24l-54 -60q-15 -17 -29 -21.5t-34 -4.5z" />
    <glyph glyph-name="uni020F" unicode="&#x20f;" horiz-adv-x="569" 
d="M286 -7q-114 0 -174.5 69t-60.5 198q0 130 60.5 200t174.5 70q113 0 172.5 -69.5t59.5 -200.5q0 -130 -59 -198.5t-173 -68.5zM284 78q67 0 98 45t31 138t-31 138.5t-98 45.5q-66 0 -96.5 -45t-30.5 -139q0 -93 30.5 -138t96.5 -45zM285 716q-37 0 -67.5 -13.5t-49.5 -37
t-19 -56.5q0 -14 6 -19.5t17 -5.5q10 0 15 3t8 10q5 12 13 22t25.5 17t51.5 7q35 0 52.5 -7t25.5 -17.5t12 -21.5q3 -7 8.5 -10t13.5 -3q12 0 17.5 5.5t5.5 19.5q0 33 -18 56.5t-48 37t-69 13.5z" />
    <glyph glyph-name="omacron" unicode="&#x14d;" horiz-adv-x="569" 
d="M286 -7q-114 0 -174.5 69t-60.5 198q0 130 60.5 200t174.5 70q113 0 172.5 -69.5t59.5 -200.5q0 -130 -58.5 -198.5t-173.5 -68.5zM284 78q67 0 98 45t31 138t-31 138.5t-98 45.5q-66 0 -96.5 -45t-30.5 -139q0 -93 30.5 -138t96.5 -45zM173 608q-22 0 -22 33v11
q0 33 22 33h223q22 0 22 -33v-11q0 -33 -22 -33h-223z" />
    <glyph glyph-name="uni01EB" unicode="&#x1eb;" horiz-adv-x="569" 
d="M286 -7q-114 0 -174.5 69t-60.5 198q0 130 60.5 200t174.5 70q113 0 172.5 -69.5t59.5 -200.5q0 -130 -59 -198.5t-173 -68.5zM284 78q67 0 98 45t31 138t-31 138.5t-98 45.5q-66 0 -96.5 -45t-30.5 -139q0 -93 30.5 -138t96.5 -45zM292 -187q-51 0 -77.5 24t-26.5 60
q0 32 23.5 66t71.5 54l52 -7q-36 -19 -54 -45.5t-18 -46.5q0 -13 9.5 -21.5t28.5 -8.5q20 0 30 5t22 5q11 0 17 -13t6 -30q0 -14 -14 -23.5t-33 -14t-37 -4.5z" />
    <glyph glyph-name="oslash" unicode="&#xf8;" horiz-adv-x="569" 
d="M87 -2q-5 0 -12.5 4.5t-12.5 11t-5 12.5t8 16l409 476q8 10 16 10q5 0 12 -5t12 -11.5t5 -11.5q0 -7 -7 -16l-409 -477q-8 -9 -16 -9zM286 -7q-114 0 -174.5 69t-60.5 198q0 130 60.5 200t174.5 70q113 0 172.5 -69.5t59.5 -200.5q0 -130 -58.5 -198.5t-173.5 -68.5z
M284 78q67 0 98 45t31 138t-31 138.5t-98 45.5q-66 0 -96.5 -45t-30.5 -139q0 -93 30.5 -138t96.5 -45z" />
    <glyph glyph-name="oslashacute" unicode="&#x1ff;" horiz-adv-x="569" 
d="M87 -2q-5 0 -12.5 4.5t-12.5 11t-5 12.5t8 16l409 476q8 10 16 10q5 0 12 -5t12 -11.5t5 -11.5q0 -7 -7 -16l-409 -477q-7 -9 -16 -9zM286 -7q-114 0 -174.5 69t-60.5 198q0 130 60.5 200t174.5 70q113 0 172.5 -69.5t59.5 -200.5q0 -130 -59 -198.5t-173 -68.5zM284 78
q67 0 98 45t31 138t-31 138.5t-98 45.5q-66 0 -96.5 -45t-30.5 -139q0 -93 30.5 -138t96.5 -45zM242 575q-15 0 -21 3.5t-6 9.5q0 5 3.5 11.5t7.5 16.5l40 75q6 9 12.5 15t19.5 9t37 3q25 0 37 -3.5t12 -12.5q0 -8 -5.5 -17t-18.5 -24l-55 -60q-15 -17 -28.5 -21.5
t-34.5 -4.5z" />
    </font>
</defs>
</svg>
