<?xml version="1.0" encoding="utf-8"?><svg xmlns="http://www.w3.org/2000/svg" xmlns:xlink="http://www.w3.org/1999/xlink"><symbol viewBox="0 0 24 24" id="ai" xmlns="http://www.w3.org/2000/svg"><path d="M1.5 1.5h21v21h-21z"/><path d="M23 23H1V1h22v22zM2 22h20V2H2v20z"/><path d="M8.5 13h4v2h-4zm8-2.5h2V18h-2z"/><circle cx="17.5" cy="9" r="1"/><path d="M9.45 6L5.61 18h2.1l2.79-8.719L13.29 18h2.1L11.55 6z"/><path d="M23 23H1V1h22v22z"/></symbol><symbol viewBox="0 0 980 840" id="arrow_right" xmlns="http://www.w3.org/2000/svg"><path d="M0 840l980-420L0 0v326.7L700 420 0 513.3z"/></symbol><symbol viewBox="0 0 44.557 44.557" id="basketball" xmlns="http://www.w3.org/2000/svg"><path d="M6.519 6.519c-8.69 8.69-8.69 22.829-.001 31.521 8.69 8.69 22.831 8.689 31.521 0 8.688-8.689 8.688-22.831 0-31.521-8.691-8.692-22.829-8.692-31.52 0zM31.47 8.843l-9.191 9.192-2.535-2.535c1.828-2.788 3.2-5.961 3.594-9.452a16.22 16.22 0 018.132 2.795zm-7.118 19.749c-3.558 3.399-6.08 7.088-7.319 9.084a16.048 16.048 0 01-3.947-1.965l9.193-9.19 2.073 2.071zM8.843 31.469a16.05 16.05 0 01-1.963-3.94c1.873-1.163 5.238-3.452 8.455-6.668.211-.211.42-.432.631-.651l2.069 2.07-9.192 9.189zm6.541-20.328l-2.298-2.297a16.147 16.147 0 014.022-1.992c-.351 1.502-.952 2.939-1.724 4.289zm-6.541 1.945l2.875 2.875c-1.906 2.006-3.966 3.664-5.652 4.877a16.236 16.236 0 012.777-7.752zm19.744 19.741l2.885 2.886a16.23 16.23 0 01-7.759 2.777c1.21-1.691 2.865-3.753 4.874-5.663zm7.127-1.358l-2.306-2.307c1.353-.771 2.791-1.371 4.299-1.721a16.138 16.138 0 01-1.993 4.028zm2.794-10.249c-3.491.396-6.667 1.762-9.454 3.591l-2.532-2.534 9.19-9.192a16.214 16.214 0 012.796 8.135z"/></symbol><symbol viewBox="0 0 512 512" id="fb" xmlns="http://www.w3.org/2000/svg"><path d="M308.3 508.5c-2.5.1-4.1.3-5.7.3-34.2 0-68.3-.1-102.5.1-4.8 0-6.1-1.3-6.1-6.1.1-79.6.1-159.3.1-238.9V257H139v-85h5.4c15 0 30-.1 45 .1 3.8 0 4.8-1.1 4.8-4.8-.2-22.3-.2-44.7 0-67 .1-15.6 2.6-30.8 9.8-44.9 10.3-19.9 26.6-32.8 47.2-40.8 16.8-6.6 34.5-9 52.3-9.3 29-.4 58-.2 87-.3 2.7 0 4.9-.1 4.9 3.7-.1 27.5-.1 55-.1 82.5 0 .3-.1.6-.5 1.9h-5.5c-18 0-36-.1-54 0-10.4 0-18.8 4.2-24.1 13.3-1.6 2.7-2.6 6.2-2.6 9.4-.3 17 0 34-.2 51 0 4 1.2 5.1 5.1 5.1 25-.2 50-.1 75-.1h7.3c-3.5 28.6-6.9 56.6-10.4 84.9h-77.1v251.8z"/></symbol><symbol viewBox="0 0 32 32" id="g_plus" xmlns="http://www.w3.org/2000/svg"><path d="M25 11h2v8h-2z"/><path d="M22 14h8v2h-8zm-2.185.2l-.05-.2H11v3h6c-.477 2.837-3.028 5-6 5a6 6 0 110-12c1.5 0 2.868.554 3.92 1.465l2.151-2.106A9 9 0 002 16c0 4.971 4.029 9 9 9s9-4.029 9-9c0-.617-.066-1.218-.185-1.8z"/></symbol><symbol viewBox="0 0 41 41" id="logo" xmlns="http://www.w3.org/2000/svg"><defs><clipPath id="fclip-path"><circle cx="20.5" cy="20.5" r="20"/></clipPath><style>.fcls-2{fill:none;stroke:#000;stroke-linejoin:round}</style></defs><g id="fСлой_2" data-name="Слой 2"><g id="fLayer_1" data-name="Layer 1"><circle class="fcls-2" cx="20.5" cy="20.5" r="20"/><path class="fcls-2" d="M20.5 40.5V.5m-5 40V.5m-5 40V.5m-5 40V.5m15 35h20m-20-5h20m-20-5h20m-20-5h20m-20-5h20m-20-5h20m-20-5h20"/></g></g></symbol><symbol viewBox="0 0 24 24" id="ps" xmlns="http://www.w3.org/2000/svg"><path d="M1.5 1.5h21v21h-21z"/><path d="M23 23H1V1h22v22zM2 22h20V2H2v20z"/><path d="M8 18H6V6h2.822c2.088 0 3.956 1.522 4.158 3.6A4.005 4.005 0 019 14H8v4zm0-6h1c1.103 0 2-.897 2-2s-.897-2-2-2H8v4zm7.237 5.977a6.486 6.486 0 01-2.184-.582l.894-1.79c.003.002.82.395 1.81.395a.744.744 0 00.235-1.449l-.483-.16c-1.02-.34-1.836-1.196-1.982-2.261A2.747 2.747 0 0116.244 9c1.45 0 2.58.544 2.703.605l-.89 1.791A4.635 4.635 0 0016.244 11a.744.744 0 00-.236 1.449l.616.205a2.741 2.741 0 011.862 2.88c-.156 1.567-1.68 2.58-3.249 2.443z"/><path d="M23 23H1V1h22v22z"/></symbol><symbol viewBox="0 0 512 512" id="twitter" xmlns="http://www.w3.org/2000/svg"><path d="M4 440.5c55.6 5 105.7-9 151.3-43.2-47.7-4.2-79.6-28-97.4-72.6 15.6 1.9 30.2 2.4 45.7-1.8-51.4-16-78.8-49.6-82.5-103.8 15.4 7.2 29.9 12.4 47 12.6-30.5-22.9-46.1-52.6-45.5-90 .3-17.2 4.9-33.4 14-48.7C93.1 159.1 164 195.7 251.3 201.8c-.5-3.8-.8-6.8-1.2-9.9-7.2-55.4 28.8-105.8 83.8-116.3 34.5-6.6 65 2.5 90.8 26.3 4 3.6 7.4 4.4 12.4 3.1 20.1-5.1 39.2-12.5 57.7-22.5-7.1 23.4-21.7 41-41.5 55.8 4.5-.8 9.1-1.4 13.6-2.3 4.7-1 9.4-2.1 14.1-3.4 4.5-1.2 8.9-2.6 13.3-4.1 4.5-1.5 9-3.2 14.3-4.1-2.6 3.6-5.1 7.4-7.9 10.9-11.6 14.7-25 27.6-39.7 39.1-1.5 1.2-2.8 3.8-2.7 5.6.8 35.5-4.2 70.1-15.7 103.7-22.6 66.2-62 119.8-121.1 158.1-29.2 18.9-61.1 31.3-95.2 38.5-33.8 7.1-67.8 8.4-101.9 4.4-34.2-4-66.7-14.1-97.3-29.9-8.1-4.1-15.9-8.7-23.8-13.1.3-.4.5-.8.7-1.2z"/></symbol><symbol viewBox="0 0 32 32" id="up-arrow" xmlns="http://www.w3.org/2000/svg"><path d="M24 21a1 1 0 01-.71-.29L16 13.41l-7.29 7.3a1 1 0 11-1.42-1.42l8-8a1 1 0 011.42 0l8 8a1 1 0 010 1.42A1 1 0 0124 21z" data-name="Layer 2"/></symbol><symbol viewBox="0 0 32 32" id="up-arrow1" xmlns="http://www.w3.org/2000/svg"><path d="M24 21a1 1 0 01-.71-.29L16 13.41l-7.29 7.3a1 1 0 11-1.42-1.42l8-8a1 1 0 011.42 0l8 8a1 1 0 010 1.42A1 1 0 0124 21z" data-name="Layer 2"/><path d="M0 0h32v32H0z"/></symbol></svg>