<?xml version="1.0" encoding="utf-8"?><svg xmlns="http://www.w3.org/2000/svg" xmlns:xlink="http://www.w3.org/1999/xlink"><symbol viewBox="0 0 478.125 478.125" id="basketball" xmlns="http://www.w3.org/2000/svg"><path d="M239.062 0C107.1 0 0 107.1 0 239.062c0 13.388 1.913 24.862 3.825 38.25 0 3.825 1.912 5.737 1.912 9.562 22.95 109.013 118.575 191.25 235.237 191.25 130.051 0 237.15-107.1 237.15-239.062C478.125 107.1 371.025 0 239.062 0zm9.563 47.812c0-9.562 0-19.125-1.912-28.688 95.625 3.825 175.949 68.85 202.725 156.825-45.9 7.65-86.062 26.775-118.575 55.462-26.774-36.337-61.2-68.85-99.45-93.712 11.475-28.686 17.212-59.286 17.212-89.887zm-21.038-28.687c1.913 9.562 1.913 19.125 1.913 28.688 0 26.775-5.737 53.55-15.3 78.413-38.25-22.95-82.238-38.25-128.138-45.9C122.4 45.9 172.125 22.95 227.587 19.125zM19.125 239.062c0-53.55 19.125-103.275 51.638-141.525 49.725 5.737 95.625 21.038 137.7 45.9C174.038 214.2 103.275 262.013 22.95 267.75c-3.825-9.562-3.825-19.125-3.825-28.688zM239.062 459c-105.188 0-193.163-74.588-214.2-172.125 87.975-5.737 162.562-57.375 198.9-131.962 36.337 24.862 66.938 53.55 93.712 89.887-42.074 42.075-68.85 101.362-68.85 166.388 0 15.3 1.912 32.513 3.825 47.812h-13.387zm32.513-1.912c-3.825-15.301-3.825-30.601-3.825-45.9 0-59.287 22.95-110.925 59.287-151.088 26.775 43.988 45.9 93.713 51.638 147.263-28.688 24.862-65.025 42.075-107.1 49.725zM397.8 392.062c-7.649-53.55-26.774-101.362-55.462-145.35 30.6-26.775 68.85-45.9 112.837-53.55 3.825 15.3 3.825 30.6 3.825 45.9 0 59.288-22.95 112.838-61.2 153z"/></symbol><symbol viewBox="0 0 512 512" id="fb" xmlns="http://www.w3.org/2000/svg"><path d="M308.3 508.5c-2.5.1-4.1.3-5.7.3-34.2 0-68.3-.1-102.5.1-4.8 0-6.1-1.3-6.1-6.1.1-79.6.1-159.3.1-238.9V257H139v-85h5.4c15 0 30-.1 45 .1 3.8 0 4.8-1.1 4.8-4.8-.2-22.3-.2-44.7 0-67 .1-15.6 2.6-30.8 9.8-44.9 10.3-19.9 26.6-32.8 47.2-40.8 16.8-6.6 34.5-9 52.3-9.3 29-.4 58-.2 87-.3 2.7 0 4.9-.1 4.9 3.7-.1 27.5-.1 55-.1 82.5 0 .3-.1.6-.5 1.9h-5.5c-18 0-36-.1-54 0-10.4 0-18.8 4.2-24.1 13.3-1.6 2.7-2.6 6.2-2.6 9.4-.3 17 0 34-.2 51 0 4 1.2 5.1 5.1 5.1 25-.2 50-.1 75-.1h7.3c-3.5 28.6-6.9 56.6-10.4 84.9h-77.1v251.8z"/></symbol><symbol viewBox="0 0 41 41" id="logo" xmlns="http://www.w3.org/2000/svg"><defs><clipPath id="cclip-path"><circle cx="20.5" cy="20.5" r="20" fill="none"/></clipPath><style>.ccls-2{fill:none;stroke:#000;stroke-linejoin:round}</style></defs><g id="cСлой_2" data-name="Слой 2"><g id="cLayer_1" data-name="Layer 1"><circle class="ccls-2" cx="20.5" cy="20.5" r="20"/><g clip-path="url(#cclip-path)"><path class="ccls-2" d="M20.5 40.5V.5m-5 40V.5m-5 40V.5m-5 40V.5m15 35h20m-20-5h20m-20-5h20m-20-5h20m-20-5h20m-20-5h20m-20-5h20"/></g></g></g></symbol><symbol viewBox="0 0 512 512" id="twitter" xmlns="http://www.w3.org/2000/svg"><path d="M4 440.5c55.6 5 105.7-9 151.3-43.2-47.7-4.2-79.6-28-97.4-72.6 15.6 1.9 30.2 2.4 45.7-1.8-51.4-16-78.8-49.6-82.5-103.8 15.4 7.2 29.9 12.4 47 12.6-30.5-22.9-46.1-52.6-45.5-90 .3-17.2 4.9-33.4 14-48.7C93.1 159.1 164 195.7 251.3 201.8c-.5-3.8-.8-6.8-1.2-9.9-7.2-55.4 28.8-105.8 83.8-116.3 34.5-6.6 65 2.5 90.8 26.3 4 3.6 7.4 4.4 12.4 3.1 20.1-5.1 39.2-12.5 57.7-22.5-7.1 23.4-21.7 41-41.5 55.8 4.5-.8 9.1-1.4 13.6-2.3 4.7-1 9.4-2.1 14.1-3.4 4.5-1.2 8.9-2.6 13.3-4.1 4.5-1.5 9-3.2 14.3-4.1-2.6 3.6-5.1 7.4-7.9 10.9-11.6 14.7-25 27.6-39.7 39.1-1.5 1.2-2.8 3.8-2.7 5.6.8 35.5-4.2 70.1-15.7 103.7-22.6 66.2-62 119.8-121.1 158.1-29.2 18.9-61.1 31.3-95.2 38.5-33.8 7.1-67.8 8.4-101.9 4.4-34.2-4-66.7-14.1-97.3-29.9-8.1-4.1-15.9-8.7-23.8-13.1.3-.4.5-.8.7-1.2z"/></symbol><symbol viewBox="0 0 284.929 284.929" id="up-arrow" xmlns="http://www.w3.org/2000/svg"><path d="M282.082 195.285L149.028 62.24c-1.901-1.903-4.088-2.856-6.562-2.856s-4.665.953-6.567 2.856L2.856 195.285C.95 197.191 0 199.378 0 201.853c0 2.474.953 4.664 2.856 6.566l14.272 14.271c1.903 1.903 4.093 2.854 6.567 2.854s4.664-.951 6.567-2.854l112.204-112.202 112.208 112.209c1.902 1.903 4.093 2.848 6.563 2.848 2.478 0 4.668-.951 6.57-2.848l14.274-14.277c1.902-1.902 2.847-4.093 2.847-6.566.001-2.476-.944-4.666-2.846-6.569z"/></symbol></svg>