<svg xmlns="http://www.w3.org/2000/svg" width="478.125" height="478.125" style="enable-background:new 0 0 478.125 478.125" xml:space="preserve"><path d="M239.062 0C107.1 0 0 107.1 0 239.062c0 13.388 1.913 24.862 3.825 38.25 0 3.825 1.912 5.737 1.912 9.562 22.95 109.013 118.575 191.25 235.237 191.25 130.051 0 237.15-107.1 237.15-239.062C478.125 107.1 371.025 0 239.062 0zm9.563 47.812c0-9.562 0-19.125-1.912-28.688 95.625 3.825 175.949 68.85 202.725 156.825-45.9 7.65-86.062 26.775-118.575 55.462-26.774-36.337-61.2-68.85-99.45-93.712 11.475-28.686 17.212-59.286 17.212-89.887zm-21.038-28.687c1.913 9.562 1.913 19.125 1.913 28.688 0 26.775-5.737 53.55-15.3 78.413-38.25-22.95-82.238-38.25-128.138-45.9C122.4 45.9 172.125 22.95 227.587 19.125zM19.125 239.062c0-53.55 19.125-103.275 51.638-141.525 49.725 5.737 95.625 21.038 137.7 45.9C174.038 214.2 103.275 262.013 22.95 267.75c-3.825-9.562-3.825-19.125-3.825-28.688zM239.062 459c-105.188 0-193.163-74.588-214.2-172.125 87.975-5.737 162.562-57.375 198.9-131.962 36.337 24.862 66.938 53.55 93.712 89.887-42.074 42.075-68.85 101.362-68.85 166.388 0 15.3 1.912 32.513 3.825 47.812h-13.387zm32.513-1.912c-3.825-15.301-3.825-30.601-3.825-45.9 0-59.287 22.95-110.925 59.287-151.088 26.775 43.988 45.9 93.713 51.638 147.263-28.688 24.862-65.025 42.075-107.1 49.725zM397.8 392.062c-7.649-53.55-26.774-101.362-55.462-145.35 30.6-26.775 68.85-45.9 112.837-53.55 3.825 15.3 3.825 30.6 3.825 45.9 0 59.288-22.95 112.838-61.2 153z"/></svg>