<?xml version="1.0" encoding="iso-8859-1"?>
<!-- Generator: Adobe Illustrator 16.0.0, SVG Export Plug-In . SVG Version: 6.00 Build 0)  -->
<!DOCTYPE svg PUBLIC "-//W3C//DTD SVG 1.1//EN" "http://www.w3.org/Graphics/SVG/1.1/DTD/svg11.dtd">
<svg version="1.1" id="Capa_1" xmlns="http://www.w3.org/2000/svg" xmlns:xlink="http://www.w3.org/1999/xlink" x="0px" y="0px"
	 width="44.557px" height="44.557px" viewBox="0 0 44.557 44.557" style="enable-background:new 0 0 44.557 44.557;"
	 xml:space="preserve">
<g>
	<path d="M6.519,6.519c-8.69,8.69-8.69,22.829-0.001,31.521c8.69,8.69,22.831,8.689,31.521,0c8.688-8.689,8.688-22.831,0-31.521
		C29.348-2.173,15.21-2.173,6.519,6.519z M31.47,8.843l-9.191,9.192L19.744,15.5c1.828-2.788,3.2-5.961,3.594-9.452
		C26.197,6.233,29.012,7.16,31.47,8.843z M24.352,28.592c-3.558,3.399-6.08,7.088-7.319,9.084c-1.381-0.467-2.709-1.116-3.947-1.965
		l9.193-9.19L24.352,28.592z M8.843,31.469c-0.847-1.234-1.496-2.562-1.963-3.94c1.873-1.163,5.238-3.452,8.455-6.668
		c0.211-0.211,0.42-0.432,0.631-0.651l2.069,2.07L8.843,31.469z M15.384,11.141l-2.298-2.297c1.261-0.863,2.615-1.523,4.022-1.992
		C16.757,8.354,16.156,9.791,15.384,11.141z M8.843,13.086l2.875,2.875c-1.906,2.006-3.966,3.664-5.652,4.877
		C6.306,18.109,7.236,15.435,8.843,13.086z M28.587,32.827l2.885,2.886c-2.353,1.608-5.026,2.539-7.759,2.777
		C24.923,36.799,26.578,34.737,28.587,32.827z M35.714,31.469l-2.306-2.307c1.353-0.771,2.791-1.371,4.299-1.721
		C37.237,28.852,36.577,30.209,35.714,31.469z M38.508,21.22c-3.491,0.396-6.667,1.762-9.454,3.591l-2.532-2.534l9.19-9.192
		C37.396,15.544,38.324,18.36,38.508,21.22z"/>
</g>
<g>
</g>
<g>
</g>
<g>
</g>
<g>
</g>
<g>
</g>
<g>
</g>
<g>
</g>
<g>
</g>
<g>
</g>
<g>
</g>
<g>
</g>
<g>
</g>
<g>
</g>
<g>
</g>
<g>
</g>
</svg>
