<svg xmlns="http://www.w3.org/2000/svg" width="36" height="36" viewBox="0 0 36 36">
  <defs>
    <style>
      .cls-1 {
        fill: #03a9f4;
      }

      .cls-2 {
        fill: #020f16;
      }
    </style>
  </defs>
  <g id="Слой_2" data-name="Слой 2">
    <g id="Слой_1-2" data-name="Слой 1">
      <path class="cls-1" d="M0,4A4,4,0,0,1,4,0H32a4,4,0,0,1,4,4V32a4,4,0,0,1-4,4H4a4,4,0,0,1-4-4Z"/>
      <path class="cls-2" d="M14,13.17H12v4.44h2a1.57,1.57,0,0,0,1.27-.54,2.38,2.38,0,0,0,.45-1.56,2.88,2.88,0,0,0-.46-1.7A1.49,1.49,0,0,0,14,13.17Z"/>
      <path class="cls-2" d="M3,3V33H33V3ZM17.36,18.79A4.68,4.68,0,0,1,13.93,20H12v5H9.14V10.78H14a4.46,4.46,0,0,1,3.36,1.31,4.7,4.7,0,0,1,1.26,3.4A4.4,4.4,0,0,1,17.36,18.79Zm9.32,5.55a4.32,4.32,0,0,1-2.79.85,4.45,4.45,0,0,1-2.05-.45,3.39,3.39,0,0,1-1.39-1.26,3.24,3.24,0,0,1-.51-1.75h2.63a1.6,1.6,0,0,0,.34,1.08,1.32,1.32,0,0,0,1,.36c.74,0,1.11-.33,1.11-1a.84.84,0,0,0-.34-.65,6.49,6.49,0,0,0-1.49-.81,6.22,6.22,0,0,1-2.35-1.43,2.72,2.72,0,0,1-.64-1.85,2.94,2.94,0,0,1,1-2.29,3.8,3.8,0,0,1,2.65-.9,4.11,4.11,0,0,1,2.78.9,3,3,0,0,1,1,2.41H25c0-.86-.36-1.29-1.07-1.29a1,1,0,0,0-1,1,.78.78,0,0,0,.32.62,6.3,6.3,0,0,0,1.47.77,6.17,6.17,0,0,1,2.39,1.39,2.87,2.87,0,0,1,.7,2A2.81,2.81,0,0,1,26.68,24.34Z"/>
    </g>
  </g>
</svg>
