<svg version="1.0" xmlns="http://www.w3.org/2000/svg" viewBox="0 0 980 798"><path d="M0 399v398h980V1H0v398m950 0v368H30V31h920v368" fill="#000000FF" stroke="#000000FF"/><path d="M144 601v71h141V530H144v71m111-.5V642h-81v-83h81v41.5M144 197v71h141V126H144v71m111 .5V239h-81v-83h81v41.5M144 399v70h141V329H144v70m111 0v41h-81v-82h81v41m107 31v15h459v-30H362v15m18.383-217.252-17.117.298-.633 4.617c-.348 2.539-.633 9.053-.633 14.477V242h459v-30l-211.75.225c-116.462.123-219.453.359-228.867.523M362.546 631.75c.389 7.563.913 13.975 1.164 14.25.251.275 103.244.624 228.873.775L821 647.05V618H361.839l.707 13.75M362 368v15h244v-30H362v15m.529 202.25c.393 7.838.855 14.408 1.027 14.601.172.193 54.793.6 121.379.904l121.065.553V556H361.814l.715 14.25m4.343-418.529c-3.309.351-3.681.709-4.239 4.082-.336 2.033-.616 8.31-.622 13.947L362 180h244v-29l-117.75.168c-64.762.093-119.382.341-121.378.553" fill="#000000FF" stroke="#000000FF"/></svg>